<svg width="16" height="16" viewBox="0 0 16 16" fill="none" xmlns="http://www.w3.org/2000/svg">
<g clip-path="url(#clip0)">
<path d="M16 7.99999L14.2259 6.03011L14.4734 3.41929L11.8475 2.83952L10.4725 0.571289L8 1.60658L5.52753 0.571289L4.15247 2.83011L1.52659 3.40329L1.77412 6.0207L0 7.99999L1.77412 9.97647L1.52659 12.5939L4.15247 13.1736L5.52659 15.4325L8 14.3887L10.4725 15.424L11.8466 13.1652L14.4725 12.5854L14.2249 9.97458L16 7.99999ZM6.61082 11.3393L3.84753 8.64376L4.92329 7.59623L6.61082 9.24423L10.8659 5.08894L11.9426 6.13647L6.61082 11.3393Z" fill="#F6BC2B"/>
</g>
<defs>
<clipPath id="clip0">
<rect width="16" height="14.8574" fill="white" transform="translate(0 0.571289)"/>
</clipPath>
</defs>
</svg>
