<svg width="101" height="61" viewBox="0 0 101 61" fill="none" xmlns="http://www.w3.org/2000/svg">
<path d="M2 54.3834C2.5 56.0501 3.7 59.0834 4.5 57.8834C5.3 56.6834 6.5 55.0501 7 54.3834L10.5 49.8834C10.8333 49.8834 11.9 49.8834 13.5 49.8834C17.5 49.8834 18.5 49.8834 19 48.3834C19.4 47.1834 20.1667 44.2168 20.5 42.8834V37.3834C21.3333 36.8834 23.3 35.8834 24.5 35.8834C26 35.8834 26.5 37.3834 28 34.8834C29.5 32.3834 30 29.8834 30.5 28.8834C30.9 28.0834 32.3333 42.5501 33 49.8834C32.8333 51.8834 32.9 55.8834 34.5 55.8834C36.1 55.8834 38.8333 54.8834 40 54.3834C39 52.8834 37.8 50.6834 41 53.8834C44.2 57.0834 46.3333 57.8834 47 57.8834H51.5C52 57.8834 53.3 57.8834 54.5 57.8834C56 57.8834 56.5 61.3834 58 57.8834C59.5 54.3834 60 52.8834 61 49.8834C62 46.8834 62.5 39.8834 62.5 37.3834C62.5 35.3834 63.5 13.5501 64 2.88344H67.5C68.1667 2.21678 69.7 1.28344 70.5 2.88344C71.5 4.88344 71.5 7.88342 72.5 9.38342C73.5 10.8834 74.5 11.8834 75 13.8834C75.5 15.8834 76 17.3834 76.5 18.8834C76.9 20.0834 78.6667 24.0501 79.5 25.8834L81 27.3834L82 20.8834C81.1667 20.2168 80 18.8834 82 18.8834C84 18.8834 88.1667 18.8834 90 18.8834C90.5 18.2168 91.6 17.2834 92 18.8834C92.5 20.8834 90.5 22.3834 92 23.3834C93.5 24.3834 92.5 22.8834 94.5 25.8834C96.5 28.8834 97.5 28.8834 98 30.3834C98.5 31.8834 98.5 32.8834 99 33.8834" stroke="#EFBE41" stroke-width="3" stroke-linejoin="round"/>
</svg>
