<svg width="107" height="62" viewBox="0 0 107 62" fill="none" xmlns="http://www.w3.org/2000/svg">
<circle cx="31" cy="31" r="30.5" fill="white" stroke="#F5F5F5"/>
<path d="M31.8158 19.9025L24.5282 27.1899L20.2878 22.9494L31.8158 11.421L43.3476 22.9533L39.1072 27.1937L31.8158 19.9025Z" fill="#F0B90A"/>
<path d="M21.5335 30.1834L17.2931 25.9433L13.0527 30.1837L17.2931 34.4242L21.5335 30.1834Z" fill="#F0B90A"/>
<path d="M31.8158 40.4658L24.5282 33.1785L20.2816 37.4133L20.2875 37.4191L31.8158 48.9473L43.3476 37.4153L43.3496 37.4129L39.1069 33.1749L31.8158 40.4658Z" fill="#F0B90A"/>
<path d="M46.339 34.426L50.5791 30.1854L46.3387 25.9451L42.0983 30.1858L46.339 34.426Z" fill="#F0B90A"/>
<path d="M36.1186 30.1819H36.1203L31.8175 25.8789L27.5183 30.1902L31.8175 34.4893L36.1203 30.1863L36.1225 30.184L36.1186 30.1819Z" fill="#F0B90A"/>
<circle cx="76" cy="31" r="30" fill="white" stroke="#F5F5F5" stroke-width="2"/>
<path d="M92.5487 21.1023L75.9267 11.421L59.7186 20.9282L59.6841 40.0818L76.0302 49.7631L92.5487 40.2908V21.1023ZM75.9612 14.3463L88.2381 21.5202L76.0302 28.6941L63.7534 21.5202L75.9612 14.3463ZM74.5473 45.7931L62.2015 38.654V24.3758L74.5128 31.5498V45.7931H74.5473ZM77.72 31.7587L90.0313 24.5848V38.8281L77.72 46.0369V31.7587Z" fill="#4AA956"/>
</svg>
