<svg width="10" height="15" viewBox="0 0 10 15" fill="none" xmlns="http://www.w3.org/2000/svg">
<path d="M5.41985 7.5C5.41882 6.23089 5.80966 4.99051 6.54207 3.93844C7.27449 2.88638 8.31497 2.07077 9.52966 1.59653C9.67894 1.53173 9.80338 1.42304 9.88534 1.28586C9.96731 1.14868 10.0026 0.989979 9.98632 0.832253C9.97001 0.674527 9.90288 0.525779 9.79445 0.407096C9.68602 0.288412 9.5418 0.205817 9.38222 0.171017C8.32086 -0.0524797 7.22284 -0.0569654 6.15958 0.157852C5.09631 0.372669 4.09161 0.801977 3.21081 1.41786C2.33002 2.03374 1.59285 2.82239 1.04726 3.73254C0.501672 4.64269 0.159873 5.65394 0.0440951 6.70052C-0.0716826 7.74711 0.0411539 8.80559 0.375266 9.80714C0.709378 10.8087 1.25728 11.7309 1.98335 12.5137C2.70941 13.2965 3.59738 13.9225 4.58949 14.3508C5.58161 14.7792 6.65565 15.0004 7.74178 15C8.29339 15 8.84339 14.9423 9.38222 14.8279C9.54323 14.7952 9.68939 14.7139 9.79966 14.5956C9.90992 14.4774 9.97858 14.3282 9.99576 14.1697C10.0129 14.0111 9.97772 13.8514 9.89521 13.7135C9.81269 13.5756 9.68714 13.4666 9.53663 13.4023C8.31972 12.9308 7.27683 12.1162 6.54288 11.0639C5.80894 10.0116 5.41773 8.77011 5.41985 7.5Z" fill="#232323"/>
</svg>
