<svg width="44" height="44" viewBox="0 0 44 44" fill="none" xmlns="http://www.w3.org/2000/svg">
<rect width="44" height="44" rx="12" fill="#EFBE41"/>
<path fill-rule="evenodd" clip-rule="evenodd" d="M30.7577 12C31.7646 14.5166 31.7553 17.1462 31.5663 17.6089C32.7499 18.8851 33.4732 20.4182 33.4732 22.5129C33.4732 31.6187 25.8679 31.7644 23.9474 31.7644C23.553 31.7644 22.8024 31.7655 21.9828 31.7666L21.7366 31.7669L21.4881 31.7666C20.6695 31.7655 19.9204 31.7644 19.5258 31.7644C17.6053 31.7644 10 31.6187 10 22.5129C10 20.4182 10.7233 18.8851 11.9069 17.6089C11.7179 17.1462 11.7086 14.5166 12.7161 12C12.7161 12 15.0264 12.2514 18.522 14.6346C19.2559 14.4332 20.4962 14.3331 21.7366 14.3331C22.977 14.3331 24.218 14.4338 24.9506 14.6346C28.4468 12.2514 30.7577 12 30.7577 12ZM21.7008 30.6452H21.7725C26.5845 30.6452 30.3316 30.0745 30.3316 25.4298C30.3316 24.3179 29.9362 23.2845 28.9973 22.4277C27.8548 21.3857 26.1348 21.5064 24.1199 21.6479C23.3734 21.7004 22.5863 21.7556 21.7731 21.7556C21.7614 21.7556 21.7496 21.7556 21.7367 21.755C21.7249 21.7556 21.7126 21.7556 21.7008 21.7556C20.8877 21.7556 20.1006 21.7004 19.3541 21.6479C17.3394 21.5064 15.6195 21.3857 14.476 22.4277C13.5371 23.2845 13.1424 24.3179 13.1424 25.4298C13.1424 30.0745 16.8894 30.6452 21.7008 30.6452Z" fill="white"/>
<path d="M17.6793 23.5423C16.7639 23.5423 16.0214 24.5627 16.0214 25.8222C16.0214 27.0817 16.7639 28.1028 17.6793 28.1028C18.596 28.1028 19.3385 27.0817 19.3385 25.8222C19.3379 24.5627 18.5954 23.5423 17.6793 23.5423Z" fill="white"/>
<path d="M25.8994 23.5423C24.9839 23.5423 24.2415 24.5627 24.2415 25.8222C24.2415 27.0817 24.9839 28.1028 25.8994 28.1028C26.8161 28.1028 27.5586 27.0817 27.5586 25.8222C27.558 24.5627 26.8155 23.5423 25.8994 23.5423Z" fill="white"/>
</svg>
