<svg width="16" height="16" viewBox="0 0 16 16" fill="none" xmlns="http://www.w3.org/2000/svg">
<path d="M4.18857 3.13439L2.88 1.82676L1.85143 2.85698L3.15657 4.1646L4.18857 3.13439ZM2.18171 7.26906H0V8.73094H2.18171V7.26906ZM8.72686 0H7.27314V2.15482H8.72686V0ZM14.1451 2.85698L13.1166 1.82676L11.8183 3.13439L12.8469 4.1646L14.1451 2.85698ZM11.8103 12.8714L13.112 14.1859L14.1406 13.1557L12.832 11.8481L11.8137 12.8714H11.8103ZM13.8171 7.27482V8.73094H16V7.26906L13.8171 7.27482ZM8 3.61669C7.13975 3.61897 6.29946 3.87798 5.58528 4.361C4.8711 4.84403 4.31507 5.5294 3.98743 6.33054C3.65979 7.13168 3.57524 8.01266 3.74445 8.86218C3.91366 9.71169 4.32905 10.4916 4.93814 11.1035C5.54723 11.7154 6.3227 12.1317 7.16659 12.2999C8.01048 12.4681 8.88494 12.3806 9.6795 12.0485C10.4741 11.7164 11.1531 11.1546 11.6308 10.434C12.1085 9.71346 12.3634 8.86645 12.3634 8C12.361 6.83623 11.9001 5.72099 11.082 4.89916C10.2639 4.07733 9.15546 3.61608 8 3.61669ZM7.27314 16H8.72686V13.8452H7.27314V16ZM1.85486 13.143L2.88343 14.1732L4.18514 12.8587L3.15657 11.8285L1.85486 13.143Z" fill="white"/>
</svg>
