<svg width="13" height="16" viewBox="0 0 13 16" fill="none" xmlns="http://www.w3.org/2000/svg">
<g clip-path="url(#clip0)">
<path d="M8 0H1.6C1.17704 0.00211482 0.772128 0.171619 0.473797 0.471448C0.175467 0.771277 0.00799461 1.17704 0.0079999 1.6L1.2518e-10 14.4C-5.28696e-06 14.823 0.167467 15.2287 0.465797 15.5286C0.764128 15.8284 1.16904 15.9979 1.592 16H11.2C11.6243 16 12.0313 15.8314 12.3314 15.5314C12.6314 15.2313 12.8 14.8243 12.8 14.4V4.8L8 0ZM9.6 12.8H3.2V11.2H9.6V12.8ZM9.6 9.6H3.2V8H9.6V9.6ZM7.2 5.6V1.2L11.6 5.6H7.2Z" fill="#232323"/>
</g>
<defs>
<clipPath id="clip0">
<rect width="12.8" height="16" fill="white"/>
</clipPath>
</defs>
</svg>
