<svg width="38" height="38" viewBox="0 0 38 38" fill="none" xmlns="http://www.w3.org/2000/svg">
<circle opacity="0.2" cx="19" cy="19" r="19" fill="white"/>
<path d="M25.7681 15.9713L25.616 16.0017C25.2299 16.095 24.859 16.2424 24.5141 16.4395L24.4122 16.4585C24.3187 16.4007 24.2481 16.4706 24.1766 16.5063C24.011 16.5892 23.8156 16.6188 23.6659 16.6918C23.3801 16.7694 23.0994 16.8646 22.8253 16.9768C22.5723 17.1328 22.2888 17.2329 21.9939 17.2701C21.6958 17.3249 21.4086 17.4275 21.1434 17.5741C20.8311 17.7261 20.4929 17.7786 20.1805 17.923C19.9131 18.0624 19.6309 18.1712 19.3392 18.2475C19.1814 18.2873 19.0286 18.3441 18.8832 18.417C18.6894 18.4965 18.5081 18.6038 18.3451 18.7354C18.1945 18.8777 18.0769 19.0511 18.0003 19.2435C17.9236 19.4359 17.8898 19.6428 17.9013 19.8496C17.9099 23.8158 17.9099 27.7819 17.9013 31.7481C17.9013 32.1699 17.8109 32.2741 17.4043 32.3387C17.2947 32.3573 17.184 32.3685 17.0729 32.3721C16.4334 32.3882 15.7946 32.3202 15.1729 32.1699C14.7929 32.0772 14.4236 31.942 14.0474 31.8363C13.8354 31.7834 13.6311 31.7037 13.4393 31.5992C12.9674 31.3218 12.4681 31.0976 12.0007 30.8065C11.606 30.5599 11.2254 30.2914 10.8607 30.0024C10.4394 29.6559 10.0642 29.257 9.74416 28.8153C9.43439 28.4307 9.26554 27.9518 9.26545 27.4579C9.27254 23.3372 9.27372 19.2165 9.26916 15.0958C9.25511 14.9573 9.27113 14.8174 9.3161 14.6856C9.36108 14.5538 9.43404 14.4333 9.52985 14.3323C9.62567 14.2313 9.74215 14.1521 9.87135 14.1003C10.0006 14.0484 10.1394 14.0251 10.2784 14.0318C11.6654 13.9778 13.0556 14.0021 14.4433 13.9299C14.7405 13.9147 14.7807 13.9702 14.7815 14.2757C14.7815 14.7819 14.7716 15.2888 14.7815 15.7957C14.7959 16.3528 14.8712 16.5253 15.4982 16.6903C15.9014 16.7953 16.3256 16.789 16.7255 16.672C16.9022 16.6534 17.0644 16.5655 17.1763 16.4276C17.2883 16.2897 17.341 16.1131 17.3229 15.9363C17.3229 15.361 17.3229 14.7857 17.3229 14.2111C17.3229 13.8471 17.3541 13.8228 17.7227 13.8167C18.5202 13.8035 19.3177 13.7891 20.1152 13.7734C21.0779 13.7556 22.0382 13.7377 22.9963 13.7194C23.3527 13.7133 23.3846 13.746 23.3846 14.0926C23.3846 14.2301 23.3846 14.3677 23.3846 14.5045C23.4043 14.6346 23.4565 14.7578 23.5361 14.8625C23.6158 14.9673 23.7206 15.0504 23.8407 15.1041C24.3881 15.315 24.9932 15.321 25.5446 15.1209C25.6829 15.0924 25.8066 15.0156 25.8934 14.9041C25.9802 14.7927 26.0244 14.654 26.0181 14.5129C26.0181 14.2894 26.031 14.066 26.0181 13.8433C26.0052 13.6206 26.0941 13.5606 26.3038 13.5644C26.7598 13.5735 27.2159 13.5765 27.6719 13.5644C28.0534 13.609 28.4284 13.6983 28.7891 13.8304C28.8901 13.8501 28.9684 13.9512 29.0574 14.0128C29.0988 14.0535 29.1298 14.1037 29.1474 14.159C29.1651 14.2144 29.169 14.2732 29.1589 14.3304C29.1487 14.3876 29.1247 14.4414 29.089 14.4873C29.0533 14.5331 29.0069 14.5695 28.9539 14.5934C28.7259 14.6823 28.498 14.7789 28.2829 14.8792C27.9424 14.9898 27.6118 15.1291 27.2949 15.2957C26.9696 15.5176 26.5523 15.5754 26.2103 15.7844L26.1024 15.8239C25.9806 15.8451 25.8659 15.8957 25.7681 15.9713ZM10.4738 28.6048C10.451 28.6808 10.4677 28.7211 10.5498 28.7173L10.6836 28.8586C10.6289 28.9833 10.717 29.0441 10.7922 29.117C11.1872 29.5198 11.6282 29.8747 12.1063 30.1742C12.5231 30.4661 12.9667 30.7181 13.431 30.9266C14.088 31.1952 14.7584 31.4299 15.4396 31.6296C15.857 31.746 16.2884 31.8043 16.7217 31.8029C17.3229 31.7884 17.3533 31.7527 17.3533 31.1599C17.3533 28.886 17.3533 26.6121 17.3533 24.3381C17.3533 23.9863 17.2622 23.9247 16.9331 24.0455C16.8643 24.082 16.7882 24.1027 16.7104 24.1059C16.6326 24.1091 16.5551 24.0948 16.4836 24.0641C16.4121 24.0334 16.3484 23.9871 16.2971 23.9285C16.2459 23.8699 16.2084 23.8006 16.1875 23.7256C16.0911 23.5016 16.0163 23.269 15.9641 23.0309C15.8987 22.6927 16.0826 22.3819 15.9694 22.0619C15.9667 22.0277 15.9767 21.9936 15.9975 21.9662C16.1318 21.7116 16.1911 21.424 16.1684 21.137C16.152 20.9827 16.1784 20.8268 16.2445 20.6863C16.2898 20.608 16.318 20.521 16.327 20.4309C16.336 20.3409 16.3258 20.25 16.2969 20.1642C16.2408 19.9682 16.2089 19.7661 16.2019 19.5623C16.1878 19.4338 16.1447 19.3102 16.076 19.2007C16.0073 19.0912 15.9148 18.9986 15.8052 18.93C15.725 18.8633 15.6248 18.8253 15.5205 18.8222C15.4163 18.819 15.314 18.8508 15.2299 18.9125C14.9763 19.1482 14.805 19.4591 14.7412 19.7994C14.7367 19.8091 14.7343 19.8197 14.7342 19.8304C14.734 19.8411 14.7361 19.8517 14.7403 19.8615C14.7445 19.8713 14.7508 19.8802 14.7587 19.8874C14.7665 19.8947 14.7759 19.9001 14.786 19.9035C14.7774 20.2106 14.7688 20.5176 14.7602 20.8247C14.6599 20.8057 14.6295 20.8839 14.5945 20.9485C14.5503 21.0598 14.4749 21.1559 14.3775 21.2255C14.28 21.295 14.1646 21.335 14.045 21.3407L13.9477 21.3057C13.9553 21.1393 13.8581 21.0876 13.7114 21.0914L13.6727 21.0055C13.6561 20.7024 13.6752 20.3983 13.7296 20.0996C13.7385 20.0857 13.7487 20.0728 13.76 20.0609C13.8664 20.0609 13.9401 20.0358 13.8603 19.9089C13.8702 19.8086 13.8801 19.7082 13.89 19.6049C13.9835 19.5349 13.9903 19.4643 13.89 19.3921C13.8834 19.3105 13.8766 19.2292 13.8695 19.1481C13.8731 18.9861 13.8326 18.8262 13.7523 18.6855C13.6719 18.5448 13.5548 18.4286 13.4134 18.3494C13.4036 18.3357 13.3937 18.322 13.3846 18.3075C13.3304 18.2205 13.2564 18.1476 13.1685 18.0947C13.0807 18.0419 12.9814 18.0106 12.8792 18.0035C12.67 18.0056 12.4693 18.0859 12.3165 18.2287C12.1637 18.3715 12.07 18.5664 12.0538 18.7749C12.0455 19.4073 12.0425 20.0396 12.0615 20.675C12.0683 20.8969 11.9026 20.9713 11.7863 21.0663C11.67 21.1613 11.6199 20.9698 11.534 20.9144C11.4922 20.8885 11.4656 20.8383 11.4063 20.8383C11.4063 20.6863 11.4063 20.5323 11.4063 20.3763C11.4291 20.3542 11.4648 20.3352 11.4724 20.3086C11.6144 19.7632 11.6751 19.1998 11.6526 18.6366C11.633 18.3282 11.5466 18.0276 11.3995 17.7558C11.354 17.6233 11.2805 17.5021 11.184 17.4006C11.0875 17.2991 10.9701 17.2196 10.8401 17.1675C10.6182 17.0915 10.3036 17.2253 10.3081 17.4328C10.2862 17.6746 10.2832 17.9178 10.299 18.1601C10.217 18.2574 10.2123 18.3463 10.3256 18.4238C10.3549 18.5147 10.3598 18.6116 10.34 18.7049C10.3201 18.7983 10.2761 18.8848 10.2124 18.9558C9.97603 18.9627 9.89243 19.1162 9.88787 19.3199C9.88027 19.7052 9.88787 20.0913 9.88787 20.4773C9.88787 22.8354 9.88787 25.1934 9.88787 27.5514C9.88787 27.6715 9.81185 27.841 10.0193 27.8889L10.0353 27.9785C9.9874 28.2537 10.0672 28.3844 10.2975 28.4064L10.3567 28.5136C10.3408 28.6048 10.3856 28.623 10.4632 28.601L10.4738 28.6048Z" fill="#F7BD01"/>
<path d="M27.2935 15.2941C27.6104 15.1276 27.9409 14.9883 28.2814 14.8776C28.498 14.7773 28.7261 14.6808 28.9525 14.5919C29.0055 14.568 29.0518 14.5316 29.0875 14.4857C29.1232 14.4399 29.1472 14.386 29.1574 14.3288C29.1676 14.2716 29.1637 14.2128 29.146 14.1575C29.1283 14.1021 29.0974 14.0519 29.0559 14.0112C28.967 13.9497 28.8894 13.8486 28.7876 13.8288C28.4267 13.6966 28.0515 13.6074 27.6697 13.5628C27.2137 13.5765 26.7576 13.5742 26.3016 13.5628C26.0949 13.5583 25.9977 13.6206 26.0159 13.8418C26.0341 14.0629 26.0205 14.2879 26.0159 14.5113C26.022 14.6525 25.9777 14.7912 25.8907 14.9027C25.8038 15.0141 25.6801 15.0909 25.5416 15.1193C24.9902 15.3194 24.385 15.3135 23.8377 15.1026C23.7175 15.0488 23.6129 14.9658 23.5332 14.861C23.4535 14.7562 23.4014 14.6331 23.3817 14.503C23.3779 14.3654 23.3817 14.2286 23.3817 14.091C23.3817 13.7452 23.3498 13.711 22.9933 13.7179C22.0307 13.7346 21.0703 13.7523 20.1122 13.7711C19.3147 13.7858 18.5172 13.8002 17.7197 13.8144C17.3511 13.8205 17.3215 13.8448 17.32 14.2088C17.32 14.7842 17.32 15.3595 17.32 15.934C17.338 16.1107 17.2853 16.2874 17.1733 16.4253C17.0613 16.5632 16.8993 16.6511 16.7226 16.6697C16.3226 16.7867 15.8985 16.793 15.4952 16.688C14.8682 16.523 14.793 16.3505 14.7785 15.7934C14.7649 15.2873 14.7785 14.7803 14.7785 14.2734C14.7785 13.9694 14.7374 13.9124 14.4403 13.9276C13.0525 14.0036 11.6633 13.9755 10.2755 14.0295C10.1365 14.0229 9.99764 14.0463 9.8685 14.0982C9.73935 14.1502 9.62297 14.2293 9.52718 14.3303C9.43139 14.4313 9.35846 14.5517 9.31343 14.6834C9.26841 14.8151 9.25229 14.955 9.26621 15.0935C9.26621 19.2142 9.26494 23.3349 9.26241 27.4556C9.26255 27.9494 9.4315 28.4284 9.74121 28.813C10.0614 29.255 10.4369 29.6542 10.8585 30.0009C11.2219 30.2899 11.6013 30.5583 11.9947 30.805C12.4621 31.096 12.9614 31.3202 13.4333 31.5976C13.6251 31.7021 13.8295 31.7818 14.0414 31.8347C14.4214 31.9389 14.7846 32.0757 15.1669 32.1684C15.7886 32.3187 16.4274 32.3867 17.0669 32.3706C17.178 32.3669 17.2887 32.3557 17.3983 32.3371C17.8041 32.2725 17.8945 32.1676 17.8945 31.7466C17.8945 27.7804 17.8945 23.8142 17.8945 19.848C17.8831 19.6412 17.9169 19.4344 17.9936 19.242C18.0702 19.0496 18.1879 18.8762 18.3383 18.7339C18.5014 18.6023 18.6826 18.495 18.8764 18.4154C19.0218 18.3425 19.1747 18.2857 19.3324 18.246C19.6241 18.1697 19.9064 18.0608 20.1738 17.9214C20.4861 17.777 20.8243 17.7231 21.1367 17.5726C21.4019 17.4261 21.6891 17.3234 21.9871 17.2686C22.282 17.2313 22.5655 17.1313 22.8186 16.9752C23.0926 16.863 23.3733 16.7678 23.6591 16.6902C23.8111 16.6142 24.0041 16.5876 24.1698 16.5048C24.242 16.4683 24.312 16.3984 24.4054 16.4569C24.406 16.5002 24.3909 16.5422 24.363 16.5753C24.335 16.6084 24.2962 16.6303 24.2535 16.637C23.9799 16.6811 23.7541 16.8468 23.4729 16.8947C23.1761 16.987 22.8891 17.1079 22.6157 17.2557C22.5123 17.3101 22.4032 17.3529 22.2904 17.3834C22.0088 17.4428 21.7381 17.5453 21.4878 17.6874C21.1975 17.8333 20.8798 17.8925 20.5857 18.024C20.2444 18.176 19.8887 18.3083 19.5338 18.4314C19.2845 18.5173 19.0436 18.6229 18.7974 18.7134C18.6483 18.7742 18.5137 18.8656 18.4022 18.9816C18.3049 19.0824 18.2312 19.2036 18.1864 19.3363C18.1416 19.4691 18.1268 19.6101 18.1431 19.7492C18.1431 22.9002 18.1431 26.0514 18.1431 29.2029C18.1431 30.0016 18.1431 30.7989 18.1431 31.5984C18.162 31.8117 18.0966 32.0239 17.9609 32.1896C17.8253 32.3552 17.63 32.4611 17.4172 32.4846C16.6972 32.5884 15.9635 32.54 15.2634 32.3424C14.5733 32.2299 13.9417 31.9047 13.2562 31.7641C13.0391 31.6941 12.8352 31.5886 12.6528 31.4517C11.9688 31.0307 11.3547 30.4987 10.6897 30.051C10.0268 29.5631 9.50072 28.9127 9.16212 28.1624C9.1247 28.0657 9.11195 27.9613 9.12492 27.8584C9.12492 23.5224 9.12492 19.1863 9.12492 14.8503C9.12755 14.6933 9.17467 14.5403 9.26092 14.4091C9.34717 14.2779 9.46899 14.1739 9.61207 14.1093C9.91692 13.9512 10.2567 13.8728 10.6 13.8813C11.8996 13.8106 13.1985 13.689 14.5026 13.7224C14.6979 13.7277 14.7519 13.6403 14.7481 13.4572C14.739 12.9419 14.7481 12.4266 14.7428 11.9113C14.7312 11.0981 14.8864 10.2911 15.1988 9.54015C15.7594 8.17612 16.7371 7.02429 17.9918 6.24936C19.0438 5.57759 20.2814 5.25594 21.5273 5.33051C22.0848 5.34898 22.6335 5.47412 23.1438 5.69912C23.7647 5.96453 24.3205 6.36181 24.7725 6.86343C25.0601 7.16581 25.3029 7.50772 25.4938 7.87879C25.7749 8.39473 25.9568 8.95875 26.0303 9.54168C26.1017 10.7432 26.0485 11.944 26.0698 13.1441C26.0751 13.439 26.1458 13.483 26.4498 13.4481C27.1145 13.3626 27.789 13.3929 28.4433 13.5378C28.769 13.5753 29.07 13.7301 29.29 13.9732C29.3284 14.0088 29.3591 14.0519 29.38 14.0999C29.401 14.1479 29.4119 14.1998 29.4119 14.2522C29.4119 14.3045 29.401 14.3564 29.38 14.4044C29.3591 14.4524 29.3284 14.4955 29.29 14.5311C29.0305 14.8049 28.6965 14.9967 28.3293 15.0828C27.9751 15.2151 27.6271 15.361 27.2745 15.4932C26.9803 15.6042 21.785 17.5452 21.4985 17.6828C21.4628 17.6995 23.0504 16.9152 24.7969 16.1909C25.5341 15.8854 27.1947 15.3618 27.2935 15.2941ZM23.3505 11.5344C23.3505 11.0366 23.3361 10.538 23.3543 10.041C23.3605 9.771 23.308 9.50288 23.2002 9.25524C23.0925 9.0076 22.9322 8.78637 22.7304 8.60687C22.3786 8.29008 21.9426 8.08177 21.4751 8.00707C21.0076 7.93237 20.5285 7.99447 20.0955 8.18584C19.3834 8.44279 18.7572 8.89339 18.2874 9.48695C17.8981 9.93121 17.6273 10.4666 17.5 11.0434C17.4105 11.8099 17.3851 12.5824 17.4241 13.3531C17.4241 13.6707 17.4347 13.6822 17.7615 13.6784C18.7122 13.667 19.6615 13.6578 20.6123 13.5849C21.4141 13.5233 22.222 13.5301 23.0283 13.5195C23.2715 13.5195 23.3643 13.4268 23.3597 13.1821C23.343 12.6333 23.3505 12.0839 23.3505 11.5344Z" fill="black"/>
<path d="M18.7045 25.3816C18.7045 24.7462 18.7083 24.1108 18.7045 23.4755C18.7119 23.3304 18.733 23.1864 18.7676 23.0453C18.8307 22.6957 19.1704 22.6752 19.3992 22.5498C19.7921 22.3347 20.2207 22.1843 20.6349 22.0079C20.7365 21.9637 20.8402 21.9247 20.9457 21.8909C21.1548 21.8211 21.3559 21.7291 21.5454 21.6165C22.0569 21.3315 22.6139 21.1294 23.1505 20.8877C23.7 20.6407 24.2449 20.3846 24.7928 20.1345C25.1888 19.9544 25.5863 19.7788 25.983 19.6025C26.4717 19.3821 26.9581 19.1557 27.4498 18.9406C27.8769 18.7536 28.3071 18.5712 28.7418 18.4017C28.928 18.3257 29.0519 18.4473 29.1165 18.6084C29.1493 18.7063 29.1637 18.8094 29.159 18.9125C29.159 19.9172 29.159 20.9219 29.1636 21.9258C29.1696 22.0056 29.1527 22.0855 29.1145 22.1559C29.0764 22.2262 29.0187 22.2841 28.9485 22.3226C28.3504 22.717 27.6976 23.0111 27.079 23.3683C26.4094 23.7552 25.7421 24.1488 25.0528 24.4962C24.3004 24.8762 23.5723 25.2957 22.8328 25.6962C22.2248 26.0276 21.6168 26.3658 21.0088 26.7146C20.6547 26.93 20.2866 27.1215 19.9068 27.2876C19.637 27.3986 19.431 27.6388 19.1248 27.7003C18.8344 27.7589 18.7091 27.6737 18.7083 27.3697C18.7083 26.7085 18.7083 26.0473 18.7083 25.3861L18.7045 25.3816ZM24.4645 21.3102C24.3329 21.2908 24.1986 21.3177 24.0845 21.3863C23.8224 21.5931 23.6286 21.8741 23.5283 22.1926C23.4905 22.266 23.4732 22.3481 23.478 22.4304C23.4828 22.5128 23.5096 22.5923 23.5556 22.6608C23.8513 22.9458 23.722 23.2384 23.6179 23.5295C23.5241 23.7121 23.4972 23.9218 23.5419 24.1222C23.5731 24.2157 23.6179 24.2963 23.7478 24.2256C24.0996 24.0504 24.4402 23.8537 24.7678 23.6366C24.8021 23.6192 24.8324 23.5949 24.8568 23.5652C24.8812 23.5355 24.8991 23.5011 24.9096 23.4641C24.92 23.4271 24.9226 23.3883 24.9173 23.3503C24.912 23.3122 24.8989 23.2757 24.8788 23.2429C24.7626 23.0433 24.7008 22.8167 24.6994 22.5858C24.6981 22.3548 24.7573 22.1276 24.8711 21.9266C24.9061 21.8599 24.9226 21.785 24.9187 21.7098C24.9149 21.6346 24.8909 21.5618 24.8493 21.499C24.8076 21.4362 24.7498 21.3858 24.682 21.353C24.6142 21.3202 24.5388 21.3062 24.4638 21.3125L24.4645 21.3102Z" fill="#F7BD01"/>
<path d="M18.7047 20.757C18.7047 20.4393 18.6895 20.1209 18.7085 19.8047C18.7 19.6521 18.7403 19.5007 18.8235 19.3724C18.9067 19.2442 19.0285 19.1456 19.1713 19.0911C19.8211 18.8122 20.4846 18.5591 21.1344 18.2855C21.576 18.097 22.0395 17.9389 22.4826 17.7535C23.1088 17.4875 23.7434 17.2428 24.3742 16.9935C24.835 16.7744 25.3107 16.5882 25.7978 16.4364C25.9921 16.3724 26.1802 16.2905 26.3594 16.1917C26.8154 15.9857 27.2942 15.8292 27.7509 15.6179C28.1013 15.456 28.4752 15.3276 28.8416 15.1946C29.0126 15.1323 29.1456 15.282 29.1456 15.4537C29.1577 16.0883 29.1608 16.7237 29.1456 17.3583C29.1395 17.5916 28.9176 17.6669 28.7375 17.7383C28.0778 18.002 27.4454 18.3204 26.7933 18.6054C26.3806 18.7871 25.9657 18.9695 25.55 19.1473C24.9556 19.4019 24.3788 19.6991 23.7784 19.9385C23.3521 20.108 22.9424 20.3124 22.529 20.507C21.9369 20.7851 21.3251 21.0169 20.7407 21.3141C20.3728 21.5018 19.9807 21.6569 19.5954 21.8142C19.4434 21.8757 19.2997 21.9441 19.1538 22.0148C18.8908 22.1425 18.713 22.0323 18.7062 21.7397C18.6963 21.4068 18.7047 21.0831 18.7047 20.757Z" fill="#F7BD01"/>
<path d="M18.7046 30.0518C18.6894 29.643 18.7028 29.2336 18.7449 28.8267C18.7555 28.7651 18.7811 28.707 18.8193 28.6575C18.8574 28.608 18.907 28.5685 18.9638 28.5424C19.4084 28.2954 19.8195 27.9823 20.277 27.7657C20.657 27.5871 21.0036 27.3622 21.3783 27.1798C21.8191 26.9647 22.2356 26.7002 22.665 26.4623C23.1415 26.1986 23.6272 25.9501 24.0976 25.6757C24.4632 25.4629 24.8394 25.2699 25.2057 25.0601C25.5203 24.88 25.8494 24.7196 26.1678 24.5418C26.6649 24.2644 27.1649 23.99 27.6672 23.724C28.0645 23.4617 28.492 23.2481 28.9403 23.0879C29.0695 23.0552 29.1136 23.1115 29.1143 23.1981C29.1196 23.7924 29.1402 24.389 29.0984 24.9803C29.0824 25.2083 28.8004 25.2919 28.6158 25.4074C28.1833 25.6772 27.7661 25.9736 27.3283 26.2305C27.0382 26.4811 26.6991 26.6687 26.3327 26.7815C26.1967 26.7997 26.1693 26.9662 26.0546 27.0354C25.6252 27.2945 25.2056 27.5711 24.7808 27.8394C24.1203 28.2567 23.4569 28.6694 22.7979 29.0896C22.2599 29.4332 21.7234 29.779 21.1921 30.1331C20.6609 30.4873 20.0908 30.8057 19.5634 31.1796C19.4053 31.2921 19.2351 31.3916 19.0694 31.4958C18.871 31.6204 18.7107 31.5292 18.7053 31.2929C18.6985 30.906 18.7046 30.52 18.7046 30.0518Z" fill="#F7BD01"/>
<path d="M10.6888 28.8578C11.0384 29.152 11.3729 29.4659 11.7407 29.7364C12.316 30.1765 12.9469 30.5386 13.6171 30.8133C13.7667 30.8739 13.9126 30.9432 14.0541 31.0208C14.3897 31.1653 14.7374 31.2803 15.0931 31.3644C15.6885 31.581 16.3204 31.6801 16.9535 31.6562C17.1481 31.6448 17.2096 31.5589 17.2119 31.3887C17.2119 31.337 17.2119 31.286 17.2119 31.2366C17.2119 28.9891 17.2119 26.7415 17.2119 24.4939C17.2119 24.4339 17.2119 24.3738 17.2119 24.3138C17.2119 24.2728 17.2157 24.2249 17.1686 24.2014C17.1215 24.1778 17.0972 24.2256 17.0668 24.2507C16.9616 24.3266 16.8341 24.3654 16.7045 24.3612C16.5748 24.3569 16.4502 24.3098 16.3501 24.2272C16.193 24.1375 16.0625 24.0076 15.9718 23.851C15.8812 23.6944 15.8336 23.5166 15.8341 23.3357C15.8341 23.2513 15.7581 23.205 15.7231 23.1381C15.6629 23.0144 15.6326 22.8782 15.6349 22.7406C15.6371 22.603 15.6718 22.4679 15.736 22.3462C15.8008 22.2192 15.8373 22.0797 15.8431 21.9373C15.8663 21.5907 15.9215 21.247 16.0081 20.9105C16.1507 20.4852 16.1193 20.0208 15.9207 19.6185C15.8968 19.5728 15.8841 19.522 15.8835 19.4703C15.8691 19.2378 15.7178 19.1489 15.5149 19.123C15.4249 19.1155 15.3347 19.1369 15.2577 19.1842C15.1808 19.2315 15.1209 19.3022 15.0869 19.386C14.9851 19.5578 14.8879 19.7318 14.7883 19.9051C14.7781 19.9018 14.7687 19.8963 14.7608 19.8891C14.7528 19.8819 14.7464 19.8731 14.7421 19.8632C14.7378 19.8534 14.7356 19.8427 14.7357 19.832C14.7358 19.8213 14.7382 19.8107 14.7427 19.8009C14.8066 19.4607 14.9779 19.1499 15.2314 18.914C15.3155 18.8523 15.4178 18.8205 15.5221 18.8237C15.6263 18.8269 15.7265 18.8648 15.8067 18.9315C15.9162 19.0002 16.0088 19.0927 16.0775 19.2022C16.1462 19.3117 16.1892 19.4353 16.2034 19.5638C16.2102 19.7676 16.2421 19.9697 16.2984 20.1657C16.3273 20.2515 16.3376 20.3424 16.3285 20.4324C16.3195 20.5225 16.2913 20.6096 16.246 20.6878C16.1798 20.8285 16.1535 20.9847 16.17 21.1393C16.1927 21.4263 16.1334 21.7138 15.999 21.9684C15.9823 21.9966 15.9618 22.0384 15.9716 22.0642C16.0841 22.3834 15.9002 22.695 15.9655 23.0332C16.0176 23.2714 16.0925 23.504 16.189 23.7278C16.2099 23.8028 16.2473 23.8722 16.2986 23.9307C16.3498 23.9893 16.4136 24.0357 16.4851 24.0664C16.5567 24.0971 16.6342 24.1114 16.712 24.1082C16.7897 24.105 16.8658 24.0843 16.9345 24.0478C17.2644 23.927 17.3556 23.9893 17.3556 24.3404C17.3556 26.6143 17.3556 28.8883 17.3556 31.1622C17.3556 31.7558 17.3252 31.7907 16.724 31.8051C16.2907 31.8065 15.8593 31.7483 15.4419 31.6319C14.7607 31.4321 14.0903 31.1975 13.4333 30.9289C12.9693 30.7205 12.526 30.4689 12.1093 30.1772C11.6314 29.8776 11.1903 29.5227 10.7952 29.1201C10.7223 29.0433 10.6341 28.9817 10.6888 28.8578Z" fill="#D7A066"/>
<path d="M10.2175 18.952C10.0779 19.1643 10.0201 19.4201 10.0549 19.6718C10.059 22.3444 10.059 25.0173 10.0549 27.6905C10.0549 27.7559 10.0837 27.828 10.0245 27.885C9.81851 27.8372 9.89301 27.6677 9.89301 27.5476C9.88845 25.1896 9.88845 22.8316 9.89301 20.4736C9.89301 20.0875 9.88617 19.7014 9.89301 19.3161C9.89681 19.1101 9.98345 18.9581 10.2175 18.952Z" fill="#D7A066"/>
<path d="M13.389 18.3106C13.2785 18.3029 13.1709 18.2715 13.0735 18.2186C12.9745 18.1754 12.8662 18.158 12.7587 18.168C12.6511 18.178 12.5479 18.2151 12.4585 18.2758C12.3692 18.3365 12.2967 18.4189 12.2479 18.5152C12.199 18.6116 12.1753 18.7187 12.179 18.8266C12.1355 19.269 12.1457 19.7151 12.2094 20.1551C12.2493 20.4439 12.2088 20.7382 12.0924 21.0055C12.0631 21.0831 12.0046 21.146 11.9295 21.1808C11.8543 21.2157 11.7684 21.2196 11.6904 21.1917C11.5239 21.1492 11.381 21.0549 11.4099 20.8414C11.47 20.8368 11.4958 20.8893 11.5376 20.9174C11.6242 20.9706 11.6759 21.1606 11.7899 21.0694C11.9039 20.9782 12.0718 20.8999 12.065 20.678C12.046 20.0464 12.0491 19.4134 12.0575 18.778C12.0736 18.5695 12.1673 18.3746 12.3201 18.2318C12.4729 18.089 12.6737 18.0086 12.8828 18.0066C12.9852 18.0136 13.0845 18.0448 13.1725 18.0976C13.2605 18.1505 13.3347 18.2235 13.389 18.3106Z" fill="#D7A066"/>
<path d="M11.4087 20.3769C11.3555 20.1433 11.3717 19.8993 11.4551 19.6747C11.6006 19.0925 11.5637 18.4797 11.3494 17.9191C11.3216 17.7815 11.2577 17.6538 11.1642 17.5491C11.0707 17.4443 10.951 17.3664 10.8174 17.3233C10.6122 17.2739 10.4761 17.3841 10.3097 17.4305C10.3036 17.223 10.6183 17.0915 10.8417 17.1652C10.9718 17.2173 11.089 17.2968 11.1856 17.3984C11.2821 17.4999 11.3556 17.621 11.4011 17.7534C11.5481 18.0253 11.6344 18.3258 11.6542 18.6343C11.6767 19.1974 11.616 19.7608 11.4741 20.3063C11.4672 20.3359 11.4292 20.3549 11.4087 20.3769Z" fill="#D7A066"/>
<path d="M14.7631 20.8231C14.769 20.9111 14.7525 20.9991 14.715 21.0789C14.6774 21.1588 14.6201 21.2278 14.5486 21.2794C14.4771 21.331 14.3936 21.3636 14.306 21.374C14.2184 21.3844 14.1297 21.3724 14.048 21.3391C14.1675 21.3334 14.2827 21.2934 14.3801 21.224C14.4776 21.1546 14.5531 21.0587 14.5975 20.9477C14.6302 20.8831 14.6628 20.8041 14.7631 20.8231Z" fill="#D7A066"/>
<path d="M13.6749 21.0032C13.619 20.9401 13.5762 20.8665 13.5488 20.7867C13.5214 20.707 13.51 20.6226 13.5153 20.5384C13.5206 20.4543 13.5425 20.3719 13.5797 20.2962C13.6168 20.2205 13.6685 20.1529 13.7319 20.0973C13.6774 20.396 13.6583 20.7001 13.6749 21.0032Z" fill="#D7A066"/>
<path d="M13.8731 19.1503C13.706 18.893 13.5537 18.6263 13.4171 18.3516C13.5584 18.4309 13.6754 18.5471 13.7558 18.6878C13.8361 18.8285 13.8766 18.9884 13.8731 19.1503Z" fill="#D7A066"/>
<path d="M10.0412 27.9747C10.1309 28.1161 10.3384 28.1852 10.3034 28.4026C10.0739 28.3806 9.99333 28.2499 10.0412 27.9747Z" fill="#D7A066"/>
<path d="M13.95 21.3034C13.8935 21.2961 13.8405 21.2716 13.7983 21.2333C13.756 21.195 13.7265 21.1447 13.7137 21.0891C13.8603 21.0861 13.9576 21.1377 13.95 21.3034Z" fill="#D7A066"/>
<path d="M10.3026 18.157C10.3961 18.233 10.3786 18.3272 10.33 18.4207C10.216 18.3432 10.2213 18.2543 10.3026 18.157Z" fill="#D7A066"/>
<path d="M13.8922 19.6078C13.8644 19.5794 13.8487 19.5412 13.8487 19.5014C13.8487 19.4616 13.8644 19.4234 13.8922 19.395C13.9926 19.4665 13.985 19.5379 13.8922 19.6078Z" fill="#D7A066"/>
<path d="M13.7622 20.0585C13.7363 19.9688 13.7812 19.9263 13.8625 19.9065C13.9423 20.0334 13.8724 20.057 13.7622 20.0585Z" fill="#D7A066"/>
<path d="M10.3636 28.5097C10.4396 28.4922 10.4714 28.5226 10.4692 28.5971C10.3939 28.6192 10.3476 28.6009 10.3636 28.5097Z" fill="#D7A066"/>
<path d="M10.4763 28.604C10.5523 28.604 10.5834 28.6405 10.5523 28.7165C10.4702 28.7211 10.4535 28.6762 10.4763 28.604Z" fill="#D7A066"/>
<path d="M24.4637 21.3125C24.54 21.3048 24.6169 21.318 24.6862 21.3508C24.7556 21.3837 24.8146 21.4348 24.857 21.4987C24.8994 21.5626 24.9236 21.6369 24.9269 21.7135C24.9301 21.7901 24.9124 21.8662 24.8756 21.9335C24.7615 22.1343 24.7022 22.3616 24.7034 22.5925C24.7046 22.8235 24.7663 23.0501 24.8824 23.2498C24.9026 23.2825 24.9156 23.3191 24.9209 23.3571C24.9262 23.3952 24.9237 23.434 24.9132 23.471C24.9028 23.5079 24.8848 23.5423 24.8604 23.572C24.836 23.6017 24.8057 23.6261 24.7715 23.6435C24.4439 23.8605 24.1033 24.0572 23.7515 24.2325C23.6223 24.3039 23.5767 24.2226 23.5456 24.1291C23.501 23.9287 23.5279 23.719 23.6216 23.5363C23.7257 23.2452 23.8557 22.9526 23.56 22.6669C23.5141 22.5984 23.4874 22.5188 23.4827 22.4364C23.478 22.3541 23.4955 22.272 23.5334 22.1987C23.6336 21.8801 23.8275 21.5991 24.0898 21.3924C24.2016 21.3238 24.3336 21.2956 24.4637 21.3125Z" fill="black"/>
<path d="M9.84699 16.4166L17.3558 18.6791L17.7814 32.0589L13.6014 31.3392L9.79379 28.4945L9.84699 16.4166Z" fill="#F7BD01"/>
</svg>
