<svg width="18" height="24" viewBox="0 0 18 24" fill="none" xmlns="http://www.w3.org/2000/svg">
  <path d="M14.557 9.39208L14.424 9.41888C14.0864 9.50117 13.7621 9.63114 13.4605 9.80489L13.3714 9.82164C13.2897 9.77071 13.2279 9.83236 13.1655 9.86386C13.0206 9.9369 12.8498 9.96305 12.7189 10.0274C12.469 10.0958 12.2235 10.1797 11.9839 10.2787C11.7626 10.4163 11.5147 10.5045 11.2569 10.5374C10.9963 10.5856 10.7451 10.6761 10.5132 10.8054C10.2401 10.9394 9.94441 10.9857 9.67128 11.113C9.43749 11.2359 9.19068 11.3319 8.93561 11.3992C8.7977 11.4342 8.66402 11.4843 8.5369 11.5486C8.36742 11.6188 8.20894 11.7134 8.0664 11.8294C7.93476 11.9549 7.83191 12.1077 7.76488 12.2774C7.69785 12.4471 7.66828 12.6295 7.67832 12.8119C7.68585 16.3091 7.68585 19.8064 7.67832 23.3037C7.67832 23.6756 7.59929 23.7674 7.24376 23.8244C7.14796 23.8408 7.05113 23.8507 6.954 23.8539C6.39487 23.8681 5.83631 23.8081 5.29266 23.6756C4.96039 23.5939 4.63745 23.4746 4.30851 23.3814C4.12321 23.3348 3.94453 23.2645 3.77685 23.1723C3.36417 22.9277 2.92761 22.73 2.51892 22.4734C2.17383 22.2559 1.84104 22.0192 1.52211 21.7643C1.15378 21.4588 0.825642 21.1071 0.545829 20.7176C0.274972 20.3785 0.127325 19.9561 0.127249 19.5207C0.133452 15.8872 0.134481 12.2536 0.130494 8.62007C0.118207 8.49793 0.132213 8.37455 0.171541 8.25837C0.210869 8.14218 0.27466 8.03592 0.358442 7.94685C0.442223 7.85778 0.544068 7.78799 0.657045 7.74226C0.770022 7.69652 0.891404 7.67593 1.013 7.68186C2.22578 7.63428 3.44129 7.65573 4.65473 7.59206C4.91456 7.57866 4.94975 7.62757 4.95041 7.89697C4.95041 8.34329 4.94177 8.79028 4.95041 9.23727C4.96304 9.72849 5.02882 9.88061 5.57707 10.026C5.92967 10.1186 6.30057 10.1131 6.65029 10.01C6.80476 9.99357 6.94654 9.91607 7.04445 9.79446C7.14236 9.67286 7.18843 9.51707 7.17262 9.36124C7.17262 8.85394 7.17262 8.34665 7.17262 7.84001C7.17262 7.51901 7.19987 7.49756 7.52217 7.4922C8.21949 7.48058 8.91686 7.46785 9.61418 7.454C10.4559 7.43836 11.2956 7.42251 12.1334 7.40643C12.445 7.40106 12.4729 7.42988 12.4729 7.73547C12.4729 7.85676 12.4729 7.97806 12.4729 8.09868C12.4902 8.21344 12.5357 8.322 12.6054 8.41439C12.6751 8.50678 12.7667 8.58002 12.8717 8.62743C13.3503 8.81338 13.8794 8.81862 14.3616 8.64218C14.4826 8.6171 14.5907 8.54935 14.6666 8.45108C14.7425 8.35281 14.7811 8.23049 14.7756 8.10607C14.7756 7.90904 14.7869 7.71201 14.7756 7.51566C14.7643 7.3193 14.842 7.26636 15.0255 7.26971C15.4242 7.27775 15.8229 7.28043 16.2217 7.26971C16.5553 7.30903 16.8831 7.38776 17.1985 7.50427C17.2869 7.52169 17.3554 7.61081 17.4331 7.66509C17.4694 7.70097 17.4964 7.74524 17.5119 7.79404C17.5273 7.84284 17.5308 7.89471 17.5219 7.94515C17.513 7.99559 17.492 8.04307 17.4608 8.08349C17.4296 8.12391 17.389 8.15604 17.3427 8.17709C17.1433 8.2555 16.944 8.34061 16.7559 8.42907C16.4582 8.52663 16.1691 8.64948 15.892 8.79632C15.6076 8.992 15.2427 9.04294 14.9437 9.22723L14.8493 9.26208C14.7428 9.28078 14.6425 9.32541 14.557 9.39208ZM1.18384 20.532C1.1639 20.599 1.17851 20.6345 1.25028 20.6311L1.36725 20.7558C1.31941 20.8657 1.39646 20.9193 1.46224 20.9836C1.80759 21.3388 2.19324 21.6517 2.61123 21.9158C2.97574 22.1733 3.36359 22.3954 3.76955 22.5793C4.34406 22.8161 4.93026 23.0231 5.52588 23.1992C5.89083 23.3018 6.26808 23.3532 6.64696 23.3519C7.17261 23.3392 7.19923 23.3077 7.19923 22.785C7.19923 20.7799 7.19923 18.7748 7.19923 16.7697C7.19923 16.4595 7.1195 16.4052 6.83175 16.5117C6.77163 16.5439 6.70507 16.5621 6.63706 16.5649C6.56906 16.5678 6.50127 16.5552 6.43873 16.5281C6.37618 16.5011 6.32049 16.4602 6.27567 16.4085C6.23086 16.3569 6.19808 16.2957 6.17979 16.2296C6.09552 16.0321 6.03014 15.827 5.98445 15.6171C5.9273 15.3189 6.08809 15.0448 5.98908 14.7626C5.98676 14.7324 5.9955 14.7024 6.01366 14.6782C6.13115 14.4537 6.18299 14.2002 6.16316 13.9471C6.1488 13.811 6.17185 13.6735 6.22968 13.5497C6.26931 13.4806 6.29389 13.4038 6.30179 13.3245C6.3097 13.2451 6.30074 13.1649 6.27551 13.0893C6.2264 12.9165 6.1985 12.7382 6.19244 12.5585C6.18005 12.4452 6.14244 12.3362 6.08236 12.2397C6.02229 12.1431 5.94134 12.0615 5.84557 12.001C5.77545 11.9422 5.68778 11.9087 5.59662 11.9059C5.50546 11.9031 5.416 11.9312 5.34247 11.9856C5.12073 12.1934 4.971 12.4675 4.91521 12.7676C4.91126 12.7762 4.90917 12.7855 4.90904 12.7949C4.90891 12.8044 4.91069 12.8137 4.9144 12.8224C4.9181 12.831 4.92357 12.8388 4.93046 12.8452C4.93735 12.8516 4.94551 12.8564 4.95439 12.8594C4.94686 13.1302 4.93937 13.4009 4.93184 13.6716C4.84412 13.6549 4.81752 13.7239 4.78696 13.7809C4.74827 13.879 4.68234 13.9637 4.59713 14.0251C4.51193 14.0864 4.41104 14.1217 4.30648 14.1267L4.22139 14.0958C4.22803 13.9491 4.14303 13.9035 4.01477 13.9069L3.98086 13.8311C3.96643 13.5638 3.98312 13.2957 4.03067 13.0323C4.03842 13.0201 4.04734 13.0086 4.05728 12.9981C4.15031 12.9981 4.21475 12.976 4.14497 12.8641C4.15361 12.7757 4.16229 12.6872 4.17093 12.596C4.25267 12.5344 4.25865 12.4721 4.17093 12.4084C4.16517 12.3365 4.1592 12.2648 4.153 12.1933C4.15615 12.0505 4.1207 11.9095 4.05047 11.7854C3.98023 11.6613 3.87778 11.5589 3.75421 11.489C3.74558 11.4769 3.73696 11.4648 3.72899 11.4521C3.68159 11.3754 3.61688 11.3111 3.54006 11.2645C3.46324 11.2179 3.37648 11.1903 3.28704 11.184C3.10418 11.1858 2.92865 11.2567 2.79505 11.3826C2.66145 11.5085 2.57952 11.6804 2.5654 11.8643C2.55809 12.4218 2.55544 12.9794 2.57205 13.5396C2.57803 13.7353 2.43312 13.801 2.33145 13.8847C2.22977 13.9685 2.18597 13.7997 2.11088 13.7507C2.07433 13.7279 2.05101 13.6837 1.99918 13.6837C1.99918 13.5497 1.99918 13.4139 1.99918 13.2763C2.01912 13.2568 2.05037 13.2401 2.05702 13.2166C2.18111 12.7357 2.23422 12.2389 2.21455 11.7423C2.19737 11.4703 2.12187 11.2053 1.99326 10.9656C1.9535 10.8488 1.88922 10.7419 1.80481 10.6524C1.72041 10.5629 1.61781 10.4928 1.5041 10.4469C1.31006 10.3799 1.03497 10.4978 1.03896 10.6808C1.01977 10.894 1.01713 11.1084 1.03101 11.3221C0.959239 11.4079 0.955194 11.4863 1.05421 11.5546C1.07983 11.6347 1.08416 11.7202 1.06678 11.8025C1.04941 11.8848 1.01099 11.9611 0.955243 12.0237C0.748572 12.0298 0.675472 12.1651 0.671485 12.3447C0.664839 12.6845 0.671485 13.025 0.671485 13.3654C0.671485 15.4446 0.671485 17.5239 0.671485 19.6031C0.671485 19.709 0.605013 19.8585 0.786432 19.9007L0.800385 19.9797C0.758519 20.2223 0.828276 20.3376 1.02963 20.3571L1.08147 20.4515C1.06751 20.532 1.10673 20.548 1.17451 20.5286L1.18384 20.532Z" fill="#F7BD01"/>
  <path d="M15.8907 8.79497C16.1679 8.64815 16.4568 8.52529 16.7546 8.42773C16.944 8.33927 17.1434 8.25416 17.3414 8.17575C17.3877 8.15469 17.4282 8.12256 17.4594 8.08214C17.4906 8.04172 17.5116 7.99425 17.5205 7.94381C17.5294 7.89337 17.526 7.84149 17.5105 7.79269C17.4951 7.74389 17.468 7.69963 17.4318 7.66375C17.354 7.60947 17.2862 7.52034 17.1972 7.50292C16.8816 7.38636 16.5535 7.30763 16.2197 7.26836C15.8209 7.28043 15.4222 7.27842 15.0235 7.26836C14.8427 7.26434 14.7577 7.3193 14.7736 7.51431C14.7896 7.70932 14.7776 7.9077 14.7736 8.10472C14.779 8.22921 14.7402 8.35154 14.6642 8.44979C14.5882 8.54805 14.48 8.61577 14.3589 8.64083C13.8768 8.81727 13.3476 8.81203 12.869 8.62609C12.7639 8.57868 12.6724 8.50543 12.6028 8.41304C12.5331 8.32066 12.4875 8.21209 12.4703 8.09734C12.467 7.97604 12.4703 7.85542 12.4703 7.73412C12.4703 7.4292 12.4424 7.39905 12.1307 7.40508C11.289 7.41982 10.4492 7.43547 9.61145 7.452C8.91413 7.46495 8.21684 7.47767 7.51952 7.49018C7.19722 7.49554 7.1713 7.51699 7.16998 7.83799C7.16998 8.3453 7.16998 8.85259 7.16998 9.35922C7.18578 9.51505 7.13964 9.67084 7.04172 9.79244C6.94381 9.91405 6.80212 9.99154 6.64764 10.0079C6.29792 10.1111 5.92703 10.1166 5.57442 10.024C5.02618 9.87859 4.96039 9.72647 4.94777 9.23525C4.93581 8.78893 4.94777 8.34194 4.94777 7.89495C4.94777 7.62689 4.91184 7.57664 4.652 7.59004C3.43856 7.65706 2.2238 7.63226 1.01036 7.67984C0.888788 7.67403 0.767406 7.69471 0.654482 7.74048C0.541558 7.78625 0.439799 7.85603 0.356041 7.94508C0.272283 8.03412 0.208509 8.14034 0.16914 8.25647C0.12977 8.3726 0.115676 8.49593 0.12785 8.61805C0.12785 12.2516 0.126739 15.8851 0.124524 19.5187C0.124653 19.9541 0.272375 20.3764 0.543185 20.7156C0.823164 21.1053 1.15152 21.4573 1.52012 21.763C1.83791 22.0178 2.16959 22.2546 2.51359 22.472C2.92228 22.7287 3.35885 22.9264 3.77153 23.171C3.93923 23.2631 4.1179 23.3334 4.30319 23.3801C4.63546 23.4719 4.95308 23.5925 5.28734 23.6743C5.83099 23.8068 6.38955 23.8667 6.94868 23.8525C7.04581 23.8493 7.14263 23.8395 7.23844 23.823C7.5933 23.7661 7.67235 23.6736 7.67235 23.3023C7.67235 19.8051 7.67235 16.3078 7.67235 12.8105C7.6624 12.6281 7.69197 12.4458 7.75899 12.2761C7.82601 12.1065 7.92887 11.9536 8.06043 11.8281C8.20299 11.712 8.36147 11.6175 8.53093 11.5473C8.65806 11.483 8.79174 11.4329 8.92964 11.3978C9.18472 11.3306 9.43152 11.2346 9.66531 11.1117C9.93844 10.9843 10.2341 10.9368 10.5073 10.8041C10.7392 10.6749 10.9903 10.5844 11.2509 10.536C11.5088 10.5031 11.7566 10.4149 11.9779 10.2773C12.2175 10.1784 12.463 10.0945 12.7128 10.026C12.8457 9.959 13.0145 9.93556 13.1594 9.86251C13.2225 9.83034 13.2837 9.7687 13.3654 9.8203C13.3659 9.85846 13.3527 9.8955 13.3283 9.92466C13.3039 9.95383 13.27 9.97317 13.2326 9.97912C12.9933 10.018 12.7959 10.1641 12.55 10.2063C12.2905 10.2877 12.0395 10.3943 11.8005 10.5246C11.7101 10.5726 11.6147 10.6103 11.5161 10.6372C11.2699 10.6896 11.0331 10.78 10.8143 10.9053C10.5604 11.0339 10.2827 11.0862 10.0255 11.2021C9.72711 11.3362 9.41609 11.4528 9.10575 11.5613C8.88778 11.6371 8.67712 11.7302 8.46181 11.81C8.3315 11.8636 8.21377 11.9442 8.11624 12.0465C8.03117 12.1354 7.96674 12.2422 7.92756 12.3593C7.88837 12.4763 7.87544 12.6007 7.88967 12.7234C7.88967 15.5018 7.88967 18.2805 7.88967 21.0594C7.88967 21.7637 7.88967 22.4667 7.88967 23.1717C7.90627 23.3597 7.84908 23.5469 7.73043 23.693C7.61179 23.839 7.4411 23.9324 7.25499 23.9531C6.62544 24.0446 5.98386 24.0019 5.3717 23.8277C4.7683 23.7285 4.21608 23.4417 3.61667 23.3178C3.42686 23.2561 3.24858 23.163 3.08906 23.0423C2.49098 22.6711 1.95403 22.202 1.37256 21.8072C0.792915 21.377 0.332898 20.8035 0.0368327 20.1419C0.00411797 20.0567 -0.00703848 19.9645 0.00430348 19.8739C0.00430348 16.0504 0.00430348 12.227 0.00430348 8.4036C0.00660782 8.26517 0.0478093 8.13027 0.123226 8.01459C0.198642 7.89891 0.305162 7.80721 0.430266 7.7502C0.696822 7.61081 0.993947 7.54166 1.29411 7.54916C2.43047 7.48684 3.56617 7.3796 4.70652 7.40909C4.8773 7.41378 4.92448 7.33671 4.92116 7.17521C4.91319 6.72085 4.92119 6.26649 4.91654 5.81213C4.9064 5.09502 5.04208 4.38343 5.31524 3.72127C5.80547 2.5185 6.6603 1.50285 7.75745 0.819534C8.67729 0.227183 9.75941 -0.0564365 10.8489 0.00931493C11.3363 0.0256032 11.8161 0.135944 12.2623 0.334348C12.8052 0.568376 13.2912 0.918685 13.6864 1.361C13.9379 1.62764 14.1502 1.92912 14.3171 2.25632C14.5629 2.71126 14.7219 3.20861 14.7862 3.72262C14.8487 4.78212 14.8021 5.84095 14.8207 6.89912C14.8254 7.15913 14.8872 7.198 15.153 7.16717C15.7342 7.0918 16.324 7.11856 16.8961 7.24626C17.1809 7.27939 17.4441 7.41587 17.6364 7.63025C17.67 7.66162 17.6968 7.69965 17.7152 7.74198C17.7335 7.7843 17.743 7.83001 17.743 7.8762C17.743 7.92239 17.7335 7.96807 17.7152 8.0104C17.6968 8.05272 17.67 8.09077 17.6364 8.12214C17.4096 8.3636 17.1175 8.53273 16.7964 8.60866C16.4868 8.72527 16.1824 8.85394 15.8741 8.97055C15.6169 9.06839 11.0742 10.7799 10.8236 10.9012C10.7924 10.916 12.1806 10.2244 13.7077 9.58574C14.3523 9.31634 15.8043 8.85462 15.8907 8.79497ZM12.443 5.47973C12.443 5.04079 12.4304 4.60117 12.4464 4.16289C12.4518 3.92482 12.4058 3.68841 12.3116 3.47004C12.2174 3.25168 12.0773 3.0566 11.9008 2.89833C11.5932 2.61899 11.212 2.43531 10.8032 2.36944C10.3944 2.30357 9.97548 2.35832 9.59685 2.52708C8.97424 2.75364 8.42669 3.15097 8.0159 3.67435C7.67549 4.06609 7.43868 4.53818 7.32743 5.04682C7.24913 5.72263 7.22692 6.40386 7.26099 7.0834C7.26099 7.36352 7.27028 7.37358 7.55603 7.37023C8.38736 7.36018 9.21743 7.35213 10.0488 7.28779C10.7499 7.23351 11.4562 7.23954 12.1613 7.23016C12.374 7.23016 12.4551 7.1484 12.4511 6.93261C12.4364 6.44877 12.443 5.96425 12.443 5.47973Z" fill="#050505"/>
  <path d="M8.38072 17.6898C8.38072 17.1296 8.38404 16.5694 8.38072 16.0091C8.38716 15.8812 8.40563 15.7542 8.43588 15.6298C8.49104 15.3216 8.78812 15.3035 8.98815 15.1929C9.33172 15.0033 9.7065 14.8706 10.0687 14.7151C10.1575 14.6761 10.2482 14.6416 10.3404 14.6119C10.5232 14.5503 10.699 14.4692 10.8648 14.3699C11.312 14.1186 11.7991 13.9404 12.2682 13.7273C12.7487 13.5095 13.2252 13.2836 13.7043 13.0631C14.0505 12.9043 14.3981 12.7495 14.745 12.594C15.1723 12.3997 15.5976 12.2 16.0275 12.0104C16.401 11.8455 16.7772 11.6847 17.1573 11.5352C17.3201 11.4682 17.4284 11.5754 17.4848 11.7175C17.5135 11.8038 17.5262 11.8947 17.5221 11.9856C17.5221 12.8715 17.5221 13.7574 17.5261 14.6427C17.5313 14.7131 17.5165 14.7835 17.4831 14.8455C17.4498 14.9076 17.3994 14.9586 17.338 14.9925C16.815 15.3403 16.2442 15.5997 15.7033 15.9146C15.1178 16.2557 14.5344 16.6029 13.9316 16.9091C13.2737 17.2442 12.6371 17.6141 11.9905 17.9673C11.4589 18.2595 10.9272 18.5577 10.3956 18.8653C10.086 19.0553 9.76407 19.2241 9.43204 19.3706C9.19613 19.4684 9.016 19.6802 8.7482 19.7345C8.49434 19.7861 8.38471 19.711 8.38405 19.443C8.38405 18.8599 8.38405 18.2769 8.38405 17.6939L8.38072 17.6898ZM13.4172 14.0999C13.3021 14.0827 13.1847 14.1064 13.085 14.1669C12.8557 14.3493 12.6863 14.597 12.5986 14.8779C12.5656 14.9426 12.5504 15.015 12.5546 15.0876C12.5588 15.1602 12.5823 15.2304 12.6225 15.2907C12.881 15.5421 12.768 15.8001 12.6769 16.0567C12.5949 16.2178 12.5714 16.4027 12.6105 16.5794C12.6377 16.6619 12.6769 16.7329 12.7906 16.6706C13.0981 16.516 13.396 16.3426 13.6824 16.1512C13.7124 16.1359 13.7389 16.1144 13.7602 16.0882C13.7815 16.062 13.7973 16.0317 13.8064 15.9991C13.8155 15.9664 13.8177 15.9323 13.8131 15.8987C13.8085 15.8652 13.797 15.8329 13.7794 15.8041C13.6779 15.6281 13.6238 15.4283 13.6226 15.2246C13.6215 15.021 13.6732 14.8206 13.7728 14.6434C13.8034 14.5846 13.8178 14.5185 13.8144 14.4522C13.811 14.3859 13.79 14.3216 13.7536 14.2663C13.7172 14.211 13.6667 14.1665 13.6074 14.1376C13.5481 14.1087 13.4822 14.0963 13.4166 14.1019L13.4172 14.0999Z" fill="#F7BD01"/>
  <path d="M8.38075 13.612C8.38075 13.3319 8.36746 13.0511 8.38407 12.7723C8.37669 12.6377 8.41192 12.5042 8.48466 12.3911C8.5574 12.278 8.6639 12.1911 8.78878 12.143C9.35696 11.8971 9.93711 11.6739 10.5053 11.4327C10.8914 11.2665 11.2967 11.1271 11.6841 10.9636C12.2317 10.729 12.7866 10.5132 13.3382 10.2934C13.741 10.1002 14.157 9.93606 14.5829 9.8022C14.7528 9.74576 14.9173 9.67353 15.074 9.58642C15.4727 9.40481 15.8913 9.26675 16.2907 9.08045C16.597 8.93771 16.924 8.82447 17.2443 8.7072C17.3939 8.65224 17.5102 8.78424 17.5102 8.9357C17.5208 9.49527 17.5235 10.0555 17.5102 10.6151C17.5049 10.8208 17.3108 10.8872 17.1533 10.9502C16.5765 11.1827 16.0235 11.4635 15.4534 11.7148C15.0925 11.875 14.7297 12.0358 14.3662 12.1926C13.8465 12.4171 13.3422 12.6791 12.8172 12.8902C12.4444 13.0397 12.0862 13.22 11.7247 13.3915C11.207 13.6368 10.672 13.8412 10.161 14.1032C9.83938 14.2688 9.4965 14.4055 9.15958 14.5442C9.02668 14.5985 8.90104 14.6588 8.77345 14.7211C8.54352 14.8337 8.38803 14.7365 8.38205 14.4785C8.37341 14.185 8.38075 13.8995 8.38075 13.612Z" fill="#F7BD01"/>
  <path d="M8.38073 21.8079C8.36745 21.4474 8.3792 21.0865 8.41593 20.7276C8.42528 20.6733 8.44765 20.6221 8.48099 20.5785C8.51433 20.5348 8.55771 20.5 8.60738 20.477C8.99613 20.2592 9.35558 19.9831 9.75563 19.7921C10.0879 19.6346 10.391 19.4363 10.7186 19.2754C11.104 19.0858 11.4682 18.8525 11.8437 18.6428C12.2603 18.4102 12.685 18.1911 13.0963 17.9492C13.416 17.7616 13.7449 17.5913 14.0652 17.4064C14.3403 17.2476 14.6281 17.1061 14.9065 16.9493C15.3411 16.7047 15.7783 16.4628 16.2176 16.2283C16.565 15.997 16.9387 15.8086 17.3307 15.6673C17.4437 15.6385 17.4822 15.6881 17.4829 15.7645C17.4876 16.2886 17.5055 16.8146 17.4689 17.336C17.455 17.537 17.2084 17.6108 17.047 17.7126C16.6688 17.9505 16.304 18.2119 15.9213 18.4384C15.6675 18.6593 15.3711 18.8248 15.0507 18.9242C14.9317 18.9403 14.9078 19.0871 14.8075 19.1481C14.432 19.3766 14.0652 19.6205 13.6937 19.8571C13.1162 20.225 12.5361 20.5889 11.9599 20.9595C11.4894 21.2624 11.0203 21.5673 10.5558 21.8796C10.0913 22.1919 9.59284 22.4727 9.13166 22.8024C8.99343 22.9016 8.84456 22.9894 8.69969 23.0812C8.52625 23.1911 8.38603 23.1107 8.38137 22.9023C8.37539 22.5612 8.38073 22.2207 8.38073 21.8079Z" fill="#F7BD01"/>
  <path d="M1.37186 20.7551C1.67755 21.0144 1.96996 21.2912 2.2916 21.5297C2.79465 21.9178 3.34633 22.2371 3.93234 22.4793C4.06315 22.5327 4.19071 22.5938 4.31441 22.6623C4.6079 22.7897 4.91191 22.8911 5.22288 22.9652C5.74354 23.1563 6.296 23.2437 6.84966 23.2225C7.01979 23.2125 7.07359 23.1368 7.07558 22.9867C7.07558 22.9411 7.07558 22.8962 7.07558 22.8526C7.07558 20.8708 7.07558 18.8889 7.07558 16.9071C7.07558 16.8541 7.07558 16.8012 7.07558 16.7482C7.07558 16.712 7.0789 16.6699 7.0377 16.6491C6.9965 16.6283 6.97529 16.6705 6.94871 16.6926C6.85668 16.7595 6.74524 16.7938 6.63186 16.79C6.51847 16.7862 6.40953 16.7447 6.32206 16.6719C6.18467 16.5927 6.07051 16.4783 5.99125 16.3402C5.91199 16.2021 5.8704 16.0453 5.87079 15.8858C5.87079 15.8114 5.80434 15.7705 5.77377 15.7115C5.7211 15.6024 5.69466 15.4823 5.69662 15.361C5.69858 15.2397 5.72887 15.1205 5.78504 15.0132C5.8417 14.9013 5.87366 14.7783 5.87874 14.6527C5.89894 14.3471 5.94725 14.044 6.02297 13.7473C6.14767 13.3723 6.1202 12.9627 5.94655 12.6081C5.92563 12.5677 5.91451 12.5229 5.91402 12.4774C5.9014 12.2723 5.76916 12.1939 5.59173 12.1711C5.513 12.1645 5.43419 12.1833 5.36687 12.2251C5.29955 12.2668 5.24718 12.3292 5.21753 12.403C5.12848 12.5545 5.04345 12.7079 4.9564 12.8607C4.94747 12.8578 4.93927 12.853 4.93231 12.8467C4.92534 12.8403 4.91977 12.8325 4.916 12.8238C4.91223 12.8152 4.91031 12.8058 4.9104 12.7963C4.91049 12.7868 4.91256 12.7775 4.91649 12.7689C4.97241 12.4689 5.1222 12.1948 5.34383 11.9868C5.41736 11.9324 5.50682 11.9044 5.59798 11.9072C5.68914 11.91 5.77673 11.9435 5.84686 12.0023C5.94262 12.0628 6.02357 12.1444 6.08365 12.241C6.14372 12.3375 6.18133 12.4465 6.19373 12.5598C6.1997 12.7395 6.2276 12.9177 6.27679 13.0906C6.30206 13.1662 6.31106 13.2464 6.30316 13.3257C6.29525 13.4051 6.27064 13.4819 6.23096 13.551C6.17308 13.675 6.15011 13.8127 6.16452 13.949C6.18435 14.2021 6.13251 14.4556 6.01502 14.6802C6.0004 14.705 5.98245 14.7418 5.99109 14.7646C6.08944 15.0461 5.92858 15.3208 5.98573 15.619C6.03128 15.829 6.09675 16.0342 6.18115 16.2316C6.19944 16.2977 6.23214 16.3588 6.27696 16.4105C6.32177 16.4621 6.37754 16.503 6.44009 16.5301C6.50264 16.5572 6.57042 16.5697 6.63843 16.5669C6.70643 16.5641 6.77292 16.5459 6.83303 16.5137C7.12144 16.4071 7.20124 16.4621 7.20124 16.7717C7.20124 18.7768 7.20124 20.7819 7.20124 22.787C7.20124 23.3104 7.17462 23.3412 6.64897 23.3539C6.2701 23.3551 5.89285 23.3037 5.52789 23.2011C4.93229 23.025 4.34609 22.8181 3.77156 22.5812C3.36586 22.3975 2.97822 22.1756 2.61389 21.9184C2.19599 21.6542 1.81035 21.3413 1.4649 20.9863C1.40111 20.9186 1.32401 20.8643 1.37186 20.7551Z" fill="#D7A066"/>
  <path d="M0.959894 12.0204C0.837829 12.2076 0.787302 12.4331 0.817691 12.655C0.821235 15.0117 0.821235 17.3686 0.817691 19.7257C0.817691 19.7834 0.842917 19.847 0.791083 19.8973C0.610994 19.8551 0.676136 19.7056 0.676136 19.5998C0.672149 17.5205 0.672149 15.4413 0.676136 13.362C0.676136 13.0216 0.670155 12.6812 0.676136 12.3414C0.679459 12.1598 0.755217 12.0257 0.959894 12.0204Z" fill="#D7A066"/>
  <path d="M3.733 11.4548C3.63638 11.448 3.5423 11.4203 3.4572 11.3737C3.37064 11.3356 3.27592 11.3202 3.18187 11.329C3.08783 11.3378 2.99756 11.3705 2.91945 11.4241C2.84134 11.4776 2.77796 11.5503 2.73523 11.6352C2.69249 11.7201 2.67175 11.8146 2.67504 11.9098C2.63694 12.2999 2.64589 12.6932 2.70164 13.0812C2.73653 13.3359 2.70109 13.5954 2.59927 13.8311C2.5737 13.8995 2.52257 13.955 2.45682 13.9857C2.39108 14.0164 2.31602 14.0198 2.24777 13.9953C2.10224 13.9578 1.9773 13.8747 2.00255 13.6863C2.05505 13.6823 2.07762 13.7286 2.11417 13.7534C2.18993 13.8003 2.23514 13.9678 2.33482 13.8874C2.4345 13.807 2.58132 13.738 2.57534 13.5423C2.55872 12.9854 2.56146 12.4272 2.56877 11.8669C2.58289 11.6831 2.66482 11.5112 2.79842 11.3853C2.93202 11.2594 3.10755 11.1885 3.29041 11.1867C3.37996 11.1929 3.46681 11.2204 3.54375 11.267C3.6207 11.3136 3.68555 11.378 3.733 11.4548Z" fill="#D7A066"/>
  <path d="M2.00117 13.2769C1.95469 13.0709 1.9688 12.8557 2.04173 12.6577C2.16896 12.1443 2.13669 11.6039 1.94934 11.1097C1.92505 10.9883 1.86918 10.8757 1.78742 10.7833C1.70566 10.691 1.60101 10.6223 1.48419 10.5843C1.30477 10.5407 1.18576 10.6379 1.04022 10.6788C1.03491 10.4958 1.31007 10.3799 1.50545 10.4449C1.61913 10.4908 1.72168 10.5609 1.80608 10.6505C1.89048 10.74 1.95472 10.8467 1.99452 10.9636C2.12307 11.2033 2.19857 11.4683 2.21582 11.7403C2.23549 12.2368 2.18246 12.7336 2.05836 13.2146C2.05238 13.2407 2.01911 13.2575 2.00117 13.2769Z" fill="#D7A066"/>
  <path d="M4.93442 13.6703C4.93958 13.7479 4.92513 13.8255 4.89232 13.8959C4.85951 13.9663 4.80941 14.0271 4.74687 14.0726C4.68432 14.1182 4.61132 14.1469 4.53474 14.1561C4.45815 14.1653 4.38055 14.1547 4.30914 14.1253C4.41361 14.1203 4.51437 14.085 4.59955 14.0239C4.68474 13.9627 4.75076 13.8781 4.78962 13.7802C4.81819 13.7232 4.8467 13.6535 4.93442 13.6703Z" fill="#D7A066"/>
  <path d="M3.98286 13.8291C3.93399 13.7734 3.89649 13.7085 3.87254 13.6382C3.84859 13.5679 3.83862 13.4935 3.84325 13.4193C3.84788 13.345 3.86705 13.2725 3.89955 13.2057C3.93205 13.139 3.97727 13.0793 4.03267 13.0303C3.98504 13.2937 3.96835 13.5618 3.98286 13.8291Z" fill="#D7A066"/>
  <path d="M4.15629 12.1953C4.01012 11.9684 3.87701 11.7332 3.75758 11.4909C3.8811 11.5609 3.98344 11.6634 4.05367 11.7874C4.1239 11.9115 4.15937 12.0525 4.15629 12.1953Z" fill="#D7A066"/>
  <path d="M0.805691 19.9764C0.884106 20.101 1.06551 20.162 1.03494 20.3537C0.834247 20.3342 0.763825 20.219 0.805691 19.9764Z" fill="#D7A066"/>
  <path d="M4.22342 14.0938C4.17397 14.0873 4.12764 14.0657 4.09071 14.032C4.05377 13.9982 4.02796 13.9538 4.01672 13.9048C4.14498 13.9022 4.23006 13.9477 4.22342 14.0938Z" fill="#D7A066"/>
  <path d="M1.03423 11.3194C1.11597 11.3864 1.10069 11.4695 1.05816 11.552C0.958483 11.4836 0.963128 11.4052 1.03423 11.3194Z" fill="#D7A066"/>
  <path d="M4.17295 12.5987C4.1486 12.5737 4.1349 12.54 4.1349 12.5049C4.1349 12.4698 4.1486 12.4361 4.17295 12.4111C4.26067 12.4741 4.25402 12.5371 4.17295 12.5987Z" fill="#D7A066"/>
  <path d="M4.05921 12.9961C4.03662 12.9171 4.07588 12.8795 4.14698 12.8621C4.21676 12.974 4.15557 12.9948 4.05921 12.9961Z" fill="#D7A066"/>
  <path d="M1.08748 20.4481C1.15393 20.4327 1.18179 20.4596 1.17979 20.5252C1.11401 20.5447 1.07352 20.5286 1.08748 20.4481Z" fill="#D7A066"/>
  <path d="M1.18586 20.5313C1.25231 20.5313 1.27954 20.5635 1.25229 20.6305C1.18052 20.6345 1.16592 20.5949 1.18586 20.5313Z" fill="#D7A066"/>
  <path d="M13.4166 14.1019C13.4833 14.095 13.5506 14.1067 13.6112 14.1356C13.6718 14.1646 13.7235 14.2096 13.7605 14.266C13.7976 14.3224 13.8188 14.3879 13.8216 14.4554C13.8245 14.523 13.8089 14.59 13.7768 14.6494C13.677 14.8265 13.6252 15.0269 13.6262 15.2305C13.6273 15.4342 13.6812 15.634 13.7828 15.8101C13.8004 15.8389 13.8118 15.8712 13.8164 15.9047C13.8211 15.9383 13.8188 15.9725 13.8097 16.0051C13.8006 16.0377 13.7848 16.068 13.7635 16.0942C13.7421 16.1204 13.7157 16.1419 13.6858 16.1572C13.3993 16.3486 13.1015 16.5221 12.7939 16.6766C12.6809 16.7396 12.6411 16.6678 12.6138 16.5854C12.5748 16.4087 12.5983 16.2238 12.6803 16.0627C12.7713 15.8061 12.885 15.5481 12.6265 15.2961C12.5863 15.2357 12.5629 15.1655 12.5588 15.0929C12.5547 15.0203 12.5701 14.9479 12.6032 14.8833C12.6908 14.6023 12.8604 14.3546 13.0897 14.1722C13.1875 14.1118 13.3028 14.0869 13.4166 14.1019Z" fill="white"/>
  <path d="M0.635553 9.78476L7.20117 11.7798L7.57332 23.5778L3.91836 22.9431L0.589035 20.4348L0.635553 9.78476Z" fill="#F7BD01"/>
</svg>
