<svg width="154" height="24" viewBox="0 0 154 24" fill="none" xmlns="http://www.w3.org/2000/svg">
<path d="M24.1542 21.4105C23.8935 21.4242 23.6328 21.3843 23.3879 21.2933C23.143 21.2023 22.919 21.062 22.7294 20.8811C22.55 20.6899 22.411 20.464 22.3207 20.217C22.2305 19.97 22.1909 19.7072 22.2045 19.4443V7.88557C22.1882 7.63841 22.2215 7.39048 22.3025 7.15661C22.3834 6.92275 22.5103 6.70775 22.6756 6.5245C22.8573 6.35784 23.0705 6.22986 23.3024 6.14822C23.5343 6.06658 23.7802 6.03295 24.0253 6.04937H29.5097C30.9242 5.96133 32.3187 6.42107 33.4085 7.33471C33.8828 7.79413 34.253 8.35144 34.4938 8.9685C34.7347 9.58557 34.8405 10.2478 34.8041 10.91C34.8386 11.571 34.7311 12.2318 34.4889 12.847C34.2466 13.4622 33.8754 14.0174 33.4006 14.4745C32.3157 15.3924 30.9234 15.8567 29.5097 15.7719H26.1465V19.4443C26.16 19.7081 26.1195 19.9718 26.0273 20.219C25.9351 20.4663 25.7934 20.6917 25.6109 20.8811C25.4153 21.0628 25.1857 21.2033 24.9356 21.2942C24.6854 21.3852 24.4197 21.4247 24.1542 21.4105ZM28.9741 12.7904C29.5492 12.8364 30.122 12.6757 30.5909 12.3367C30.7766 12.1562 30.9201 11.9362 31.0109 11.6928C31.1017 11.4493 31.1376 11.1886 31.1159 10.9294C31.1159 9.67844 30.4017 9.05297 28.9734 9.05297H26.1465V12.7904H28.9741ZM41.0142 10.3926C42.6423 10.3926 43.8455 10.7851 44.6239 11.57C45.4023 12.355 45.7915 13.5468 45.7915 15.1453V19.6608C45.8047 19.8971 45.7687 20.1335 45.6857 20.3549C45.6027 20.5763 45.4746 20.7777 45.3097 20.9461C44.9415 21.2728 44.4603 21.4397 43.9707 21.4105C43.5206 21.4283 43.0805 21.2739 42.7386 20.9783C42.5773 20.8304 42.4475 20.6509 42.3572 20.4508C42.267 20.2506 42.2181 20.034 42.2137 19.8142C42.0229 20.3195 41.668 20.7447 41.2069 21.0205C40.6932 21.3198 40.1073 21.4694 39.5143 21.4527C38.8319 21.4632 38.1567 21.3114 37.5433 21.0098C36.9799 20.7341 36.502 20.3081 36.1617 19.778C35.8243 19.2464 35.6491 18.6266 35.658 17.9954C35.6243 17.3344 35.8342 16.6842 36.2474 16.1699C36.7558 15.6543 37.4112 15.3118 38.1221 15.1902C39.2646 14.9617 40.4285 14.8604 41.593 14.888H42.1711V14.6273C42.1893 14.4315 42.1683 14.2341 42.1094 14.0467C42.0505 13.8593 41.9549 13.6857 41.8282 13.5363C41.4989 13.2802 41.0851 13.1604 40.6713 13.2012C39.7883 13.2662 38.9209 13.4697 38.1002 13.8043C37.8329 13.9074 37.5508 13.9658 37.2648 13.9772C37.1019 13.9833 36.9398 13.9514 36.7911 13.884C36.6424 13.8166 36.5112 13.7155 36.4076 13.5885C36.1844 13.3006 36.0706 12.9417 36.0866 12.5766C36.0751 12.304 36.1421 12.0338 36.2793 11.7986C36.4389 11.5694 36.6524 11.3838 36.9007 11.2584C37.4987 10.9664 38.1328 10.7561 38.786 10.6332C39.5186 10.4763 40.2652 10.3957 41.0142 10.3926ZM40.4161 18.8827C40.6537 18.8896 40.8899 18.8438 41.108 18.7486C41.3262 18.6534 41.521 18.5112 41.6787 18.3318C42.0158 17.9407 42.192 17.4343 42.1711 16.9165V16.6578H41.8282C41.1687 16.621 40.5081 16.7052 39.8785 16.9064C39.7065 16.9644 39.5575 17.0764 39.4534 17.2261C39.3493 17.3759 39.2957 17.5553 39.3003 17.7381C39.2953 17.8889 39.3201 18.0392 39.3734 18.1801C39.4267 18.3211 39.5074 18.4499 39.6107 18.559C39.7148 18.6665 39.84 18.7508 39.9784 18.8066C40.1168 18.8623 40.2652 18.8883 40.4141 18.8827H40.4161ZM55.0246 10.3926C55.5473 10.3517 56.0723 10.4328 56.5589 10.6294C57.0456 10.826 57.4808 11.133 57.8309 11.5265C58.5194 12.5353 58.8447 13.7513 58.7526 14.9724V19.6393C58.7643 19.8802 58.7241 20.1207 58.6349 20.3444C58.5456 20.5681 58.4094 20.7697 58.2356 20.9354C57.8358 21.2437 57.3464 21.4107 56.8431 21.4107C56.3398 21.4107 55.8504 21.2437 55.4506 20.9354C55.2772 20.7695 55.1416 20.5678 55.0528 20.3441C54.964 20.1204 54.9242 19.88 54.9362 19.6393V15.1453C54.9753 14.6604 54.8588 14.1758 54.6039 13.7628C54.4841 13.6157 54.331 13.4997 54.1576 13.4245C53.9842 13.3493 53.7954 13.3171 53.6071 13.3305C53.3545 13.3183 53.1021 13.3613 52.8674 13.4563C52.6326 13.5514 52.421 13.6964 52.2468 13.8814C51.896 14.2907 51.7156 14.8208 51.7431 15.3611V19.6393C51.7551 19.88 51.7153 20.1204 51.6265 20.3441C51.5378 20.5678 51.4021 20.7695 51.2288 20.9354C50.8289 21.2437 50.3396 21.4107 49.8362 21.4107C49.3329 21.4107 48.8435 21.2437 48.4437 20.9354C48.2715 20.769 48.1369 20.567 48.0491 20.3433C47.9614 20.1196 47.9226 19.8795 47.9353 19.6393V12.1638C47.9284 11.9302 47.9725 11.6979 48.0643 11.4833C48.1562 11.2688 48.2936 11.0772 48.4669 10.922C48.8538 10.5867 49.3529 10.4129 49.8625 10.4362C50.3365 10.4115 50.8014 10.5743 51.1583 10.8898C51.3181 11.0417 51.4438 11.2263 51.5269 11.4313C51.61 11.6362 51.6486 11.8568 51.6401 12.078C52.0008 11.5401 52.4959 11.1078 53.0755 10.8248C53.6836 10.5316 54.3506 10.3837 55.0246 10.3926ZM65.9722 21.4541C65.231 21.4938 64.4894 21.3844 63.7906 21.1322C63.0918 20.88 62.4497 20.4901 61.9019 19.9851C61.3912 19.4599 60.9942 18.8334 60.736 18.1455C60.4778 17.4575 60.3641 16.7229 60.402 15.9883C60.3823 14.9609 60.6346 13.9468 61.133 13.0504C61.6107 12.2081 62.3218 11.5248 63.1791 11.0842C64.1117 10.6105 65.1448 10.3731 66.1888 10.3926C66.7963 10.3937 67.4011 10.4736 67.9884 10.6305C68.5475 10.7717 69.0821 10.9976 69.574 11.3006C69.7878 11.4282 69.9629 11.6125 70.0801 11.8335C70.1973 12.0545 70.2521 12.3036 70.2385 12.5538C70.2558 12.9419 70.1468 13.325 69.9282 13.6448C69.8391 13.7764 69.7191 13.8838 69.5789 13.9573C69.4388 14.0309 69.2827 14.0683 69.1247 14.0664C68.9139 14.0669 68.7042 14.0341 68.5034 13.9692C68.2739 13.8916 68.0516 13.7941 67.8388 13.6777C67.6006 13.5672 67.3566 13.4699 67.1079 13.3862C66.8927 13.3191 66.6685 13.2863 66.4433 13.289C65.0292 13.289 64.3221 14.1602 64.3221 15.9026C64.2746 16.6051 64.4674 17.3029 64.8684 17.8795C65.0601 18.1088 65.3022 18.2897 65.5756 18.4078C65.8489 18.5259 66.1458 18.5779 66.4427 18.5597C66.6711 18.5618 66.8985 18.529 67.1172 18.4625C67.3567 18.3843 67.5896 18.2868 67.8136 18.171C68.0993 18.0414 68.3315 17.9443 68.51 17.8795C68.6994 17.8128 68.8989 17.78 69.0995 17.7823C69.2575 17.7803 69.4135 17.8178 69.5537 17.8913C69.6939 17.9649 69.8138 18.0722 69.9029 18.2038C70.1215 18.5237 70.2305 18.9068 70.2132 19.2948C70.2166 19.5536 70.1578 19.8093 70.0418 20.0401C69.9376 20.2524 69.7737 20.429 69.5706 20.548C68.4776 21.1805 67.2317 21.4942 65.9722 21.4541ZM76.5104 10.3926C78.1385 10.3926 79.3418 10.7851 80.1202 11.57C80.8985 12.355 81.2884 13.5468 81.2897 15.1453V19.6608C81.303 19.8971 81.2669 20.1335 81.1839 20.3549C81.1009 20.5763 80.9729 20.7777 80.808 20.9461C80.4397 21.2728 79.9585 21.4397 79.4689 21.4105C79.0194 21.4282 78.5798 21.274 78.2382 20.9789C78.0765 20.8308 77.9466 20.6508 77.8563 20.4502C77.766 20.2496 77.7173 20.0325 77.7132 19.8122C77.5225 20.3184 77.1671 20.7444 76.7051 21.0205C76.1915 21.3198 75.6055 21.4694 75.0125 21.4527C74.3301 21.4632 73.6549 21.3114 73.0415 21.0098C72.478 20.7346 72 20.3091 71.6593 19.7794C71.3218 19.2478 71.1467 18.6279 71.1556 17.9968C71.1218 17.3358 71.3318 16.6855 71.745 16.1713C72.2534 15.6551 72.9091 15.312 73.6203 15.1902C74.7628 14.9617 75.9268 14.8604 77.0912 14.888H77.6693V14.6273C77.6875 14.4315 77.6665 14.2341 77.6076 14.0467C77.5487 13.8593 77.4531 13.6857 77.3264 13.5363C76.9971 13.2802 76.5834 13.1604 76.1695 13.2012C75.2866 13.2662 74.4191 13.4697 73.5984 13.8043C73.3311 13.9074 73.049 13.9658 72.7631 13.9772C72.6002 13.9833 72.438 13.9514 72.2894 13.884C72.1407 13.8166 72.0094 13.7155 71.9058 13.5885C71.6827 13.3006 71.5688 12.9417 71.5848 12.5766C71.5734 12.304 71.6403 12.0338 71.7776 11.7986C71.9371 11.5694 72.1506 11.3838 72.3989 11.2584C72.997 10.9664 73.631 10.7561 74.2842 10.6332C75.0162 10.4765 75.7621 10.3958 76.5104 10.3926ZM75.9123 18.8827C76.1499 18.8896 76.3861 18.8438 76.6043 18.7486C76.8224 18.6534 77.0172 18.5112 77.1749 18.3318C77.5121 17.9407 77.6882 17.4343 77.6673 16.9165V16.6578H77.3244C76.665 16.621 76.0043 16.7052 75.3747 16.9064C75.2027 16.9644 75.0537 17.0764 74.9497 17.2261C74.8456 17.3759 74.7919 17.5553 74.7966 17.7381C74.7915 17.8889 74.8163 18.0392 74.8696 18.1801C74.9229 18.3211 75.0036 18.4499 75.1069 18.559C75.2112 18.6668 75.3368 18.7513 75.4756 18.807C75.6143 18.8628 75.7631 18.8885 75.9123 18.8827ZM93.9505 18.2997C94.1252 18.4576 94.2651 18.6507 94.361 18.8666C94.4569 19.0825 94.5068 19.3163 94.5074 19.5529C94.5074 20.0267 94.3271 20.4824 94.0037 20.8261C93.8549 21.0032 93.6694 21.1453 93.4604 21.2423C93.2513 21.3393 93.0237 21.389 92.7935 21.3877C92.3408 21.3651 91.9129 21.1724 91.594 20.8476L87.2453 16.6793V19.5957C87.2626 19.8465 87.2223 20.0978 87.1275 20.3303C87.0328 20.5627 86.8862 20.77 86.6991 20.936C86.3057 21.2306 85.8287 21.3896 85.3388 21.3896C84.8488 21.3896 84.3718 21.2306 83.9785 20.936C83.7914 20.77 83.6447 20.5627 83.55 20.3303C83.4553 20.0978 83.4149 19.8465 83.4322 19.5957V7.73412C83.4149 7.4834 83.4553 7.23204 83.55 6.99959C83.6447 6.76713 83.7914 6.55984 83.9785 6.39382C84.3638 6.08402 84.8462 5.92313 85.3388 5.94013C85.8313 5.92313 86.3137 6.08402 86.6991 6.39382C86.8862 6.55984 87.0328 6.76713 87.1275 6.99959C87.2223 7.23204 87.2626 7.4834 87.2453 7.73412V15.0562L91.2086 10.9944C91.3652 10.8182 91.5567 10.6772 91.7708 10.5804C91.9848 10.4837 92.2167 10.4334 92.4513 10.4328C92.6782 10.4331 92.9026 10.4802 93.1107 10.5712C93.3188 10.6623 93.5062 10.7953 93.6614 10.9622C93.8253 11.1154 93.9564 11.3008 94.0467 11.507C94.137 11.7132 94.1845 11.9358 94.1864 12.1611C94.1814 12.3938 94.1294 12.623 94.0337 12.8348C93.9379 13.0466 93.8004 13.2364 93.6295 13.3929L91.2943 15.7263L93.9505 18.2997ZM104.341 17.8708C104.496 17.8673 104.649 17.9006 104.789 17.9682C104.929 18.0357 105.05 18.1355 105.145 18.2595C105.362 18.5512 105.472 18.9102 105.455 19.2747C105.457 19.5519 105.38 19.8238 105.231 20.0573C105.083 20.2907 104.871 20.4757 104.62 20.5896C104.069 20.8582 103.489 21.0647 102.892 21.2054C102.294 21.3624 101.679 21.4459 101.061 21.4541C100.002 21.479 98.9515 21.2492 97.9975 20.7839C97.1507 20.3606 96.4493 19.6909 95.984 18.8613C95.4974 17.9613 95.2542 16.9481 95.2789 15.9233C95.2621 14.9271 95.4941 13.9426 95.9534 13.0605C96.385 12.2377 97.0401 11.5559 97.842 11.0949C98.6743 10.6201 99.6171 10.3777 100.573 10.3926C101.479 10.3724 102.374 10.5961 103.165 11.0406C103.906 11.4695 104.507 12.1078 104.893 12.8768C105.316 13.7425 105.526 14.6988 105.503 15.664C105.521 15.9383 105.441 16.21 105.279 16.4306C105.197 16.5224 105.096 16.5942 104.983 16.6406C104.87 16.687 104.748 16.7069 104.626 16.6987H98.9697C99.0089 17.2593 99.2444 17.7875 99.6343 18.1891C100.07 18.5216 100.611 18.6828 101.155 18.6428C101.488 18.6459 101.819 18.6061 102.141 18.5242C102.482 18.4312 102.818 18.3193 103.148 18.1891C103.362 18.1029 103.573 18.0274 103.78 17.9626C103.961 17.9041 104.151 17.8732 104.341 17.8708ZM100.678 12.9854C100.455 12.9754 100.233 13.0136 100.026 13.0974C99.8188 13.1812 99.6321 13.3087 99.4781 13.4713C99.1484 13.8698 98.9599 14.3679 98.9425 14.8866H102.306C102.22 13.6191 101.678 12.9854 100.678 12.9854ZM109.311 21.2812C109.066 21.2976 108.82 21.264 108.588 21.1823C108.356 21.1007 108.143 20.9727 107.962 20.806C107.795 20.6191 107.668 20.4004 107.587 20.1629C107.506 19.9255 107.473 19.674 107.49 19.4235V7.88557C107.478 7.62607 107.518 7.36673 107.608 7.12339C107.699 6.88005 107.837 6.65781 108.015 6.47022C108.205 6.28927 108.429 6.14905 108.674 6.05804C108.919 5.96704 109.18 5.92715 109.44 5.9408C109.706 5.92662 109.971 5.96615 110.222 6.05707C110.472 6.14799 110.701 6.28847 110.897 6.47022C111.078 6.65617 111.219 6.87788 111.311 7.12145C111.404 7.36501 111.445 7.62517 111.432 7.88557V18.0618H116.36C117.6 18.0618 118.221 18.6019 118.221 19.6822C118.239 19.9058 118.207 20.1307 118.128 20.3401C118.048 20.5496 117.922 20.7382 117.76 20.8918C117.351 21.1819 116.855 21.3193 116.357 21.2805L109.311 21.2812ZM124.672 21.4541C123.615 21.4769 122.568 21.2436 121.619 20.7739C120.767 20.3452 120.059 19.6727 119.584 18.8405C119.09 17.943 118.842 16.9288 118.866 15.9026C118.841 14.8796 119.089 13.8687 119.584 12.9754C120.058 12.1514 120.762 11.4864 121.608 11.0634C122.57 10.622 123.614 10.3937 124.671 10.3937C125.728 10.3937 126.773 10.622 127.735 11.0634C128.581 11.4865 129.285 12.1514 129.759 12.9754C130.254 13.8684 130.502 14.8791 130.477 15.9019C130.502 16.9281 130.254 17.9423 129.76 18.8398C129.287 19.6699 128.583 20.342 127.736 20.7732C126.783 21.2456 125.732 21.4792 124.671 21.4541H124.672ZM124.672 18.5805C126.029 18.5805 126.708 17.6869 126.708 15.8999C126.708 14.1128 126.029 13.2193 124.672 13.2193C123.315 13.2193 122.637 14.1128 122.637 15.8999C122.637 17.6869 123.315 18.5805 124.671 18.5805H124.672ZM137.29 21.4541C136.549 21.4938 135.807 21.3844 135.109 21.1322C134.41 20.88 133.768 20.4901 133.22 19.9851C132.709 19.4599 132.312 18.8334 132.054 18.1455C131.796 17.4575 131.682 16.7229 131.72 15.9883C131.7 14.9609 131.953 13.9468 132.451 13.0504C132.929 12.2081 133.64 11.5248 134.497 11.0842C135.43 10.6105 136.463 10.3731 137.507 10.3926C138.114 10.3937 138.719 10.4736 139.306 10.6305C139.866 10.7717 140.4 10.9976 140.892 11.3006C141.106 11.4282 141.281 11.6125 141.398 11.8335C141.515 12.0545 141.57 12.3036 141.557 12.5538C141.574 12.9419 141.465 13.325 141.246 13.6448C141.157 13.7764 141.037 13.8838 140.897 13.9573C140.757 14.0309 140.601 14.0683 140.443 14.0664C140.232 14.0669 140.022 14.0341 139.821 13.9692C139.592 13.8916 139.37 13.7941 139.157 13.6777C138.919 13.5672 138.675 13.4699 138.426 13.3862C138.211 13.3191 137.987 13.2863 137.761 13.289C136.347 13.289 135.64 14.1602 135.64 15.9026C135.593 16.6051 135.786 17.3029 136.186 17.8795C136.378 18.1088 136.62 18.2897 136.894 18.4078C137.167 18.5259 137.464 18.5779 137.761 18.5597C137.989 18.5618 138.217 18.529 138.435 18.4625C138.675 18.3843 138.908 18.2868 139.132 18.171C139.417 18.0414 139.65 17.9443 139.828 17.8795C140.018 17.8128 140.217 17.78 140.418 17.7823C140.576 17.7803 140.732 17.8178 140.872 17.8913C141.012 17.9649 141.132 18.0722 141.221 18.2038C141.44 18.5237 141.549 18.9068 141.531 19.2948C141.535 19.5536 141.476 19.8093 141.36 20.0401C141.256 20.2524 141.092 20.429 140.889 20.548C139.796 21.1805 138.55 21.4942 137.29 21.4541ZM153.443 18.2997C153.618 18.4576 153.758 18.6507 153.854 18.8666C153.95 19.0825 153.999 19.3163 154 19.5529C154 20.0267 153.82 20.4824 153.496 20.8261C153.348 21.0032 153.162 21.1453 152.953 21.2423C152.744 21.3393 152.516 21.389 152.286 21.3877C151.833 21.3651 151.406 21.1724 151.087 20.8476L146.738 16.6779V19.5957C146.755 19.8465 146.715 20.0978 146.62 20.3303C146.525 20.5627 146.379 20.77 146.192 20.936C145.798 21.2306 145.321 21.3896 144.831 21.3896C144.341 21.3896 143.865 21.2306 143.471 20.936C143.284 20.77 143.137 20.5627 143.043 20.3303C142.948 20.0978 142.908 19.8465 142.925 19.5957V7.73412C142.908 7.4834 142.948 7.23204 143.043 6.99959C143.137 6.76713 143.284 6.55984 143.471 6.39382C143.856 6.08402 144.339 5.92313 144.831 5.94013C145.324 5.92313 145.806 6.08402 146.192 6.39382C146.379 6.55984 146.525 6.76713 146.62 6.99959C146.715 7.23204 146.755 7.4834 146.738 7.73412V15.0562L150.701 10.9944C150.858 10.8182 151.049 10.6772 151.263 10.5804C151.478 10.4837 151.709 10.4334 151.944 10.4328C152.171 10.4331 152.395 10.4802 152.603 10.5712C152.811 10.6623 152.999 10.7953 153.154 10.9622C153.318 11.1154 153.449 11.3008 153.539 11.507C153.63 11.7132 153.677 11.9358 153.679 12.1611C153.674 12.3938 153.622 12.623 153.526 12.8348C153.431 13.0466 153.293 13.2364 153.122 13.3929L150.786 15.7263L153.443 18.2997Z" fill="#F7BD01"/>
<path d="M14.557 9.39208L14.424 9.41888C14.0864 9.50117 13.7621 9.63114 13.4605 9.80489L13.3714 9.82164C13.2897 9.77071 13.2279 9.83236 13.1654 9.86386C13.0206 9.9369 12.8498 9.96305 12.7189 10.0274C12.469 10.0958 12.2235 10.1797 11.9838 10.2787C11.7626 10.4163 11.5147 10.5045 11.2568 10.5374C10.9962 10.5856 10.7451 10.6761 10.5132 10.8054C10.2401 10.9394 9.94439 10.9857 9.67127 11.113C9.43747 11.2359 9.19067 11.3319 8.93559 11.3992C8.79769 11.4342 8.66401 11.4843 8.53688 11.5486C8.36741 11.6188 8.20892 11.7134 8.06639 11.8294C7.93475 11.9549 7.83189 12.1077 7.76486 12.2774C7.69784 12.4471 7.66826 12.6295 7.67831 12.8119C7.68584 16.3091 7.68584 19.8064 7.67831 23.3037C7.67831 23.6756 7.59927 23.7674 7.24375 23.8244C7.14794 23.8408 7.05112 23.8507 6.95399 23.8539C6.39485 23.8681 5.8363 23.8081 5.29264 23.6756C4.96038 23.5939 4.63744 23.4746 4.30849 23.3814C4.1232 23.3348 3.94452 23.2645 3.77683 23.1723C3.36415 22.9277 2.92759 22.73 2.5189 22.4734C2.17381 22.2559 1.84103 22.0192 1.5221 21.7643C1.15377 21.4588 0.825627 21.1071 0.545814 20.7176C0.274956 20.3785 0.12731 19.9561 0.127234 19.5207C0.133436 15.8872 0.134466 12.2536 0.130479 8.62007C0.118191 8.49793 0.132197 8.37455 0.171526 8.25837C0.210854 8.14218 0.274645 8.03592 0.358427 7.94685C0.442208 7.85778 0.544053 7.78799 0.65703 7.74226C0.770007 7.69652 0.891388 7.67593 1.01299 7.68186C2.22576 7.63428 3.44127 7.65573 4.65471 7.59206C4.91455 7.57866 4.94973 7.62757 4.9504 7.89697C4.9504 8.34329 4.94176 8.79028 4.9504 9.23727C4.96302 9.72849 5.02881 9.88061 5.57705 10.026C5.92966 10.1186 6.30055 10.1131 6.65027 10.01C6.80475 9.99357 6.94652 9.91607 7.04444 9.79446C7.14235 9.67286 7.18841 9.51707 7.1726 9.36124C7.1726 8.85394 7.1726 8.34665 7.1726 7.84001C7.1726 7.51901 7.19985 7.49756 7.52215 7.4922C8.21947 7.48058 8.91684 7.46785 9.61416 7.454C10.4559 7.43836 11.2956 7.42251 12.1333 7.40643C12.445 7.40106 12.4729 7.42988 12.4729 7.73547C12.4729 7.85676 12.4729 7.97806 12.4729 8.09868C12.4902 8.21344 12.5357 8.322 12.6054 8.41439C12.6751 8.50678 12.7667 8.58002 12.8717 8.62743C13.3503 8.81338 13.8794 8.81862 14.3616 8.64218C14.4825 8.6171 14.5907 8.54935 14.6666 8.45108C14.7425 8.35281 14.7811 8.23049 14.7756 8.10607C14.7756 7.90904 14.7869 7.71201 14.7756 7.51566C14.7643 7.3193 14.842 7.26636 15.0254 7.26971C15.4242 7.27775 15.8229 7.28043 16.2216 7.26971C16.5553 7.30903 16.8831 7.38776 17.1985 7.50427C17.2869 7.52169 17.3553 7.61081 17.4331 7.66509C17.4694 7.70097 17.4964 7.74524 17.5119 7.79404C17.5273 7.84284 17.5307 7.89471 17.5218 7.94515C17.5129 7.99559 17.492 8.04307 17.4608 8.08349C17.4295 8.12391 17.389 8.15604 17.3426 8.17709C17.1433 8.2555 16.944 8.34061 16.7559 8.42907C16.4582 8.52663 16.1691 8.64948 15.892 8.79632C15.6076 8.992 15.2427 9.04294 14.9437 9.22723L14.8493 9.26208C14.7428 9.28078 14.6425 9.32541 14.557 9.39208ZM1.18382 20.532C1.16389 20.599 1.17849 20.6345 1.25026 20.6311L1.36724 20.7558C1.31939 20.8657 1.39644 20.9193 1.46223 20.9836C1.80757 21.3388 2.19323 21.6517 2.61122 21.9158C2.97573 22.1733 3.36358 22.3954 3.76953 22.5793C4.34405 22.8161 4.93024 23.0231 5.52586 23.1992C5.89081 23.3018 6.26807 23.3532 6.64695 23.3519C7.17259 23.3392 7.19921 23.3077 7.19921 22.785C7.19921 20.7799 7.19921 18.7748 7.19921 16.7697C7.19921 16.4595 7.11948 16.4052 6.83174 16.5117C6.77162 16.5439 6.70506 16.5621 6.63705 16.5649C6.56904 16.5678 6.50126 16.5552 6.43871 16.5281C6.37616 16.5011 6.32047 16.4602 6.27566 16.4085C6.23084 16.3569 6.19806 16.2957 6.17977 16.2296C6.09551 16.0321 6.03012 15.827 5.98444 15.6171C5.92729 15.3189 6.08808 15.0448 5.98906 14.7626C5.98674 14.7324 5.99548 14.7024 6.01364 14.6782C6.13114 14.4537 6.18297 14.2002 6.16315 13.9471C6.14879 13.811 6.17184 13.6735 6.22966 13.5497C6.2693 13.4806 6.29387 13.4038 6.30178 13.3245C6.30969 13.2451 6.30072 13.1649 6.2755 13.0893C6.22638 12.9165 6.19848 12.7382 6.19243 12.5585C6.18004 12.4452 6.14242 12.3362 6.08235 12.2397C6.02228 12.1431 5.94132 12.0615 5.84556 12.001C5.77544 11.9422 5.68776 11.9087 5.5966 11.9059C5.50544 11.9031 5.41599 11.9312 5.34245 11.9856C5.12071 12.1934 4.97098 12.4675 4.91519 12.7676C4.91125 12.7762 4.90916 12.7855 4.90903 12.7949C4.90889 12.8044 4.91068 12.8137 4.91438 12.8224C4.91808 12.831 4.92355 12.8388 4.93044 12.8452C4.93733 12.8516 4.9455 12.8564 4.95437 12.8594C4.94684 13.1302 4.93935 13.4009 4.93182 13.6716C4.8441 13.6549 4.81751 13.7239 4.78694 13.7809C4.74825 13.879 4.68232 13.9637 4.59712 14.0251C4.51192 14.0864 4.41103 14.1217 4.30647 14.1267L4.22137 14.0958C4.22802 13.9491 4.14301 13.9035 4.01476 13.9069L3.98085 13.8311C3.96641 13.5638 3.98311 13.2957 4.03066 13.0323C4.0384 13.0201 4.04733 13.0086 4.05726 12.9981C4.1503 12.9981 4.21473 12.976 4.14496 12.8641C4.15359 12.7757 4.16227 12.6872 4.17091 12.596C4.25265 12.5344 4.25863 12.4721 4.17091 12.4084C4.16515 12.3365 4.15919 12.2648 4.15299 12.1933C4.15614 12.0505 4.12069 11.9095 4.05045 11.7854C3.98021 11.6613 3.87777 11.5589 3.7542 11.489C3.74556 11.4769 3.73695 11.4648 3.72897 11.4521C3.68158 11.3754 3.61686 11.3111 3.54004 11.2645C3.46322 11.2179 3.37646 11.1903 3.28703 11.184C3.10417 11.1858 2.92864 11.2567 2.79503 11.3826C2.66143 11.5085 2.5795 11.6804 2.56538 11.8643C2.55807 12.4218 2.55542 12.9794 2.57203 13.5396C2.57802 13.7353 2.43311 13.801 2.33143 13.8847C2.22976 13.9685 2.18596 13.7997 2.11087 13.7507C2.07432 13.7279 2.051 13.6837 1.99916 13.6837C1.99916 13.5497 1.99916 13.4139 1.99916 13.2763C2.0191 13.2568 2.05036 13.2401 2.057 13.2166C2.18109 12.7357 2.2342 12.2389 2.21454 11.7423C2.19736 11.4703 2.12185 11.2053 1.99324 10.9656C1.95348 10.8488 1.8892 10.7419 1.8048 10.6524C1.7204 10.5629 1.6178 10.4928 1.50409 10.4469C1.31004 10.3799 1.03496 10.4978 1.03894 10.6808C1.01975 10.894 1.01711 11.1084 1.03099 11.3221C0.959224 11.4079 0.955179 11.4863 1.05419 11.5546C1.07981 11.6347 1.08414 11.7202 1.06677 11.8025C1.04939 11.8848 1.01097 11.9611 0.955228 12.0237C0.748557 12.0298 0.675457 12.1651 0.671469 12.3447C0.664824 12.6845 0.671469 13.025 0.671469 13.3654C0.671469 15.4446 0.671469 17.5239 0.671469 19.6031C0.671469 19.709 0.604998 19.8585 0.786417 19.9007L0.800369 19.9797C0.758504 20.2223 0.82826 20.3376 1.02962 20.3571L1.08145 20.4515C1.0675 20.532 1.10671 20.548 1.1745 20.5286L1.18382 20.532Z" fill="#F7BD01"/>
<path d="M15.8907 8.79497C16.1679 8.64815 16.4568 8.52529 16.7546 8.42773C16.944 8.33927 17.1434 8.25416 17.3414 8.17575C17.3877 8.15469 17.4282 8.12256 17.4594 8.08214C17.4906 8.04172 17.5116 7.99425 17.5205 7.94381C17.5294 7.89337 17.526 7.84149 17.5105 7.79269C17.4951 7.74389 17.468 7.69963 17.4318 7.66375C17.354 7.60947 17.2862 7.52034 17.1972 7.50292C16.8816 7.38636 16.5535 7.30763 16.2197 7.26836C15.8209 7.28043 15.4222 7.27842 15.0235 7.26836C14.8427 7.26434 14.7577 7.3193 14.7736 7.51431C14.7896 7.70932 14.7776 7.9077 14.7736 8.10472C14.779 8.22921 14.7402 8.35154 14.6642 8.44979C14.5882 8.54805 14.48 8.61577 14.3589 8.64083C13.8768 8.81727 13.3476 8.81203 12.869 8.62609C12.7639 8.57868 12.6724 8.50543 12.6028 8.41304C12.5331 8.32066 12.4875 8.21209 12.4703 8.09734C12.467 7.97604 12.4703 7.85542 12.4703 7.73412C12.4703 7.4292 12.4424 7.39905 12.1307 7.40508C11.289 7.41982 10.4492 7.43547 9.61145 7.452C8.91413 7.46495 8.21684 7.47767 7.51952 7.49018C7.19722 7.49554 7.1713 7.51699 7.16998 7.83799C7.16998 8.3453 7.16998 8.85259 7.16998 9.35922C7.18578 9.51505 7.13964 9.67084 7.04172 9.79244C6.94381 9.91405 6.80212 9.99154 6.64764 10.0079C6.29792 10.1111 5.92703 10.1166 5.57442 10.024C5.02618 9.87859 4.96039 9.72647 4.94777 9.23525C4.93581 8.78893 4.94777 8.34194 4.94777 7.89495C4.94777 7.62689 4.91184 7.57664 4.652 7.59004C3.43856 7.65706 2.2238 7.63226 1.01036 7.67984C0.888788 7.67403 0.767406 7.69471 0.654482 7.74048C0.541558 7.78625 0.439799 7.85603 0.356041 7.94508C0.272283 8.03412 0.208509 8.14034 0.16914 8.25647C0.12977 8.3726 0.115676 8.49593 0.12785 8.61805C0.12785 12.2516 0.126739 15.8851 0.124524 19.5187C0.124653 19.9541 0.272375 20.3764 0.543185 20.7156C0.823164 21.1053 1.15152 21.4573 1.52012 21.763C1.83791 22.0178 2.16959 22.2546 2.51359 22.472C2.92228 22.7287 3.35885 22.9264 3.77153 23.171C3.93923 23.2631 4.1179 23.3334 4.30319 23.3801C4.63546 23.4719 4.95308 23.5925 5.28734 23.6743C5.83099 23.8068 6.38955 23.8667 6.94868 23.8525C7.04581 23.8493 7.14263 23.8395 7.23844 23.823C7.5933 23.7661 7.67235 23.6736 7.67235 23.3023C7.67235 19.8051 7.67235 16.3078 7.67235 12.8105C7.6624 12.6281 7.69197 12.4458 7.75899 12.2761C7.82601 12.1065 7.92887 11.9536 8.06043 11.8281C8.20299 11.712 8.36147 11.6175 8.53093 11.5473C8.65806 11.483 8.79174 11.4329 8.92964 11.3978C9.18472 11.3306 9.43152 11.2346 9.66531 11.1117C9.93844 10.9843 10.2341 10.9368 10.5073 10.8041C10.7392 10.6749 10.9903 10.5844 11.2509 10.536C11.5088 10.5031 11.7566 10.4149 11.9779 10.2773C12.2175 10.1784 12.463 10.0945 12.7128 10.026C12.8457 9.959 13.0145 9.93556 13.1594 9.86251C13.2225 9.83034 13.2837 9.7687 13.3654 9.8203C13.3659 9.85846 13.3527 9.8955 13.3283 9.92466C13.3039 9.95383 13.27 9.97317 13.2326 9.97912C12.9933 10.018 12.7959 10.1641 12.55 10.2063C12.2905 10.2877 12.0395 10.3943 11.8005 10.5246C11.7101 10.5726 11.6147 10.6103 11.5161 10.6372C11.2699 10.6896 11.0331 10.78 10.8143 10.9053C10.5604 11.0339 10.2827 11.0862 10.0255 11.2021C9.72711 11.3362 9.41609 11.4528 9.10575 11.5613C8.88778 11.6371 8.67712 11.7302 8.46181 11.81C8.3315 11.8636 8.21377 11.9442 8.11624 12.0465C8.03117 12.1354 7.96674 12.2422 7.92756 12.3593C7.88837 12.4763 7.87544 12.6007 7.88967 12.7234C7.88967 15.5018 7.88967 18.2805 7.88967 21.0594C7.88967 21.7637 7.88967 22.4667 7.88967 23.1717C7.90627 23.3597 7.84908 23.5469 7.73043 23.693C7.61179 23.839 7.4411 23.9324 7.25499 23.9531C6.62544 24.0446 5.98386 24.0019 5.3717 23.8277C4.7683 23.7285 4.21608 23.4417 3.61667 23.3178C3.42686 23.2561 3.24858 23.163 3.08906 23.0423C2.49098 22.6711 1.95403 22.202 1.37256 21.8072C0.792915 21.377 0.332898 20.8035 0.0368327 20.1419C0.00411797 20.0567 -0.00703848 19.9645 0.00430348 19.8739C0.00430348 16.0504 0.00430348 12.227 0.00430348 8.4036C0.00660782 8.26517 0.0478093 8.13027 0.123226 8.01459C0.198642 7.89891 0.305162 7.80721 0.430266 7.7502C0.696822 7.61081 0.993947 7.54166 1.29411 7.54916C2.43047 7.48684 3.56617 7.3796 4.70652 7.40909C4.8773 7.41378 4.92448 7.33671 4.92116 7.17521C4.91319 6.72085 4.92119 6.26649 4.91654 5.81213C4.9064 5.09502 5.04208 4.38343 5.31524 3.72127C5.80547 2.5185 6.6603 1.50285 7.75745 0.819534C8.67729 0.227183 9.75941 -0.0564365 10.8489 0.00931493C11.3363 0.0256032 11.8161 0.135944 12.2623 0.334348C12.8052 0.568376 13.2912 0.918685 13.6864 1.361C13.9379 1.62764 14.1502 1.92912 14.3171 2.25632C14.5629 2.71126 14.7219 3.20861 14.7862 3.72262C14.8487 4.78212 14.8021 5.84095 14.8207 6.89912C14.8254 7.15913 14.8872 7.198 15.153 7.16717C15.7342 7.0918 16.324 7.11856 16.8961 7.24626C17.1809 7.27939 17.4441 7.41587 17.6364 7.63025C17.67 7.66162 17.6968 7.69965 17.7152 7.74198C17.7335 7.7843 17.743 7.83001 17.743 7.8762C17.743 7.92239 17.7335 7.96807 17.7152 8.0104C17.6968 8.05272 17.67 8.09077 17.6364 8.12214C17.4096 8.3636 17.1175 8.53273 16.7964 8.60866C16.4868 8.72527 16.1824 8.85394 15.8741 8.97055C15.6169 9.06839 11.0742 10.7799 10.8236 10.9012C10.7924 10.916 12.1806 10.2244 13.7077 9.58574C14.3523 9.31634 15.8043 8.85462 15.8907 8.79497ZM12.443 5.47973C12.443 5.04079 12.4304 4.60117 12.4464 4.16289C12.4518 3.92482 12.4058 3.68841 12.3116 3.47004C12.2174 3.25168 12.0773 3.0566 11.9008 2.89833C11.5932 2.61899 11.212 2.43531 10.8032 2.36944C10.3944 2.30357 9.97548 2.35832 9.59685 2.52708C8.97424 2.75364 8.42669 3.15097 8.0159 3.67435C7.67549 4.06609 7.43868 4.53818 7.32743 5.04682C7.24913 5.72263 7.22692 6.40386 7.26099 7.0834C7.26099 7.36352 7.27028 7.37358 7.55603 7.37023C8.38736 7.36018 9.21743 7.35213 10.0488 7.28779C10.7499 7.23351 11.4562 7.23954 12.1613 7.23016C12.374 7.23016 12.4551 7.1484 12.4511 6.93261C12.4364 6.44877 12.443 5.96425 12.443 5.47973Z" fill="white"/>
<path d="M8.38074 17.6898C8.38074 17.1296 8.38406 16.5694 8.38074 16.0091C8.38718 15.8812 8.40565 15.7542 8.4359 15.6298C8.49106 15.3216 8.78814 15.3035 8.98817 15.1929C9.33173 15.0033 9.70651 14.8706 10.0687 14.7151C10.1575 14.6761 10.2482 14.6416 10.3404 14.6119C10.5233 14.5503 10.6991 14.4692 10.8648 14.3699C11.312 14.1186 11.7991 13.9404 12.2683 13.7273C12.7487 13.5095 13.2252 13.2836 13.7043 13.0631C14.0506 12.9043 14.3981 12.7495 14.745 12.594C15.1723 12.3997 15.5976 12.2 16.0275 12.0104C16.401 11.8455 16.7772 11.6847 17.1573 11.5352C17.3201 11.4682 17.4284 11.5754 17.4849 11.7175C17.5136 11.8038 17.5262 11.8947 17.5221 11.9856C17.5221 12.8715 17.5221 13.7574 17.5261 14.6427C17.5314 14.7131 17.5165 14.7835 17.4832 14.8455C17.4498 14.9076 17.3994 14.9586 17.338 14.9925C16.815 15.3403 16.2442 15.5997 15.7033 15.9146C15.1178 16.2557 14.5344 16.6029 13.9316 16.9091C13.2737 17.2442 12.6371 17.6141 11.9905 17.9673C11.4589 18.2595 10.9272 18.5577 10.3956 18.8653C10.086 19.0553 9.76409 19.2241 9.43206 19.3706C9.19614 19.4684 9.01602 19.6802 8.74821 19.7345C8.49436 19.7861 8.38473 19.711 8.38406 19.443C8.38406 18.8599 8.38406 18.2769 8.38406 17.6939L8.38074 17.6898ZM13.4172 14.0999C13.3021 14.0827 13.1847 14.1064 13.085 14.1669C12.8557 14.3493 12.6863 14.597 12.5986 14.8779C12.5656 14.9426 12.5504 15.015 12.5546 15.0876C12.5588 15.1602 12.5823 15.2304 12.6225 15.2907C12.881 15.5421 12.768 15.8001 12.6769 16.0567C12.595 16.2178 12.5715 16.4027 12.6105 16.5794C12.6378 16.6619 12.677 16.7329 12.7906 16.6706C13.0981 16.516 13.396 16.3426 13.6824 16.1512C13.7124 16.1359 13.7389 16.1144 13.7602 16.0882C13.7816 16.062 13.7973 16.0317 13.8064 15.9991C13.8155 15.9664 13.8177 15.9323 13.8131 15.8987C13.8085 15.8652 13.797 15.8329 13.7794 15.8041C13.6779 15.6281 13.6238 15.4283 13.6226 15.2246C13.6215 15.021 13.6732 14.8206 13.7728 14.6434C13.8034 14.5846 13.8178 14.5185 13.8144 14.4522C13.811 14.3859 13.7901 14.3216 13.7537 14.2663C13.7172 14.211 13.6667 14.1665 13.6074 14.1376C13.5481 14.1087 13.4822 14.0963 13.4166 14.1019L13.4172 14.0999Z" fill="#F7BD01"/>
<path d="M8.38076 13.612C8.38076 13.3319 8.36748 13.0511 8.38409 12.7723C8.3767 12.6377 8.41194 12.5042 8.48468 12.3911C8.55742 12.278 8.66391 12.1911 8.7888 12.143C9.35698 11.8971 9.93712 11.6739 10.5053 11.4327C10.8914 11.2665 11.2967 11.1271 11.6841 10.9636C12.2317 10.729 12.7866 10.5132 13.3382 10.2934C13.741 10.1002 14.157 9.93606 14.5829 9.8022C14.7529 9.74576 14.9173 9.67353 15.074 9.58642C15.4727 9.40481 15.8913 9.26675 16.2907 9.08045C16.5971 8.93771 16.9241 8.82447 17.2444 8.7072C17.3939 8.65224 17.5102 8.78424 17.5102 8.9357C17.5208 9.49527 17.5235 10.0555 17.5102 10.6151C17.5049 10.8208 17.3108 10.8872 17.1533 10.9502C16.5765 11.1827 16.0236 11.4635 15.4534 11.7148C15.0925 11.875 14.7297 12.0358 14.3662 12.1926C13.8465 12.4171 13.3422 12.6791 12.8172 12.8902C12.4444 13.0397 12.0862 13.22 11.7247 13.3915C11.207 13.6368 10.6721 13.8412 10.161 14.1032C9.83939 14.2688 9.49652 14.4055 9.1596 14.5442C9.02669 14.5985 8.90106 14.6588 8.77347 14.7211C8.54354 14.8337 8.38804 14.7365 8.38206 14.4785C8.37342 14.185 8.38076 13.8995 8.38076 13.612Z" fill="#F7BD01"/>
<path d="M8.38071 21.8079C8.36743 21.4474 8.37919 21.0865 8.41592 20.7276C8.42527 20.6733 8.44763 20.6221 8.48097 20.5785C8.51432 20.5348 8.55769 20.5 8.60736 20.477C8.99611 20.2592 9.35557 19.9831 9.75562 19.7921C10.0879 19.6346 10.391 19.4363 10.7186 19.2754C11.104 19.0858 11.4682 18.8525 11.8437 18.6428C12.2603 18.4102 12.685 18.1911 13.0963 17.9492C13.416 17.7616 13.7449 17.5913 14.0652 17.4064C14.3403 17.2476 14.6281 17.1061 14.9065 16.9493C15.3411 16.7047 15.7783 16.4628 16.2176 16.2283C16.565 15.997 16.9387 15.8086 17.3307 15.6673C17.4437 15.6385 17.4822 15.6881 17.4829 15.7645C17.4875 16.2886 17.5055 16.8146 17.4689 17.336C17.455 17.537 17.2084 17.6108 17.0469 17.7126C16.6688 17.9505 16.304 18.2119 15.9212 18.4384C15.6675 18.6593 15.3711 18.8248 15.0507 18.9242C14.9317 18.9403 14.9078 19.0871 14.8075 19.1481C14.432 19.3766 14.0652 19.6205 13.6937 19.8571C13.1162 20.225 12.536 20.5889 11.9599 20.9595C11.4894 21.2624 11.0203 21.5673 10.5558 21.8796C10.0913 22.1919 9.59283 22.4727 9.13164 22.8024C8.99342 22.9016 8.84454 22.9894 8.69967 23.0812C8.52623 23.1911 8.38601 23.1107 8.38136 22.9023C8.37538 22.5612 8.38071 22.2207 8.38071 21.8079Z" fill="#F7BD01"/>
<path d="M1.37184 20.7551C1.67753 21.0144 1.96995 21.2912 2.29159 21.5297C2.79463 21.9178 3.34632 22.2371 3.93232 22.4793C4.06313 22.5327 4.19069 22.5938 4.3144 22.6623C4.60789 22.7897 4.91189 22.8911 5.22286 22.9652C5.74352 23.1563 6.29599 23.2437 6.84965 23.2225C7.01977 23.2125 7.07358 23.1368 7.07557 22.9867C7.07557 22.9411 7.07557 22.8962 7.07557 22.8526C7.07557 20.8708 7.07557 18.8889 7.07557 16.9071C7.07557 16.8541 7.07557 16.8012 7.07557 16.7482C7.07557 16.712 7.07889 16.6699 7.03769 16.6491C6.99648 16.6283 6.97528 16.6705 6.9487 16.6926C6.85667 16.7595 6.74523 16.7938 6.63184 16.79C6.51845 16.7862 6.40952 16.7447 6.32204 16.6719C6.18465 16.5927 6.0705 16.4783 5.99123 16.3402C5.91197 16.2021 5.87038 16.0453 5.87077 15.8858C5.87077 15.8114 5.80432 15.7705 5.77375 15.7115C5.72108 15.6024 5.69464 15.4823 5.69661 15.361C5.69857 15.2397 5.72886 15.1205 5.78503 15.0132C5.84169 14.9013 5.87364 14.7783 5.87872 14.6527C5.89893 14.3471 5.94723 14.044 6.02295 13.7473C6.14765 13.3723 6.12019 12.9627 5.94654 12.6081C5.92562 12.5677 5.91449 12.5229 5.91401 12.4774C5.90138 12.2723 5.76915 12.1939 5.59172 12.1711C5.51298 12.1645 5.43417 12.1833 5.36685 12.2251C5.29953 12.2668 5.24716 12.3292 5.21751 12.403C5.12846 12.5545 5.04344 12.7079 4.95638 12.8607C4.94745 12.8578 4.93925 12.853 4.93229 12.8467C4.92533 12.8403 4.91975 12.8325 4.91599 12.8238C4.91222 12.8152 4.9103 12.8058 4.91039 12.7963C4.91048 12.7868 4.91254 12.7775 4.91647 12.7689C4.9724 12.4689 5.12219 12.1948 5.34381 11.9868C5.41735 11.9324 5.5068 11.9044 5.59796 11.9072C5.68912 11.91 5.77672 11.9435 5.84684 12.0023C5.94261 12.0628 6.02356 12.1444 6.08363 12.241C6.1437 12.3375 6.18132 12.4465 6.19371 12.5598C6.19968 12.7395 6.22758 12.9177 6.27678 13.0906C6.30205 13.1662 6.31105 13.2464 6.30314 13.3257C6.29523 13.4051 6.27062 13.4819 6.23094 13.551C6.17306 13.675 6.15009 13.8127 6.16451 13.949C6.18433 14.2021 6.1325 14.4556 6.015 14.6802C6.00038 14.705 5.98243 14.7418 5.99107 14.7646C6.08942 15.0461 5.92857 15.3208 5.98572 15.619C6.03127 15.829 6.09674 16.0342 6.18114 16.2316C6.19942 16.2977 6.23213 16.3588 6.27694 16.4105C6.32175 16.4621 6.37752 16.503 6.44007 16.5301C6.50262 16.5572 6.57041 16.5697 6.63841 16.5669C6.70642 16.5641 6.7729 16.5459 6.83302 16.5137C7.12143 16.4071 7.20122 16.4621 7.20122 16.7717C7.20122 18.7768 7.20122 20.7819 7.20122 22.787C7.20122 23.3104 7.17461 23.3412 6.64896 23.3539C6.27008 23.3551 5.89283 23.3037 5.52788 23.2011C4.93227 23.025 4.34608 22.8181 3.77154 22.5812C3.36585 22.3975 2.97821 22.1756 2.61388 21.9184C2.19598 21.6542 1.81033 21.3413 1.46489 20.9863C1.40109 20.9186 1.324 20.8643 1.37184 20.7551Z" fill="#D7A066"/>
<path d="M0.95991 12.0204C0.837844 12.2076 0.787318 12.4331 0.817706 12.655C0.82125 15.0117 0.82125 17.3686 0.817706 19.7257C0.817706 19.7834 0.842932 19.847 0.791098 19.8973C0.611009 19.8551 0.676151 19.7056 0.676151 19.5998C0.672164 17.5205 0.672164 15.4413 0.676151 13.362C0.676151 13.0216 0.67017 12.6812 0.676151 12.3414C0.679474 12.1598 0.755232 12.0257 0.95991 12.0204Z" fill="#D7A066"/>
<path d="M3.73299 11.4548C3.63636 11.448 3.54228 11.4203 3.45718 11.3737C3.37062 11.3356 3.2759 11.3202 3.18186 11.329C3.08781 11.3378 2.99755 11.3705 2.91943 11.4241C2.84132 11.4776 2.77795 11.5503 2.73521 11.6352C2.69248 11.7201 2.67173 11.8146 2.67502 11.9098C2.63693 12.2999 2.64588 12.6932 2.70163 13.0812C2.73652 13.3359 2.70107 13.5954 2.59925 13.8311C2.57368 13.8995 2.52255 13.955 2.45681 13.9857C2.39106 14.0164 2.316 14.0198 2.24776 13.9953C2.10223 13.9578 1.97728 13.8747 2.00253 13.6863C2.05503 13.6823 2.07761 13.7286 2.11415 13.7534C2.18991 13.8003 2.23512 13.9678 2.3348 13.8874C2.43448 13.807 2.5813 13.738 2.57532 13.5423C2.55871 12.9854 2.56144 12.4272 2.56875 11.8669C2.58287 11.6831 2.6648 11.5112 2.7984 11.3853C2.93201 11.2594 3.10754 11.1885 3.2904 11.1867C3.37994 11.1929 3.46679 11.2204 3.54374 11.267C3.62068 11.3136 3.68553 11.378 3.73299 11.4548Z" fill="#D7A066"/>
<path d="M2.00119 13.2769C1.95471 13.0709 1.96882 12.8557 2.04175 12.6577C2.16898 12.1443 2.13671 11.6039 1.94935 11.1097C1.92507 10.9883 1.86919 10.8757 1.78744 10.7833C1.70568 10.691 1.60103 10.6223 1.48421 10.5843C1.30478 10.5407 1.18577 10.6379 1.04024 10.6788C1.03492 10.4958 1.31009 10.3799 1.50546 10.4449C1.61915 10.4908 1.72169 10.5609 1.80609 10.6505C1.89049 10.74 1.95474 10.8467 1.99454 10.9636C2.12309 11.2033 2.19859 11.4683 2.21583 11.7403C2.2355 12.2368 2.18248 12.7336 2.05838 13.2146C2.0524 13.2407 2.01913 13.2575 2.00119 13.2769Z" fill="#D7A066"/>
<path d="M4.93442 13.6703C4.93958 13.7479 4.92513 13.8255 4.89232 13.8959C4.85951 13.9663 4.80941 14.0271 4.74687 14.0726C4.68432 14.1182 4.61132 14.1469 4.53474 14.1561C4.45815 14.1653 4.38055 14.1547 4.30914 14.1253C4.41361 14.1203 4.51437 14.085 4.59955 14.0239C4.68474 13.9627 4.75076 13.8781 4.78962 13.7802C4.81819 13.7232 4.8467 13.6535 4.93442 13.6703Z" fill="#D7A066"/>
<path d="M3.98288 13.8291C3.93401 13.7734 3.8965 13.7085 3.87255 13.6382C3.8486 13.5679 3.83864 13.4935 3.84327 13.4193C3.8479 13.345 3.86706 13.2725 3.89956 13.2057C3.93207 13.139 3.97728 13.0793 4.03268 13.0303C3.98506 13.2937 3.96836 13.5618 3.98288 13.8291Z" fill="#D7A066"/>
<path d="M4.15627 12.1953C4.0101 11.9684 3.87699 11.7332 3.75757 11.4909C3.88109 11.5609 3.98343 11.6634 4.05366 11.7874C4.12389 11.9115 4.15935 12.0525 4.15627 12.1953Z" fill="#D7A066"/>
<path d="M0.805661 19.9764C0.884076 20.101 1.06548 20.162 1.03491 20.3537C0.834216 20.3342 0.763795 20.219 0.805661 19.9764Z" fill="#D7A066"/>
<path d="M4.22342 14.0938C4.17397 14.0873 4.12764 14.0657 4.09071 14.032C4.05377 13.9982 4.02796 13.9538 4.01672 13.9048C4.14498 13.9022 4.23006 13.9477 4.22342 14.0938Z" fill="#D7A066"/>
<path d="M1.03422 11.3194C1.11596 11.3864 1.10068 11.4695 1.05815 11.552C0.958468 11.4836 0.963113 11.4052 1.03422 11.3194Z" fill="#D7A066"/>
<path d="M4.17293 12.5987C4.14858 12.5737 4.13489 12.54 4.13489 12.5049C4.13489 12.4698 4.14858 12.4361 4.17293 12.4111C4.26065 12.4741 4.25401 12.5371 4.17293 12.5987Z" fill="#D7A066"/>
<path d="M4.05918 12.9961C4.03659 12.9171 4.07585 12.8795 4.14695 12.8621C4.21673 12.974 4.15554 12.9948 4.05918 12.9961Z" fill="#D7A066"/>
<path d="M1.08746 20.4481C1.15392 20.4327 1.18177 20.4596 1.17978 20.5252C1.11399 20.5447 1.07351 20.5286 1.08746 20.4481Z" fill="#D7A066"/>
<path d="M1.18589 20.5313C1.25234 20.5313 1.27957 20.5635 1.25232 20.6305C1.18055 20.6345 1.16595 20.5949 1.18589 20.5313Z" fill="#D7A066"/>
<path d="M13.4166 14.1019C13.4833 14.095 13.5506 14.1067 13.6112 14.1356C13.6718 14.1646 13.7235 14.2096 13.7605 14.266C13.7976 14.3224 13.8188 14.3879 13.8216 14.4554C13.8245 14.523 13.8089 14.59 13.7768 14.6494C13.677 14.8265 13.6251 15.0269 13.6262 15.2305C13.6272 15.4342 13.6812 15.634 13.7828 15.8101C13.8004 15.8389 13.8118 15.8712 13.8164 15.9047C13.8211 15.9383 13.8188 15.9725 13.8097 16.0051C13.8006 16.0377 13.7848 16.068 13.7635 16.0942C13.7421 16.1204 13.7157 16.1419 13.6857 16.1572C13.3993 16.3486 13.1014 16.5221 12.7939 16.6766C12.6809 16.7396 12.6411 16.6678 12.6138 16.5854C12.5748 16.4087 12.5983 16.2238 12.6803 16.0627C12.7713 15.8061 12.885 15.5481 12.6265 15.2961C12.5863 15.2357 12.5629 15.1655 12.5588 15.0929C12.5547 15.0203 12.5701 14.9479 12.6032 14.8833C12.6908 14.6023 12.8603 14.3546 13.0897 14.1722C13.1875 14.1118 13.3028 14.0869 13.4166 14.1019Z" fill="white"/>
<path d="M0.635568 9.78476L7.20119 11.7798L7.57333 23.5778L3.91838 22.9431L0.58905 20.4348L0.635568 9.78476Z" fill="#F7BD01"/>
</svg>
