<svg width="154" height="24" viewBox="0 0 154 24" fill="none" xmlns="http://www.w3.org/2000/svg">
<path d="M24.154 21.4105C23.8933 21.4242 23.6326 21.3843 23.3877 21.2933C23.1428 21.2023 22.9187 21.062 22.7292 20.8811C22.5498 20.6899 22.4107 20.464 22.3205 20.217C22.2302 19.97 22.1907 19.7072 22.2042 19.4443V7.88557C22.1879 7.63841 22.2213 7.39048 22.3022 7.15661C22.3832 6.92275 22.5101 6.70775 22.6754 6.5245C22.8571 6.35784 23.0703 6.22986 23.3022 6.14822C23.5341 6.06658 23.7799 6.03295 24.025 6.04937H29.5095C30.924 5.96133 32.3185 6.42107 33.4083 7.33471C33.8825 7.79413 34.2527 8.35144 34.4936 8.9685C34.7344 9.58557 34.8403 10.2478 34.8038 10.91C34.8384 11.571 34.7309 12.2318 34.4886 12.847C34.2464 13.4622 33.8752 14.0174 33.4003 14.4745C32.3154 15.3924 30.9232 15.8567 29.5095 15.7719H26.1462V19.4443C26.1598 19.7081 26.1192 19.9718 26.0271 20.219C25.9349 20.4663 25.7931 20.6917 25.6106 20.8811C25.4151 21.0628 25.1855 21.2033 24.9353 21.2942C24.6852 21.3852 24.4195 21.4247 24.154 21.4105ZM28.9738 12.7904C29.549 12.8364 30.1217 12.6757 30.5907 12.3367C30.7764 12.1562 30.9198 11.9362 31.0106 11.6928C31.1014 11.4493 31.1373 11.1886 31.1156 10.9294C31.1156 9.67844 30.4015 9.05297 28.9732 9.05297H26.1462V12.7904H28.9738ZM41.0139 10.3926C42.642 10.3926 43.8453 10.7851 44.6237 11.57C45.4021 12.355 45.7913 13.5468 45.7913 15.1453V19.6608C45.8045 19.8971 45.7684 20.1335 45.6855 20.3549C45.6025 20.5763 45.4744 20.7777 45.3095 20.9461C44.9413 21.2728 44.46 21.4397 43.9704 21.4105C43.5204 21.4283 43.0803 21.2739 42.7384 20.9783C42.577 20.8304 42.4473 20.6509 42.357 20.4508C42.2667 20.2506 42.2179 20.034 42.2134 19.8142C42.0227 20.3195 41.6678 20.7447 41.2066 21.0205C40.693 21.3198 40.107 21.4694 39.5141 21.4527C38.8317 21.4632 38.1564 21.3114 37.543 21.0098C36.9796 20.7341 36.5018 20.3081 36.1615 19.778C35.824 19.2464 35.6489 18.6266 35.6578 17.9954C35.624 17.3344 35.834 16.6842 36.2472 16.1699C36.7556 15.6543 37.411 15.3118 38.1219 15.1902C39.2644 14.9617 40.4283 14.8604 41.5927 14.888H42.1709V14.6273C42.1891 14.4315 42.1681 14.2341 42.1092 14.0467C42.0503 13.8593 41.9547 13.6857 41.828 13.5363C41.4986 13.2802 41.0849 13.1604 40.671 13.2012C39.7881 13.2662 38.9206 13.4697 38.0999 13.8043C37.8327 13.9074 37.5505 13.9658 37.2646 13.9772C37.1017 13.9833 36.9396 13.9514 36.7909 13.884C36.6422 13.8166 36.5109 13.7155 36.4074 13.5885C36.1842 13.3006 36.0704 12.9417 36.0864 12.5766C36.0749 12.304 36.1418 12.0338 36.2791 11.7986C36.4386 11.5694 36.6521 11.3838 36.9004 11.2584C37.4985 10.9664 38.1325 10.7561 38.7857 10.6332C39.5183 10.4763 40.265 10.3957 41.0139 10.3926ZM40.4158 18.8827C40.6534 18.8896 40.8896 18.8438 41.1078 18.7486C41.3259 18.6534 41.5207 18.5112 41.6785 18.3318C42.0156 17.9407 42.1917 17.4343 42.1709 16.9165V16.6578H41.828C41.1685 16.621 40.5079 16.7052 39.8782 16.9064C39.7063 16.9644 39.5573 17.0764 39.4532 17.2261C39.3491 17.3759 39.2954 17.5553 39.3001 17.7381C39.295 17.8889 39.3199 18.0392 39.3731 18.1801C39.4264 18.3211 39.5071 18.4499 39.6104 18.559C39.7145 18.6665 39.8398 18.7508 39.9782 18.8066C40.1165 18.8623 40.2649 18.8883 40.4138 18.8827H40.4158ZM55.0243 10.3926C55.547 10.3517 56.072 10.4328 56.5587 10.6294C57.0453 10.826 57.4806 11.133 57.8307 11.5265C58.5192 12.5353 58.8444 13.7513 58.7524 14.9724V19.6393C58.764 19.8802 58.7239 20.1207 58.6346 20.3444C58.5454 20.5681 58.4092 20.7697 58.2354 20.9354C57.8355 21.2437 57.3462 21.4107 56.8428 21.4107C56.3395 21.4107 55.8502 21.2437 55.4503 20.9354C55.277 20.7695 55.1413 20.5678 55.0525 20.3441C54.9637 20.1204 54.924 19.88 54.936 19.6393V15.1453C54.975 14.6604 54.8585 14.1758 54.6037 13.7628C54.4838 13.6157 54.3308 13.4997 54.1574 13.4245C53.9839 13.3493 53.7952 13.3171 53.6069 13.3305C53.3542 13.3183 53.1019 13.3613 52.8671 13.4563C52.6324 13.5514 52.4207 13.6964 52.2466 13.8814C51.8958 14.2907 51.7153 14.8208 51.7429 15.3611V19.6393C51.7548 19.88 51.7151 20.1204 51.6263 20.3441C51.5375 20.5678 51.4018 20.7695 51.2285 20.9354C50.8287 21.2437 50.3393 21.4107 49.836 21.4107C49.3326 21.4107 48.8433 21.2437 48.4434 20.9354C48.2712 20.769 48.1366 20.567 48.0489 20.3433C47.9612 20.1196 47.9223 19.8795 47.9351 19.6393V12.1638C47.9282 11.9302 47.9722 11.6979 48.0641 11.4833C48.1559 11.2688 48.2934 11.0772 48.4667 10.922C48.8535 10.5867 49.3527 10.4129 49.8622 10.4362C50.3363 10.4115 50.8011 10.5743 51.1581 10.8898C51.3179 11.0417 51.4436 11.2263 51.5267 11.4313C51.6098 11.6362 51.6484 11.8568 51.6399 12.078C52.0005 11.5401 52.4957 11.1078 53.0753 10.8248C53.6834 10.5316 54.3503 10.3837 55.0243 10.3926ZM65.9719 21.4541C65.2308 21.4938 64.4892 21.3844 63.7903 21.1322C63.0915 20.88 62.4495 20.4901 61.9016 19.9851C61.3909 19.4599 60.994 18.8334 60.7358 18.1455C60.4776 17.4575 60.3639 16.7229 60.4018 15.9883C60.3821 14.9609 60.6344 13.9468 61.1328 13.0504C61.6105 12.2081 62.3216 11.5248 63.1789 11.0842C64.1115 10.6105 65.1445 10.3731 66.1886 10.3926C66.7961 10.3937 67.4009 10.4736 67.9881 10.6305C68.5472 10.7717 69.0819 10.9976 69.5737 11.3006C69.7876 11.4282 69.9627 11.6125 70.0798 11.8335C70.197 12.0545 70.2518 12.3036 70.2382 12.5538C70.2555 12.9419 70.1466 13.325 69.9279 13.6448C69.8388 13.7764 69.7189 13.8838 69.5787 13.9573C69.4385 14.0309 69.2825 14.0683 69.1245 14.0664C68.9136 14.0669 68.7039 14.0341 68.5031 13.9692C68.2737 13.8916 68.0513 13.7941 67.8386 13.6777C67.6004 13.5672 67.3563 13.4699 67.1076 13.3862C66.8925 13.3191 66.6683 13.2863 66.4431 13.289C65.0289 13.289 64.3219 14.1602 64.3219 15.9026C64.2744 16.6051 64.4672 17.3029 64.8681 17.8795C65.0598 18.1088 65.302 18.2897 65.5753 18.4078C65.8487 18.5259 66.1456 18.5779 66.4424 18.5597C66.6708 18.5618 66.8982 18.529 67.1169 18.4625C67.3564 18.3843 67.5893 18.2868 67.8134 18.171C68.0991 18.0414 68.3312 17.9443 68.5098 17.8795C68.6992 17.8128 68.8986 17.78 69.0992 17.7823C69.2572 17.7803 69.4133 17.8178 69.5534 17.8913C69.6936 17.9649 69.8136 18.0722 69.9027 18.2038C70.1213 18.5237 70.2303 18.9068 70.213 19.2948C70.2164 19.5536 70.1576 19.8093 70.0415 20.0401C69.9374 20.2524 69.7735 20.429 69.5704 20.548C68.4774 21.1805 67.2315 21.4942 65.9719 21.4541ZM76.5101 10.3926C78.1383 10.3926 79.3415 10.7851 80.1199 11.57C80.8983 12.355 81.2882 13.5468 81.2895 15.1453V19.6608C81.3027 19.8971 81.2667 20.1335 81.1837 20.3549C81.1007 20.5763 80.9726 20.7777 80.8077 20.9461C80.4395 21.2728 79.9583 21.4397 79.4687 21.4105C79.0192 21.4282 78.5796 21.274 78.2379 20.9789C78.0763 20.8308 77.9463 20.6508 77.856 20.4502C77.7658 20.2496 77.7171 20.0325 77.713 19.8122C77.5223 20.3184 77.1668 20.7444 76.7049 21.0205C76.1912 21.3198 75.6053 21.4694 75.0123 21.4527C74.3299 21.4632 73.6547 21.3114 73.0413 21.0098C72.4778 20.7346 71.9997 20.3091 71.659 19.7794C71.3216 19.2478 71.1464 18.6279 71.1553 17.9968C71.1216 17.3358 71.3315 16.6855 71.7448 16.1713C72.2531 15.6551 72.9088 15.312 73.6201 15.1902C74.7626 14.9617 75.9265 14.8604 77.091 14.888H77.6691V14.6273C77.6873 14.4315 77.6663 14.2341 77.6074 14.0467C77.5485 13.8593 77.4529 13.6857 77.3262 13.5363C76.9968 13.2802 76.5831 13.1604 76.1692 13.2012C75.2863 13.2662 74.4189 13.4697 73.5981 13.8043C73.3309 13.9074 73.0487 13.9658 72.7628 13.9772C72.5999 13.9833 72.4378 13.9514 72.2891 13.884C72.1404 13.8166 72.0092 13.7155 71.9056 13.5885C71.6824 13.3006 71.5686 12.9417 71.5846 12.5766C71.5731 12.304 71.64 12.0338 71.7773 11.7986C71.9368 11.5694 72.1504 11.3838 72.3987 11.2584C72.9967 10.9664 73.6307 10.7561 74.284 10.6332C75.0159 10.4765 75.7619 10.3958 76.5101 10.3926ZM75.9121 18.8827C76.1497 18.8896 76.3859 18.8438 76.604 18.7486C76.8222 18.6534 77.017 18.5112 77.1747 18.3318C77.5118 17.9407 77.688 17.4343 77.6671 16.9165V16.6578H77.3242C76.6647 16.621 76.0041 16.7052 75.3745 16.9064C75.2025 16.9644 75.0535 17.0764 74.9494 17.2261C74.8453 17.3759 74.7917 17.5553 74.7963 17.7381C74.7912 17.8889 74.8161 18.0392 74.8694 18.1801C74.9227 18.3211 75.0033 18.4499 75.1066 18.559C75.211 18.6668 75.3366 18.7513 75.4753 18.807C75.614 18.8628 75.7628 18.8885 75.9121 18.8827ZM93.9502 18.2997C94.125 18.4576 94.2648 18.6507 94.3608 18.8666C94.4567 19.0825 94.5066 19.3163 94.5071 19.5529C94.5071 20.0267 94.3268 20.4824 94.0034 20.8261C93.8546 21.0032 93.6692 21.1453 93.4601 21.2423C93.2511 21.3393 93.0234 21.389 92.7933 21.3877C92.3406 21.3651 91.9127 21.1724 91.5938 20.8476L87.2451 16.6793V19.5957C87.2623 19.8465 87.222 20.0978 87.1273 20.3303C87.0325 20.5627 86.8859 20.77 86.6988 20.936C86.3054 21.2306 85.8285 21.3896 85.3385 21.3896C84.8486 21.3896 84.3716 21.2306 83.9782 20.936C83.7911 20.77 83.6445 20.5627 83.5497 20.3303C83.455 20.0978 83.4147 19.8465 83.432 19.5957V7.73412C83.4147 7.4834 83.455 7.23204 83.5497 6.99959C83.6445 6.76713 83.7911 6.55984 83.9782 6.39382C84.3636 6.08402 84.846 5.92313 85.3385 5.94013C85.8311 5.92313 86.3135 6.08402 86.6988 6.39382C86.8859 6.55984 87.0325 6.76713 87.1273 6.99959C87.222 7.23204 87.2623 7.4834 87.2451 7.73412V15.0562L91.2084 10.9944C91.3649 10.8182 91.5564 10.6772 91.7705 10.5804C91.9846 10.4837 92.2165 10.4334 92.451 10.4328C92.6779 10.4331 92.9023 10.4802 93.1105 10.5712C93.3186 10.6623 93.506 10.7953 93.6612 10.9622C93.8251 11.1154 93.9562 11.3008 94.0464 11.507C94.1367 11.7132 94.1843 11.9358 94.1862 12.1611C94.1811 12.3938 94.1292 12.623 94.0334 12.8348C93.9377 13.0466 93.8002 13.2364 93.6293 13.3929L91.2941 15.7263L93.9502 18.2997ZM104.341 17.8708C104.496 17.8673 104.649 17.9006 104.789 17.9682C104.928 18.0357 105.05 18.1355 105.144 18.2595C105.362 18.5512 105.472 18.9102 105.455 19.2747C105.457 19.5519 105.379 19.8238 105.231 20.0573C105.083 20.2907 104.871 20.4757 104.62 20.5896C104.068 20.8582 103.489 21.0647 102.892 21.2054C102.294 21.3624 101.679 21.4459 101.061 21.4541C100.001 21.479 98.9513 21.2492 97.9973 20.7839C97.1505 20.3606 96.4491 19.6909 95.9837 18.8613C95.4971 17.9613 95.254 16.9481 95.2787 15.9233C95.2619 14.9271 95.4938 13.9426 95.9532 13.0605C96.3848 12.2377 97.0399 11.5559 97.8418 11.0949C98.6741 10.6201 99.6169 10.3777 100.573 10.3926C101.479 10.3724 102.373 10.5961 103.165 11.0406C103.906 11.4695 104.507 12.1078 104.893 12.8768C105.316 13.7425 105.526 14.6988 105.503 15.664C105.521 15.9383 105.441 16.21 105.279 16.4306C105.197 16.5224 105.096 16.5942 104.983 16.6406C104.869 16.687 104.747 16.7069 104.625 16.6987H98.9695C99.0086 17.2593 99.2442 17.7875 99.634 18.1891C100.07 18.5216 100.61 18.6828 101.155 18.6428C101.487 18.6459 101.819 18.6061 102.141 18.5242C102.482 18.4312 102.818 18.3193 103.147 18.1891C103.362 18.1029 103.573 18.0274 103.779 17.9626C103.961 17.9041 104.15 17.8732 104.341 17.8708ZM100.677 12.9854C100.455 12.9754 100.232 13.0136 100.025 13.0974C99.8186 13.1812 99.6319 13.3087 99.4779 13.4713C99.1482 13.8698 98.9597 14.3679 98.9422 14.8866H102.305C102.22 13.6191 101.677 12.9854 100.677 12.9854ZM109.311 21.2812C109.066 21.2976 108.82 21.264 108.588 21.1823C108.356 21.1007 108.143 20.9727 107.961 20.806C107.795 20.6191 107.668 20.4004 107.587 20.1629C107.506 19.9255 107.473 19.674 107.49 19.4235V7.88557C107.478 7.62607 107.518 7.36673 107.608 7.12339C107.698 6.88005 107.837 6.65781 108.015 6.47022C108.205 6.28927 108.429 6.14905 108.674 6.05804C108.919 5.96704 109.179 5.92715 109.44 5.9408C109.705 5.92662 109.971 5.96615 110.221 6.05707C110.471 6.14799 110.701 6.28847 110.897 6.47022C111.078 6.65617 111.219 6.87788 111.311 7.12145C111.403 7.36501 111.444 7.62517 111.432 7.88557V18.0618H116.36C117.6 18.0618 118.22 18.6019 118.22 19.6822C118.239 19.9058 118.207 20.1307 118.127 20.3401C118.048 20.5496 117.922 20.7382 117.76 20.8918C117.351 21.1819 116.855 21.3193 116.356 21.2805L109.311 21.2812ZM124.672 21.4541C123.615 21.4769 122.568 21.2436 121.619 20.7739C120.767 20.3452 120.059 19.6727 119.583 18.8405C119.089 17.943 118.842 16.9288 118.866 15.9026C118.841 14.8796 119.089 13.8687 119.583 12.9754C120.057 12.1514 120.761 11.4864 121.608 11.0634C122.57 10.622 123.614 10.3937 124.671 10.3937C125.728 10.3937 126.773 10.622 127.735 11.0634C128.581 11.4865 129.285 12.1514 129.759 12.9754C130.254 13.8684 130.502 14.8791 130.477 15.9019C130.501 16.9281 130.254 17.9423 129.759 18.8398C129.287 19.6699 128.583 20.342 127.735 20.7732C126.783 21.2456 125.732 21.4792 124.671 21.4541H124.672ZM124.672 18.5805C126.029 18.5805 126.707 17.6869 126.707 15.8999C126.707 14.1128 126.029 13.2193 124.672 13.2193C123.315 13.2193 122.636 14.1128 122.636 15.8999C122.636 17.6869 123.315 18.5805 124.671 18.5805H124.672ZM137.29 21.4541C136.549 21.4938 135.807 21.3844 135.108 21.1322C134.41 20.88 133.768 20.4901 133.22 19.9851C132.709 19.4599 132.312 18.8334 132.054 18.1455C131.796 17.4575 131.682 16.7229 131.72 15.9883C131.7 14.9609 131.952 13.9468 132.451 13.0504C132.929 12.2081 133.64 11.5248 134.497 11.0842C135.43 10.6105 136.463 10.3731 137.507 10.3926C138.114 10.3937 138.719 10.4736 139.306 10.6305C139.865 10.7717 140.4 10.9976 140.892 11.3006C141.106 11.4282 141.281 11.6125 141.398 11.8335C141.515 12.0545 141.57 12.3036 141.556 12.5538C141.574 12.9419 141.465 13.325 141.246 13.6448C141.157 13.7764 141.037 13.8838 140.897 13.9573C140.757 14.0309 140.601 14.0683 140.443 14.0664C140.232 14.0669 140.022 14.0341 139.821 13.9692C139.592 13.8916 139.369 13.7941 139.157 13.6777C138.918 13.5672 138.674 13.4699 138.426 13.3862C138.211 13.3191 137.986 13.2863 137.761 13.289C136.347 13.289 135.64 14.1602 135.64 15.9026C135.592 16.6051 135.785 17.3029 136.186 17.8795C136.378 18.1088 136.62 18.2897 136.893 18.4078C137.167 18.5259 137.464 18.5779 137.76 18.5597C137.989 18.5618 138.216 18.529 138.435 18.4625C138.675 18.3843 138.907 18.2868 139.131 18.171C139.417 18.0414 139.649 17.9443 139.828 17.8795C140.017 17.8128 140.217 17.78 140.417 17.7823C140.575 17.7803 140.731 17.8178 140.872 17.8913C141.012 17.9649 141.132 18.0722 141.221 18.2038C141.439 18.5237 141.548 18.9068 141.531 19.2948C141.534 19.5536 141.476 19.8093 141.36 20.0401C141.255 20.2524 141.092 20.429 140.888 20.548C139.795 21.1805 138.55 21.4942 137.29 21.4541ZM153.443 18.2997C153.618 18.4576 153.757 18.6507 153.853 18.8666C153.949 19.0825 153.999 19.3163 154 19.5529C154 20.0267 153.82 20.4824 153.496 20.8261C153.347 21.0032 153.162 21.1453 152.953 21.2423C152.744 21.3393 152.516 21.389 152.286 21.3877C151.833 21.3651 151.405 21.1724 151.086 20.8476L146.738 16.6779V19.5957C146.755 19.8465 146.715 20.0978 146.62 20.3303C146.525 20.5627 146.379 20.77 146.191 20.936C145.798 21.2306 145.321 21.3896 144.831 21.3896C144.341 21.3896 143.864 21.2306 143.471 20.936C143.284 20.77 143.137 20.5627 143.042 20.3303C142.948 20.0978 142.907 19.8465 142.925 19.5957V7.73412C142.907 7.4834 142.948 7.23204 143.042 6.99959C143.137 6.76713 143.284 6.55984 143.471 6.39382C143.856 6.08402 144.339 5.92313 144.831 5.94013C145.324 5.92313 145.806 6.08402 146.191 6.39382C146.379 6.55984 146.525 6.76713 146.62 6.99959C146.715 7.23204 146.755 7.4834 146.738 7.73412V15.0562L150.701 10.9944C150.858 10.8182 151.049 10.6772 151.263 10.5804C151.477 10.4837 151.709 10.4334 151.944 10.4328C152.171 10.4331 152.395 10.4802 152.603 10.5712C152.811 10.6623 152.999 10.7953 153.154 10.9622C153.318 11.1154 153.449 11.3008 153.539 11.507C153.629 11.7132 153.677 11.9358 153.679 12.1611C153.674 12.3938 153.622 12.623 153.526 12.8348C153.43 13.0466 153.293 13.2364 153.122 13.3929L150.786 15.7263L153.443 18.2997Z" fill="#F7BD01"/>
<path d="M14.5568 9.39208L14.4238 9.41888C14.0862 9.50117 13.7619 9.63114 13.4603 9.80489L13.3712 9.82164C13.2895 9.77071 13.2277 9.83236 13.1653 9.86386C13.0204 9.9369 12.8496 9.96305 12.7187 10.0274C12.4688 10.0958 12.2233 10.1797 11.9837 10.2787C11.7624 10.4163 11.5145 10.5045 11.2567 10.5374C10.9961 10.5856 10.7449 10.6761 10.513 10.8054C10.2399 10.9394 9.94421 10.9857 9.67109 11.113C9.43729 11.2359 9.19049 11.3319 8.93541 11.3992C8.79751 11.4342 8.66382 11.4843 8.5367 11.5486C8.36723 11.6188 8.20874 11.7134 8.0662 11.8294C7.93457 11.9549 7.83171 12.1077 7.76468 12.2774C7.69765 12.4471 7.66808 12.6295 7.67812 12.8119C7.68566 16.3091 7.68566 19.8064 7.67812 23.3037C7.67812 23.6756 7.59909 23.7674 7.24356 23.8244C7.14776 23.8408 7.05093 23.8507 6.9538 23.8539C6.39467 23.8681 5.83611 23.8081 5.29246 23.6756C4.96019 23.5939 4.63726 23.4746 4.30831 23.3814C4.12301 23.3348 3.94433 23.2645 3.77665 23.1723C3.36397 22.9277 2.92741 22.73 2.51872 22.4734C2.17363 22.2559 1.84085 22.0192 1.52191 21.7643C1.15358 21.4588 0.825444 21.1071 0.545631 20.7176C0.274773 20.3785 0.127127 19.9561 0.127051 19.5207C0.133253 15.8872 0.134283 12.2536 0.130296 8.62007C0.118008 8.49793 0.132014 8.37455 0.171342 8.25837C0.210671 8.14218 0.274462 8.03592 0.358243 7.94685C0.442025 7.85778 0.54387 7.78799 0.656847 7.74226C0.769824 7.69652 0.891205 7.67593 1.0128 7.68186C2.22558 7.63428 3.44109 7.65573 4.65453 7.59206C4.91437 7.57866 4.94955 7.62757 4.95021 7.89697C4.95021 8.34329 4.94158 8.79028 4.95021 9.23727C4.96284 9.72849 5.02863 9.88061 5.57687 10.026C5.92947 10.1186 6.30037 10.1131 6.65009 10.01C6.80456 9.99357 6.94634 9.91607 7.04425 9.79446C7.14216 9.67286 7.18823 9.51707 7.17242 9.36124C7.17242 8.85394 7.17242 8.34665 7.17242 7.84001C7.17242 7.51901 7.19967 7.49756 7.52197 7.4922C8.21929 7.48058 8.91666 7.46785 9.61398 7.454C10.4557 7.43836 11.2954 7.42251 12.1332 7.40643C12.4448 7.40106 12.4727 7.42988 12.4727 7.73547C12.4727 7.85676 12.4727 7.97806 12.4727 8.09868C12.49 8.21344 12.5355 8.322 12.6052 8.41439C12.6749 8.50678 12.7665 8.58002 12.8715 8.62743C13.3501 8.81338 13.8792 8.81862 14.3614 8.64218C14.4824 8.6171 14.5905 8.54935 14.6664 8.45108C14.7423 8.35281 14.7809 8.23049 14.7754 8.10607C14.7754 7.90904 14.7867 7.71201 14.7754 7.51566C14.7641 7.3193 14.8419 7.26636 15.0253 7.26971C15.424 7.27775 15.8227 7.28043 16.2215 7.26971C16.5551 7.30903 16.8829 7.38776 17.1983 7.50427C17.2867 7.52169 17.3552 7.61081 17.4329 7.66509C17.4692 7.70097 17.4962 7.74524 17.5117 7.79404C17.5271 7.84284 17.5306 7.89471 17.5217 7.94515C17.5128 7.99559 17.4918 8.04307 17.4606 8.08349C17.4294 8.12391 17.3888 8.15604 17.3425 8.17709C17.1431 8.2555 16.9438 8.34061 16.7557 8.42907C16.458 8.52663 16.1689 8.64948 15.8918 8.79632C15.6074 8.992 15.2425 9.04294 14.9435 9.22723L14.8492 9.26208C14.7427 9.28078 14.6423 9.32541 14.5568 9.39208ZM1.18364 20.532C1.16371 20.599 1.17831 20.6345 1.25008 20.6311L1.36705 20.7558C1.31921 20.8657 1.39626 20.9193 1.46205 20.9836C1.80739 21.3388 2.19305 21.6517 2.61103 21.9158C2.97555 22.1733 3.36339 22.3954 3.76935 22.5793C4.34387 22.8161 4.93006 23.0231 5.52568 23.1992C5.89063 23.3018 6.26788 23.3532 6.64676 23.3519C7.17241 23.3392 7.19903 23.3077 7.19903 22.785C7.19903 20.7799 7.19903 18.7748 7.19903 16.7697C7.19903 16.4595 7.1193 16.4052 6.83155 16.5117C6.77144 16.5439 6.70487 16.5621 6.63687 16.5649C6.56886 16.5678 6.50107 16.5552 6.43853 16.5281C6.37598 16.5011 6.32029 16.4602 6.27548 16.4085C6.23066 16.3569 6.19788 16.2957 6.17959 16.2296C6.09532 16.0321 6.02994 15.827 5.98425 15.6171C5.9271 15.3189 6.08789 15.0448 5.98888 14.7626C5.98656 14.7324 5.9953 14.7024 6.01346 14.6782C6.13095 14.4537 6.18279 14.2002 6.16296 13.9471C6.1486 13.811 6.17166 13.6735 6.22948 13.5497C6.26911 13.4806 6.29369 13.4038 6.3016 13.3245C6.3095 13.2451 6.30054 13.1649 6.27531 13.0893C6.2262 12.9165 6.1983 12.7382 6.19225 12.5585C6.17985 12.4452 6.14224 12.3362 6.08217 12.2397C6.02209 12.1431 5.94114 12.0615 5.84538 12.001C5.77525 11.9422 5.68758 11.9087 5.59642 11.9059C5.50526 11.9031 5.4158 11.9312 5.34227 11.9856C5.12053 12.1934 4.9708 12.4675 4.91501 12.7676C4.91106 12.7762 4.90898 12.7855 4.90884 12.7949C4.90871 12.8044 4.9105 12.8137 4.9142 12.8224C4.9179 12.831 4.92337 12.8388 4.93026 12.8452C4.93715 12.8516 4.94531 12.8564 4.95419 12.8594C4.94666 13.1302 4.93917 13.4009 4.93164 13.6716C4.84392 13.6549 4.81733 13.7239 4.78676 13.7809C4.74807 13.879 4.68214 13.9637 4.59694 14.0251C4.51173 14.0864 4.41084 14.1217 4.30628 14.1267L4.22119 14.0958C4.22783 13.9491 4.14283 13.9035 4.01457 13.9069L3.98067 13.8311C3.96623 13.5638 3.98292 13.2957 4.03047 13.0323C4.03822 13.0201 4.04715 13.0086 4.05708 12.9981C4.15012 12.9981 4.21455 12.976 4.14477 12.8641C4.15341 12.7757 4.16209 12.6872 4.17073 12.596C4.25247 12.5344 4.25845 12.4721 4.17073 12.4084C4.16497 12.3365 4.15901 12.2648 4.1528 12.1933C4.15596 12.0505 4.12051 11.9095 4.05027 11.7854C3.98003 11.6613 3.87758 11.5589 3.75402 11.489C3.74538 11.4769 3.73676 11.4648 3.72879 11.4521C3.68139 11.3754 3.61668 11.3111 3.53986 11.2645C3.46304 11.2179 3.37628 11.1903 3.28684 11.184C3.10398 11.1858 2.92845 11.2567 2.79485 11.3826C2.66125 11.5085 2.57932 11.6804 2.5652 11.8643C2.55789 12.4218 2.55524 12.9794 2.57185 13.5396C2.57783 13.7353 2.43292 13.801 2.33125 13.8847C2.22957 13.9685 2.18578 13.7997 2.11068 13.7507C2.07413 13.7279 2.05081 13.6837 1.99898 13.6837C1.99898 13.5497 1.99898 13.4139 1.99898 13.2763C2.01892 13.2568 2.05017 13.2401 2.05682 13.2166C2.18091 12.7357 2.23402 12.2389 2.21435 11.7423C2.19718 11.4703 2.12167 11.2053 1.99306 10.9656C1.9533 10.8488 1.88902 10.7419 1.80462 10.6524C1.72021 10.5629 1.61761 10.4928 1.5039 10.4469C1.30986 10.3799 1.03477 10.4978 1.03876 10.6808C1.01957 10.894 1.01693 11.1084 1.03081 11.3221C0.959041 11.4079 0.954995 11.4863 1.05401 11.5546C1.07963 11.6347 1.08396 11.7202 1.06659 11.8025C1.04921 11.8848 1.01079 11.9611 0.955045 12.0237C0.748374 12.0298 0.675273 12.1651 0.671286 12.3447C0.664641 12.6845 0.671286 13.025 0.671286 13.3654C0.671286 15.4446 0.671286 17.5239 0.671286 19.6031C0.671286 19.709 0.604815 19.8585 0.786234 19.9007L0.800186 19.9797C0.758321 20.2223 0.828077 20.3376 1.02943 20.3571L1.08127 20.4515C1.06731 20.532 1.10653 20.548 1.17431 20.5286L1.18364 20.532Z" fill="#F7BD01"/>
<path d="M15.8907 8.79497C16.1679 8.64815 16.4568 8.52529 16.7546 8.42773C16.944 8.33927 17.1434 8.25416 17.3414 8.17575C17.3877 8.15469 17.4282 8.12256 17.4594 8.08214C17.4906 8.04172 17.5116 7.99425 17.5205 7.94381C17.5294 7.89337 17.526 7.84149 17.5105 7.79269C17.4951 7.74389 17.468 7.69963 17.4318 7.66375C17.354 7.60947 17.2862 7.52034 17.1972 7.50292C16.8816 7.38636 16.5535 7.30763 16.2197 7.26836C15.8209 7.28043 15.4222 7.27842 15.0235 7.26836C14.8427 7.26434 14.7577 7.3193 14.7736 7.51431C14.7896 7.70932 14.7776 7.9077 14.7736 8.10472C14.779 8.22921 14.7402 8.35154 14.6642 8.44979C14.5882 8.54805 14.48 8.61577 14.3589 8.64083C13.8768 8.81727 13.3476 8.81203 12.869 8.62609C12.7639 8.57868 12.6724 8.50543 12.6028 8.41304C12.5331 8.32066 12.4875 8.21209 12.4703 8.09734C12.467 7.97604 12.4703 7.85542 12.4703 7.73412C12.4703 7.4292 12.4424 7.39905 12.1307 7.40508C11.289 7.41982 10.4492 7.43547 9.61145 7.452C8.91413 7.46495 8.21684 7.47767 7.51952 7.49018C7.19722 7.49554 7.1713 7.51699 7.16998 7.83799C7.16998 8.3453 7.16998 8.85259 7.16998 9.35922C7.18578 9.51505 7.13964 9.67084 7.04172 9.79244C6.94381 9.91405 6.80212 9.99154 6.64764 10.0079C6.29792 10.1111 5.92703 10.1166 5.57442 10.024C5.02618 9.87859 4.96039 9.72647 4.94777 9.23525C4.93581 8.78893 4.94777 8.34194 4.94777 7.89495C4.94777 7.62689 4.91184 7.57664 4.652 7.59004C3.43856 7.65706 2.2238 7.63226 1.01036 7.67984C0.888788 7.67403 0.767406 7.69471 0.654482 7.74048C0.541558 7.78625 0.439799 7.85603 0.356041 7.94508C0.272283 8.03412 0.208509 8.14034 0.16914 8.25647C0.12977 8.3726 0.115676 8.49593 0.12785 8.61805C0.12785 12.2516 0.126739 15.8851 0.124524 19.5187C0.124653 19.9541 0.272375 20.3764 0.543185 20.7156C0.823164 21.1053 1.15152 21.4573 1.52012 21.763C1.83791 22.0178 2.16959 22.2546 2.51359 22.472C2.92228 22.7287 3.35885 22.9264 3.77153 23.171C3.93923 23.2631 4.1179 23.3334 4.30319 23.3801C4.63546 23.4719 4.95308 23.5925 5.28734 23.6743C5.83099 23.8068 6.38955 23.8667 6.94868 23.8525C7.04581 23.8493 7.14263 23.8395 7.23844 23.823C7.5933 23.7661 7.67235 23.6736 7.67235 23.3023C7.67235 19.8051 7.67235 16.3078 7.67235 12.8105C7.6624 12.6281 7.69197 12.4458 7.75899 12.2761C7.82601 12.1065 7.92887 11.9536 8.06043 11.8281C8.20299 11.712 8.36147 11.6175 8.53093 11.5473C8.65806 11.483 8.79174 11.4329 8.92964 11.3978C9.18472 11.3306 9.43152 11.2346 9.66531 11.1117C9.93844 10.9843 10.2341 10.9368 10.5073 10.8041C10.7392 10.6749 10.9903 10.5844 11.2509 10.536C11.5088 10.5031 11.7566 10.4149 11.9779 10.2773C12.2175 10.1784 12.463 10.0945 12.7128 10.026C12.8457 9.959 13.0145 9.93556 13.1594 9.86251C13.2225 9.83034 13.2837 9.7687 13.3654 9.8203C13.3659 9.85846 13.3527 9.8955 13.3283 9.92466C13.3039 9.95383 13.27 9.97317 13.2326 9.97912C12.9933 10.018 12.7959 10.1641 12.55 10.2063C12.2905 10.2877 12.0395 10.3943 11.8005 10.5246C11.7101 10.5726 11.6147 10.6103 11.5161 10.6372C11.2699 10.6896 11.0331 10.78 10.8143 10.9053C10.5604 11.0339 10.2827 11.0862 10.0255 11.2021C9.72711 11.3362 9.41609 11.4528 9.10575 11.5613C8.88778 11.6371 8.67712 11.7302 8.46181 11.81C8.3315 11.8636 8.21377 11.9442 8.11624 12.0465C8.03117 12.1354 7.96674 12.2422 7.92756 12.3593C7.88837 12.4763 7.87544 12.6007 7.88967 12.7234C7.88967 15.5018 7.88967 18.2805 7.88967 21.0594C7.88967 21.7637 7.88967 22.4667 7.88967 23.1717C7.90627 23.3597 7.84908 23.5469 7.73043 23.693C7.61179 23.839 7.4411 23.9324 7.25499 23.9531C6.62544 24.0446 5.98386 24.0019 5.3717 23.8277C4.7683 23.7285 4.21608 23.4417 3.61667 23.3178C3.42686 23.2561 3.24858 23.163 3.08906 23.0423C2.49098 22.6711 1.95403 22.202 1.37256 21.8072C0.792915 21.377 0.332898 20.8035 0.0368327 20.1419C0.00411797 20.0567 -0.00703848 19.9645 0.00430348 19.8739C0.00430348 16.0504 0.00430348 12.227 0.00430348 8.4036C0.00660782 8.26517 0.0478093 8.13027 0.123226 8.01459C0.198642 7.89891 0.305162 7.80721 0.430266 7.7502C0.696822 7.61081 0.993947 7.54166 1.29411 7.54916C2.43047 7.48684 3.56617 7.3796 4.70652 7.40909C4.8773 7.41378 4.92448 7.33671 4.92116 7.17521C4.91319 6.72085 4.92119 6.26649 4.91654 5.81213C4.9064 5.09502 5.04208 4.38343 5.31524 3.72127C5.80547 2.5185 6.6603 1.50285 7.75745 0.819534C8.67729 0.227183 9.75941 -0.0564365 10.8489 0.00931493C11.3363 0.0256032 11.8161 0.135944 12.2623 0.334348C12.8052 0.568376 13.2912 0.918685 13.6864 1.361C13.9379 1.62764 14.1502 1.92912 14.3171 2.25632C14.5629 2.71126 14.7219 3.20861 14.7862 3.72262C14.8487 4.78212 14.8021 5.84095 14.8207 6.89912C14.8254 7.15913 14.8872 7.198 15.153 7.16717C15.7342 7.0918 16.324 7.11856 16.8961 7.24626C17.1809 7.27939 17.4441 7.41587 17.6364 7.63025C17.67 7.66162 17.6968 7.69965 17.7152 7.74198C17.7335 7.7843 17.743 7.83001 17.743 7.8762C17.743 7.92239 17.7335 7.96807 17.7152 8.0104C17.6968 8.05272 17.67 8.09077 17.6364 8.12214C17.4096 8.3636 17.1175 8.53273 16.7964 8.60866C16.4868 8.72527 16.1824 8.85394 15.8741 8.97055C15.6169 9.06839 11.0742 10.7799 10.8236 10.9012C10.7924 10.916 12.1806 10.2244 13.7077 9.58574C14.3523 9.31634 15.8043 8.85462 15.8907 8.79497ZM12.443 5.47973C12.443 5.04079 12.4304 4.60117 12.4464 4.16289C12.4518 3.92482 12.4058 3.68841 12.3116 3.47004C12.2174 3.25168 12.0773 3.0566 11.9008 2.89833C11.5932 2.61899 11.212 2.43531 10.8032 2.36944C10.3944 2.30357 9.97548 2.35832 9.59685 2.52708C8.97424 2.75364 8.42669 3.15097 8.0159 3.67435C7.67549 4.06609 7.43868 4.53818 7.32743 5.04682C7.24913 5.72263 7.22692 6.40386 7.26099 7.0834C7.26099 7.36352 7.27028 7.37358 7.55603 7.37023C8.38736 7.36018 9.21743 7.35213 10.0488 7.28779C10.7499 7.23351 11.4562 7.23954 12.1613 7.23016C12.374 7.23016 12.4551 7.1484 12.4511 6.93261C12.4364 6.44877 12.443 5.96425 12.443 5.47973Z" fill="#050505"/>
<path d="M8.38086 17.6898C8.38086 17.1296 8.38418 16.5694 8.38086 16.0091C8.3873 15.8812 8.40577 15.7542 8.43602 15.6298C8.49118 15.3216 8.78826 15.3035 8.98829 15.1929C9.33185 15.0033 9.70664 14.8706 10.0688 14.7151C10.1576 14.6761 10.2483 14.6416 10.3406 14.6119C10.5234 14.5503 10.6992 14.4692 10.8649 14.3699C11.3122 14.1186 11.7992 13.9404 12.2684 13.7273C12.7488 13.5095 13.2253 13.2836 13.7045 13.0631C14.0507 12.9043 14.3983 12.7495 14.7451 12.594C15.1724 12.3997 15.5977 12.2 16.0277 12.0104C16.4011 11.8455 16.7773 11.6847 17.1574 11.5352C17.3202 11.4682 17.4285 11.5754 17.485 11.7175C17.5137 11.8038 17.5263 11.8947 17.5222 11.9856C17.5222 12.8715 17.5222 13.7574 17.5262 14.6427C17.5315 14.7131 17.5166 14.7835 17.4833 14.8455C17.4499 14.9076 17.3995 14.9586 17.3382 14.9925C16.8152 15.3403 16.2444 15.5997 15.7034 15.9146C15.118 16.2557 14.5345 16.6029 13.9318 16.9091C13.2739 17.2442 12.6372 17.6141 11.9906 17.9673C11.459 18.2595 10.9274 18.5577 10.3957 18.8653C10.0861 19.0553 9.76421 19.2241 9.43218 19.3706C9.19627 19.4684 9.01614 19.6802 8.74833 19.7345C8.49448 19.7861 8.38485 19.711 8.38419 19.443C8.38419 18.8599 8.38419 18.2769 8.38419 17.6939L8.38086 17.6898ZM13.4174 14.0999C13.3023 14.0827 13.1848 14.1064 13.0851 14.1669C12.8559 14.3493 12.6864 14.597 12.5987 14.8779C12.5657 14.9426 12.5505 15.015 12.5547 15.0876C12.5589 15.1602 12.5824 15.2304 12.6226 15.2907C12.8811 15.5421 12.7681 15.8001 12.6771 16.0567C12.5951 16.2178 12.5716 16.4027 12.6106 16.5794C12.6379 16.6619 12.6771 16.7329 12.7907 16.6706C13.0983 16.516 13.3961 16.3426 13.6826 16.1512C13.7125 16.1359 13.739 16.1144 13.7603 16.0882C13.7817 16.062 13.7974 16.0317 13.8065 15.9991C13.8156 15.9664 13.8179 15.9323 13.8132 15.8987C13.8086 15.8652 13.7972 15.8329 13.7796 15.8041C13.678 15.6281 13.6239 15.4283 13.6228 15.2246C13.6216 15.021 13.6734 14.8206 13.7729 14.6434C13.8035 14.5846 13.8179 14.5185 13.8145 14.4522C13.8112 14.3859 13.7902 14.3216 13.7538 14.2663C13.7174 14.211 13.6668 14.1665 13.6075 14.1376C13.5482 14.1087 13.4824 14.0963 13.4167 14.1019L13.4174 14.0999Z" fill="#F7BD01"/>
<path d="M8.38052 13.612C8.38052 13.3319 8.36723 13.0511 8.38385 12.7723C8.37646 12.6377 8.41169 12.5042 8.48443 12.3911C8.55718 12.278 8.66367 12.1911 8.78855 12.143C9.35673 11.8971 9.93688 11.6739 10.5051 11.4327C10.8912 11.2665 11.2965 11.1271 11.6839 10.9636C12.2315 10.729 12.7864 10.5132 13.3379 10.2934C13.7408 10.1002 14.1568 9.93606 14.5826 9.8022C14.7526 9.74576 14.917 9.67353 15.0737 9.58642C15.4725 9.40481 15.8911 9.26675 16.2905 9.08045C16.5968 8.93771 16.9238 8.82447 17.2441 8.7072C17.3936 8.65224 17.5099 8.78424 17.5099 8.9357C17.5206 9.49527 17.5232 10.0555 17.5099 10.6151C17.5046 10.8208 17.3106 10.8872 17.1531 10.9502C16.5763 11.1827 16.0233 11.4635 15.4531 11.7148C15.0923 11.875 14.7295 12.0358 14.366 12.1926C13.8463 12.4171 13.342 12.6791 12.817 12.8902C12.4442 13.0397 12.086 13.22 11.7245 13.3915C11.2068 13.6368 10.6718 13.8412 10.1608 14.1032C9.83915 14.2688 9.49627 14.4055 9.15935 14.5442C9.02645 14.5985 8.90081 14.6588 8.77322 14.7211C8.54329 14.8337 8.3878 14.7365 8.38182 14.4785C8.37318 14.185 8.38052 13.8995 8.38052 13.612Z" fill="#F7BD01"/>
<path d="M8.38077 21.8079C8.36749 21.4474 8.37925 21.0865 8.41598 20.7276C8.42533 20.6733 8.44769 20.6221 8.48104 20.5785C8.51438 20.5348 8.55776 20.5 8.60742 20.477C8.99618 20.2592 9.35563 19.9831 9.75568 19.7921C10.0879 19.6346 10.391 19.4363 10.7187 19.2754C11.1041 19.0858 11.4682 18.8525 11.8437 18.6428C12.2604 18.4102 12.685 18.1911 13.0964 17.9492C13.416 17.7616 13.745 17.5913 14.0653 17.4064C14.3404 17.2476 14.6281 17.1061 14.9066 16.9493C15.3412 16.7047 15.7784 16.4628 16.2176 16.2283C16.565 15.997 16.9388 15.8086 17.3308 15.6673C17.4437 15.6385 17.4823 15.6881 17.4829 15.7645C17.4876 16.2886 17.5055 16.8146 17.469 17.336C17.455 17.537 17.2085 17.6108 17.047 17.7126C16.6689 17.9505 16.3041 18.2119 15.9213 18.4384C15.6676 18.6593 15.3711 18.8248 15.0507 18.9242C14.9318 18.9403 14.9079 19.0871 14.8075 19.1481C14.4321 19.3766 14.0652 19.6205 13.6937 19.8571C13.1163 20.225 12.5361 20.5889 11.96 20.9595C11.4895 21.2624 11.0204 21.5673 10.5558 21.8796C10.0913 22.1919 9.59289 22.4727 9.1317 22.8024C8.99348 22.9016 8.8446 22.9894 8.69974 23.0812C8.52629 23.1911 8.38607 23.1107 8.38142 22.9023C8.37544 22.5612 8.38077 22.2207 8.38077 21.8079Z" fill="#F7BD01"/>
<path d="M1.37184 20.7551C1.67753 21.0144 1.96995 21.2912 2.29159 21.5297C2.79463 21.9178 3.34632 22.2371 3.93232 22.4793C4.06313 22.5327 4.19069 22.5938 4.3144 22.6623C4.60789 22.7897 4.91189 22.8911 5.22286 22.9652C5.74352 23.1563 6.29599 23.2437 6.84965 23.2225C7.01977 23.2125 7.07358 23.1368 7.07557 22.9867C7.07557 22.9411 7.07557 22.8962 7.07557 22.8526C7.07557 20.8708 7.07557 18.8889 7.07557 16.9071C7.07557 16.8541 7.07557 16.8012 7.07557 16.7482C7.07557 16.712 7.07889 16.6699 7.03769 16.6491C6.99648 16.6283 6.97528 16.6705 6.9487 16.6926C6.85667 16.7595 6.74523 16.7938 6.63184 16.79C6.51845 16.7862 6.40952 16.7447 6.32204 16.6719C6.18465 16.5927 6.0705 16.4783 5.99123 16.3402C5.91197 16.2021 5.87038 16.0453 5.87077 15.8858C5.87077 15.8114 5.80432 15.7705 5.77375 15.7115C5.72108 15.6024 5.69464 15.4823 5.69661 15.361C5.69857 15.2397 5.72886 15.1205 5.78503 15.0132C5.84169 14.9013 5.87364 14.7783 5.87872 14.6527C5.89893 14.3471 5.94723 14.044 6.02295 13.7473C6.14765 13.3723 6.12019 12.9627 5.94654 12.6081C5.92562 12.5677 5.91449 12.5229 5.91401 12.4774C5.90138 12.2723 5.76915 12.1939 5.59172 12.1711C5.51298 12.1645 5.43417 12.1833 5.36685 12.2251C5.29953 12.2668 5.24716 12.3292 5.21751 12.403C5.12846 12.5545 5.04344 12.7079 4.95638 12.8607C4.94745 12.8578 4.93925 12.853 4.93229 12.8467C4.92533 12.8403 4.91975 12.8325 4.91599 12.8238C4.91222 12.8152 4.9103 12.8058 4.91039 12.7963C4.91048 12.7868 4.91254 12.7775 4.91647 12.7689C4.9724 12.4689 5.12219 12.1948 5.34381 11.9868C5.41735 11.9324 5.5068 11.9044 5.59796 11.9072C5.68912 11.91 5.77672 11.9435 5.84684 12.0023C5.94261 12.0628 6.02356 12.1444 6.08363 12.241C6.1437 12.3375 6.18132 12.4465 6.19371 12.5598C6.19968 12.7395 6.22758 12.9177 6.27678 13.0906C6.30205 13.1662 6.31105 13.2464 6.30314 13.3257C6.29523 13.4051 6.27062 13.4819 6.23094 13.551C6.17306 13.675 6.15009 13.8127 6.16451 13.949C6.18433 14.2021 6.1325 14.4556 6.015 14.6802C6.00038 14.705 5.98243 14.7418 5.99107 14.7646C6.08942 15.0461 5.92857 15.3208 5.98572 15.619C6.03127 15.829 6.09674 16.0342 6.18114 16.2316C6.19942 16.2977 6.23213 16.3588 6.27694 16.4105C6.32175 16.4621 6.37752 16.503 6.44007 16.5301C6.50262 16.5572 6.57041 16.5697 6.63841 16.5669C6.70642 16.5641 6.7729 16.5459 6.83302 16.5137C7.12143 16.4071 7.20122 16.4621 7.20122 16.7717C7.20122 18.7768 7.20122 20.7819 7.20122 22.787C7.20122 23.3104 7.17461 23.3412 6.64896 23.3539C6.27008 23.3551 5.89283 23.3037 5.52788 23.2011C4.93227 23.025 4.34608 22.8181 3.77154 22.5812C3.36585 22.3975 2.97821 22.1756 2.61388 21.9184C2.19598 21.6542 1.81033 21.3413 1.46489 20.9863C1.40109 20.9186 1.324 20.8643 1.37184 20.7551Z" fill="#D7A066"/>
<path d="M0.959787 12.0204C0.837722 12.2076 0.787196 12.4331 0.817584 12.655C0.821128 15.0117 0.821128 17.3686 0.817584 19.7257C0.817584 19.7834 0.84281 19.847 0.790976 19.8973C0.610887 19.8551 0.676029 19.7056 0.676029 19.5998C0.672042 17.5205 0.672042 15.4413 0.676029 13.362C0.676029 13.0216 0.670048 12.6812 0.676029 12.3414C0.679352 12.1598 0.75511 12.0257 0.959787 12.0204Z" fill="#D7A066"/>
<path d="M3.73323 11.4548C3.63661 11.448 3.54253 11.4203 3.45742 11.3737C3.37087 11.3356 3.27615 11.3202 3.1821 11.329C3.08806 11.3378 2.99779 11.3705 2.91968 11.4241C2.84156 11.4776 2.77819 11.5503 2.73546 11.6352C2.69272 11.7201 2.67198 11.8146 2.67526 11.9098C2.63717 12.2999 2.64612 12.6932 2.70187 13.0812C2.73676 13.3359 2.70132 13.5954 2.5995 13.8311C2.57393 13.8995 2.5228 13.955 2.45705 13.9857C2.39131 14.0164 2.31625 14.0198 2.248 13.9953C2.10247 13.9578 1.97753 13.8747 2.00278 13.6863C2.05528 13.6823 2.07785 13.7286 2.1144 13.7534C2.19016 13.8003 2.23537 13.9678 2.33505 13.8874C2.43473 13.807 2.58155 13.738 2.57557 13.5423C2.55895 12.9854 2.56169 12.4272 2.569 11.8669C2.58312 11.6831 2.66505 11.5112 2.79865 11.3853C2.93225 11.2594 3.10778 11.1885 3.29064 11.1867C3.38019 11.1929 3.46704 11.2204 3.54398 11.267C3.62092 11.3136 3.68578 11.378 3.73323 11.4548Z" fill="#D7A066"/>
<path d="M2.00106 13.2769C1.95458 13.0709 1.96869 12.8557 2.04162 12.6577C2.16886 12.1443 2.13659 11.6039 1.94923 11.1097C1.92495 10.9883 1.86907 10.8757 1.78731 10.7833C1.70556 10.691 1.60091 10.6223 1.48409 10.5843C1.30466 10.5407 1.18565 10.6379 1.04011 10.6788C1.0348 10.4958 1.30997 10.3799 1.50534 10.4449C1.61902 10.4908 1.72157 10.5609 1.80597 10.6505C1.89037 10.74 1.95462 10.8467 1.99441 10.9636C2.12297 11.2033 2.19847 11.4683 2.21571 11.7403C2.23538 12.2368 2.18235 12.7336 2.05825 13.2146C2.05227 13.2407 2.01901 13.2575 2.00106 13.2769Z" fill="#D7A066"/>
<path d="M4.93436 13.6703C4.93951 13.7479 4.92507 13.8255 4.89226 13.8959C4.85944 13.9663 4.80935 14.0271 4.74681 14.0726C4.68426 14.1182 4.61126 14.1469 4.53468 14.1561C4.45809 14.1653 4.38049 14.1547 4.30908 14.1253C4.41355 14.1203 4.51431 14.085 4.59949 14.0239C4.68467 13.9627 4.7507 13.8781 4.78956 13.7802C4.81813 13.7232 4.84664 13.6535 4.93436 13.6703Z" fill="#D7A066"/>
<path d="M3.983 13.8291C3.93413 13.7734 3.89662 13.7085 3.87267 13.6382C3.84872 13.5679 3.83876 13.4935 3.84339 13.4193C3.84802 13.345 3.86719 13.2725 3.89969 13.2057C3.93219 13.139 3.9774 13.0793 4.0328 13.0303C3.98518 13.2937 3.96849 13.5618 3.983 13.8291Z" fill="#D7A066"/>
<path d="M4.15652 12.1953C4.01035 11.9684 3.87724 11.7332 3.75781 11.4909C3.88133 11.5609 3.98367 11.6634 4.0539 11.7874C4.12413 11.9115 4.1596 12.0525 4.15652 12.1953Z" fill="#D7A066"/>
<path d="M0.805538 19.9764C0.883954 20.101 1.06535 20.162 1.03478 20.3537C0.834094 20.3342 0.763673 20.219 0.805538 19.9764Z" fill="#D7A066"/>
<path d="M4.2233 14.0938C4.17385 14.0873 4.12752 14.0657 4.09058 14.032C4.05364 13.9982 4.02784 13.9538 4.0166 13.9048C4.14486 13.9022 4.22994 13.9477 4.2233 14.0938Z" fill="#D7A066"/>
<path d="M1.03422 11.3194C1.11596 11.3864 1.10068 11.4695 1.05815 11.552C0.958468 11.4836 0.963113 11.4052 1.03422 11.3194Z" fill="#D7A066"/>
<path d="M4.17281 12.5987C4.14846 12.5737 4.13477 12.54 4.13477 12.5049C4.13477 12.4698 4.14846 12.4361 4.17281 12.4111C4.26053 12.4741 4.25388 12.5371 4.17281 12.5987Z" fill="#D7A066"/>
<path d="M4.05912 12.9961C4.03653 12.9171 4.07579 12.8795 4.14689 12.8621C4.21667 12.974 4.15548 12.9948 4.05912 12.9961Z" fill="#D7A066"/>
<path d="M1.08771 20.4481C1.15416 20.4327 1.18202 20.4596 1.18002 20.5252C1.11423 20.5447 1.07375 20.5286 1.08771 20.4481Z" fill="#D7A066"/>
<path d="M1.18589 20.5313C1.25234 20.5313 1.27957 20.5635 1.25232 20.6305C1.18055 20.6345 1.16595 20.5949 1.18589 20.5313Z" fill="#D7A066"/>
<path d="M13.4165 14.1019C13.4832 14.095 13.5505 14.1067 13.6111 14.1356C13.6717 14.1646 13.7234 14.2096 13.7605 14.266C13.7975 14.3224 13.8187 14.3879 13.8216 14.4554C13.8244 14.523 13.8089 14.59 13.7767 14.6494C13.677 14.8265 13.6251 15.0269 13.6261 15.2305C13.6272 15.4342 13.6812 15.634 13.7827 15.8101C13.8003 15.8389 13.8117 15.8712 13.8164 15.9047C13.821 15.9383 13.8187 15.9725 13.8096 16.0051C13.8005 16.0377 13.7847 16.068 13.7634 16.0942C13.7421 16.1204 13.7156 16.1419 13.6857 16.1572C13.3992 16.3486 13.1014 16.5221 12.7938 16.6766C12.6809 16.7396 12.641 16.6678 12.6138 16.5854C12.5748 16.4087 12.5983 16.2238 12.6802 16.0627C12.7712 15.8061 12.8849 15.5481 12.6264 15.2961C12.5862 15.2357 12.5628 15.1655 12.5588 15.0929C12.5547 15.0203 12.57 14.9479 12.6031 14.8833C12.6907 14.6023 12.8603 14.3546 13.0896 14.1722C13.1874 14.1118 13.3028 14.0869 13.4165 14.1019Z" fill="white"/>
<path d="M0.635385 9.78476L7.20101 11.7798L7.57315 23.5778L3.9182 22.9431L0.588867 20.4348L0.635385 9.78476Z" fill="#F7BD01"/>
</svg>
