<svg xmlns="http://www.w3.org/2000/svg" width="1570.045" height="404.063" viewBox="0 0 1570.045 404.063">
  <g id="Group_5431" data-name="Group 5431" transform="translate(3564.545 1737.063)">
    <g id="Group_5429" data-name="Group 5429" transform="translate(-429.023 740.24)">
      <g id="Header_Logo" transform="translate(-3736.076 -2103.604)">
        <g id="Group_3200" data-name="Group 3200" transform="translate(600.554 -373.699)">
          <path id="Path_27" data-name="Path 27" d="M21.156,142.186q-9.173,0-14.525-5.351T1.28,122.31V5.457Q1.28-3.5,6.085-8.3t13.76-4.805H75.76q25.555,0,39.752,13t14.2,36.148q0,22.934-14.306,36.039T75.76,85.179H41.469V122.31q0,9.173-5.46,14.525T21.156,142.186ZM70.3,55.038q11.139,0,16.49-4.587t5.351-14.2q0-19-21.842-19H41.469V55.038Zm122.75-24.244q24.9,0,36.8,11.9t11.9,36.148v45.649q0,8.3-4.914,13t-13.651,4.7q-7.645,0-12.559-4.368a16.353,16.353,0,0,1-5.351-11.794,24.178,24.178,0,0,1-10.266,12.231,32.668,32.668,0,0,1-17.255,4.368,44.307,44.307,0,0,1-20.094-4.478,34.955,34.955,0,0,1-14.088-12.45,32.565,32.565,0,0,1-5.133-18.019q0-11.576,6.006-18.456t19.111-9.938q13.1-3.058,35.383-3.058h5.9V73.6q0-7.645-3.495-11.03t-11.794-3.385q-8.955,0-26.21,6.116a26.794,26.794,0,0,1-8.518,1.747,10.8,10.8,0,0,1-8.737-3.931q-3.276-3.931-3.276-10.266a14.307,14.307,0,0,1,1.966-7.863,17.078,17.078,0,0,1,6.334-5.46A76.182,76.182,0,0,1,170.334,33.2,111.6,111.6,0,0,1,193.049,30.794Zm-6.116,85.838a16.571,16.571,0,0,0,12.887-5.57q5.024-5.57,5.024-14.306V94.134h-3.495q-13.979,0-19.876,2.512t-5.9,8.409a11.456,11.456,0,0,0,3.167,8.3A10.886,10.886,0,0,0,186.934,116.631Zm148.96-85.838q19.221,0,28.612,11.467T373.9,77.1v47.178q0,8.3-5.242,13.1t-14.2,4.805q-8.955,0-14.2-4.805t-5.242-13.1V78.845q0-9.61-3.385-13.979T321.478,60.5q-8.737,0-13.869,5.57t-5.133,14.962v43.246q0,8.3-5.242,13.1t-14.2,4.805q-8.955,0-14.2-4.805t-5.242-13.1V48.7a16.142,16.142,0,0,1,5.46-12.559q5.46-4.914,14.2-4.914,8.3,0,13.214,4.587a15.669,15.669,0,0,1,4.914,12.013,37.248,37.248,0,0,1,14.634-12.668A44.726,44.726,0,0,1,335.893,30.794ZM447.5,142.623q-26.21,0-41.5-14.852T390.716,87.364q0-16.818,7.426-29.7A50.388,50.388,0,0,1,419,37.783q13.433-6.989,30.687-6.989a72.154,72.154,0,0,1,18.347,2.4A58.046,58.046,0,0,1,484.2,39.967q6.771,4.15,6.771,12.668,0,6.771-3.167,11.03a9.77,9.77,0,0,1-8.191,4.259,20.571,20.571,0,0,1-6.334-.983,42.529,42.529,0,0,1-6.771-2.949,73.582,73.582,0,0,0-7.426-2.949,22.043,22.043,0,0,0-6.771-.983q-21.623,0-21.623,26.428,0,13.1,5.57,19.985t16.054,6.88a23.109,23.109,0,0,0,6.88-.983,47.921,47.921,0,0,0,7.1-2.949q4.368-1.966,7.1-2.949a17.619,17.619,0,0,1,6.006-.983,9.77,9.77,0,0,1,8.191,4.259q3.167,4.259,3.167,11.03A16.184,16.184,0,0,1,489,128.317a12.159,12.159,0,0,1-4.805,5.133Q469.127,142.623,447.5,142.623ZM554.965,30.794q24.9,0,36.8,11.9t11.9,36.148v45.649q0,8.3-4.914,13t-13.651,4.7q-7.645,0-12.559-4.368a16.353,16.353,0,0,1-5.351-11.794,24.178,24.178,0,0,1-10.266,12.231,32.668,32.668,0,0,1-17.255,4.368,44.307,44.307,0,0,1-20.094-4.478,34.956,34.956,0,0,1-14.088-12.45,32.566,32.566,0,0,1-5.133-18.019q0-11.576,6.006-18.456t19.111-9.938q13.1-3.058,35.383-3.058h5.9V73.6q0-7.645-3.495-11.03T551.47,59.188q-8.955,0-26.21,6.116a26.794,26.794,0,0,1-8.518,1.747,10.8,10.8,0,0,1-8.737-3.931q-3.276-3.931-3.276-10.266a14.307,14.307,0,0,1,1.966-7.863,17.077,17.077,0,0,1,6.334-5.46A76.181,76.181,0,0,1,532.25,33.2,111.6,111.6,0,0,1,554.965,30.794Zm-6.116,85.838a16.571,16.571,0,0,0,12.887-5.57q5.024-5.57,5.024-14.306V94.134h-3.495q-13.979,0-19.876,2.512t-5.9,8.409a11.456,11.456,0,0,0,3.167,8.3A10.886,10.886,0,0,0,548.849,116.631Zm183.906-5.9a17.069,17.069,0,0,1,5.679,12.668,18.7,18.7,0,0,1-5.133,12.887,16.06,16.06,0,0,1-12.341,5.679q-6.116,0-12.231-5.46L664.391,94.353v29.486q0,8.955-5.57,13.542a23.263,23.263,0,0,1-27.739,0q-5.57-4.587-5.57-13.542V3.929q0-8.955,5.57-13.542a23.263,23.263,0,0,1,27.739,0q5.57,4.587,5.57,13.542V77.972L704.8,36.909a16.938,16.938,0,0,1,25.009-.328A16.721,16.721,0,0,1,735.158,48.7q0,6.771-5.679,12.45L705.672,84.743Zm105.932-4.368a10.036,10.036,0,0,1,8.191,3.931q3.167,3.931,3.167,10.266,0,8.737-8.518,13.323a85.086,85.086,0,0,1-17.583,6.225,78.246,78.246,0,0,1-18.675,2.512q-17.91,0-31.234-6.771a48.155,48.155,0,0,1-20.531-19.439q-7.208-12.668-7.208-29.7a60.064,60.064,0,0,1,6.88-28.94A49.534,49.534,0,0,1,772.4,37.892a54.835,54.835,0,0,1,27.848-7.1q15.071,0,26.428,6.552a44.629,44.629,0,0,1,17.583,18.565q6.225,12.013,6.225,28.176,0,5.024-2.293,7.754a8.21,8.21,0,0,1-6.662,2.73H783.865q1.529,10.484,6.771,15.071t15.508,4.587a39.6,39.6,0,0,0,10.047-1.2,98.48,98.48,0,0,0,10.265-3.385q3.276-1.31,6.443-2.293A19.679,19.679,0,0,1,838.687,106.366ZM801.338,57q-7.645,0-12.231,4.914t-5.46,14.306h34.291Q816.628,57,801.338,57Zm88.022,83.872q-8.955,0-13.76-4.805t-4.805-13.979V5.457q0-8.955,5.351-14.306T890.67-14.2q9.392,0,14.852,5.351t5.46,14.306V108.331h50.236q19,0,19,16.381,0,8.3-4.7,12.231t-14.306,3.931Zm156.6,1.747q-17.692,0-31.124-6.88a49.383,49.383,0,0,1-20.75-19.548q-7.317-12.668-7.317-29.7t7.317-29.6a49.035,49.035,0,0,1,20.64-19.33q13.323-6.771,31.234-6.771t31.234,6.771a49.035,49.035,0,0,1,20.64,19.33q7.317,12.559,7.317,29.6t-7.317,29.7a49.532,49.532,0,0,1-20.64,19.548Q1063.874,142.623,1045.964,142.623Zm0-29.049q20.75,0,20.75-27.084t-20.75-27.084q-20.75,0-20.75,27.084T1045.964,113.573Zm128.647,29.049q-26.21,0-41.5-14.852t-15.289-40.407q0-16.818,7.426-29.7a50.389,50.389,0,0,1,20.859-19.876q13.433-6.989,30.688-6.989a72.155,72.155,0,0,1,18.347,2.4,58.049,58.049,0,0,1,16.163,6.771q6.771,4.15,6.771,12.668,0,6.771-3.167,11.03a9.77,9.77,0,0,1-8.191,4.259,20.571,20.571,0,0,1-6.334-.983,42.526,42.526,0,0,1-6.771-2.949,73.582,73.582,0,0,0-7.426-2.949,22.044,22.044,0,0,0-6.771-.983q-21.623,0-21.623,26.428,0,13.1,5.57,19.985t16.054,6.88a23.108,23.108,0,0,0,6.88-.983,47.908,47.908,0,0,0,7.1-2.949q4.369-1.966,7.1-2.949a17.619,17.619,0,0,1,6.006-.983,9.771,9.771,0,0,1,8.191,4.259q3.167,4.259,3.167,11.03a16.183,16.183,0,0,1-1.747,7.535,12.158,12.158,0,0,1-4.805,5.133Q1196.235,142.623,1174.611,142.623ZM1339.3,110.734a17.069,17.069,0,0,1,5.679,12.668,18.7,18.7,0,0,1-5.133,12.887,16.06,16.06,0,0,1-12.34,5.679q-6.116,0-12.231-5.46l-44.339-42.154v29.486q0,8.955-5.57,13.542a23.263,23.263,0,0,1-27.739,0q-5.57-4.587-5.57-13.542V3.929q0-8.955,5.57-13.542a23.263,23.263,0,0,1,27.739,0q5.57,4.587,5.57,13.542V77.972l40.407-41.062a16.938,16.938,0,0,1,25.009-.328A16.721,16.721,0,0,1,1341.7,48.7q0,6.771-5.679,12.45l-23.807,23.589Z" transform="translate(225.069 74.251)" fill="#f7bd01"/>
          <g id="Group_3199" data-name="Group 3199" transform="translate(0)">
            <g id="Group_3197" data-name="Group 3197">
              <path id="Path_2" data-name="Path 2" d="M1475.923,482.363l-1.383.27a37.632,37.632,0,0,0-9.822,3.9l-.9.17c-.832-.516-1.461.106-2.1.429-1.474.739-3.217,1-4.55,1.656-2.42,1.178-5.142,1.039-7.492,2.538a18.546,18.546,0,0,1-7.408,2.618,25.006,25.006,0,0,0-7.581,2.73c-2.787,1.343-5.8,1.82-8.586,3.109a35.847,35.847,0,0,1-7.5,2.9,19.926,19.926,0,0,0-4.1,1.512,19.318,19.318,0,0,0-4.8,2.839c-2.843,2.619-3.966,5.972-3.958,9.929q.114,53.036.028,106.071c0,3.757-.809,4.691-4.428,5.267a21.893,21.893,0,0,1-2.956.3,65.121,65.121,0,0,1-16.951-1.8c-3.406-.828-6.678-2.05-10.034-2.976a22.917,22.917,0,0,1-5.415-2.112c-4.21-2.473-8.659-4.474-12.826-7.066a111.527,111.527,0,0,1-10.129-7.17,57.018,57.018,0,0,1-9.955-10.586,19.3,19.3,0,0,1-4.268-12.1q.1-55.1.035-110.2c0-5.762,3.2-9.282,9-9.506,12.368-.479,24.757-.263,37.127-.909,2.647-.138,3.009.361,3.015,3.082.014,4.515-.087,9.032.031,13.544.13,4.965.8,6.5,6.392,7.974a20.539,20.539,0,0,0,10.943-.161c3.689-.99,5.312-2.707,5.325-6.555.015-5.127-.012-10.255.012-15.382.013-3.248.277-3.463,3.563-3.517q10.667-.174,21.329-.386,12.841-.24,25.684-.478c3.179-.055,3.465.24,3.462,3.325,0,1.225-.03,2.45,0,3.673.055,2.031,2.184,4.684,4.069,5.344a21.656,21.656,0,0,0,15.192.146c2.8-1.036,4.2-2.468,4.222-5.407.015-1.99.114-3.987-.023-5.967s.705-2.524,2.546-2.486c4.056.084,8.115.106,12.168-.019,3.558-.11,6.611,1.7,9.962,2.37.9.178,1.6,1.08,2.392,1.625,1.723,1.179,1.043,4.405-.924,5.178-2.019.8-4.051,1.654-5.984,2.55-2.892,1.339-6.076,1.847-8.82,3.712-2.9,1.976-6.619,2.494-9.666,4.358l-.961.349A6.741,6.741,0,0,0,1475.923,482.363ZM1339.6,594.982c-.2.646-.051,1.039.71,1,.4.42.794.839,1.19,1.259-.485,1.109.3,1.653.967,2.3a63.956,63.956,0,0,0,11.711,9.422c3.879,2.317,7.46,5.1,11.807,6.7,5.937,2.185,11.739,4.693,17.9,6.268a41.991,41.991,0,0,0,11.428,1.544c5.359-.127,5.629-.445,5.629-5.732q0-30.406,0-60.813c0-3.135-.81-3.686-3.749-2.611-3.084,1.128-5.411.252-6.646-2.854a34.153,34.153,0,0,1-1.993-6.193c-.582-3.014,1.056-5.789.05-8.637a1.253,1.253,0,0,1,.25-.854,13.552,13.552,0,0,0,1.523-7.394,7.544,7.544,0,0,1,.675-4.021,5.682,5.682,0,0,0,.465-4.653,22.22,22.22,0,0,1-.848-5.364,7.643,7.643,0,0,0-3.536-5.636,4.164,4.164,0,0,0-5.126-.157c-2.518,1.96-3.493,4.946-4.356,7.908a.676.676,0,0,0,.4.93q-.113,4.106-.232,8.211c-.892-.168-1.168.532-1.476,1.107-1.061,1.983-2.475,3.434-4.9,3.493l-.869-.313c.064-1.482-.8-1.942-2.107-1.911l-.343-.767a34.644,34.644,0,0,1,.506-8.076,2.263,2.263,0,0,1,.269-.344c.949-.014,1.6-.224.893-1.342.088-.895.174-1.79.264-2.684.83-.625.9-1.257.013-1.895-.058-.725-.119-1.45-.18-2.176.418-2.31-1.444-5.572-4.062-7.123-.091-.121-.176-.243-.255-.37a5.777,5.777,0,0,0-4.5-2.743c-3.463-.317-7.308,3.241-7.357,6.879-.077,5.636-.1,11.277.068,16.909.061,1.977-1.419,2.643-2.453,3.488-1.016.83-1.482-.858-2.251-1.336-.376-.232-.61-.7-1.142-.657q-.007-2.061-.017-4.12c.2-.2.522-.365.591-.6a51.1,51.1,0,0,0,1.607-14.933c-.023-2.9-1.137-5.412-2.256-7.85-.994-2.165-2.3-4.351-4.987-5.245-1.975-.657-4.782.511-4.728,2.362a41.69,41.69,0,0,0-.084,6.486c-.729.867-.77,1.662.239,2.35.293,1.711.383,3.38-1.007,4.733-2.109.061-2.855,1.431-2.892,3.246-.071,3.438-.015,6.879-.015,10.318q0,31.53.029,63.06c0,1.069-.661,2.579,1.173,3.008l.145.8c-.429,2.451.286,3.62,2.335,3.815q.261.479.528.957c-.141.812.254.977.945.779Z" transform="translate(-1327.544 -387.436)" fill="#f7bd01"/>
              <path id="Path_3" data-name="Path 3" d="M1488.033,389.865c2.744-1.865,5.929-2.373,8.82-3.712,1.934-.9,3.966-1.754,5.984-2.55,1.968-.774,2.645-4,.925-5.179-.793-.546-1.487-1.447-2.393-1.626-3.351-.666-6.4-2.479-9.964-2.369-4.051.125-8.111.1-12.166.019-1.841-.039-2.683.516-2.545,2.485s.039,3.978.026,5.968c-.026,2.939-1.418,4.371-4.227,5.407a21.659,21.659,0,0,1-15.191-.146c-1.886-.661-4.015-3.315-4.068-5.345-.035-1.224-.006-2.449,0-3.674,0-3.085-.281-3.381-3.462-3.325q-12.842.223-25.683.478-10.664.2-21.33.386c-3.285.054-3.55.269-3.562,3.518-.021,5.127,0,10.255-.012,15.382-.014,3.848-1.636,5.566-5.326,6.555a20.541,20.541,0,0,1-10.943.161c-5.591-1.47-6.261-3.009-6.39-7.974-.119-4.512-.019-9.03-.03-13.545-.007-2.72-.369-3.22-3.017-3.081-12.369.646-24.759.429-37.126.908-5.791.225-9,3.744-9,9.507q0,55.1-.034,110.2a19.3,19.3,0,0,0,4.266,12.1,57.013,57.013,0,0,0,9.957,10.586,110.965,110.965,0,0,0,10.129,7.17c4.166,2.592,8.615,4.594,12.823,7.066a22.967,22.967,0,0,0,5.418,2.112c3.355.926,6.628,2.148,10.035,2.976a65.128,65.128,0,0,0,16.951,1.8,21.916,21.916,0,0,0,2.956-.3c3.619-.576,4.426-1.51,4.426-5.267q.021-53.036-.028-106.07c-.006-3.958,1.115-7.311,3.957-9.929a19.33,19.33,0,0,1,4.8-2.839,19.946,19.946,0,0,1,4.1-1.512,35.833,35.833,0,0,0,7.5-2.895c2.784-1.29,5.8-1.767,8.586-3.11a25.056,25.056,0,0,1,7.581-2.729,18.561,18.561,0,0,0,7.409-2.618c2.35-1.5,5.072-1.359,7.492-2.538,1.334-.65,3.077-.917,4.551-1.656.642-.323,1.269-.946,2.1-.429a1.607,1.607,0,0,1-1.385,1.6c-2.436.4-4.451,1.871-6.955,2.294-2.658.449-5.047,2.212-7.646,3.219a14.156,14.156,0,0,1-2.9,1.136,24.92,24.92,0,0,0-7.156,2.694c-2.59,1.3-5.409,1.828-8.042,3-3.04,1.352-6.211,2.537-9.374,3.629-2.225.769-4.366,1.707-6.563,2.512a10.259,10.259,0,0,0-3.524,2.389c-2.067,1.923-2.311,4.285-2.31,6.844q.021,42.138.01,84.276c0,7.118.014,14.237-.013,21.356-.017,4.546-2.1,6.8-6.473,7.9-6.573,1.651-12.853-.236-19.2-1.268-6.149-1-11.78-3.9-17.9-5.155-1.9-.39-3.672-1.739-5.379-2.787-6.12-3.753-11.572-8.5-17.5-12.487-6.426-4.325-10.207-10.321-13.621-16.835a5.572,5.572,0,0,1-.333-2.707q-.018-57.981,0-115.962c0-3.089,1.669-5.014,4.342-6.6,2.809-1.669,5.765-1.849,8.786-2.013,11.589-.628,23.162-1.717,34.789-1.419,1.74.045,2.222-.73,2.191-2.366-.084-4.592-.018-9.185-.046-13.778a53.057,53.057,0,0,1,4.044-21.141,62.358,62.358,0,0,1,24.9-29.339,52.709,52.709,0,0,1,31.521-8.193A38.914,38.914,0,0,1,1451,304.325a41.507,41.507,0,0,1,14.517,10.379c2.451,2.844,4.914,5.705,6.428,9.055,2.135,4.721,4.459,9.394,4.78,14.824.635,10.708.165,21.413.352,32.117.047,2.63.688,3.022,3.38,2.742a51.718,51.718,0,0,1,17.771.8c2.666.657,5.636,1.3,7.548,3.882,1.448,1.959,1.474,3-.023,4.974-2.18,2.871-5.534,3.783-8.562,4.917-3.156,1.181-6.261,2.478-9.407,3.662-2.623.986-48.939,18.318-51.5,19.516-.315.146,13.838-6.845,29.4-13.3C1472.347,395.13,1487.15,390.466,1488.033,389.865Zm-35.149-33.518h-.021c0-4.438-.125-8.88.035-13.313.19-5.2-2.081-9.389-5.564-12.782-6.244-6.084-15.072-6.806-23.486-3.752a36.242,36.242,0,0,0-16.121,11.6c-3.281,4.108-6.087,8.606-7.021,13.875-1.209,6.806-.639,13.718-.7,20.588-.026,2.831.1,2.931,3.009,2.9,8.476-.1,16.944-.182,25.417-.834,7.15-.552,14.353-.49,21.536-.581,2.169-.027,3-.825,2.954-3.006C1452.814,366.142,1452.884,361.244,1452.884,356.347Z" transform="translate(-1326.053 -300.972)" fill="#fff"/>
              <path id="Path_4" data-name="Path 4" d="M1511.984,616.829c0-5.665.034-11.33-.023-16.993a20.42,20.42,0,0,1,.563-3.836c.561-3.114,3.589-3.3,5.627-4.418,3.5-1.917,7.324-3.261,11.02-4.829a29.318,29.318,0,0,1,2.769-1.042,27.61,27.61,0,0,0,5.347-2.444c4.561-2.542,9.525-4.345,14.306-6.5,4.9-2.2,9.758-4.487,14.643-6.714,3.529-1.607,7.074-3.173,10.607-4.767,4.358-1.965,8.7-3.983,13.077-5.9,3.81-1.668,7.646-3.291,11.516-4.806,1.659-.649,2.765.4,3.338,1.841a7.447,7.447,0,0,1,.381,2.7c.024,8.955-.02,17.911.04,26.866a3.716,3.716,0,0,1-1.916,3.538c-5.333,3.514-11.153,6.136-16.665,9.32-5.966,3.448-11.916,6.958-18.064,10.052-6.705,3.373-13.2,7.124-19.791,10.7-5.441,2.953-10.872,5.968-16.239,9.078a82.742,82.742,0,0,1-9.827,5.108c-2.4.99-4.243,3.13-6.971,3.68-2.59.52-3.7-.235-3.715-2.95-.028-5.9-.009-11.788-.009-17.681Zm51.346-36.3a5.121,5.121,0,0,0-3.357.7c-2.567,1.724-3.85,4.484-4.963,7.188-.5,1.209-.773,3.2.242,4.177,2.635,2.542,1.48,5.15.552,7.747-.625,1.751-1.28,3.433-.664,5.285.279.834.685,1.554,1.839.921a85.421,85.421,0,0,0,9.089-5.25c1.453-1.042,1.664-2.189.993-3.507-2.007-3.931-2.23-7.739-.064-11.734C1568.446,583.394,1566.527,580.55,1563.33,580.532Z" transform="translate(-1426.572 -437.99)" fill="#f7bd01"/>
              <path id="Path_5" data-name="Path 5" d="M1511.955,541.953c0-2.831-.134-5.669.034-8.49s.978-5.01,4.129-6.362c5.794-2.485,11.7-4.709,17.5-7.183,3.937-1.679,8.067-3.087,12.022-4.766,5.581-2.369,11.242-4.553,16.865-6.789,4.208-1.674,8.233-3.885,12.687-4.963a29.478,29.478,0,0,0,5.007-2.182c4.079-1.839,8.332-3.234,12.4-5.115,3.123-1.443,6.454-2.587,9.72-3.774,1.526-.555,2.708.78,2.737,2.313.107,5.658.134,11.322-.012,16.978-.053,2.081-2.049,2.752-3.641,3.387-5.88,2.353-11.542,5.189-17.331,7.732-3.683,1.618-7.381,3.244-11.086,4.828-5.3,2.267-10.44,4.92-15.792,7.051-3.8,1.513-7.458,3.334-11.14,5.065-5.277,2.482-10.733,4.543-15.944,7.2-3.281,1.672-6.771,3.054-10.212,4.458-1.344.548-2.636,1.156-3.936,1.788-2.346,1.139-3.927.153-3.993-2.455C1511.9,547.767,1511.956,544.859,1511.955,541.953Z" transform="translate(-1426.541 -404.367)" fill="#f7bd01"/>
              <path id="Path_6" data-name="Path 6" d="M1511.964,707.737c.3-3.146-.472-7.055.357-10.921a3.436,3.436,0,0,1,1.953-2.533c3.965-2.2,7.631-5,11.71-6.927,3.364-1.594,6.479-3.6,9.815-5.225,3.927-1.916,7.642-4.273,11.473-6.4,4.247-2.353,8.578-4.566,12.77-7.011,3.257-1.9,6.611-3.618,9.88-5.489,2.8-1.6,5.741-3.036,8.579-4.621,4.432-2.475,8.89-4.918,13.37-7.292,3.721-1.971,7.145-4.594,11.348-5.669,1.154-.294,1.543.209,1.55.985.046,5.3.229,10.614-.145,15.888-.14,2.017-2.654,2.78-4.3,3.808-3.856,2.408-7.573,5.048-11.479,7.34-2.9,1.7-5.267,4.419-8.872,4.909-1.216.165-1.456,1.645-2.478,2.264-3.831,2.312-7.569,4.777-11.353,7.167-5.89,3.718-11.8,7.4-17.676,11.143-4.8,3.059-9.582,6.146-14.317,9.3-4.789,3.192-9.82,6-14.521,9.333-1.407,1-2.924,1.893-4.4,2.817-1.767,1.108-3.2.3-3.244-1.812C1511.908,715.355,1511.964,711.911,1511.964,707.737Z" transform="translate(-1426.55 -487.289)" fill="#f7bd01"/>
              <path id="Path_10" data-name="Path 10" d="M1356.266,652.411c3.118,2.622,6.115,5.4,9.377,7.832a73.293,73.293,0,0,0,16.728,9.6,36.7,36.7,0,0,1,3.9,1.851c2.908,1.572,6.182,2.033,9.264,3.064a43.666,43.666,0,0,0,16.585,2.6c1.737-.1,2.286-.866,2.306-2.386,0-.459.014-.918.014-1.377q0-30.055,0-60.11c0-.536.008-1.072-.021-1.606-.021-.367.035-.8-.387-1-.475-.234-.634.218-.91.441a5.231,5.231,0,0,1-6.391-.212c-2.741-2.022-4.743-4.314-4.6-7.946.028-.749-.677-1.167-.987-1.758a7.8,7.8,0,0,1,.117-7.059,8.776,8.776,0,0,0,.956-3.645,50.087,50.087,0,0,1,1.467-9.153c.756-3.7,1.533-7.836-.775-11.535a2.921,2.921,0,0,1-.331-1.318c-.127-2.074-1.474-2.863-3.283-3.094-1.861-.237-2.959.9-3.812,2.341-.906,1.531-1.776,3.085-2.66,4.628a.678.678,0,0,1-.4-.93c.865-2.963,1.843-5.948,4.358-7.908a4.164,4.164,0,0,1,5.126.156,7.646,7.646,0,0,1,3.535,5.636,22.121,22.121,0,0,0,.85,5.365,5.671,5.671,0,0,1-.468,4.652,7.563,7.563,0,0,0-.673,4.021,13.555,13.555,0,0,1-1.525,7.394c-.149.252-.329.624-.246.854,1,2.847-.634,5.622-.052,8.635a34.026,34.026,0,0,0,1.993,6.193c1.235,3.107,3.562,3.983,6.645,2.855,2.941-1.075,3.751-.524,3.751,2.611q.01,30.406,0,60.813c0,5.288-.271,5.6-5.631,5.733a42.044,42.044,0,0,1-11.426-1.545c-6.165-1.575-11.968-4.083-17.906-6.268-4.347-1.6-7.926-4.387-11.8-6.7a64.151,64.151,0,0,1-11.713-9.422C1356.566,654.063,1355.779,653.52,1356.266,652.411Z" transform="translate(-1342.306 -442.604)" fill="#d7a066"/>
              <path id="Path_11" data-name="Path 11" d="M1343.758,565.492c-1.543,1.9-1.454,4.133-1.451,6.415q.056,35.741.017,71.484c0,.58.26,1.227-.27,1.734-1.834-.43-1.169-1.938-1.173-3.007q-.059-31.532-.027-63.061c0-3.439-.059-6.881.013-10.319C1340.9,566.923,1341.648,565.553,1343.758,565.492Z" transform="translate(-1334.008 -443.993)" fill="#d7a066"/>
              <path id="Path_12" data-name="Path 12" d="M1388.047,549.786a6.892,6.892,0,0,1-2.811-.82c-4.448-1.646-7.518,1.213-7.971,5.4a49.047,49.047,0,0,0,.272,11.841,14.143,14.143,0,0,1-1.045,7.583,2.82,2.82,0,0,1-3.583,1.663c-1.487-.381-2.758-1.217-2.5-3.126.532-.039.766.426,1.14.658.771.477,1.235,2.165,2.251,1.336,1.034-.845,2.515-1.512,2.453-3.489-.172-5.633-.146-11.274-.066-16.91.05-3.638,3.893-7.195,7.356-6.878A5.78,5.78,0,0,1,1388.047,549.786Z" transform="translate(-1350.018 -434.008)" fill="#d7a066"/>
              <path id="Path_13" data-name="Path 13" d="M1358.905,559.223c-.68-2.135-.115-4.312.414-6.257a26.113,26.113,0,0,0-.939-15.653c-.7-2.035-1.775-4.6-4.725-5.314-1.831-.441-3.045.545-4.523.955-.052-1.851,2.754-3.02,4.73-2.364,2.688.9,3.989,3.081,4.985,5.246,1.118,2.437,2.233,4.951,2.256,7.85a51.094,51.094,0,0,1-1.607,14.932C1359.428,558.858,1359.109,559.024,1358.905,559.223Z" transform="translate(-1338.53 -425.023)" fill="#d7a066"/>
              <path id="Path_14" data-name="Path 14" d="M1428.009,601.776c-.081,3.626-3.51,6.1-6.374,4.6,2.421-.059,3.839-1.508,4.9-3.491C1426.84,602.307,1427.118,601.608,1428.009,601.776Z" transform="translate(-1377.733 -463.598)" fill="#d7a066"/>
              <path id="Path_15" data-name="Path 15" d="M1412.7,595.8c-2.1-2.156-1.891-5.469.508-8.076A34.5,34.5,0,0,0,1412.7,595.8Z" transform="translate(-1372.122 -456.016)" fill="#d7a066"/>
              <path id="Path_16" data-name="Path 16" d="M1413.463,560.966c-1.225-2.449-3.111-4.519-4.062-7.123C1412.019,555.393,1413.88,558.656,1413.463,560.966Z" transform="translate(-1371.117 -437.695)" fill="#d7a066"/>
              <path id="Path_17" data-name="Path 17" d="M1343.742,740.609c.8,1.261,2.648,1.877,2.338,3.816C1344.032,744.23,1343.315,743.062,1343.742,740.609Z" transform="translate(-1335.554 -538.676)" fill="#d7a066"/>
              <path id="Path_18" data-name="Path 18" d="M1417.255,608.886a2.493,2.493,0,0,1-2.1-1.912C1416.458,606.945,1417.322,607.4,1417.255,608.886Z" transform="translate(-1374.227 -466.422)" fill="#d7a066"/>
              <path id="Path_19" data-name="Path 19" d="M1348.321,550.072c.83.706.666,1.514.243,2.35C1347.552,551.734,1347.593,550.938,1348.321,550.072Z" transform="translate(-1337.805 -435.656)" fill="#d7a066"/>
              <path id="Path_20" data-name="Path 20" d="M1418.152,575.982a1.335,1.335,0,0,1,.015-1.9C1419.05,574.725,1418.984,575.357,1418.152,575.982Z" transform="translate(-1375.64 -448.64)" fill="#d7a066"/>
              <path id="Path_21" data-name="Path 21" d="M1416.011,585.4c-.231-.8.172-1.18.893-1.344C1417.616,585.172,1416.962,585.383,1416.011,585.4Z" transform="translate(-1374.658 -454.03)" fill="#d7a066"/>
              <path id="Path_22" data-name="Path 22" d="M1350.084,750.951c.655-.153.959.119.944.778C1350.339,751.928,1349.943,751.763,1350.084,750.951Z" transform="translate(-1339.031 -544.246)" fill="#d7a066"/>
              <path id="Path_23" data-name="Path 23" d="M1352.212,752.829c.691.012.957.325.708,1C1352.158,753.868,1352.006,753.474,1352.212,752.829Z" transform="translate(-1340.153 -545.284)" fill="#d7a066"/>
              <path id="Path_25" data-name="Path 25" d="M1613.473,611.265c3.2.018,5.116,2.861,3.669,5.534-2.17,3.994-1.943,7.8.062,11.732.672,1.318.461,2.466-.989,3.508a85.443,85.443,0,0,1-9.093,5.25c-1.154.633-1.56-.087-1.836-.921-.618-1.853.04-3.534.66-5.284.932-2.6,2.086-5.205-.551-7.749-1.016-.979-.739-2.967-.24-4.176,1.112-2.7,2.394-5.464,4.961-7.187A5.11,5.11,0,0,1,1613.473,611.265Z" transform="translate(-1476.716 -468.723)" fill="#fff"/>
            </g>
            <path id="Path_26" data-name="Path 26" d="M-.561-12.6,66.379,7.57l3.794,119.279-37.267-6.417L-1.038,95.076Z" transform="translate(7.01 111.505)" fill="#f7bd01"/>
          </g>
        </g>
      </g>
    </g>
    <g id="Group_5430" data-name="Group 5430" transform="translate(-54.522 -150.886)">
      <rect id="Rectangle_480" data-name="Rectangle 480" width="353" height="148" rx="25" transform="translate(-2293.478 -1330.114)" fill="#f7bd01"/>
      <path id="Path_14806" data-name="Path 14806" d="M2.21,0,15.215-56.1H39.1q7.565,0,11.815,3.485a11.56,11.56,0,0,1,4.25,9.435,15.64,15.64,0,0,1-1.7,7.395,14.54,14.54,0,0,1-4.548,5.228,17.386,17.386,0,0,1-6.5,2.762v.085a11.113,11.113,0,0,1,7.14,3.442A10.282,10.282,0,0,1,52.275-17a15.671,15.671,0,0,1-2.72,9.392,16.483,16.483,0,0,1-7.607,5.7A30.76,30.76,0,0,1,30.685,0ZM15.725-8.84H29.07q5.44,0,8.33-2.21a7.361,7.361,0,0,0,2.89-6.2,6.072,6.072,0,0,0-.893-3.4A5.363,5.363,0,0,0,36.72-22.7a12.5,12.5,0,0,0-4.42-.68H19.125Zm5.44-23.545H32.9a12.578,12.578,0,0,0,5.568-1.1,8.072,8.072,0,0,0,3.443-3.06,8.654,8.654,0,0,0,1.19-4.59,4.938,4.938,0,0,0-2.125-4.5,9.927,9.927,0,0,0-5.44-1.36H24.565ZM67.575,0l13-56.1h41.735l-2.21,9.435H90.1l-3.23,13.94H110.5l-2.04,9.01H84.83L81.6-9.435h31.025L110.415,0ZM186.15-56.1l-2.21,9.435H165.5L154.7,0H142.97l10.8-46.665h-18.7L137.36-56.1ZM178.415,0l33.15-56.1h14.28L232.815,0H221.6l-3.91-37.23-.765-9.095h-.17L212.075-37.4,190.91,0Zm15.47-14.2,1.955-8.67h30.43l-2.04,8.67Z" transform="translate(-2236.478 -1227.114)" fill="#fff"/>
    </g>
  </g>
</svg>
