<svg width="44" height="44" viewBox="0 0 44 44" fill="none" xmlns="http://www.w3.org/2000/svg">
<rect opacity="0.1" x="0.5" y="0.5" width="43" height="43" rx="11.5" stroke="black"/>
<path d="M13.7274 16.672C13.7559 16.3936 13.6483 16.1185 13.4374 15.9312L11.2899 13.381V13H17.958L23.112 24.1429L27.6433 13H34V13.381L32.1639 15.1164C32.0056 15.2353 31.927 15.4308 31.9599 15.6243V28.3757C31.927 28.5692 32.0056 28.7647 32.1639 28.8836L33.957 30.619V31H24.9374V30.619L26.7951 28.8413C26.9776 28.6614 26.9776 28.6085 26.9776 28.3333V18.0265L21.8128 30.9577H21.1148L15.1018 18.0265V26.6931C15.0516 27.0575 15.1744 27.4243 15.4346 27.6878L17.8506 30.5767V30.9577H11V30.5767L13.416 27.6878C13.6743 27.4239 13.7899 27.0546 13.7274 26.6931V16.672Z" fill="#EFBE41"/>
</svg>
