<svg width="16" height="12" viewBox="0 0 16 12" fill="none" xmlns="http://www.w3.org/2000/svg">
<path d="M13.0908 3.09236L10.1817 6.00153H12.3638C12.3628 7.15847 11.9028 8.26775 11.0847 9.08583C10.2667 9.90391 9.15738 10.3639 8.00044 10.3648C7.2899 10.3673 6.58997 10.1924 5.96411 9.85599L4.90398 10.9161C5.78303 11.4732 6.79562 11.7838 7.83583 11.8156C8.87605 11.8473 9.90568 11.5989 10.817 11.0964C11.7284 10.5939 12.488 9.85575 13.0163 8.95916C13.5447 8.06257 13.8225 7.04047 13.8206 5.99977H16.0027L13.0908 3.09236ZM3.63801 6.00153C3.63895 4.8446 4.09895 3.73532 4.91703 2.91724C5.73511 2.09916 6.84439 1.63915 8.00133 1.63822C8.71187 1.63576 9.4118 1.81066 10.0377 2.14708L11.0978 1.08695C10.2189 0.530184 9.20655 0.21974 8.16661 0.188071C7.12668 0.156402 6.09733 0.404672 5.18618 0.906927C4.27502 1.40918 3.51552 2.14698 2.98706 3.04319C2.4586 3.9394 2.18059 4.96112 2.1821 6.00153H0L2.90917 8.91071L5.81834 6.00153H3.63801Z" fill="#F6BC2B"/>
</svg>
