<svg width="14" height="18" viewBox="0 0 14 18" fill="none" xmlns="http://www.w3.org/2000/svg">
<g clip-path="url(#clip0)">
<path d="M11.9 5.95H11.05V4.25C11.05 3.12283 10.6022 2.04183 9.8052 1.2448C9.00817 0.447767 7.92717 0 6.8 0C5.67283 0 4.59183 0.447767 3.7948 1.2448C2.99777 2.04183 2.55 3.12283 2.55 4.25V5.95H1.7C1.24913 5.95 0.81673 6.12911 0.497919 6.44792C0.179107 6.76673 0 7.19913 0 7.65V16.15C0 16.6009 0.179107 17.0333 0.497919 17.3521C0.81673 17.6709 1.24913 17.85 1.7 17.85H11.9C12.3509 17.85 12.7833 17.6709 13.1021 17.3521C13.4209 17.0333 13.6 16.6009 13.6 16.15V7.65C13.6 7.19913 13.4209 6.76673 13.1021 6.44792C12.7833 6.12911 12.3509 5.95 11.9 5.95ZM6.8 13.6C6.46377 13.6 6.13509 13.5003 5.85553 13.3135C5.57597 13.1267 5.35807 12.8612 5.2294 12.5506C5.10074 12.2399 5.06707 11.8981 5.13266 11.5683C5.19826 11.2386 5.36017 10.9357 5.59792 10.6979C5.83567 10.4602 6.13858 10.2983 6.46835 10.2327C6.79811 10.1671 7.13993 10.2007 7.45056 10.3294C7.7612 10.4581 8.0267 10.676 8.2135 10.9555C8.4003 11.2351 8.5 11.5638 8.5 11.9C8.5 12.3509 8.32089 12.7833 8.00208 13.1021C7.68327 13.4209 7.25087 13.6 6.8 13.6ZM9.435 5.95H4.165V4.25C4.165 3.55115 4.44262 2.88093 4.93677 2.38677C5.43093 1.89262 6.10115 1.615 6.8 1.615C7.49885 1.615 8.16907 1.89262 8.66323 2.38677C9.15738 2.88093 9.435 3.55115 9.435 4.25V5.95Z" fill="#232323"/>
</g>
<defs>
<clipPath id="clip0">
<rect width="13.6" height="17.85" fill="white"/>
</clipPath>
</defs>
</svg>
