<svg width="16" height="22" viewBox="0 0 16 22" fill="none" xmlns="http://www.w3.org/2000/svg">
<path d="M14 7.5H13V5.5C13 4.17392 12.4732 2.90215 11.5355 1.96447C10.5979 1.02678 9.32608 0.5 8 0.5C6.67392 0.5 5.40215 1.02678 4.46447 1.96447C3.52678 2.90215 3 4.17392 3 5.5V7.5H2C1.46957 7.5 0.960859 7.71071 0.585787 8.08579C0.210714 8.46086 0 8.96957 0 9.5V19.5C0 20.0304 0.210714 20.5391 0.585787 20.9142C0.960859 21.2893 1.46957 21.5 2 21.5H14C14.5304 21.5 15.0391 21.2893 15.4142 20.9142C15.7893 20.5391 16 20.0304 16 19.5V9.5C16 8.96957 15.7893 8.46086 15.4142 8.08579C15.0391 7.71071 14.5304 7.5 14 7.5ZM8 16.5C7.60444 16.5 7.21776 16.3827 6.88886 16.1629C6.55996 15.9432 6.30362 15.6308 6.15224 15.2654C6.00086 14.8999 5.96126 14.4978 6.03843 14.1098C6.1156 13.7219 6.30608 13.3655 6.58579 13.0858C6.86549 12.8061 7.22186 12.6156 7.60982 12.5384C7.99778 12.4613 8.39991 12.5009 8.76537 12.6522C9.13082 12.8036 9.44318 13.06 9.66294 13.3889C9.8827 13.7178 10 14.1044 10 14.5C10 15.0304 9.78929 15.5391 9.41421 15.9142C9.03914 16.2893 8.53043 16.5 8 16.5ZM11.1 7.5H4.9V5.5C4.9 4.67783 5.22661 3.88933 5.80797 3.30797C6.38933 2.72661 7.17783 2.4 8 2.4C8.82217 2.4 9.61067 2.72661 10.192 3.30797C10.7734 3.88933 11.1 4.67783 11.1 5.5V7.5Z" fill="#F6BC2B"/>
</svg>
