<?xml version="1.0" encoding="UTF-8"?>
<svg xmlns="http://www.w3.org/2000/svg" id="outline" viewBox="0 0 512 512" width="512" height="512"><path d="M59.2002,278.40039l32,24a8.001,8.001,0,0,0,9.5996,0l32-24A8.0009,8.0009,0,0,0,136,272V240a8.0009,8.0009,0,0,0-3.2002-6.40039l-32-24a8.00171,8.00171,0,0,0-9.60009,0l-10.66651,8,9.6001,12.80078L96,226l24,18v24L96,286,72,268V244l7.4668-5.59961-9.6001-12.80078-10.667,8A8.00322,8.00322,0,0,0,56,240v32A8.0009,8.0009,0,0,0,59.2002,278.40039Z"/><path d="M16,256a80,80,0,1,0,80-80A80.09041,80.09041,0,0,0,16,256Zm80-64a64,64,0,1,1-64,64A64.07239,64.07239,0,0,1,96,192Z"/><path d="M416,176a80,80,0,1,0,80,80A80.09041,80.09041,0,0,0,416,176Zm0,144a64,64,0,1,1,64-64A64.07239,64.07239,0,0,1,416,320Z"/><path d="M424,208H408v16.39844A20.00311,20.00311,0,0,0,412,264h8a4,4,0,0,1,0,8H392v16h16v16h16V287.59692A20.00055,20.00055,0,0,0,420,248h-8a4.001,4.001,0,0,1-.00342-8.00195h.00049L440,240V224l-16-.001Z"/><rect x="130.78019" y="247.99994" width="250.43961" height="16.00011" transform="translate(-87.46629 370.46793) rotate(-63.43182)"/><path d="M456,160V88a72.08124,72.08124,0,0,0-72-72H136A72.08124,72.08124,0,0,0,64,88v8H48a8.00034,8.00034,0,0,0-5.42627,13.87891l52,48a8.00141,8.00141,0,0,0,10.85254,0l52-48A8.00034,8.00034,0,0,0,152,96H136a16.01833,16.01833,0,0,1,16-16H368a16.01833,16.01833,0,0,1,16,16v64h16V96a32.03635,32.03635,0,0,0-32-32H152a32.03635,32.03635,0,0,0-32,32v8a8.00008,8.00008,0,0,0,8,8h3.53906L100,141.1123,68.46094,112H72a8.00008,8.00008,0,0,0,8-8V88a56.06322,56.06322,0,0,1,56-56H384a56.06322,56.06322,0,0,1,56,56v72Z"/><path d="M368,431.99805H143.99756a16.01833,16.01833,0,0,1-16-16v-64h-16v64a32.03635,32.03635,0,0,0,32,32H368a32.03635,32.03635,0,0,0,32-32V408a8.00008,8.00008,0,0,0-8-8h-3.53857L420,370.8877,451.53857,400H448a8.00008,8.00008,0,0,0-8,8v15.998a56.06322,56.06322,0,0,1-56,56H127.99756a56.06322,56.06322,0,0,1-56-56v-72h-16v72a72.08124,72.08124,0,0,0,72,72H384a72.08124,72.08124,0,0,0,72-72V416h16a8.00034,8.00034,0,0,0,5.42627-13.87891l-52-48a8.00141,8.00141,0,0,0-10.85254,0l-52,48A8.00034,8.00034,0,0,0,368,416h16A16.01823,16.01823,0,0,1,368,431.99805Z"/></svg>
