<svg width="44" height="44" viewBox="0 0 44 44" fill="none" xmlns="http://www.w3.org/2000/svg">
<rect width="44" height="44" rx="12" fill="#EFBE41"/>
<path fill-rule="evenodd" clip-rule="evenodd" d="M16.3968 23.0545L11.3842 21.1661C10.8749 20.9737 10.871 20.2482 11.3782 20.0506L31.9493 12.041C32.3855 11.8709 32.8357 12.2563 32.7401 12.7186L29.0486 30.6413C28.9617 31.0647 28.4704 31.2565 28.1231 31.0017L23.0839 27.3091C22.7778 27.0852 22.3609 27.097 22.0681 27.338L19.2736 29.6367C18.9496 29.9046 18.461 29.7555 18.3368 29.3517L16.3968 23.0545ZM27.8201 15.96L18.0238 22.0492C17.648 22.2836 17.4714 22.7412 17.5929 23.1693L18.6519 26.9256C18.7269 27.1915 19.11 27.1646 19.1465 26.8895L19.4221 24.8298C19.4738 24.4418 19.6571 24.0846 19.9413 23.8174L28.0259 16.2325C28.1773 16.0907 27.996 15.8504 27.8201 15.96Z" fill="white"/>
</svg>
