<svg width="44" height="44" viewBox="0 0 44 44" fill="none" xmlns="http://www.w3.org/2000/svg">
<rect opacity="0.1" x="0.5" y="0.5" width="43" height="43" rx="11.5" stroke="black"/>
<path d="M34.3522 14.3424C33.4466 14.7396 32.4817 15.0029 31.4756 15.1308C32.5106 14.5128 33.3005 13.5418 33.6719 12.3714C32.7069 12.9467 31.6415 13.3531 30.5061 13.5799C29.5899 12.6042 28.284 12 26.8594 12C24.0954 12 21.8702 14.2435 21.8702 16.9937C21.8702 17.3895 21.9037 17.77 21.9859 18.1322C17.8353 17.9298 14.1627 15.9405 11.6955 12.9102C11.2648 13.6575 11.0121 14.5128 11.0121 15.4337C11.0121 17.1627 11.9025 18.6953 13.2297 19.5827C12.4276 19.5675 11.6407 19.3346 10.9741 18.9678C10.9741 18.983 10.9741 19.0028 10.9741 19.0226C10.9741 21.4487 12.7046 23.4638 14.9739 23.928C14.5676 24.0391 14.1247 24.0924 13.665 24.0924C13.3454 24.0924 13.0227 24.0741 12.7198 24.0072C13.3667 25.9843 15.2022 27.4378 17.3848 27.485C15.6862 28.8137 13.5296 29.6143 11.1948 29.6143C10.7854 29.6143 10.3927 29.596 10 29.5458C12.2115 30.9719 14.8324 31.7862 17.6588 31.7862C26.8457 31.7862 31.8683 24.1761 31.8683 17.5797C31.8683 17.359 31.8607 17.1459 31.85 16.9344C32.8409 16.2312 33.6734 15.353 34.3522 14.3424Z" fill="#EFBE41"/>
</svg>
