<svg width="42" height="42" viewBox="0 0 42 42" fill="none" xmlns="http://www.w3.org/2000/svg">
<path d="M8.59743 13.8845C15.4472 7.37185 26.5528 7.37185 33.4026 13.8845L34.536 14.9621C34.7073 15.125 34.7078 15.3895 34.5368 15.5528C34.5365 15.5531 34.5363 15.5534 34.536 15.5537L31.4063 18.5291C31.2353 18.6918 30.9584 18.6918 30.7874 18.5291L29.6524 17.45C24.8738 12.9067 17.1262 12.9067 12.3477 17.45L11.1322 18.6057C10.9611 18.7683 10.6843 18.7683 10.5132 18.6057L7.38358 15.63C7.2122 15.4671 7.21185 15.2026 7.38276 15.0393C7.38304 15.039 7.3833 15.0387 7.38358 15.0386L8.59743 13.8845ZM38.924 19.134L41.7425 21.8137C42.0853 22.1397 42.0859 22.6686 41.7441 22.9953C41.7435 22.9959 41.7431 22.9964 41.7425 22.997L30.4264 33.7561C30.0842 34.0813 29.5306 34.0813 29.1884 33.7561L21.1548 26.118C21.0692 26.0366 20.9309 26.0366 20.8453 26.118L12.8119 33.7561C12.4697 34.0813 11.9161 34.0813 11.574 33.7561L0.257538 22.9968C-0.0852125 22.6709 -0.0859347 22.1418 0.25591 21.8151C0.256447 21.8147 0.256985 21.814 0.257538 21.8136L3.07593 19.134C3.24698 18.9714 3.52384 18.9714 3.6949 19.134L12.0381 27.0663C12.1237 27.1477 12.2621 27.1477 12.3476 27.0663L20.3808 19.4282C20.723 19.1029 21.2767 19.1029 21.6189 19.4282L29.6526 27.0663C29.738 27.1477 29.8765 27.1477 29.9621 27.0663L38.3051 19.134C38.4761 18.9715 38.753 18.9715 38.924 19.134Z" fill="#3B99FC"/>
</svg>
