<svg xmlns="http://www.w3.org/2000/svg" xmlns:xlink="http://www.w3.org/1999/xlink" width="139" height="139" viewBox="0 0 139 139">
  <defs>
    <filter id="Ellipse_9" x="0" y="0" width="139" height="139" filterUnits="userSpaceOnUse">
      <feOffset dy="9" input="SourceAlpha"/>
      <feGaussianBlur stdDeviation="10" result="blur"/>
      <feFlood flood-opacity="0.102"/>
      <feComposite operator="in" in2="blur"/>
      <feComposite in="SourceGraphic"/>
    </filter>
  </defs>
  <g id="Group_3283" data-name="Group 3283" transform="translate(-4947 -1317)">
    <g id="Group_3226" data-name="Group 3226" transform="translate(0 -10)">
      <g transform="matrix(1, 0, 0, 1, 4947, 1327)" filter="url(#Ellipse_9)">
        <circle id="Ellipse_9-2" data-name="Ellipse 9" cx="39.5" cy="39.5" r="39.5" transform="translate(30 21)" fill="#fff"/>
      </g>
      <circle id="Ellipse_8" data-name="Ellipse 8" cx="32.5" cy="32.5" r="32.5" transform="translate(4984 1355)" fill="#f6f7f9"/>
    </g>
    <g id="Group_3227" data-name="Group 3227" transform="translate(4308.781 1662.75)">
      <g id="Group_3200" data-name="Group 3200" transform="translate(690.218 -308.751)">
        <g id="Group_3199" data-name="Group 3199" transform="translate(0 0)">
          <g id="Group_3197" data-name="Group 3197">
            <path id="Path_2" data-name="Path 2" d="M1356.876,464.985l-.264.052a7.182,7.182,0,0,0-1.874.745l-.173.032c-.159-.1-.278.02-.4.082-.281.141-.614.192-.868.316a12.2,12.2,0,0,0-1.429.484,3.542,3.542,0,0,1-1.413.5,4.763,4.763,0,0,0-1.446.521c-.532.256-1.107.347-1.638.593a6.837,6.837,0,0,1-1.431.552,3.777,3.777,0,0,0-.782.288,3.671,3.671,0,0,0-.915.542,2.421,2.421,0,0,0-.755,1.894q.022,10.118.005,20.236c0,.717-.154.895-.845,1a4.191,4.191,0,0,1-.563.056,12.414,12.414,0,0,1-3.234-.344c-.65-.158-1.274-.391-1.914-.568a4.364,4.364,0,0,1-1.033-.4c-.8-.472-1.653-.854-2.447-1.348a21.211,21.211,0,0,1-1.932-1.368,10.871,10.871,0,0,1-1.9-2.02,3.688,3.688,0,0,1-.814-2.309q.018-10.512.007-21.024a1.646,1.646,0,0,1,1.716-1.814c2.359-.091,4.723-.05,7.083-.174.505-.026.574.069.575.588,0,.861-.017,1.723.006,2.584.025.947.152,1.241,1.219,1.521a3.918,3.918,0,0,0,2.088-.031,1.141,1.141,0,0,0,1.016-1.251c0-.978,0-1.956,0-2.935,0-.62.053-.661.68-.671q2.035-.033,4.069-.074,2.45-.046,4.9-.091c.607-.01.661.046.661.634,0,.234-.006.468,0,.7a1.339,1.339,0,0,0,.777,1.02,4.132,4.132,0,0,0,2.9.028,1.01,1.01,0,0,0,.806-1.031c0-.38.022-.761,0-1.139s.134-.481.485-.474c.774.016,1.548.02,2.321,0a8.332,8.332,0,0,1,1.9.452c.172.034.3.206.457.31a.608.608,0,0,1-.177.988c-.385.152-.773.315-1.142.487a10.773,10.773,0,0,0-1.682.708c-.554.377-1.263.476-1.844.831l-.183.067A1.279,1.279,0,0,0,1356.876,464.985Zm-26.007,21.485c-.038.123-.01.2.135.191l.228.24c-.093.211.057.315.184.439a12.2,12.2,0,0,0,2.235,1.8,13.7,13.7,0,0,0,2.253,1.279,35.125,35.125,0,0,0,3.416,1.2,8.006,8.006,0,0,0,2.18.295c1.023-.024,1.074-.085,1.074-1.094q0-5.8,0-11.6c0-.6-.155-.7-.716-.5a.885.885,0,0,1-1.268-.544,6.536,6.536,0,0,1-.38-1.181c-.111-.575.2-1.1.009-1.648a.24.24,0,0,1,.048-.163,2.587,2.587,0,0,0,.29-1.411,1.441,1.441,0,0,1,.128-.767,1.08,1.08,0,0,0,.089-.888,4.232,4.232,0,0,1-.162-1.023,1.459,1.459,0,0,0-.675-1.075.8.8,0,0,0-.978-.03,2.752,2.752,0,0,0-.83,1.509.129.129,0,0,0,.076.177q-.022.783-.045,1.567c-.17-.032-.222.1-.281.211a1.061,1.061,0,0,1-.934.666l-.167-.06c.013-.283-.152-.371-.4-.365l-.066-.146a6.628,6.628,0,0,1,.1-1.541.5.5,0,0,1,.051-.066c.182,0,.306-.043.171-.256.017-.171.033-.341.05-.512.158-.119.171-.24,0-.361-.011-.138-.023-.277-.034-.415a1.52,1.52,0,0,0-.775-1.359c-.017-.023-.034-.046-.049-.07a1.1,1.1,0,0,0-.858-.523,1.422,1.422,0,0,0-1.4,1.312c-.015,1.075-.02,2.151.013,3.226.011.377-.271.5-.469.665s-.282-.163-.429-.255c-.072-.044-.117-.133-.217-.125q0-.393,0-.786c.038-.038.1-.07.112-.115a9.76,9.76,0,0,0,.307-2.849,3.63,3.63,0,0,0-.431-1.5,1.657,1.657,0,0,0-.951-1c-.377-.125-.912.1-.9.451a7.944,7.944,0,0,0-.016,1.237c-.139.165-.147.317.046.448a.927.927,0,0,1-.192.9c-.4.012-.545.273-.551.619-.014.656,0,1.312,0,1.968q0,6.015.005,12.031c0,.2-.126.492.224.574l.027.153c-.082.468.055.69.445.728l.1.183c-.027.155.049.186.18.149Z" transform="translate(-1328.568 -446.875)" fill="#f7bd01"/>
            <path id="Path_3" data-name="Path 3" d="M1356.956,317.931a10.755,10.755,0,0,1,1.683-.708c.369-.171.757-.335,1.141-.486a.608.608,0,0,0,.177-.988c-.151-.1-.284-.276-.456-.31a8.347,8.347,0,0,0-1.9-.452c-.773.024-1.547.02-2.321,0-.351-.007-.512.1-.485.474s.007.759,0,1.138a1.009,1.009,0,0,1-.806,1.032,4.132,4.132,0,0,1-2.9-.028,1.336,1.336,0,0,1-.776-1.02c-.006-.233,0-.467,0-.7,0-.589-.054-.645-.66-.634q-2.451.042-4.9.091-2.035.038-4.069.074c-.627.01-.677.051-.68.671,0,.978,0,1.956,0,2.935a1.141,1.141,0,0,1-1.016,1.251,3.921,3.921,0,0,1-2.088.031c-1.067-.28-1.195-.574-1.219-1.521-.023-.861,0-1.723-.006-2.584,0-.519-.07-.614-.576-.588-2.359.123-4.723.082-7.083.173a1.646,1.646,0,0,0-1.716,1.814q0,10.512-.007,21.024a3.686,3.686,0,0,0,.814,2.309,10.885,10.885,0,0,0,1.9,2.02,21.169,21.169,0,0,0,1.933,1.368c.794.494,1.644.876,2.446,1.348a4.4,4.4,0,0,0,1.034.4c.64.177,1.264.41,1.915.568a12.42,12.42,0,0,0,3.234.343,4.179,4.179,0,0,0,.564-.056c.69-.11.844-.288.844-1.005q0-10.118-.005-20.236a2.425,2.425,0,0,1,.755-1.894,3.676,3.676,0,0,1,.916-.542,3.781,3.781,0,0,1,.781-.288,6.822,6.822,0,0,0,1.431-.552c.531-.246,1.106-.337,1.638-.593a4.779,4.779,0,0,1,1.446-.521,3.534,3.534,0,0,0,1.413-.5,12.259,12.259,0,0,1,1.43-.484c.254-.124.587-.175.868-.316.123-.062.242-.181.4-.082a.307.307,0,0,1-.265.306c-.465.075-.849.357-1.327.438a8.167,8.167,0,0,0-1.459.614,2.708,2.708,0,0,1-.554.217,4.755,4.755,0,0,0-1.365.514c-.494.248-1.032.349-1.535.572-.58.258-1.184.484-1.788.692-.425.147-.833.326-1.252.479a1.953,1.953,0,0,0-.672.456,1.611,1.611,0,0,0-.441,1.306q0,8.039,0,16.078c0,1.358,0,2.716,0,4.074a1.392,1.392,0,0,1-1.235,1.507,8.84,8.84,0,0,1-3.663-.242c-1.174-.191-2.247-.744-3.414-.984a3.493,3.493,0,0,1-1.026-.532c-1.167-.716-2.208-1.622-3.338-2.382a8.155,8.155,0,0,1-2.6-3.212,1.064,1.064,0,0,1-.063-.516q0-11.062,0-22.123a1.408,1.408,0,0,1,.828-1.26,3.463,3.463,0,0,1,1.676-.384c2.211-.12,4.419-.328,6.637-.271.333.008.424-.139.418-.451-.016-.876,0-1.752-.009-2.629a10.125,10.125,0,0,1,.772-4.033,11.9,11.9,0,0,1,4.75-5.6,10.055,10.055,0,0,1,6.014-1.563,7.42,7.42,0,0,1,2.749.627,7.917,7.917,0,0,1,2.77,1.98,7.456,7.456,0,0,1,1.226,1.727,8,8,0,0,1,.912,2.828c.121,2.043.031,4.085.067,6.127.009.5.131.577.645.523a9.861,9.861,0,0,1,3.39.152,2.3,2.3,0,0,1,1.44.741.639.639,0,0,1,0,.949,3.281,3.281,0,0,1-1.633.938c-.6.225-1.194.473-1.794.7-.5.188-9.337,3.495-9.826,3.723-.06.028,2.64-1.306,5.609-2.537C1353.963,318.935,1356.787,318.045,1356.956,317.931Zm-6.706-6.394h0c0-.847-.024-1.694.007-2.54a3.169,3.169,0,0,0-1.062-2.439,4.174,4.174,0,0,0-4.48-.716,6.913,6.913,0,0,0-3.075,2.213,5.963,5.963,0,0,0-1.34,2.647,23.583,23.583,0,0,0-.134,3.928c0,.54.018.559.575.553,1.617-.019,3.232-.035,4.849-.159,1.364-.105,2.738-.093,4.109-.111.413-.005.572-.157.563-.573C1350.237,313.4,1350.25,312.47,1350.25,311.536Z" transform="translate(-1326.053 -300.972)" fill="#f7bd01"/>
            <path id="Path_4" data-name="Path 4" d="M1511.965,566.3c0-1.081.007-2.161,0-3.242a3.858,3.858,0,0,1,.108-.732c.106-.594.684-.63,1.073-.843.668-.366,1.4-.622,2.1-.921a5.543,5.543,0,0,1,.528-.2,5.242,5.242,0,0,0,1.02-.466c.871-.485,1.818-.829,2.729-1.24.934-.421,1.862-.856,2.794-1.281.673-.307,1.349-.605,2.024-.909.831-.375,1.659-.76,2.494-1.126.727-.318,1.459-.628,2.2-.917.317-.124.527.077.637.351a1.433,1.433,0,0,1,.072.515c0,1.708,0,3.417.008,5.125a.709.709,0,0,1-.365.675c-1.017.67-2.128,1.171-3.18,1.778-1.138.658-2.273,1.328-3.446,1.918-1.279.644-2.518,1.359-3.775,2.041-1.038.563-2.075,1.139-3.1,1.732a15.8,15.8,0,0,1-1.875.974c-.458.189-.809.6-1.329.7-.494.1-.707-.045-.709-.563,0-1.125,0-2.249,0-3.373Zm9.8-6.925a.978.978,0,0,0-.641.135,2.83,2.83,0,0,0-.947,1.371.785.785,0,0,0,.046.8c.5.485.282.983.105,1.478a1.494,1.494,0,0,0-.127,1.008c.054.159.131.3.351.176a16.326,16.326,0,0,0,1.734-1,.473.473,0,0,0,.19-.669,2.248,2.248,0,0,1-.012-2.239A.715.715,0,0,0,1521.76,559.375Z" transform="translate(-1495.67 -532.181)" fill="#f7bd01"/>
            <path id="Path_5" data-name="Path 5" d="M1511.913,501.693c0-.54-.025-1.082.006-1.62a1.229,1.229,0,0,1,.788-1.214c1.106-.474,2.232-.9,3.339-1.37.751-.32,1.539-.589,2.294-.909,1.065-.452,2.145-.869,3.217-1.3a18.35,18.35,0,0,1,2.421-.947,5.6,5.6,0,0,0,.955-.416c.778-.351,1.59-.617,2.366-.976.6-.275,1.231-.494,1.855-.72.291-.106.516.149.521.441.021,1.079.026,2.16,0,3.239-.01.4-.391.525-.695.646-1.122.449-2.2.99-3.307,1.475-.7.309-1.408.619-2.115.921-1.011.432-1.991.939-3.012,1.345-.726.289-1.423.636-2.126.966-1.006.474-2.048.867-3.042,1.373-.626.319-1.291.583-1.947.851-.257.1-.5.221-.751.341-.448.217-.748.029-.761-.468C1511.9,502.8,1511.913,502.248,1511.913,501.693Z" transform="translate(-1495.618 -475.445)" fill="#f7bd01"/>
            <path id="Path_6" data-name="Path 6" d="M1511.929,657.428a14.949,14.949,0,0,1,.068-2.083.656.656,0,0,1,.373-.483c.757-.42,1.456-.953,2.234-1.321.642-.3,1.236-.686,1.873-1,.75-.365,1.458-.815,2.189-1.22.811-.449,1.637-.871,2.436-1.338.621-.362,1.261-.69,1.885-1.047.535-.306,1.1-.579,1.637-.882.845-.472,1.7-.938,2.551-1.391a10.087,10.087,0,0,1,2.165-1.081c.22-.056.295.04.3.188.009,1.011.043,2.025-.027,3.031-.027.384-.507.53-.821.726-.736.459-1.445.963-2.19,1.4a4.7,4.7,0,0,1-1.693.937c-.232.031-.277.314-.472.432-.731.441-1.444.911-2.166,1.367-1.124.709-2.252,1.411-3.372,2.126q-1.373.875-2.732,1.775c-.914.609-1.874,1.144-2.771,1.78-.268.191-.557.361-.839.537-.337.211-.61.056-.619-.346C1511.919,658.881,1511.929,658.224,1511.929,657.428Z" transform="translate(-1495.634 -615.371)" fill="#f7bd01"/>
            <path id="Path_10" data-name="Path 10" d="M1356.143,579.995c.595.5,1.167,1.031,1.789,1.494a13.991,13.991,0,0,0,3.191,1.832,6.914,6.914,0,0,1,.744.353,10.7,10.7,0,0,0,1.767.584,8.331,8.331,0,0,0,3.165.5c.331-.02.436-.165.44-.455,0-.088,0-.175,0-.263q0-5.734,0-11.467c0-.1,0-.2,0-.307,0-.07.007-.152-.074-.191s-.121.041-.174.084a1,1,0,0,1-1.219-.04,1.742,1.742,0,0,1-.878-1.516c.006-.143-.129-.223-.188-.335a1.488,1.488,0,0,1,.023-1.347,1.686,1.686,0,0,0,.182-.7,9.605,9.605,0,0,1,.28-1.746,2.889,2.889,0,0,0-.148-2.2.551.551,0,0,1-.063-.252c-.024-.4-.282-.546-.627-.59a.721.721,0,0,0-.728.447c-.173.292-.339.589-.508.883a.13.13,0,0,1-.077-.177,2.756,2.756,0,0,1,.831-1.509.8.8,0,0,1,.978.03,1.458,1.458,0,0,1,.675,1.075,4.235,4.235,0,0,0,.162,1.023,1.08,1.08,0,0,1-.089.887,1.44,1.44,0,0,0-.128.767,2.585,2.585,0,0,1-.291,1.411.239.239,0,0,0-.047.163c.191.543-.121,1.073-.01,1.648a6.54,6.54,0,0,0,.38,1.181.886.886,0,0,0,1.268.545c.561-.205.715-.1.715.5q0,5.8,0,11.6c0,1.009-.051,1.069-1.074,1.094a8.031,8.031,0,0,1-2.18-.295,35.223,35.223,0,0,1-3.416-1.2,13.732,13.732,0,0,1-2.252-1.279,12.235,12.235,0,0,1-2.234-1.8C1356.2,580.31,1356.05,580.206,1356.143,579.995Z" transform="translate(-1353.48 -539.968)" fill="#d7a066"/>
            <path id="Path_11" data-name="Path 11" d="M1341.337,565.492a1.783,1.783,0,0,0-.277,1.224q.01,6.819,0,13.638c0,.11.05.234-.051.331-.35-.082-.223-.37-.224-.574q-.011-6.016,0-12.031c0-.656-.011-1.313,0-1.969C1340.792,565.765,1340.934,565.5,1341.337,565.492Z" transform="translate(-1339.476 -542.313)" fill="#d7a066"/>
            <path id="Path_12" data-name="Path 12" d="M1373.746,547.55a1.309,1.309,0,0,1-.536-.156,1.086,1.086,0,0,0-1.521,1.03,9.364,9.364,0,0,0,.052,2.259,2.693,2.693,0,0,1-.2,1.447.538.538,0,0,1-.683.317c-.284-.073-.526-.232-.477-.6.1-.008.146.081.218.125.147.091.236.413.43.255s.48-.288.468-.666c-.033-1.075-.028-2.151-.012-3.226a1.421,1.421,0,0,1,1.4-1.312A1.1,1.1,0,0,1,1373.746,547.55Z" transform="translate(-1366.492 -525.462)" fill="#d7a066"/>
            <path id="Path_13" data-name="Path 13" d="M1350.995,535.9a2.1,2.1,0,0,1,.079-1.194,4.976,4.976,0,0,0-.179-2.986,1.344,1.344,0,0,0-.9-1.014c-.349-.084-.58.1-.863.182-.01-.353.526-.576.9-.451a1.66,1.66,0,0,1,.951,1,3.641,3.641,0,0,1,.43,1.5,9.761,9.761,0,0,1-.307,2.849C1351.094,535.835,1351.034,535.866,1350.995,535.9Z" transform="translate(-1347.108 -510.302)" fill="#d7a066"/>
            <path id="Path_14" data-name="Path 14" d="M1422.85,601.755a.884.884,0,0,1-1.216.877,1.061,1.061,0,0,0,.935-.666C1422.627,601.857,1422.68,601.723,1422.85,601.755Z" transform="translate(-1413.259 -575.394)" fill="#d7a066"/>
            <path id="Path_15" data-name="Path 15" d="M1411.535,589.268a1.09,1.09,0,0,1,.1-1.541A6.587,6.587,0,0,0,1411.535,589.268Z" transform="translate(-1403.793 -562.599)" fill="#d7a066"/>
            <path id="Path_16" data-name="Path 16" d="M1410.175,555.2a13.711,13.711,0,0,1-.775-1.359A1.519,1.519,0,0,1,1410.175,555.2Z" transform="translate(-1402.097 -531.683)" fill="#d7a066"/>
            <path id="Path_17" data-name="Path 17" d="M1343.646,740.609c.153.241.506.358.446.728C1343.7,741.3,1343.565,741.077,1343.646,740.609Z" transform="translate(-1342.084 -702.084)" fill="#d7a066"/>
            <path id="Path_18" data-name="Path 18" d="M1415.552,607.338a.476.476,0,0,1-.4-.365C1415.4,606.968,1415.565,607.055,1415.552,607.338Z" transform="translate(-1407.344 -580.159)" fill="#d7a066"/>
            <path id="Path_19" data-name="Path 19" d="M1347.889,550.072c.159.135.127.289.047.448C1347.742,550.389,1347.75,550.237,1347.889,550.072Z" transform="translate(-1345.882 -528.244)" fill="#d7a066"/>
            <path id="Path_20" data-name="Path 20" d="M1417.838,574.448a.255.255,0,0,1,0-.362C1418.009,574.208,1418,574.328,1417.838,574.448Z" transform="translate(-1409.727 -550.153)" fill="#d7a066"/>
            <path id="Path_21" data-name="Path 21" d="M1415.957,584.311c-.044-.153.033-.225.171-.256C1416.264,584.267,1416.139,584.308,1415.957,584.311Z" transform="translate(-1408.068 -559.248)" fill="#d7a066"/>
            <path id="Path_22" data-name="Path 22" d="M1350.061,750.917c.125-.029.183.023.18.148C1350.109,751.1,1350.034,751.072,1350.061,750.917Z" transform="translate(-1347.953 -711.482)" fill="#d7a066"/>
            <path id="Path_23" data-name="Path 23" d="M1352.144,752.828c.132,0,.182.062.135.191C1352.133,753.026,1352.1,752.951,1352.144,752.828Z" transform="translate(-1349.843 -713.233)" fill="#d7a066"/>
            <path id="Path_25" data-name="Path 25" d="M1606.379,611.236a.716.716,0,0,1,.7,1.056,2.247,2.247,0,0,0,.011,2.238.474.474,0,0,1-.189.669,16.314,16.314,0,0,1-1.734,1c-.22.121-.3-.016-.35-.176a1.5,1.5,0,0,1,.126-1.008c.178-.5.4-.993-.1-1.478a.784.784,0,0,1-.046-.8,2.829,2.829,0,0,1,.946-1.371A.976.976,0,0,1,1606.379,611.236Z" transform="translate(-1580.289 -584.042)" fill="#fff"/>
          </g>
          <path id="Path_26" data-name="Path 26" d="M-.947-12.6,11.823-8.751,12.547,14l-7.11-1.224L-1.038,7.943Z" transform="translate(2.178 31.468)" fill="#f7bd01"/>
        </g>
      </g>
    </g>
  </g>
</svg>
