<svg width="32" height="32" viewBox="0 0 32 32" fill="none" xmlns="http://www.w3.org/2000/svg">
<circle cx="16" cy="16" r="16" fill="white"/>
<path d="M16.421 10.2723L12.6596 14.0335L10.4711 11.8449L16.421 5.89473L22.3729 11.8469L20.1843 14.0355L16.421 10.2723Z" fill="#F0B90A"/>
<path d="M11.114 15.5785L8.92541 13.3901L6.73682 15.5787L8.92541 17.7673L11.114 15.5785Z" fill="#F0B90A"/>
<path d="M16.421 20.8856L12.6596 17.1244L10.4678 19.3101L10.4709 19.3131L16.421 25.2632L22.3729 19.3111L22.3739 19.3099L20.1841 17.1226L16.421 20.8856Z" fill="#F0B90A"/>
<path d="M23.9168 17.7682L26.1052 15.5796L23.9167 13.391L21.7281 15.5798L23.9168 17.7682Z" fill="#F0B90A"/>
<path d="M18.6418 15.5777H18.6427L16.4219 13.3568L14.2029 15.5821L16.4219 17.8009L18.6427 15.58L18.6438 15.5789L18.6418 15.5777Z" fill="#F0B90A"/>
</svg>
