<svg width="107" height="62" viewBox="0 0 107 62" fill="none" xmlns="http://www.w3.org/2000/svg">
<circle cx="31" cy="31" r="30.5" fill="white" stroke="#2C2C2C"/>
<path d="M31.8156 19.9026L24.5281 27.1899L20.2877 22.9495L31.8156 11.4211L43.3475 22.9533L39.107 27.1937L31.8156 19.9026Z" fill="#F0B90A"/>
<path d="M21.5334 30.1835L17.293 25.9433L13.0526 30.1837L17.293 34.4242L21.5334 30.1835Z" fill="#F0B90A"/>
<path d="M31.8156 40.4659L24.5281 33.1786L20.2815 37.4134L20.2874 37.4192L31.8156 48.9474L43.3475 37.4154L43.3495 37.413L39.1068 33.175L31.8156 40.4659Z" fill="#F0B90A"/>
<path d="M46.3389 34.426L50.5789 30.1855L46.3386 25.9451L42.0981 30.1859L46.3389 34.426Z" fill="#F0B90A"/>
<path d="M36.1184 30.1819H36.1202L31.8174 25.8789L27.5182 30.1903L31.8174 34.4894L36.1202 30.1864L36.1224 30.1841L36.1184 30.1819Z" fill="#F0B90A"/>
<circle cx="76" cy="31" r="30" fill="white" stroke="#2C2C2C" stroke-width="2"/>
<path d="M92.5489 21.1024L75.9269 11.4211L59.7187 20.9283L59.6842 40.0819L76.0303 49.7632L92.5489 40.2908V21.1024ZM75.9614 14.3464L88.2382 21.5203L76.0303 28.6942L63.7535 21.5203L75.9614 14.3464ZM74.5474 45.7932L62.2016 38.6541V24.3759L74.513 31.5498V45.7932H74.5474ZM77.7201 31.7588L90.0314 24.5849V38.8282L77.7201 46.0369V31.7588Z" fill="#4AA956"/>
</svg>
