<svg xmlns="http://www.w3.org/2000/svg" width="231.736" height="35.833" viewBox="0 0 231.736 35.833">
  <g id="Header_Logo" transform="translate(-600.553 373.699)">
    <g id="Group_3200" data-name="Group 3200" transform="translate(600.554 -373.699)">
      <path id="Path_27" data-name="Path 27" d="M4.214,8.882a2.9,2.9,0,0,1-2.144-.79,2.9,2.9,0,0,1-.79-2.144V-11.3a2.748,2.748,0,0,1,.709-2.031,2.748,2.748,0,0,1,2.031-.709h8.253a8.371,8.371,0,0,1,5.867,1.918,6.87,6.87,0,0,1,2.1,5.335,6.854,6.854,0,0,1-2.112,5.319A8.339,8.339,0,0,1,12.273.468H7.212v5.48a2.864,2.864,0,0,1-.806,2.144A3,3,0,0,1,4.214,8.882ZM11.467-3.981A3.677,3.677,0,0,0,13.9-4.658a2.612,2.612,0,0,0,.79-2.1q0-2.8-3.224-2.8H7.212v5.577ZM29.585-7.559q3.675,0,5.432,1.757T36.774-.467V6.271a2.527,2.527,0,0,1-.725,1.918,2.8,2.8,0,0,1-2.015.693,2.686,2.686,0,0,1-1.854-.645A2.414,2.414,0,0,1,31.39,6.5,3.569,3.569,0,0,1,29.875,8.3a4.822,4.822,0,0,1-2.547.645,6.54,6.54,0,0,1-2.966-.661,5.159,5.159,0,0,1-2.079-1.838,4.807,4.807,0,0,1-.758-2.66,4,4,0,0,1,.887-2.724A5.206,5.206,0,0,1,25.233-.4a23.959,23.959,0,0,1,5.223-.451h.87V-1.24a2.191,2.191,0,0,0-.516-1.628,2.46,2.46,0,0,0-1.741-.5,12.808,12.808,0,0,0-3.869.9,3.955,3.955,0,0,1-1.257.258,1.594,1.594,0,0,1-1.29-.58A2.288,2.288,0,0,1,22.17-4.3a2.112,2.112,0,0,1,.29-1.161,2.521,2.521,0,0,1,.935-.806A11.244,11.244,0,0,1,26.232-7.2,16.472,16.472,0,0,1,29.585-7.559Zm-.9,12.669a2.446,2.446,0,0,0,1.9-.822,3.032,3.032,0,0,0,.741-2.112V1.79H30.81a8.208,8.208,0,0,0-2.934.371,1.274,1.274,0,0,0-.87,1.241,1.691,1.691,0,0,0,.467,1.225A1.607,1.607,0,0,0,28.682,5.11ZM50.668-7.559a5.14,5.14,0,0,1,4.223,1.692A8,8,0,0,1,56.278-.725V6.239A2.494,2.494,0,0,1,55.5,8.173a3.45,3.45,0,0,1-4.191,0,2.494,2.494,0,0,1-.774-1.934V-.467a3.386,3.386,0,0,0-.5-2.063,1.779,1.779,0,0,0-1.5-.645,2.648,2.648,0,0,0-2.047.822,3.131,3.131,0,0,0-.758,2.208V6.239a2.494,2.494,0,0,1-.774,1.934,3.45,3.45,0,0,1-4.191,0A2.494,2.494,0,0,1,40,6.239V-4.916A2.383,2.383,0,0,1,40.8-6.769a3.013,3.013,0,0,1,2.1-.725,2.744,2.744,0,0,1,1.95.677,2.313,2.313,0,0,1,.725,1.773,5.5,5.5,0,0,1,2.16-1.87A6.6,6.6,0,0,1,50.668-7.559ZM67.142,8.947a8.416,8.416,0,0,1-6.125-2.192A7.93,7.93,0,0,1,58.76.791a8.623,8.623,0,0,1,1.1-4.384,7.437,7.437,0,0,1,3.079-2.934,9.669,9.669,0,0,1,4.529-1.032,10.65,10.65,0,0,1,2.708.355,8.567,8.567,0,0,1,2.386,1,2.043,2.043,0,0,1,1,1.87,2.658,2.658,0,0,1-.467,1.628,1.442,1.442,0,0,1-1.209.629,3.036,3.036,0,0,1-.935-.145,6.277,6.277,0,0,1-1-.435,10.861,10.861,0,0,0-1.1-.435,3.254,3.254,0,0,0-1-.145q-3.192,0-3.192,3.9a4.594,4.594,0,0,0,.822,2.95,2.871,2.871,0,0,0,2.369,1.015,3.411,3.411,0,0,0,1.015-.145,7.073,7.073,0,0,0,1.048-.435q.645-.29,1.048-.435a2.6,2.6,0,0,1,.887-.145,1.442,1.442,0,0,1,1.209.629,2.658,2.658,0,0,1,.467,1.628,2.389,2.389,0,0,1-.258,1.112,1.8,1.8,0,0,1-.709.758A10.23,10.23,0,0,1,67.142,8.947ZM83-7.559q3.675,0,5.432,1.757T90.192-.467V6.271a2.527,2.527,0,0,1-.725,1.918,2.8,2.8,0,0,1-2.015.693A2.686,2.686,0,0,1,85.6,8.238a2.414,2.414,0,0,1-.79-1.741A3.569,3.569,0,0,1,83.293,8.3a4.822,4.822,0,0,1-2.547.645,6.54,6.54,0,0,1-2.966-.661A5.159,5.159,0,0,1,75.7,6.448a4.807,4.807,0,0,1-.758-2.66,4,4,0,0,1,.887-2.724A5.206,5.206,0,0,1,78.651-.4a23.958,23.958,0,0,1,5.223-.451h.87V-1.24a2.191,2.191,0,0,0-.516-1.628,2.46,2.46,0,0,0-1.741-.5,12.808,12.808,0,0,0-3.869.9,3.955,3.955,0,0,1-1.257.258,1.594,1.594,0,0,1-1.29-.58A2.288,2.288,0,0,1,75.588-4.3a2.112,2.112,0,0,1,.29-1.161,2.521,2.521,0,0,1,.935-.806A11.244,11.244,0,0,1,79.65-7.2,16.472,16.472,0,0,1,83-7.559ZM82.1,5.11A2.446,2.446,0,0,0,84,4.288a3.032,3.032,0,0,0,.741-2.112V1.79h-.516a8.208,8.208,0,0,0-2.934.371,1.274,1.274,0,0,0-.87,1.241,1.691,1.691,0,0,0,.467,1.225A1.607,1.607,0,0,0,82.1,5.11Zm27.144-.87a2.519,2.519,0,0,1,.838,1.87,2.76,2.76,0,0,1-.758,1.9,2.37,2.37,0,0,1-1.821.838,2.73,2.73,0,0,1-1.805-.806L99.154,1.822V6.174a2.439,2.439,0,0,1-.822,2,3.434,3.434,0,0,1-4.094,0,2.439,2.439,0,0,1-.822-2v-17.7a2.439,2.439,0,0,1,.822-2,3.113,3.113,0,0,1,2.047-.677,3.113,3.113,0,0,1,2.047.677,2.439,2.439,0,0,1,.822,2V-.6l5.964-6.061a2.519,2.519,0,0,1,1.87-.838,2.5,2.5,0,0,1,1.821.79,2.468,2.468,0,0,1,.79,1.789,2.557,2.557,0,0,1-.838,1.838L105.247.4ZM124.88,3.6a1.481,1.481,0,0,1,1.209.58,2.341,2.341,0,0,1,.467,1.515A2.132,2.132,0,0,1,125.3,7.657a12.559,12.559,0,0,1-2.6.919,11.549,11.549,0,0,1-2.756.371,10.05,10.05,0,0,1-4.61-1,7.108,7.108,0,0,1-3.03-2.869A8.716,8.716,0,0,1,111.243.694a8.865,8.865,0,0,1,1.015-4.272A7.311,7.311,0,0,1,115.1-6.511a8.093,8.093,0,0,1,4.11-1.048,7.667,7.667,0,0,1,3.9.967,6.587,6.587,0,0,1,2.6,2.74,8.921,8.921,0,0,1,.919,4.159,1.731,1.731,0,0,1-.338,1.144,1.212,1.212,0,0,1-.983.4h-8.511a3.534,3.534,0,0,0,1,2.224,3.385,3.385,0,0,0,2.289.677,5.845,5.845,0,0,0,1.483-.177,14.535,14.535,0,0,0,1.515-.5q.484-.193.951-.338A2.9,2.9,0,0,1,124.88,3.6ZM119.367-3.69a2.352,2.352,0,0,0-1.805.725,3.481,3.481,0,0,0-.806,2.112h5.061Q121.624-3.69,119.367-3.69ZM132.359,8.689a2.748,2.748,0,0,1-2.031-.709,2.8,2.8,0,0,1-.709-2.063V-11.3a2.854,2.854,0,0,1,.79-2.112,2.9,2.9,0,0,1,2.144-.79,3,3,0,0,1,2.192.79,2.822,2.822,0,0,1,.806,2.112V3.885h7.415q2.8,0,2.8,2.418a2.223,2.223,0,0,1-.693,1.805,3.237,3.237,0,0,1-2.112.58Zm23.115.258a9.942,9.942,0,0,1-4.594-1.015,7.289,7.289,0,0,1-3.063-2.885,8.612,8.612,0,0,1-1.08-4.384,8.524,8.524,0,0,1,1.08-4.368,7.237,7.237,0,0,1,3.046-2.853,11.132,11.132,0,0,1,9.22,0,7.238,7.238,0,0,1,3.046,2.853A8.524,8.524,0,0,1,164.21.662a8.612,8.612,0,0,1-1.08,4.384,7.311,7.311,0,0,1-3.046,2.885A9.917,9.917,0,0,1,155.473,8.947Zm0-4.288q3.063,0,3.063-4t-3.063-4q-3.063,0-3.063,4T155.473,4.659Zm18.988,4.288a8.416,8.416,0,0,1-6.125-2.192A7.93,7.93,0,0,1,166.08.791a8.623,8.623,0,0,1,1.1-4.384,7.437,7.437,0,0,1,3.079-2.934,9.669,9.669,0,0,1,4.529-1.032,10.65,10.65,0,0,1,2.708.355,8.568,8.568,0,0,1,2.386,1,2.043,2.043,0,0,1,1,1.87,2.658,2.658,0,0,1-.467,1.628,1.442,1.442,0,0,1-1.209.629,3.036,3.036,0,0,1-.935-.145,6.277,6.277,0,0,1-1-.435,10.861,10.861,0,0,0-1.1-.435,3.254,3.254,0,0,0-1-.145q-3.192,0-3.192,3.9a4.594,4.594,0,0,0,.822,2.95,2.871,2.871,0,0,0,2.369,1.015,3.411,3.411,0,0,0,1.015-.145,7.072,7.072,0,0,0,1.048-.435q.645-.29,1.048-.435a2.6,2.6,0,0,1,.887-.145,1.442,1.442,0,0,1,1.209.629,2.658,2.658,0,0,1,.467,1.628,2.389,2.389,0,0,1-.258,1.112,1.8,1.8,0,0,1-.709.758A10.23,10.23,0,0,1,174.462,8.947ZM198.769,4.24a2.519,2.519,0,0,1,.838,1.87,2.76,2.76,0,0,1-.758,1.9,2.37,2.37,0,0,1-1.821.838,2.73,2.73,0,0,1-1.805-.806l-6.544-6.222V6.174a2.439,2.439,0,0,1-.822,2,3.434,3.434,0,0,1-4.094,0,2.439,2.439,0,0,1-.822-2v-17.7a2.439,2.439,0,0,1,.822-2,3.113,3.113,0,0,1,2.047-.677,3.113,3.113,0,0,1,2.047.677,2.439,2.439,0,0,1,.822,2V-.6l5.964-6.061a2.519,2.519,0,0,1,1.87-.838,2.5,2.5,0,0,1,1.821.79,2.468,2.468,0,0,1,.79,1.789,2.557,2.557,0,0,1-.838,1.838L194.771.4Z" transform="translate(32.129 23.063)" fill="#f7bd01"/>
      <g id="Group_3199" data-name="Group 3199" transform="translate(0)">
        <g id="Group_3197" data-name="Group 3197">
          <path id="Path_2" data-name="Path 2" d="M1350.524,464.058l-.2.04a5.553,5.553,0,0,0-1.45.576l-.134.025c-.123-.076-.216.016-.31.063-.218.109-.475.148-.672.244a9.456,9.456,0,0,0-1.106.375,2.738,2.738,0,0,1-1.094.386,3.69,3.69,0,0,0-1.119.4c-.411.2-.856.269-1.267.459a5.29,5.29,0,0,1-1.107.427,2.942,2.942,0,0,0-.6.223,2.849,2.849,0,0,0-.708.419,1.874,1.874,0,0,0-.584,1.466q.017,7.828,0,15.656c0,.555-.119.692-.654.777a3.233,3.233,0,0,1-.436.044,9.611,9.611,0,0,1-2.5-.266c-.5-.122-.986-.3-1.481-.439a3.383,3.383,0,0,1-.8-.312c-.621-.365-1.278-.66-1.893-1.043a16.461,16.461,0,0,1-1.5-1.058,8.416,8.416,0,0,1-1.469-1.562,2.848,2.848,0,0,1-.63-1.786q.014-8.133.005-16.266a1.273,1.273,0,0,1,1.328-1.4c1.825-.071,3.654-.039,5.48-.134.391-.02.444.053.445.455,0,.666-.013,1.333,0,2,.019.733.118.96.943,1.177a3.032,3.032,0,0,0,1.615-.024.883.883,0,0,0,.786-.968c0-.757,0-1.514,0-2.27,0-.479.041-.511.526-.519q1.574-.026,3.148-.057,1.9-.035,3.791-.071c.469-.008.511.035.511.491,0,.181,0,.362,0,.542a1.034,1.034,0,0,0,.6.789,3.2,3.2,0,0,0,2.242.022.781.781,0,0,0,.623-.8c0-.294.017-.588,0-.881s.1-.372.376-.367c.6.012,1.2.016,1.8,0a6.451,6.451,0,0,1,1.47.35c.133.026.236.159.353.24a.47.47,0,0,1-.136.764c-.3.117-.6.244-.883.376a8.328,8.328,0,0,0-1.3.548c-.428.292-.977.368-1.427.643l-.142.052A1,1,0,0,0,1350.524,464.058ZM1330.4,480.681c-.03.1-.008.153.1.148l.176.186c-.072.164.044.244.143.34a9.445,9.445,0,0,0,1.729,1.391,10.631,10.631,0,0,0,1.743.99,27.208,27.208,0,0,0,2.643.925,6.2,6.2,0,0,0,1.687.228c.791-.019.831-.066.831-.846q0-4.488,0-8.976c0-.463-.12-.544-.553-.385a.685.685,0,0,1-.981-.421,5.05,5.05,0,0,1-.294-.914c-.086-.445.156-.854.007-1.275a.185.185,0,0,1,.037-.126,2,2,0,0,0,.225-1.091,1.115,1.115,0,0,1,.1-.593.838.838,0,0,0,.069-.687,3.279,3.279,0,0,1-.125-.792,1.128,1.128,0,0,0-.522-.832.615.615,0,0,0-.757-.023,2.129,2.129,0,0,0-.643,1.167.1.1,0,0,0,.059.137q-.017.606-.034,1.212c-.132-.025-.172.078-.218.163a.82.82,0,0,1-.723.516l-.128-.046c.01-.219-.118-.287-.311-.282l-.051-.113a5.105,5.105,0,0,1,.075-1.192.335.335,0,0,1,.04-.051c.14,0,.237-.033.132-.2.013-.132.026-.264.039-.4.123-.092.132-.185,0-.28q-.013-.161-.027-.321a1.175,1.175,0,0,0-.6-1.051c-.013-.018-.026-.036-.038-.055a.853.853,0,0,0-.665-.4,1.1,1.1,0,0,0-1.086,1.015c-.011.832-.015,1.664.01,2.5.009.292-.209.39-.362.515s-.219-.127-.332-.2c-.055-.034-.09-.1-.168-.1q0-.3,0-.608c.03-.029.077-.054.087-.089a7.542,7.542,0,0,0,.237-2.2,2.811,2.811,0,0,0-.333-1.159,1.282,1.282,0,0,0-.736-.774c-.292-.1-.706.076-.7.349a6.144,6.144,0,0,0-.012.957c-.108.128-.114.245.035.347a.718.718,0,0,1-.149.7c-.311.009-.421.211-.427.479-.01.507,0,1.015,0,1.523q0,4.654,0,9.308c0,.158-.1.381.173.444l.021.118c-.063.362.042.534.345.563l.078.141c-.021.12.038.144.14.115Z" transform="translate(-1328.623 -450.047)" fill="#f7bd01"/>
          <path id="Path_3" data-name="Path 3" d="M1349.961,314.092a8.331,8.331,0,0,1,1.3-.548c.285-.132.585-.259.883-.376a.47.47,0,0,0,.136-.764c-.117-.081-.219-.214-.353-.24a6.45,6.45,0,0,0-1.471-.35c-.6.018-1.2.015-1.8,0-.272-.006-.4.076-.376.367s.006.587,0,.881a.782.782,0,0,1-.624.8,3.2,3.2,0,0,1-2.242-.022,1.034,1.034,0,0,1-.6-.789c-.005-.181,0-.361,0-.542,0-.455-.042-.5-.511-.491q-1.9.033-3.791.07-1.574.029-3.148.057c-.485.008-.524.04-.526.519,0,.757,0,1.514,0,2.27a.883.883,0,0,1-.786.968,3.032,3.032,0,0,1-1.615.024c-.825-.217-.924-.444-.943-1.177-.018-.666,0-1.333,0-2,0-.4-.054-.475-.445-.455-1.826.1-3.654.063-5.48.134a1.274,1.274,0,0,0-1.328,1.4q0,8.133-.005,16.266a2.849,2.849,0,0,0,.63,1.786,8.417,8.417,0,0,0,1.47,1.563,16.387,16.387,0,0,0,1.495,1.058c.615.383,1.272.678,1.893,1.043a3.389,3.389,0,0,0,.8.312c.5.137.978.317,1.481.439a9.611,9.611,0,0,0,2.5.266,3.23,3.23,0,0,0,.436-.044c.534-.085.653-.223.653-.777q0-7.828,0-15.656a1.876,1.876,0,0,1,.584-1.466,2.854,2.854,0,0,1,.708-.419,2.945,2.945,0,0,1,.6-.223,5.288,5.288,0,0,0,1.107-.427c.411-.19.856-.261,1.267-.459a3.7,3.7,0,0,1,1.119-.4,2.739,2.739,0,0,0,1.094-.386,9.471,9.471,0,0,1,1.106-.375c.2-.1.454-.135.672-.244.095-.048.187-.14.31-.063a.237.237,0,0,1-.2.237c-.36.058-.657.276-1.027.339a6.315,6.315,0,0,0-1.128.475,2.089,2.089,0,0,1-.428.168,3.679,3.679,0,0,0-1.056.4c-.382.192-.8.27-1.187.443-.449.2-.917.374-1.384.536-.328.113-.645.252-.969.371a1.515,1.515,0,0,0-.52.353,1.246,1.246,0,0,0-.341,1.01q0,6.219,0,12.439c0,1.051,0,2.1,0,3.152a1.077,1.077,0,0,1-.955,1.166,6.84,6.84,0,0,1-2.834-.187c-.908-.148-1.739-.576-2.641-.761a2.706,2.706,0,0,1-.794-.411c-.9-.554-1.708-1.254-2.583-1.843a6.307,6.307,0,0,1-2.01-2.485.823.823,0,0,1-.049-.4q0-8.558,0-17.116a1.09,1.09,0,0,1,.641-.975,2.68,2.68,0,0,1,1.3-.3c1.71-.093,3.419-.253,5.135-.209.257.007.328-.108.323-.349-.012-.678,0-1.356-.007-2.034a7.832,7.832,0,0,1,.6-3.12,9.2,9.2,0,0,1,3.675-4.33,7.78,7.78,0,0,1,4.652-1.209,5.744,5.744,0,0,1,2.127.485,6.126,6.126,0,0,1,2.143,1.532,5.765,5.765,0,0,1,.949,1.336,6.192,6.192,0,0,1,.706,2.188c.094,1.581.024,3.161.052,4.74.007.388.1.446.5.4a7.633,7.633,0,0,1,2.623.118,1.777,1.777,0,0,1,1.114.573.5.5,0,0,1,0,.734,2.54,2.54,0,0,1-1.264.726c-.466.174-.924.366-1.388.54-.387.146-7.223,2.7-7.6,2.881-.047.022,2.042-1.01,4.34-1.963C1347.646,314.87,1349.831,314.181,1349.961,314.092Zm-5.188-4.947h0c0-.655-.019-1.311.005-1.965a2.45,2.45,0,0,0-.821-1.887,3.23,3.23,0,0,0-3.467-.554,5.35,5.35,0,0,0-2.379,1.712,4.616,4.616,0,0,0-1.036,2.048,18.247,18.247,0,0,0-.1,3.039c0,.418.014.433.444.428,1.251-.015,2.5-.027,3.751-.123,1.055-.081,2.118-.072,3.179-.086.32,0,.442-.122.436-.444C1344.763,310.591,1344.773,309.868,1344.773,309.145Z" transform="translate(-1326.053 -300.972)" fill="#232323"/>
          <path id="Path_4" data-name="Path 4" d="M1511.964,563.6c0-.836.005-1.672,0-2.508a3.019,3.019,0,0,1,.083-.566c.083-.46.53-.487.831-.652.517-.283,1.081-.481,1.626-.713a4.322,4.322,0,0,1,.409-.154,4.075,4.075,0,0,0,.789-.361c.673-.375,1.406-.641,2.112-.959.723-.325,1.44-.662,2.161-.991.521-.237,1.044-.468,1.566-.7.643-.29,1.283-.588,1.93-.871.562-.246,1.128-.486,1.7-.709.245-.1.408.06.493.272a1.1,1.1,0,0,1,.056.4c0,1.322,0,2.644.006,3.965a.548.548,0,0,1-.283.522c-.787.519-1.646.906-2.46,1.376-.881.509-1.759,1.027-2.666,1.484-.99.5-1.948,1.052-2.921,1.579-.8.436-1.6.881-2.4,1.34a12.2,12.2,0,0,1-1.45.754c-.355.146-.626.462-1.029.543-.382.077-.547-.035-.548-.435,0-.87,0-1.74,0-2.61Zm7.579-5.357a.756.756,0,0,0-.5.1,2.189,2.189,0,0,0-.732,1.061.607.607,0,0,0,.036.616c.389.375.219.76.082,1.143a1.157,1.157,0,0,0-.1.78c.041.123.1.229.271.136a12.6,12.6,0,0,0,1.342-.775.366.366,0,0,0,.146-.518,1.739,1.739,0,0,1-.01-1.732A.553.553,0,0,0,1519.542,558.246Z" transform="translate(-1499.357 -537.207)" fill="#f7bd01"/>
          <path id="Path_5" data-name="Path 5" d="M1511.911,499.545c0-.418-.02-.837.005-1.253a.949.949,0,0,1,.609-.939c.855-.367,1.728-.7,2.583-1.06.581-.248,1.191-.456,1.774-.7.824-.35,1.659-.672,2.489-1a14.2,14.2,0,0,1,1.873-.733,4.347,4.347,0,0,0,.739-.322c.6-.271,1.23-.477,1.831-.755.461-.213.953-.382,1.435-.557.225-.082.4.115.4.341.016.835.02,1.671,0,2.506-.008.307-.3.406-.537.5-.868.347-1.7.766-2.558,1.141-.543.239-1.089.479-1.636.713-.782.335-1.541.726-2.331,1.041-.561.223-1.1.492-1.644.748-.779.366-1.584.671-2.353,1.062-.484.247-1,.451-1.507.658-.2.081-.389.171-.581.264-.346.168-.58.023-.589-.362C1511.9,500.4,1511.911,499.974,1511.911,499.545Z" transform="translate(-1499.304 -479.237)" fill="#f7bd01"/>
          <path id="Path_6" data-name="Path 6" d="M1511.928,654.744a11.531,11.531,0,0,1,.053-1.612.507.507,0,0,1,.288-.374c.585-.325,1.126-.737,1.728-1.022.5-.235.956-.531,1.449-.771.58-.283,1.128-.631,1.693-.944.627-.347,1.266-.674,1.885-1.035.481-.28.976-.534,1.458-.81.414-.237.847-.448,1.266-.682.654-.365,1.312-.726,1.973-1.076a7.811,7.811,0,0,1,1.675-.837c.17-.043.228.031.229.145.007.782.034,1.567-.021,2.345-.021.3-.392.41-.635.562-.569.355-1.118.745-1.694,1.083a3.645,3.645,0,0,1-1.31.725c-.179.024-.215.243-.366.334-.565.341-1.117.705-1.676,1.058-.869.549-1.742,1.092-2.609,1.645-.708.452-1.414.907-2.113,1.373s-1.449.885-2.143,1.377c-.208.148-.432.279-.65.416-.261.164-.472.044-.479-.267C1511.92,655.868,1511.928,655.36,1511.928,654.744Z" transform="translate(-1499.321 -622.206)" fill="#f7bd01"/>
          <path id="Path_10" data-name="Path 10" d="M1356.137,576.131c.46.387.9.8,1.384,1.156a10.818,10.818,0,0,0,2.469,1.417,5.423,5.423,0,0,1,.575.273,8.26,8.26,0,0,0,1.367.452,6.446,6.446,0,0,0,2.448.384c.256-.015.337-.128.34-.352,0-.068,0-.135,0-.2q0-4.436,0-8.872c0-.079,0-.158,0-.237,0-.054.005-.117-.057-.148s-.094.032-.134.065a.772.772,0,0,1-.943-.031,1.347,1.347,0,0,1-.679-1.173c0-.111-.1-.172-.146-.26a1.152,1.152,0,0,1,.017-1.042,1.3,1.3,0,0,0,.141-.538,7.392,7.392,0,0,1,.217-1.351,2.235,2.235,0,0,0-.115-1.7.431.431,0,0,1-.049-.195c-.019-.306-.218-.423-.485-.457a.557.557,0,0,0-.563.346c-.134.226-.262.455-.393.683a.1.1,0,0,1-.06-.137,2.132,2.132,0,0,1,.643-1.167.615.615,0,0,1,.757.023,1.128,1.128,0,0,1,.522.832,3.267,3.267,0,0,0,.125.792.837.837,0,0,1-.069.687,1.117,1.117,0,0,0-.1.594,2,2,0,0,1-.225,1.091c-.022.037-.049.092-.036.126.148.42-.094.83-.008,1.275a5.015,5.015,0,0,0,.294.914.685.685,0,0,0,.981.421c.434-.159.554-.077.554.385q0,4.488,0,8.976c0,.781-.04.827-.831.846a6.205,6.205,0,0,1-1.687-.228,27.252,27.252,0,0,1-2.643-.925,10.633,10.633,0,0,1-1.742-.989,9.47,9.47,0,0,1-1.729-1.391C1356.181,576.375,1356.065,576.294,1356.137,576.131Z" transform="translate(-1354.077 -545.164)" fill="#d7a066"/>
          <path id="Path_11" data-name="Path 11" d="M1341.208,565.492a1.38,1.38,0,0,0-.214.947q.008,5.275,0,10.551c0,.086.038.181-.04.256-.271-.063-.173-.286-.173-.444q-.009-4.654,0-9.308c0-.508-.009-1.016,0-1.523C1340.786,565.7,1340.9,565.5,1341.208,565.492Z" transform="translate(-1339.768 -547.559)" fill="#d7a066"/>
          <path id="Path_12" data-name="Path 12" d="M1372.984,547.431a1.017,1.017,0,0,1-.415-.121.841.841,0,0,0-1.177.8,7.241,7.241,0,0,0,.04,1.748,2.087,2.087,0,0,1-.154,1.119.416.416,0,0,1-.529.245c-.219-.056-.407-.18-.369-.461.079-.006.113.063.168.1.114.07.182.32.332.2s.371-.223.362-.515c-.025-.831-.021-1.664-.01-2.5a1.1,1.1,0,0,1,1.086-1.015A.853.853,0,0,1,1372.984,547.431Z" transform="translate(-1367.371 -530.342)" fill="#d7a066"/>
          <path id="Path_13" data-name="Path 13" d="M1350.573,534.66a1.621,1.621,0,0,1,.061-.924,3.853,3.853,0,0,0-.139-2.31,1.04,1.04,0,0,0-.7-.784c-.27-.065-.449.08-.668.141-.008-.273.406-.446.7-.349a1.283,1.283,0,0,1,.736.774,2.814,2.814,0,0,1,.333,1.159,7.541,7.541,0,0,1-.237,2.2C1350.65,534.606,1350.6,534.631,1350.573,534.66Z" transform="translate(-1347.566 -514.852)" fill="#d7a066"/>
          <path id="Path_14" data-name="Path 14" d="M1422.575,601.754a.684.684,0,0,1-.941.679.821.821,0,0,0,.723-.515C1422.4,601.833,1422.443,601.729,1422.575,601.754Z" transform="translate(-1415.154 -581.359)" fill="#d7a066"/>
          <path id="Path_15" data-name="Path 15" d="M1411.472,588.919a.843.843,0,0,1,.075-1.192A5.093,5.093,0,0,0,1411.472,588.919Z" transform="translate(-1405.483 -568.287)" fill="#d7a066"/>
          <path id="Path_16" data-name="Path 16" d="M1410,554.893a10.542,10.542,0,0,1-.6-1.051A1.176,1.176,0,0,1,1410,554.893Z" transform="translate(-1403.75 -536.699)" fill="#d7a066"/>
          <path id="Path_17" data-name="Path 17" d="M1343.641,740.609c.118.186.391.277.345.563C1343.684,741.143,1343.578,740.971,1343.641,740.609Z" transform="translate(-1342.433 -710.804)" fill="#d7a066"/>
          <path id="Path_18" data-name="Path 18" d="M1415.462,607.255a.368.368,0,0,1-.311-.282C1415.344,606.969,1415.472,607.037,1415.462,607.255Z" transform="translate(-1409.111 -586.228)" fill="#d7a066"/>
          <path id="Path_19" data-name="Path 19" d="M1347.866,550.072c.123.1.1.224.036.347C1347.752,550.317,1347.759,550.2,1347.866,550.072Z" transform="translate(-1346.314 -533.185)" fill="#d7a066"/>
          <path id="Path_20" data-name="Path 20" d="M1417.821,574.366a.2.2,0,0,1,0-.28C1417.953,574.18,1417.943,574.274,1417.821,574.366Z" transform="translate(-1411.546 -555.57)" fill="#d7a066"/>
          <path id="Path_21" data-name="Path 21" d="M1415.955,584.252c-.034-.118.025-.174.132-.2C1416.192,584.219,1416.1,584.25,1415.955,584.252Z" transform="translate(-1409.851 -564.863)" fill="#d7a066"/>
          <path id="Path_22" data-name="Path 22" d="M1350.06,750.915c.1-.023.142.017.139.115C1350.1,751.059,1350.039,751.035,1350.06,750.915Z" transform="translate(-1348.428 -720.406)" fill="#d7a066"/>
          <path id="Path_23" data-name="Path 23" d="M1352.14,752.828c.1,0,.141.048.1.148C1352.132,752.982,1352.11,752.923,1352.14,752.828Z" transform="translate(-1350.36 -722.195)" fill="#d7a066"/>
          <path id="Path_25" data-name="Path 25" d="M1606,611.235a.554.554,0,0,1,.542.817,1.738,1.738,0,0,0,.009,1.732.366.366,0,0,1-.146.518,12.614,12.614,0,0,1-1.342.775c-.17.094-.23-.013-.271-.136a1.158,1.158,0,0,1,.1-.78c.137-.383.308-.768-.081-1.144a.606.606,0,0,1-.035-.616,2.186,2.186,0,0,1,.732-1.061A.755.755,0,0,1,1606,611.235Z" transform="translate(-1585.815 -590.196)" fill="#fff"/>
        </g>
        <path id="Path_26" data-name="Path 26" d="M-.968-12.6l9.88,2.977.56,17.605-5.5-.947-5.01-3.743Z" transform="translate(1.92 27.197)" fill="#f7bd01"/>
      </g>
    </g>
  </g>
</svg>
