<svg id="Icon2" xmlns="http://www.w3.org/2000/svg" width="34" height="34" viewBox="0 0 34 34">
  <g id="Paper" transform="translate(4.958 2.833)">
    <path id="Paper-2" data-name="Paper" d="M6.621,28.333A6.655,6.655,0,0,1,0,21.661V6.389A6.365,6.365,0,0,1,6.325,0h7.491a.649.649,0,0,1,.645.652V5.213a4.733,4.733,0,0,0,4.686,4.732c.6,0,1.125,0,1.59.009.363,0,.681.005.963.005.2,0,.458,0,.738-.006.324,0,.688-.008,1.015-.008a.635.635,0,0,1,.631.638v11.39a6.337,6.337,0,0,1-6.3,6.361Zm.014-9.009a1.071,1.071,0,0,0,1.052,1.062h7.63a1.071,1.071,0,0,0,1.052-1.062,1.052,1.052,0,0,0-1.052-1.049H7.687A1.052,1.052,0,0,0,6.635,19.324Zm0-7.07A1.051,1.051,0,0,0,7.687,13.3h4.74a1.051,1.051,0,0,0,1.052-1.048,1.071,1.071,0,0,0-1.052-1.062H7.687A1.071,1.071,0,0,0,6.635,12.254Zm12.7-4.378A2.858,2.858,0,0,1,16.5,5.018V1.284A.67.67,0,0,1,17.659.811c1.516,1.591,4.165,4.376,5.647,5.931a.675.675,0,0,1-.482,1.142l-.979,0C20.957,7.887,20.045,7.882,19.334,7.876Z" fill="#f7bd01"/>
  </g>
</svg>
