<svg width="38" height="38" viewBox="0 0 38 38" fill="none" xmlns="http://www.w3.org/2000/svg">
<circle opacity="0.2" cx="19" cy="19" r="19" fill="white"/>
<path d="M25.7683 15.9713L25.6162 16.0017C25.2301 16.095 24.8591 16.2424 24.5142 16.4395L24.4124 16.4585C24.3189 16.4007 24.2483 16.4706 24.1768 16.5063C24.0111 16.5892 23.8158 16.6188 23.6661 16.6918C23.3803 16.7694 23.0995 16.8646 22.8255 16.9768C22.5725 17.1328 22.289 17.2329 21.9941 17.2701C21.696 17.3249 21.4088 17.4275 21.1436 17.5741C20.8312 17.7261 20.4931 17.7786 20.1807 17.923C19.9133 18.0624 19.6311 18.1712 19.3393 18.2475C19.1816 18.2873 19.0287 18.3441 18.8834 18.417C18.6895 18.4965 18.5083 18.6038 18.3453 18.7354C18.1947 18.8777 18.0771 19.0511 18.0004 19.2435C17.9238 19.4359 17.89 19.6428 17.9014 19.8496C17.9101 23.8158 17.9101 27.7819 17.9014 31.7481C17.9014 32.1699 17.8111 32.2741 17.4045 32.3387C17.2949 32.3573 17.1842 32.3685 17.0731 32.3721C16.4336 32.3882 15.7948 32.3202 15.1731 32.1699C14.7931 32.0772 14.4237 31.942 14.0475 31.8363C13.8356 31.7834 13.6313 31.7037 13.4395 31.5992C12.9675 31.3218 12.4683 31.0976 12.0009 30.8065C11.6062 30.5599 11.2256 30.2914 10.8609 30.0024C10.4396 29.6559 10.0644 29.257 9.74434 28.8153C9.43458 28.4307 9.26572 27.9518 9.26563 27.4579C9.27273 23.3372 9.2739 19.2165 9.26934 15.0958C9.25529 14.9573 9.27131 14.8174 9.31629 14.6856C9.36127 14.5538 9.43422 14.4333 9.53004 14.3323C9.62585 14.2313 9.74233 14.1521 9.87154 14.1003C10.0007 14.0484 10.1396 14.0251 10.2786 14.0318C11.6656 13.9778 13.0557 14.0021 14.4435 13.9299C14.7407 13.9147 14.7809 13.9702 14.7817 14.2757C14.7817 14.7819 14.7718 15.2888 14.7817 15.7957C14.7961 16.3528 14.8713 16.5253 15.4983 16.6903C15.9016 16.7953 16.3258 16.789 16.7257 16.672C16.9024 16.6534 17.0645 16.5655 17.1765 16.4276C17.2885 16.2897 17.3412 16.1131 17.3231 15.9363C17.3231 15.361 17.3231 14.7857 17.3231 14.2111C17.3231 13.8471 17.3543 13.8228 17.7229 13.8167C18.5204 13.8035 19.3179 13.7891 20.1154 13.7734C21.0781 13.7556 22.0384 13.7377 22.9965 13.7194C23.3529 13.7133 23.3848 13.746 23.3848 14.0926C23.3848 14.2301 23.3848 14.3677 23.3848 14.5045C23.4045 14.6346 23.4566 14.7578 23.5363 14.8625C23.616 14.9673 23.7208 15.0504 23.8409 15.1041C24.3883 15.315 24.9934 15.321 25.5448 15.1209C25.6831 15.0924 25.8068 15.0156 25.8936 14.9041C25.9804 14.7927 26.0246 14.654 26.0183 14.5129C26.0183 14.2894 26.0312 14.066 26.0183 13.8433C26.0054 13.6206 26.0943 13.5606 26.304 13.5644C26.76 13.5735 27.2161 13.5765 27.6721 13.5644C28.0536 13.609 28.4286 13.6983 28.7892 13.8304C28.8903 13.8501 28.9686 13.9512 29.0575 14.0128C29.099 14.0535 29.1299 14.1037 29.1476 14.159C29.1653 14.2144 29.1692 14.2732 29.159 14.3304C29.1489 14.3876 29.1249 14.4414 29.0892 14.4873C29.0535 14.5331 29.0071 14.5695 28.9541 14.5934C28.7261 14.6823 28.4982 14.7789 28.2831 14.8792C27.9426 14.9898 27.612 15.1291 27.295 15.2957C26.9698 15.5176 26.5525 15.5754 26.2105 15.7844L26.1026 15.8239C25.9808 15.8451 25.8661 15.8957 25.7683 15.9713ZM10.474 28.6048C10.4512 28.6808 10.4679 28.7211 10.55 28.7173L10.6838 28.8586C10.629 28.9833 10.7172 29.0441 10.7924 29.117C11.1874 29.5198 11.6284 29.8747 12.1064 30.1742C12.5233 30.4661 12.9669 30.7181 13.4312 30.9266C14.0882 31.1952 14.7586 31.4299 15.4398 31.6296C15.8572 31.746 16.2886 31.8043 16.7219 31.8029C17.3231 31.7884 17.3535 31.7527 17.3535 31.1599C17.3535 28.886 17.3535 26.6121 17.3535 24.3381C17.3535 23.9863 17.2623 23.9247 16.9333 24.0455C16.8645 24.082 16.7884 24.1027 16.7106 24.1059C16.6328 24.1091 16.5553 24.0948 16.4838 24.0641C16.4122 24.0334 16.3486 23.9871 16.2973 23.9285C16.2461 23.8699 16.2086 23.8006 16.1876 23.7256C16.0913 23.5016 16.0165 23.269 15.9642 23.0309C15.8989 22.6927 16.0828 22.3819 15.9695 22.0619C15.9669 22.0277 15.9769 21.9936 15.9976 21.9662C16.132 21.7116 16.1913 21.424 16.1686 21.137C16.1522 20.9827 16.1786 20.8268 16.2447 20.6863C16.29 20.608 16.3181 20.521 16.3272 20.4309C16.3362 20.3409 16.326 20.25 16.2971 20.1642C16.2409 19.9682 16.209 19.7661 16.2021 19.5623C16.1879 19.4338 16.1449 19.3102 16.0762 19.2007C16.0075 19.0912 15.9149 18.9986 15.8054 18.93C15.7252 18.8633 15.625 18.8253 15.5207 18.8222C15.4164 18.819 15.3141 18.8508 15.23 18.9125C14.9764 19.1482 14.8052 19.4591 14.7414 19.7994C14.7369 19.8091 14.7345 19.8197 14.7343 19.8304C14.7342 19.8411 14.7362 19.8517 14.7405 19.8615C14.7447 19.8713 14.751 19.8802 14.7588 19.8874C14.7667 19.8947 14.7761 19.9001 14.7862 19.9035C14.7776 20.2106 14.769 20.5176 14.7604 20.8247C14.6601 20.8057 14.6297 20.8839 14.5947 20.9485C14.5505 21.0598 14.4751 21.1559 14.3776 21.2255C14.2802 21.295 14.1648 21.335 14.0452 21.3407L13.9479 21.3057C13.9555 21.1393 13.8583 21.0876 13.7116 21.0914L13.6728 21.0055C13.6563 20.7024 13.6754 20.3983 13.7298 20.0996C13.7387 20.0857 13.7489 20.0728 13.7602 20.0609C13.8666 20.0609 13.9403 20.0358 13.8605 19.9089C13.8704 19.8086 13.8803 19.7082 13.8902 19.6049C13.9837 19.5349 13.9905 19.4643 13.8902 19.3921C13.8836 19.3105 13.8768 19.2292 13.8697 19.1481C13.8733 18.9861 13.8328 18.8262 13.7524 18.6855C13.6721 18.5448 13.5549 18.4286 13.4136 18.3494C13.4037 18.3357 13.3939 18.322 13.3848 18.3075C13.3306 18.2205 13.2566 18.1476 13.1687 18.0947C13.0808 18.0419 12.9816 18.0106 12.8793 18.0035C12.6702 18.0056 12.4695 18.0859 12.3167 18.2287C12.1639 18.3715 12.0702 18.5664 12.054 18.7749C12.0457 19.4073 12.0426 20.0396 12.0616 20.675C12.0685 20.8969 11.9028 20.9713 11.7865 21.0663C11.6702 21.1613 11.6201 20.9698 11.5342 20.9144C11.4924 20.8885 11.4658 20.8383 11.4065 20.8383C11.4065 20.6863 11.4065 20.5323 11.4065 20.3763C11.4293 20.3542 11.465 20.3352 11.4726 20.3086C11.6145 19.7632 11.6753 19.1998 11.6528 18.6366C11.6331 18.3282 11.5468 18.0276 11.3997 17.7558C11.3542 17.6233 11.2807 17.5021 11.1842 17.4006C11.0877 17.2991 10.9703 17.2196 10.8403 17.1675C10.6184 17.0915 10.3038 17.2253 10.3083 17.4328C10.2864 17.6746 10.2833 17.9178 10.2992 18.1601C10.2171 18.2574 10.2125 18.3463 10.3258 18.4238C10.3551 18.5147 10.36 18.6116 10.3401 18.7049C10.3203 18.7983 10.2763 18.8848 10.2126 18.9558C9.97621 18.9627 9.89261 19.1162 9.88805 19.3199C9.88045 19.7052 9.88805 20.0913 9.88805 20.4773C9.88805 22.8354 9.88805 25.1934 9.88805 27.5514C9.88805 27.6715 9.81203 27.841 10.0195 27.8889L10.0355 27.9785C9.98759 28.2537 10.0674 28.3844 10.2976 28.4064L10.3569 28.5136C10.341 28.6048 10.3858 28.623 10.4633 28.601L10.474 28.6048Z" fill="#F7BD01"/>
<path d="M27.2936 15.2941C27.6106 15.1276 27.941 14.9883 28.2815 14.8776C28.4981 14.7773 28.7262 14.6808 28.9527 14.5919C29.0056 14.568 29.052 14.5316 29.0877 14.4857C29.1234 14.4399 29.1473 14.386 29.1575 14.3288C29.1677 14.2716 29.1638 14.2128 29.1461 14.1575C29.1284 14.1021 29.0975 14.0519 29.056 14.0112C28.9671 13.9497 28.8896 13.8486 28.7877 13.8288C28.4268 13.6966 28.0516 13.6074 27.6698 13.5628C27.2138 13.5765 26.7578 13.5742 26.3018 13.5628C26.095 13.5583 25.9978 13.6206 26.016 13.8418C26.0343 14.0629 26.0206 14.2879 26.016 14.5113C26.0222 14.6525 25.9778 14.7912 25.8909 14.9027C25.804 15.0141 25.6802 15.0909 25.5418 15.1193C24.9904 15.3194 24.3852 15.3135 23.8378 15.1026C23.7176 15.0488 23.613 14.9658 23.5333 14.861C23.4536 14.7562 23.4015 14.6331 23.3818 14.503C23.378 14.3654 23.3818 14.2286 23.3818 14.091C23.3818 13.7452 23.3499 13.711 22.9935 13.7179C22.0308 13.7346 21.0704 13.7523 20.1123 13.7711C19.3148 13.7858 18.5173 13.8002 17.7198 13.8144C17.3512 13.8205 17.3216 13.8448 17.3201 14.2088C17.3201 14.7842 17.3201 15.3595 17.3201 15.934C17.3382 16.1107 17.2854 16.2874 17.1734 16.4253C17.0614 16.5632 16.8994 16.6511 16.7227 16.6697C16.3228 16.7867 15.8986 16.793 15.4953 16.688C14.8683 16.523 14.7931 16.3505 14.7787 15.7934C14.765 15.2873 14.7787 14.7803 14.7787 14.2734C14.7787 13.9694 14.7376 13.9124 14.4404 13.9276C13.0526 14.0036 11.6634 13.9755 10.2756 14.0295C10.1366 14.0229 9.99776 14.0463 9.86862 14.0982C9.73947 14.1502 9.62309 14.2293 9.5273 14.3303C9.43151 14.4313 9.35858 14.5517 9.31355 14.6834C9.26853 14.8151 9.25241 14.955 9.26633 15.0935C9.26633 19.2142 9.26506 23.3349 9.26253 27.4556C9.26268 27.9494 9.43162 28.4284 9.74133 28.813C10.0615 29.255 10.4371 29.6542 10.8586 30.0009C11.2221 30.2899 11.6014 30.5583 11.9948 30.805C12.4622 31.096 12.9615 31.3202 13.4334 31.5976C13.6252 31.7021 13.8296 31.7818 14.0415 31.8347C14.4215 31.9389 14.7847 32.0757 15.167 32.1684C15.7888 32.3187 16.4275 32.3867 17.067 32.3706C17.1781 32.3669 17.2888 32.3557 17.3984 32.3371C17.8042 32.2725 17.8946 32.1676 17.8946 31.7466C17.8946 27.7804 17.8946 23.8142 17.8946 19.848C17.8832 19.6412 17.9171 19.4344 17.9937 19.242C18.0704 19.0496 18.188 18.8762 18.3385 18.7339C18.5015 18.6023 18.6827 18.495 18.8765 18.4154C19.0219 18.3425 19.1748 18.2857 19.3325 18.246C19.6243 18.1697 19.9065 18.0608 20.1739 17.9214C20.4863 17.777 20.8244 17.7231 21.1368 17.5726C21.402 17.4261 21.6892 17.3234 21.9872 17.2686C22.2822 17.2313 22.5657 17.1313 22.8187 16.9752C23.0927 16.863 23.3734 16.7678 23.6592 16.6902C23.8112 16.6142 24.0042 16.5876 24.1699 16.5048C24.2421 16.4683 24.3121 16.3984 24.4056 16.4569C24.4061 16.5002 24.391 16.5422 24.3631 16.5753C24.3352 16.6084 24.2964 16.6303 24.2536 16.637C23.98 16.6811 23.7542 16.8468 23.473 16.8947C23.1762 16.987 22.8892 17.1079 22.6158 17.2557C22.5124 17.3101 22.4033 17.3529 22.2905 17.3834C22.0089 17.4428 21.7382 17.5453 21.4879 17.6874C21.1976 17.8333 20.8799 17.8925 20.5858 18.024C20.2446 18.176 19.8889 18.3083 19.5339 18.4314C19.2847 18.5173 19.0437 18.6229 18.7975 18.7134C18.6485 18.7742 18.5138 18.8656 18.4023 18.9816C18.305 19.0824 18.2313 19.2036 18.1865 19.3363C18.1417 19.4691 18.1269 19.6101 18.1432 19.7492C18.1432 22.9002 18.1432 26.0514 18.1432 29.2029C18.1432 30.0016 18.1432 30.7989 18.1432 31.5984C18.1622 31.8117 18.0967 32.0239 17.9611 32.1896C17.8254 32.3552 17.6302 32.4611 17.4173 32.4846C16.6973 32.5884 15.9636 32.54 15.2635 32.3424C14.5734 32.2299 13.9419 31.9047 13.2563 31.7641C13.0393 31.6941 12.8354 31.5886 12.6529 31.4517C11.9689 31.0307 11.3548 30.4987 10.6898 30.051C10.0269 29.5631 9.50084 28.9127 9.16224 28.1624C9.12483 28.0657 9.11207 27.9613 9.12504 27.8584C9.12504 23.5224 9.12504 19.1863 9.12504 14.8503C9.12767 14.6933 9.17479 14.5403 9.26104 14.4091C9.3473 14.2779 9.46912 14.1739 9.61219 14.1093C9.91704 13.9512 10.2568 13.8728 10.6001 13.8813C11.8997 13.8106 13.1986 13.689 14.5027 13.7224C14.6981 13.7277 14.752 13.6403 14.7482 13.4572C14.7391 12.9419 14.7483 12.4266 14.7429 11.9113C14.7313 11.0981 14.8865 10.2911 15.1989 9.54015C15.7596 8.17612 16.7372 7.02429 17.992 6.24936C19.0439 5.57759 20.2815 5.25594 21.5275 5.33051C22.0849 5.34898 22.6336 5.47412 23.1439 5.69912C23.7648 5.96453 24.3206 6.36181 24.7727 6.86343C25.0602 7.16581 25.3031 7.50772 25.4939 7.87879C25.775 8.39473 25.9569 8.95875 26.0304 9.54168C26.1018 10.7432 26.0486 11.944 26.0699 13.1441C26.0752 13.439 26.1459 13.483 26.4499 13.4481C27.1146 13.3626 27.7891 13.3929 28.4434 13.5378C28.7692 13.5753 29.0701 13.7301 29.2901 13.9732C29.3285 14.0088 29.3592 14.0519 29.3802 14.0999C29.4012 14.1479 29.412 14.1998 29.412 14.2522C29.412 14.3045 29.4012 14.3564 29.3802 14.4044C29.3592 14.4524 29.3285 14.4955 29.2901 14.5311C29.0307 14.8049 28.6967 14.9967 28.3294 15.0828C27.9753 15.2151 27.6272 15.361 27.2746 15.4932C26.9805 15.6042 21.7851 17.5452 21.4986 17.6828C21.4629 17.6995 23.0505 16.9152 24.797 16.1909C25.5342 15.8854 27.1948 15.3618 27.2936 15.2941ZM23.3506 11.5344C23.3506 11.0366 23.3362 10.538 23.3544 10.041C23.3607 9.771 23.3081 9.50288 23.2003 9.25524C23.0926 9.0076 22.9323 8.78637 22.7305 8.60687C22.3787 8.29008 21.9427 8.08177 21.4752 8.00707C21.0077 7.93237 20.5286 7.99447 20.0956 8.18584C19.3835 8.44279 18.7573 8.89339 18.2875 9.48695C17.8982 9.93121 17.6274 10.4666 17.5002 11.0434C17.4106 11.8099 17.3852 12.5824 17.4242 13.3531C17.4242 13.6707 17.4348 13.6822 17.7616 13.6784C18.7124 13.667 19.6617 13.6578 20.6124 13.5849C21.4142 13.5233 22.2221 13.5301 23.0284 13.5195C23.2716 13.5195 23.3644 13.4268 23.3598 13.1821C23.3431 12.6333 23.3506 12.0839 23.3506 11.5344Z" fill="white"/>
<path d="M18.7046 25.3816C18.7046 24.7462 18.7084 24.1108 18.7046 23.4755C18.712 23.3304 18.7331 23.1864 18.7677 23.0453C18.8308 22.6957 19.1705 22.6752 19.3993 22.5498C19.7922 22.3347 20.2208 22.1843 20.635 22.0079C20.7366 21.9637 20.8403 21.9247 20.9458 21.8909C21.1549 21.8211 21.356 21.7291 21.5455 21.6165C22.057 21.3315 22.614 21.1294 23.1506 20.8877C23.7001 20.6407 24.245 20.3846 24.7929 20.1345C25.1889 19.9544 25.5864 19.7788 25.9831 19.6025C26.4718 19.3821 26.9582 19.1557 27.4499 18.9406C27.877 18.7536 28.3072 18.5712 28.7419 18.4017C28.9281 18.3257 29.052 18.4473 29.1166 18.6084C29.1494 18.7063 29.1638 18.8094 29.1591 18.9125C29.1591 19.9172 29.1591 20.9219 29.1637 21.9258C29.1697 22.0056 29.1527 22.0855 29.1146 22.1559C29.0765 22.2262 29.0188 22.2841 28.9486 22.3226C28.3505 22.717 27.6977 23.0111 27.0791 23.3683C26.4095 23.7552 25.7422 24.1488 25.0529 24.4962C24.3005 24.8762 23.5724 25.2957 22.8329 25.6962C22.2249 26.0276 21.6169 26.3658 21.0089 26.7146C20.6548 26.93 20.2867 27.1215 19.9069 27.2876C19.6371 27.3986 19.4311 27.6388 19.1249 27.7003C18.8345 27.7589 18.7092 27.6737 18.7084 27.3697C18.7084 26.7085 18.7084 26.0473 18.7084 25.3861L18.7046 25.3816ZM24.4646 21.3102C24.333 21.2908 24.1987 21.3177 24.0846 21.3863C23.8224 21.5931 23.6286 21.8741 23.5283 22.1926C23.4906 22.266 23.4732 22.3481 23.4781 22.4304C23.4829 22.5128 23.5097 22.5923 23.5557 22.6608C23.8514 22.9458 23.7221 23.2384 23.618 23.5295C23.5242 23.7121 23.4973 23.9218 23.542 24.1222C23.5731 24.2157 23.618 24.2963 23.7479 24.2256C24.0997 24.0504 24.4403 23.8537 24.7679 23.6366C24.8022 23.6192 24.8325 23.5949 24.8569 23.5652C24.8813 23.5355 24.8992 23.5011 24.9096 23.4641C24.9201 23.4271 24.9226 23.3883 24.9173 23.3503C24.9121 23.3122 24.899 23.2757 24.8788 23.2429C24.7627 23.0433 24.7009 22.8167 24.6995 22.5858C24.6982 22.3548 24.7574 22.1276 24.8712 21.9266C24.9062 21.8599 24.9227 21.785 24.9188 21.7098C24.915 21.6346 24.891 21.5618 24.8493 21.499C24.8077 21.4362 24.7499 21.3858 24.6821 21.353C24.6143 21.3202 24.5389 21.3062 24.4639 21.3125L24.4646 21.3102Z" fill="#F7BD01"/>
<path d="M18.7047 20.757C18.7047 20.4393 18.6895 20.1209 18.7085 19.8047C18.7001 19.6521 18.7404 19.5007 18.8236 19.3724C18.9068 19.2442 19.0286 19.1456 19.1714 19.0911C19.8212 18.8122 20.4847 18.5591 21.1345 18.2855C21.576 18.097 22.0396 17.9389 22.4826 17.7535C23.1089 17.4875 23.7435 17.2428 24.3743 16.9935C24.835 16.7744 25.3108 16.5882 25.7978 16.4364C25.9922 16.3724 26.1802 16.2905 26.3595 16.1917C26.8155 15.9857 27.2942 15.8292 27.751 15.6179C28.1013 15.456 28.4753 15.3276 28.8416 15.1946C29.0126 15.1323 29.1456 15.282 29.1456 15.4537C29.1578 16.0883 29.1608 16.7237 29.1456 17.3583C29.1396 17.5916 28.9176 17.6669 28.7375 17.7383C28.0778 18.002 27.4454 18.3204 26.7934 18.6054C26.3807 18.7871 25.9657 18.9695 25.55 19.1473C24.9557 19.4019 24.3789 19.6991 23.7785 19.9385C23.3521 20.108 22.9425 20.3124 22.529 20.507C21.937 20.7851 21.3252 21.0169 20.7407 21.3141C20.3729 21.5018 19.9808 21.6569 19.5954 21.8142C19.4434 21.8757 19.2998 21.9441 19.1538 22.0148C18.8909 22.1425 18.7131 22.0323 18.7062 21.7397C18.6963 21.4068 18.7047 21.0831 18.7047 20.757Z" fill="#F7BD01"/>
<path d="M18.7048 30.0518C18.6896 29.643 18.703 29.2336 18.745 28.8267C18.7557 28.7651 18.7813 28.707 18.8194 28.6575C18.8576 28.608 18.9072 28.5685 18.964 28.5424C19.4086 28.2954 19.8197 27.9823 20.2772 27.7657C20.6572 27.5871 21.0038 27.3622 21.3785 27.1798C21.8193 26.9647 22.2358 26.7002 22.6652 26.4623C23.1417 26.1986 23.6273 25.9501 24.0978 25.6757C24.4633 25.4629 24.8396 25.2699 25.2059 25.0601C25.5205 24.88 25.8496 24.7196 26.168 24.5418C26.6651 24.2644 27.1651 23.99 27.6674 23.724C28.0647 23.4617 28.4922 23.2481 28.9405 23.0879C29.0697 23.0552 29.1137 23.1115 29.1145 23.1981C29.1198 23.7924 29.1404 24.389 29.0986 24.9803C29.0826 25.2083 28.8006 25.2919 28.6159 25.4074C28.1835 25.6772 27.7663 25.9736 27.3285 26.2305C27.0384 26.4811 26.6993 26.6687 26.3329 26.7815C26.1968 26.7997 26.1695 26.9662 26.0547 27.0354C25.6253 27.2945 25.2058 27.5711 24.781 27.8394C24.1205 28.2567 23.457 28.6694 22.7981 29.0896C22.26 29.4332 21.7235 29.779 21.1923 30.1331C20.6611 30.4873 20.091 30.8057 19.5636 31.1796C19.4055 31.2921 19.2352 31.3916 19.0696 31.4958C18.8712 31.6204 18.7108 31.5292 18.7055 31.2929C18.6987 30.906 18.7048 30.52 18.7048 30.0518Z" fill="#F7BD01"/>
<path d="M10.6889 28.8578C11.0385 29.152 11.373 29.4659 11.7408 29.7364C12.3161 30.1765 12.947 30.5386 13.6172 30.8133C13.7668 30.8739 13.9127 30.9432 14.0542 31.0208C14.3898 31.1653 14.7375 31.2803 15.0932 31.3644C15.6886 31.581 16.3204 31.6801 16.9536 31.6562C17.1482 31.6448 17.2097 31.5589 17.212 31.3887C17.212 31.337 17.212 31.286 17.212 31.2366C17.212 28.9891 17.212 26.7415 17.212 24.4939C17.212 24.4339 17.212 24.3738 17.212 24.3138C17.212 24.2728 17.2158 24.2249 17.1687 24.2014C17.1216 24.1778 17.0973 24.2256 17.0669 24.2507C16.9617 24.3266 16.8342 24.3654 16.7045 24.3612C16.5749 24.3569 16.4503 24.3098 16.3502 24.2272C16.1931 24.1375 16.0626 24.0076 15.9719 23.851C15.8813 23.6944 15.8337 23.5166 15.8341 23.3357C15.8341 23.2513 15.7581 23.205 15.7232 23.1381C15.663 23.0144 15.6327 22.8782 15.635 22.7406C15.6372 22.603 15.6718 22.4679 15.7361 22.3462C15.8009 22.2192 15.8374 22.0797 15.8432 21.9373C15.8663 21.5907 15.9216 21.247 16.0082 20.9105C16.1508 20.4852 16.1194 20.0208 15.9208 19.6185C15.8969 19.5728 15.8841 19.522 15.8836 19.4703C15.8692 19.2378 15.7179 19.1489 15.515 19.123C15.425 19.1155 15.3348 19.1369 15.2578 19.1842C15.1808 19.2315 15.121 19.3022 15.087 19.386C14.9852 19.5578 14.888 19.7318 14.7884 19.9051C14.7782 19.9018 14.7688 19.8963 14.7608 19.8891C14.7529 19.8819 14.7465 19.8731 14.7422 19.8632C14.7379 19.8534 14.7357 19.8427 14.7358 19.832C14.7359 19.8213 14.7383 19.8107 14.7428 19.8009C14.8067 19.4607 14.978 19.1499 15.2315 18.914C15.3156 18.8523 15.4179 18.8205 15.5221 18.8237C15.6264 18.8269 15.7266 18.8648 15.8068 18.9315C15.9163 19.0002 16.0089 19.0927 16.0776 19.2022C16.1463 19.3117 16.1893 19.4353 16.2035 19.5638C16.2103 19.7676 16.2422 19.9697 16.2985 20.1657C16.3274 20.2515 16.3377 20.3424 16.3286 20.4324C16.3196 20.5225 16.2914 20.6096 16.2461 20.6878C16.1799 20.8285 16.1536 20.9847 16.1701 21.1393C16.1927 21.4263 16.1335 21.7138 15.9991 21.9684C15.9824 21.9966 15.9618 22.0384 15.9717 22.0642C16.0842 22.3834 15.9002 22.695 15.9656 23.0332C16.0177 23.2714 16.0926 23.504 16.1891 23.7278C16.21 23.8028 16.2474 23.8722 16.2987 23.9307C16.3499 23.9893 16.4137 24.0357 16.4852 24.0664C16.5568 24.0971 16.6343 24.1114 16.7121 24.1082C16.7898 24.105 16.8659 24.0843 16.9346 24.0478C17.2645 23.927 17.3557 23.9893 17.3557 24.3404C17.3557 26.6143 17.3557 28.8883 17.3557 31.1622C17.3557 31.7558 17.3253 31.7907 16.7241 31.8051C16.2908 31.8065 15.8594 31.7483 15.442 31.6319C14.7608 31.4321 14.0904 31.1975 13.4334 30.9289C12.9694 30.7205 12.5261 30.4689 12.1094 30.1772C11.6315 29.8776 11.1904 29.5227 10.7953 29.1201C10.7224 29.0433 10.6342 28.9817 10.6889 28.8578Z" fill="#D7A066"/>
<path d="M10.2175 18.952C10.0779 19.1643 10.0201 19.4201 10.0549 19.6718C10.059 22.3444 10.059 25.0173 10.0549 27.6905C10.0549 27.7559 10.0837 27.828 10.0245 27.885C9.81851 27.8372 9.89301 27.6677 9.89301 27.5476C9.88845 25.1896 9.88845 22.8316 9.89301 20.4736C9.89301 20.0875 9.88617 19.7014 9.89301 19.3161C9.89681 19.1101 9.98345 18.9581 10.2175 18.952Z" fill="#D7A066"/>
<path d="M13.389 18.3106C13.2785 18.3029 13.1709 18.2715 13.0736 18.2186C12.9746 18.1754 12.8663 18.158 12.7587 18.168C12.6512 18.178 12.5479 18.2151 12.4586 18.2758C12.3693 18.3365 12.2968 18.4189 12.2479 18.5152C12.199 18.6116 12.1753 18.7187 12.1791 18.8266C12.1355 19.269 12.1458 19.7151 12.2095 20.1551C12.2494 20.4439 12.2089 20.7382 12.0924 21.0055C12.0632 21.0831 12.0047 21.146 11.9295 21.1808C11.8543 21.2157 11.7685 21.2196 11.6904 21.1917C11.524 21.1492 11.3811 21.0549 11.41 20.8414C11.47 20.8368 11.4958 20.8893 11.5376 20.9174C11.6243 20.9706 11.676 21.1606 11.79 21.0694C11.904 20.9782 12.0719 20.8999 12.0651 20.678C12.0461 20.0464 12.0492 19.4134 12.0575 18.778C12.0737 18.5695 12.1674 18.3746 12.3202 18.2318C12.473 18.089 12.6737 18.0086 12.8829 18.0066C12.9853 18.0136 13.0846 18.0448 13.1726 18.0976C13.2606 18.1505 13.3348 18.2235 13.389 18.3106Z" fill="#D7A066"/>
<path d="M11.4089 20.3769C11.3557 20.1433 11.3719 19.8993 11.4553 19.6747C11.6008 19.0925 11.5639 18.4797 11.3496 17.9191C11.3218 17.7815 11.2579 17.6538 11.1644 17.5491C11.0709 17.4443 10.9513 17.3664 10.8177 17.3233C10.6125 17.2739 10.4763 17.3841 10.3099 17.4305C10.3038 17.223 10.6185 17.0915 10.842 17.1652C10.972 17.2173 11.0893 17.2968 11.1858 17.3984C11.2823 17.4999 11.3558 17.621 11.4013 17.7534C11.5483 18.0253 11.6347 18.3258 11.6544 18.6343C11.6769 19.1974 11.6162 19.7608 11.4743 20.3063C11.4675 20.3359 11.4294 20.3549 11.4089 20.3769Z" fill="#D7A066"/>
<path d="M14.7632 20.8231C14.7691 20.9111 14.7526 20.9991 14.715 21.0789C14.6775 21.1588 14.6202 21.2278 14.5487 21.2794C14.4772 21.331 14.3937 21.3636 14.3061 21.374C14.2185 21.3844 14.1298 21.3724 14.0481 21.3391C14.1676 21.3334 14.2828 21.2934 14.3802 21.224C14.4776 21.1546 14.5532 21.0587 14.5976 20.9477C14.6303 20.8831 14.6629 20.8041 14.7632 20.8231Z" fill="#D7A066"/>
<path d="M13.6751 21.0032C13.6192 20.9401 13.5763 20.8665 13.5489 20.7867C13.5215 20.707 13.5101 20.6226 13.5154 20.5384C13.5207 20.4543 13.5426 20.3719 13.5798 20.2962C13.617 20.2205 13.6687 20.1529 13.732 20.0973C13.6776 20.396 13.6585 20.7001 13.6751 21.0032Z" fill="#D7A066"/>
<path d="M13.8732 19.1503C13.706 18.893 13.5538 18.6263 13.4172 18.3516C13.5585 18.4309 13.6755 18.5471 13.7559 18.6878C13.8362 18.8285 13.8767 18.9884 13.8732 19.1503Z" fill="#D7A066"/>
<path d="M10.0413 27.9747C10.131 28.1161 10.3385 28.1852 10.3035 28.4026C10.074 28.3806 9.99345 28.2499 10.0413 27.9747Z" fill="#D7A066"/>
<path d="M13.9503 21.3034C13.8937 21.2961 13.8407 21.2716 13.7985 21.2333C13.7562 21.195 13.7267 21.1447 13.7139 21.0891C13.8605 21.0861 13.9579 21.1377 13.9503 21.3034Z" fill="#D7A066"/>
<path d="M10.3027 18.157C10.3962 18.233 10.3787 18.3272 10.3301 18.4207C10.2161 18.3432 10.2214 18.2543 10.3027 18.157Z" fill="#D7A066"/>
<path d="M13.8924 19.6078C13.8645 19.5794 13.8489 19.5412 13.8489 19.5014C13.8489 19.4616 13.8645 19.4234 13.8924 19.395C13.9927 19.4665 13.9851 19.5379 13.8924 19.6078Z" fill="#D7A066"/>
<path d="M13.7622 20.0585C13.7363 19.9688 13.7812 19.9263 13.8626 19.9065C13.9424 20.0334 13.8724 20.057 13.7622 20.0585Z" fill="#D7A066"/>
<path d="M10.3637 28.5097C10.4397 28.4922 10.4716 28.5226 10.4693 28.5971C10.3941 28.6192 10.3478 28.6009 10.3637 28.5097Z" fill="#D7A066"/>
<path d="M10.4764 28.604C10.5524 28.604 10.5835 28.6405 10.5523 28.7165C10.4703 28.7211 10.4536 28.6762 10.4764 28.604Z" fill="#D7A066"/>
<path d="M24.4639 21.3125C24.5402 21.3048 24.6171 21.318 24.6865 21.3508C24.7558 21.3837 24.8149 21.4348 24.8573 21.4987C24.8997 21.5626 24.9239 21.6369 24.9271 21.7135C24.9304 21.7901 24.9126 21.8662 24.8758 21.9335C24.7618 22.1343 24.7024 22.3616 24.7036 22.5925C24.7048 22.8235 24.7666 23.0501 24.8827 23.2498C24.9028 23.2825 24.9159 23.3191 24.9212 23.3571C24.9265 23.3952 24.9239 23.434 24.9135 23.471C24.9031 23.5079 24.885 23.5423 24.8606 23.572C24.8362 23.6017 24.806 23.6261 24.7717 23.6435C24.4441 23.8605 24.1035 24.0572 23.7518 24.2325C23.6226 24.3039 23.577 24.2226 23.5458 24.1291C23.5012 23.9287 23.5281 23.719 23.6218 23.5363C23.7259 23.2452 23.8559 22.9526 23.5603 22.6669C23.5143 22.5984 23.4876 22.5188 23.4829 22.4364C23.4782 22.3541 23.4958 22.272 23.5337 22.1987C23.6338 21.8801 23.8278 21.5991 24.09 21.3924C24.2019 21.3238 24.3338 21.2956 24.4639 21.3125Z" fill="white"/>
<path d="M9.84715 16.4166L17.3559 18.6791L17.7815 32.0589L13.6015 31.3392L9.79395 28.4945L9.84715 16.4166Z" fill="#F7BD01"/>
</svg>
