<svg width="21" height="28" viewBox="0 0 21 28" fill="none" xmlns="http://www.w3.org/2000/svg">
<path d="M16.7681 10.9713L16.616 11.0017C16.2299 11.095 15.859 11.2424 15.5141 11.4395L15.4122 11.4585C15.3187 11.4007 15.2481 11.4706 15.1766 11.5063C15.011 11.5892 14.8156 11.6188 14.6659 11.6918C14.3801 11.7694 14.0994 11.8646 13.8253 11.9768C13.5723 12.1328 13.2888 12.2329 12.9939 12.2701C12.6958 12.3249 12.4086 12.4275 12.1434 12.5741C11.8311 12.7261 11.4929 12.7786 11.1805 12.923C10.9131 13.0624 10.6309 13.1712 10.3392 13.2475C10.1814 13.2873 10.0286 13.3441 9.88318 13.417C9.68936 13.4965 9.5081 13.6038 9.34509 13.7354C9.19454 13.8777 9.07691 14.0511 9.00025 14.2435C8.9236 14.4359 8.88978 14.6428 8.90127 14.8496C8.90988 18.8158 8.90988 22.7819 8.90127 26.7481C8.90127 27.1699 8.81088 27.2741 8.40428 27.3387C8.29471 27.3573 8.18397 27.3685 8.07289 27.3721C7.43344 27.3882 6.79464 27.3202 6.17289 27.1699C5.79289 27.0772 5.42356 26.942 5.04736 26.8363C4.83545 26.7834 4.6311 26.7037 4.43933 26.5992C3.96737 26.3218 3.46809 26.0976 3.00069 25.8065C2.60603 25.5599 2.22544 25.2914 1.86069 25.0024C1.43945 24.6559 1.06417 24.257 0.744161 23.8153C0.434393 23.4307 0.265536 22.9518 0.26545 22.4579C0.272543 18.3372 0.273721 14.2165 0.269161 10.0958C0.255108 9.95727 0.271126 9.81735 0.316104 9.68559C0.361082 9.55383 0.434037 9.43332 0.529854 9.33231C0.625671 9.2313 0.742147 9.15215 0.871353 9.10028C1.00056 9.04842 1.13938 9.02507 1.27844 9.03179C2.66544 8.97783 4.05556 9.00215 5.44332 8.92995C5.74048 8.91475 5.78072 8.97022 5.78148 9.27574C5.78148 9.7819 5.7716 10.2888 5.78148 10.7957C5.79592 11.3528 5.87115 11.5253 6.49815 11.6903C6.90141 11.7953 7.32559 11.789 7.72555 11.672C7.90221 11.6534 8.06436 11.5655 8.17633 11.4276C8.28831 11.2897 8.34099 11.1131 8.32292 10.9363C8.32292 10.361 8.32292 9.78571 8.32292 9.21115C8.32292 8.84711 8.35408 8.82278 8.72268 8.8167C9.52017 8.80352 10.3177 8.78908 11.1152 8.77337C12.0779 8.75564 13.0382 8.73766 13.9963 8.71942C14.3527 8.71334 14.3846 8.74602 14.3846 9.09258C14.3846 9.23014 14.3846 9.3677 14.3846 9.5045C14.4043 9.63464 14.4565 9.75776 14.5361 9.86253C14.6158 9.9673 14.7206 10.0504 14.8407 10.1041C15.3881 10.315 15.9932 10.321 16.5446 10.1209C16.6829 10.0924 16.8066 10.0156 16.8934 9.90414C16.9802 9.7927 17.0244 9.65397 17.0181 9.51287C17.0181 9.28943 17.031 9.06598 17.0181 8.8433C17.0052 8.62062 17.0941 8.56058 17.3038 8.56438C17.7598 8.5735 18.2159 8.57654 18.6719 8.56438C19.0534 8.60897 19.4284 8.69825 19.7891 8.83038C19.8901 8.85014 19.9684 8.95121 20.0574 9.01277C20.0988 9.05346 20.1298 9.10366 20.1474 9.15901C20.1651 9.21435 20.169 9.27318 20.1589 9.33038C20.1487 9.38759 20.1247 9.44143 20.089 9.48726C20.0533 9.5331 20.0069 9.56954 19.9539 9.59342C19.7259 9.68234 19.498 9.77886 19.2829 9.87918C18.9424 9.98982 18.6118 10.1291 18.2949 10.2957C17.9696 10.5176 17.5523 10.5754 17.2103 10.7844L17.1024 10.8239C16.9806 10.8451 16.8659 10.8957 16.7681 10.9713ZM1.47382 23.6048C1.45102 23.6808 1.46773 23.7211 1.54981 23.7173L1.68358 23.8586C1.62886 23.9833 1.71698 24.0441 1.79222 24.117C2.18717 24.5198 2.62823 24.8747 3.10627 25.1742C3.52314 25.4661 3.9667 25.7181 4.43098 25.9266C5.08803 26.1952 5.75843 26.4299 6.43961 26.6296C6.85699 26.746 7.28844 26.8043 7.72174 26.8029C8.3229 26.7884 8.35334 26.7527 8.35334 26.1599C8.35334 23.886 8.35334 21.6121 8.35334 19.3381C8.35334 18.9863 8.26216 18.9247 7.93308 19.0455C7.86433 19.082 7.7882 19.1027 7.71043 19.1059C7.63265 19.1091 7.55513 19.0948 7.48359 19.0641C7.41206 19.0334 7.34837 18.9871 7.29712 18.9285C7.24587 18.8699 7.20837 18.8006 7.18746 18.7256C7.09109 18.5016 7.01631 18.269 6.96406 18.0309C6.8987 17.6927 7.08259 17.3819 6.96935 17.0619C6.9667 17.0277 6.97669 16.9936 6.99746 16.9662C7.13184 16.7116 7.19112 16.424 7.16844 16.137C7.15202 15.9827 7.17838 15.8268 7.24452 15.6863C7.28985 15.608 7.31795 15.521 7.32699 15.4309C7.33603 15.3409 7.32578 15.25 7.29693 15.1642C7.24076 14.9682 7.20886 14.7661 7.20193 14.5623C7.18776 14.4338 7.14474 14.3102 7.07604 14.2007C7.00734 14.0912 6.91476 13.9986 6.80523 13.93C6.72504 13.8633 6.62477 13.8253 6.52051 13.8222C6.41626 13.819 6.31395 13.8508 6.22985 13.9125C5.97626 14.1482 5.80502 14.4591 5.74122 14.7994C5.73671 14.8091 5.73432 14.8197 5.73417 14.8304C5.73401 14.8411 5.73606 14.8517 5.74029 14.8615C5.74452 14.8713 5.75078 14.8802 5.75866 14.8874C5.76654 14.8947 5.77588 14.9001 5.78603 14.9035C5.77741 15.2106 5.76885 15.5176 5.76023 15.8247C5.65991 15.8057 5.6295 15.8839 5.59454 15.9485C5.55029 16.0598 5.4749 16.1559 5.37745 16.2255C5.28001 16.295 5.16463 16.335 5.04504 16.3407L4.94772 16.3057C4.95533 16.1393 4.85811 16.0876 4.71143 16.0914L4.67265 16.0055C4.65614 15.7024 4.67523 15.3983 4.72961 15.0996C4.73847 15.0857 4.74868 15.0728 4.76004 15.0609C4.86644 15.0609 4.94013 15.0358 4.86033 14.9089C4.87021 14.8086 4.88014 14.7082 4.89002 14.6049C4.9835 14.5349 4.99034 14.4643 4.89002 14.3921C4.88343 14.3105 4.87661 14.2292 4.86952 14.1481C4.87312 13.9861 4.83258 13.8262 4.75225 13.6855C4.67192 13.5448 4.55476 13.4286 4.41344 13.3494C4.40356 13.3357 4.39371 13.322 4.38459 13.3075C4.33039 13.2205 4.25638 13.1476 4.16852 13.0947C4.08066 13.0419 3.98144 13.0106 3.87916 13.0035C3.67003 13.0056 3.46928 13.0859 3.31649 13.2287C3.1637 13.3715 3.07 13.5664 3.05385 13.7749C3.04549 14.4073 3.04246 15.0396 3.06146 15.675C3.0683 15.8969 2.90257 15.9713 2.78629 16.0663C2.67001 16.1613 2.61992 15.9698 2.53404 15.9144C2.49224 15.8885 2.46557 15.8383 2.40629 15.8383C2.40629 15.6863 2.40629 15.5323 2.40629 15.3763C2.42909 15.3542 2.46484 15.3352 2.47244 15.3086C2.61435 14.7632 2.67509 14.1998 2.6526 13.6366C2.63296 13.3282 2.5466 13.0276 2.39952 12.7558C2.35405 12.6233 2.28053 12.5021 2.184 12.4006C2.08747 12.2991 1.97014 12.2196 1.84009 12.1675C1.61817 12.0915 1.30357 12.2253 1.30813 12.4328C1.28618 12.6746 1.28316 12.9178 1.29904 13.1601C1.21696 13.2574 1.21233 13.3463 1.32557 13.4238C1.35487 13.5147 1.35982 13.6116 1.33995 13.7049C1.32008 13.7983 1.27614 13.8848 1.21239 13.9558C0.976028 13.9627 0.892427 14.1162 0.887867 14.3199C0.880267 14.7052 0.887867 15.0913 0.887867 15.4773C0.887867 17.8354 0.887867 20.1934 0.887867 22.5514C0.887867 22.6715 0.811847 22.841 1.01933 22.8889L1.03528 22.9785C0.987404 23.2537 1.06718 23.3844 1.29746 23.4064L1.35674 23.5136C1.34078 23.6048 1.38563 23.623 1.46315 23.601L1.47382 23.6048Z" fill="#F7BD01"/>
<path d="M18.2935 10.2941C18.6104 10.1276 18.9409 9.98828 19.2814 9.87764C19.498 9.77732 19.7261 9.68079 19.9525 9.59187C20.0055 9.568 20.0518 9.53156 20.0875 9.48572C20.1232 9.43988 20.1472 9.38604 20.1574 9.32884C20.1676 9.27164 20.1637 9.2128 20.146 9.15746C20.1283 9.10212 20.0974 9.05192 20.0559 9.01123C19.967 8.94967 19.8894 8.8486 19.7876 8.82884C19.4267 8.69664 19.0515 8.60736 18.6697 8.56283C18.2137 8.57651 17.7576 8.57423 17.3016 8.56283C17.0949 8.55827 16.9977 8.62059 17.0159 8.84175C17.0341 9.06291 17.0205 9.28788 17.0159 9.51132C17.022 9.6525 16.9777 9.79124 16.8907 9.90266C16.8038 10.0141 16.6801 10.0909 16.5416 10.1193C15.9902 10.3194 15.385 10.3135 14.8377 10.1026C14.7175 10.0488 14.6129 9.96576 14.5332 9.86099C14.4535 9.75621 14.4014 9.63309 14.3817 9.50295C14.3779 9.36539 14.3817 9.2286 14.3817 9.09104C14.3817 8.74524 14.3498 8.71104 13.9933 8.71788C13.0307 8.7346 12.0703 8.75234 11.1122 8.77108C10.3147 8.78578 9.51722 8.8002 8.71973 8.81439C8.35113 8.82047 8.32149 8.8448 8.31997 9.20884C8.31997 9.78415 8.31997 10.3595 8.31997 10.934C8.33804 11.1107 8.28527 11.2874 8.17329 11.4253C8.06131 11.5632 7.89926 11.6511 7.7226 11.6697C7.32264 11.7867 6.89846 11.793 6.4952 11.688C5.8682 11.523 5.79297 11.3505 5.77853 10.7934C5.76485 10.2873 5.77853 9.78035 5.77853 9.27343C5.77853 8.96943 5.73744 8.91244 5.44028 8.92764C4.05252 9.00364 2.66325 8.97552 1.27549 9.02948C1.13646 9.02288 0.997642 9.04634 0.868496 9.09825C0.73935 9.15016 0.622972 9.22929 0.527182 9.33028C0.431392 9.43126 0.358458 9.55171 0.313432 9.68342C0.268407 9.81512 0.252288 9.95499 0.266211 10.0935C0.266211 14.2142 0.26494 18.3349 0.262407 22.4556C0.262555 22.9494 0.431497 23.4284 0.741211 23.813C1.06141 24.255 1.43693 24.6542 1.85848 25.0009C2.22193 25.2899 2.60125 25.5583 2.99468 25.805C3.46208 26.096 3.96136 26.3202 4.43332 26.5976C4.62511 26.7021 4.82945 26.7818 5.04135 26.8347C5.42135 26.9389 5.7846 27.0757 6.16688 27.1684C6.78863 27.3187 7.42743 27.3867 8.06688 27.3706C8.17796 27.3669 8.2887 27.3557 8.39827 27.3371C8.80411 27.2725 8.89451 27.1676 8.89451 26.7466C8.89451 22.7804 8.89451 18.8142 8.89451 14.848C8.88313 14.6412 8.91694 14.4344 8.99359 14.242C9.07024 14.0496 9.18787 13.8762 9.33834 13.7339C9.50138 13.6023 9.68263 13.495 9.87642 13.4154C10.0218 13.3425 10.1747 13.2857 10.3324 13.246C10.6241 13.1697 10.9064 13.0608 11.1738 12.9214C11.4861 12.777 11.8243 12.7231 12.1367 12.5726C12.4019 12.4261 12.6891 12.3234 12.9871 12.2686C13.282 12.2313 13.5655 12.1313 13.8186 11.9752C14.0926 11.863 14.3733 11.7678 14.6591 11.6902C14.8111 11.6142 15.0041 11.5876 15.1698 11.5048C15.242 11.4683 15.312 11.3984 15.4054 11.4569C15.406 11.5002 15.3909 11.5422 15.363 11.5753C15.335 11.6084 15.2962 11.6303 15.2535 11.637C14.9799 11.6811 14.7541 11.8468 14.4729 11.8947C14.1761 11.987 13.8891 12.1079 13.6157 12.2557C13.5123 12.3101 13.4032 12.3529 13.2904 12.3834C13.0088 12.4428 12.7381 12.5453 12.4878 12.6874C12.1975 12.8333 11.8798 12.8925 11.5857 13.024C11.2444 13.176 10.8887 13.3083 10.5338 13.4314C10.2845 13.5173 10.0436 13.6229 9.79738 13.7134C9.64834 13.7742 9.5137 13.8656 9.40217 13.9816C9.30488 14.0824 9.23119 14.2036 9.18638 14.3363C9.14156 14.4691 9.12678 14.6101 9.14305 14.7492C9.14305 17.9002 9.14305 21.0514 9.14305 24.2029C9.14305 25.0016 9.14305 25.7989 9.14305 26.5984C9.16203 26.8117 9.09662 27.0239 8.96094 27.1896C8.82525 27.3552 8.63004 27.4611 8.41719 27.4846C7.69721 27.5884 6.96346 27.54 6.26336 27.3424C5.57328 27.2299 4.94173 26.9047 4.25621 26.7641C4.03914 26.6941 3.83525 26.5886 3.65281 26.4517C2.96881 26.0307 2.35473 25.4987 1.68973 25.051C1.02682 24.5631 0.500715 23.9127 0.162119 23.1624C0.124705 23.0657 0.111946 22.9613 0.124917 22.8584C0.124917 18.5224 0.124917 14.1863 0.124917 9.85027C0.127552 9.69329 0.174672 9.5403 0.260923 9.40911C0.347173 9.27792 0.468995 9.17392 0.61207 9.10927C0.916918 8.9512 1.25673 8.87278 1.60001 8.88128C2.89961 8.8106 4.19846 8.68898 5.50262 8.72242C5.69794 8.72774 5.7519 8.64034 5.7481 8.45718C5.73898 7.94191 5.74813 7.42663 5.74281 6.91135C5.73121 6.09809 5.88639 5.2911 6.19879 4.54015C6.75945 3.17612 7.73708 2.02429 8.99183 1.24936C10.0438 0.577589 11.2814 0.255943 12.5273 0.33051C13.0848 0.348982 13.6335 0.474117 14.1438 0.699122C14.7647 0.964529 15.3205 1.36181 15.7725 1.86343C16.0601 2.16581 16.3029 2.50772 16.4938 2.87879C16.7749 3.39473 16.9568 3.95875 17.0303 4.54168C17.1017 5.74324 17.0485 6.94403 17.0698 8.14407C17.0751 8.43895 17.1458 8.48303 17.4498 8.44807C18.1145 8.36259 18.789 8.39294 19.4433 8.53776C19.769 8.57533 20.07 8.73012 20.29 8.97324C20.3284 9.00881 20.3591 9.05194 20.38 9.09994C20.401 9.14794 20.4119 9.19978 20.4119 9.25216C20.4119 9.30454 20.401 9.35636 20.38 9.40436C20.3591 9.45235 20.3284 9.49551 20.29 9.53108C20.0305 9.80491 19.6965 9.99672 19.3293 10.0828C18.9751 10.2151 18.6271 10.361 18.2745 10.4932C17.9803 10.6042 12.785 12.5452 12.4985 12.6828C12.4628 12.6995 14.0504 11.9152 15.7969 11.1909C16.5341 10.8854 18.1947 10.3618 18.2935 10.2941ZM14.3505 6.53439C14.3505 6.03659 14.3361 5.53803 14.3543 5.04099C14.3605 4.771 14.308 4.50288 14.2002 4.25524C14.0925 4.0076 13.9322 3.78637 13.7304 3.60687C13.3786 3.29008 12.9426 3.08177 12.4751 3.00707C12.0076 2.93237 11.5285 2.99447 11.0955 3.18584C10.3834 3.44279 9.75722 3.89339 9.28741 4.48695C8.8981 4.93121 8.62727 5.46659 8.50004 6.04343C8.41049 6.80985 8.38509 7.58242 8.42406 8.35307C8.42406 8.67075 8.43467 8.68216 8.76147 8.67836C9.71223 8.66696 10.6615 8.65782 11.6123 8.58486C12.4141 8.5233 13.222 8.53015 14.0283 8.51951C14.2715 8.51951 14.3643 8.42679 14.3597 8.18207C14.343 7.63335 14.3505 7.08387 14.3505 6.53439Z" fill="black"/>
<path d="M9.7045 20.3816C9.7045 19.7462 9.7083 19.1108 9.7045 18.4755C9.71186 18.3304 9.73299 18.1864 9.76758 18.0453C9.83066 17.6957 10.1704 17.6752 10.3992 17.5498C10.7921 17.3347 11.2207 17.1843 11.6349 17.0079C11.7365 16.9637 11.8402 16.9247 11.9457 16.8909C12.1548 16.8211 12.3559 16.7291 12.5454 16.6165C13.0569 16.3315 13.6139 16.1294 14.1505 15.8877C14.7 15.6407 15.2449 15.3846 15.7928 15.1345C16.1888 14.9544 16.5863 14.7788 16.983 14.6025C17.4717 14.3821 17.9581 14.1557 18.4498 13.9406C18.8769 13.7536 19.3071 13.5712 19.7418 13.4017C19.928 13.3257 20.0519 13.4473 20.1165 13.6084C20.1493 13.7063 20.1637 13.8094 20.159 13.9125C20.159 14.9172 20.159 15.9219 20.1636 16.9258C20.1696 17.0056 20.1527 17.0855 20.1145 17.1559C20.0764 17.2262 20.0187 17.2841 19.9485 17.3226C19.3504 17.717 18.6976 18.0111 18.079 18.3683C17.4094 18.7552 16.7421 19.1488 16.0528 19.4962C15.3004 19.8762 14.5723 20.2957 13.8328 20.6962C13.2248 21.0276 12.6168 21.3658 12.0088 21.7146C11.6547 21.93 11.2866 22.1215 10.9068 22.2876C10.637 22.3986 10.431 22.6388 10.1248 22.7003C9.83444 22.7589 9.70906 22.6737 9.7083 22.3697C9.7083 21.7085 9.7083 21.0473 9.7083 20.3861L9.7045 20.3816ZM15.4645 16.3102C15.3329 16.2908 15.1986 16.3177 15.0845 16.3863C14.8224 16.5931 14.6286 16.8741 14.5283 17.1926C14.4905 17.266 14.4732 17.3481 14.478 17.4304C14.4828 17.5128 14.5096 17.5923 14.5556 17.6608C14.8513 17.9458 14.722 18.2384 14.6179 18.5295C14.5241 18.7121 14.4972 18.9218 14.5419 19.1222C14.5731 19.2157 14.6179 19.2963 14.7478 19.2256C15.0996 19.0504 15.4402 18.8537 15.7678 18.6366C15.8021 18.6192 15.8324 18.5949 15.8568 18.5652C15.8812 18.5355 15.8991 18.5011 15.9096 18.4641C15.92 18.4271 15.9226 18.3883 15.9173 18.3503C15.912 18.3122 15.8989 18.2757 15.8788 18.2429C15.7626 18.0433 15.7008 17.8167 15.6994 17.5858C15.6981 17.3548 15.7573 17.1276 15.8711 16.9266C15.9061 16.8599 15.9226 16.785 15.9187 16.7098C15.9149 16.6346 15.8909 16.5618 15.8493 16.499C15.8076 16.4362 15.7498 16.3858 15.682 16.353C15.6142 16.3202 15.5388 16.3062 15.4638 16.3125L15.4645 16.3102Z" fill="#F7BD01"/>
<path d="M9.70467 15.757C9.70467 15.4393 9.68947 15.1209 9.70847 14.8047C9.70002 14.6521 9.74032 14.5007 9.82351 14.3724C9.9067 14.2442 10.0285 14.1456 10.1713 14.0911C10.8211 13.8122 11.4846 13.5591 12.1344 13.2855C12.576 13.097 13.0395 12.9389 13.4826 12.7535C14.1088 12.4875 14.7434 12.2428 15.3742 11.9935C15.835 11.7744 16.3107 11.5882 16.7978 11.4364C16.9921 11.3724 17.1802 11.2905 17.3594 11.1917C17.8154 10.9857 18.2942 10.8292 18.7509 10.6179C19.1013 10.456 19.4752 10.3276 19.8416 10.1946C20.0126 10.1323 20.1456 10.282 20.1456 10.4537C20.1577 11.0883 20.1608 11.7237 20.1456 12.3583C20.1395 12.5916 19.9176 12.6669 19.7375 12.7383C19.0778 13.002 18.4454 13.3204 17.7933 13.6054C17.3806 13.7871 16.9657 13.9695 16.55 14.1473C15.9556 14.4019 15.3788 14.6991 14.7784 14.9385C14.3521 15.108 13.9424 15.3124 13.529 15.507C12.9369 15.7851 12.3251 16.0169 11.7407 16.3141C11.3728 16.5018 10.9807 16.6569 10.5954 16.8142C10.4434 16.8757 10.2997 16.9441 10.1538 17.0148C9.89082 17.1425 9.71299 17.0323 9.70615 16.7397C9.69627 16.4068 9.70467 16.0831 9.70467 15.757Z" fill="#F7BD01"/>
<path d="M9.70459 25.0518C9.6894 24.643 9.70285 24.2336 9.74485 23.8267C9.75555 23.7651 9.78113 23.707 9.81926 23.6575C9.85739 23.608 9.907 23.5685 9.9638 23.5424C10.4084 23.2954 10.8195 22.9823 11.277 22.7657C11.657 22.5871 12.0036 22.3622 12.3783 22.1798C12.8191 21.9647 13.2356 21.7002 13.665 21.4623C14.1415 21.1986 14.6272 20.9501 15.0976 20.6757C15.4632 20.4629 15.8394 20.2699 16.2057 20.0601C16.5203 19.88 16.8494 19.7196 17.1678 19.5418C17.6649 19.2644 18.1649 18.99 18.6672 18.724C19.0645 18.4617 19.492 18.2481 19.9403 18.0879C20.0695 18.0552 20.1136 18.1115 20.1143 18.1981C20.1196 18.7924 20.1402 19.389 20.0984 19.9803C20.0824 20.2083 19.8004 20.2919 19.6158 20.4074C19.1833 20.6772 18.7661 20.9736 18.3283 21.2305C18.0382 21.4811 17.6991 21.6687 17.3327 21.7815C17.1967 21.7997 17.1693 21.9662 17.0546 22.0354C16.6252 22.2945 16.2056 22.5711 15.7808 22.8394C15.1203 23.2567 14.4569 23.6694 13.7979 24.0896C13.2599 24.4332 12.7234 24.779 12.1921 25.1331C11.6609 25.4873 11.0908 25.8057 10.5634 26.1796C10.4053 26.2921 10.2351 26.3916 10.0694 26.4958C9.87101 26.6204 9.71065 26.5292 9.70533 26.2929C9.69849 25.906 9.70459 25.52 9.70459 25.0518Z" fill="#F7BD01"/>
<path d="M1.68884 23.8578C2.03844 24.152 2.37286 24.4659 2.7407 24.7364C3.31601 25.1765 3.94695 25.5386 4.61714 25.8133C4.76674 25.8739 4.91262 25.9432 5.0541 26.0208C5.38975 26.1653 5.73742 26.2803 6.09307 26.3644C6.68852 26.581 7.32035 26.6801 7.95355 26.6562C8.14811 26.6448 8.20964 26.5589 8.21192 26.3887C8.21192 26.337 8.21192 26.286 8.21192 26.2366C8.21192 23.9891 8.21192 21.7415 8.21192 19.4939C8.21192 19.4339 8.21192 19.3738 8.21192 19.3138C8.21192 19.2728 8.21572 19.2249 8.1686 19.2014C8.12148 19.1778 8.09722 19.2256 8.06682 19.2507C7.96157 19.3266 7.83413 19.3654 7.70445 19.3612C7.57478 19.3569 7.45019 19.3098 7.35015 19.2272C7.19302 19.1375 7.06247 19.0076 6.97182 18.851C6.88117 18.6944 6.83361 18.5166 6.83405 18.3357C6.83405 18.2513 6.75805 18.205 6.72309 18.1381C6.66286 18.0144 6.63262 17.8782 6.63487 17.7406C6.63711 17.603 6.67175 17.4679 6.73599 17.3462C6.80079 17.2192 6.83734 17.0797 6.84314 16.9373C6.86625 16.5907 6.92149 16.247 7.00809 15.9105C7.15071 15.4852 7.11929 15.0208 6.9207 14.6185C6.89678 14.5728 6.88406 14.522 6.8835 14.4703C6.86906 14.2378 6.71783 14.1489 6.51491 14.123C6.42486 14.1155 6.33473 14.1369 6.25774 14.1842C6.18075 14.2315 6.12086 14.3022 6.08695 14.386C5.98511 14.5578 5.88787 14.7318 5.78831 14.9051C5.77809 14.9018 5.76872 14.8963 5.76076 14.8891C5.75279 14.8819 5.74642 14.8731 5.74211 14.8632C5.7378 14.8534 5.7356 14.8427 5.73571 14.832C5.73581 14.8213 5.73817 14.8107 5.74266 14.8009C5.80662 14.4607 5.97793 14.1499 6.23139 13.914C6.31549 13.8523 6.4178 13.8205 6.52205 13.8237C6.62631 13.8269 6.72649 13.8648 6.80668 13.9315C6.9162 14.0002 7.00879 14.0927 7.07749 14.2022C7.14619 14.3117 7.18921 14.4353 7.20338 14.5638C7.21021 14.7676 7.24212 14.9697 7.29838 15.1657C7.32728 15.2515 7.33758 15.3424 7.32853 15.4324C7.31949 15.5225 7.29134 15.6096 7.24597 15.6878C7.17977 15.8285 7.1535 15.9847 7.16998 16.1393C7.19266 16.4263 7.13338 16.7138 6.999 16.9684C6.98228 16.9966 6.96175 17.0384 6.97163 17.0642C7.08411 17.3834 6.90015 17.695 6.96551 18.0332C7.0176 18.2714 7.09248 18.504 7.189 18.7278C7.20992 18.8028 7.24732 18.8722 7.29857 18.9307C7.34982 18.9893 7.4136 19.0357 7.48513 19.0664C7.55667 19.0971 7.63419 19.1114 7.71197 19.1082C7.78974 19.105 7.86578 19.0843 7.93453 19.0478C8.26437 18.927 8.35563 18.9893 8.35563 19.3404C8.35563 21.6143 8.35563 23.8883 8.35563 26.1622C8.35563 26.7558 8.32519 26.7907 7.72403 26.8051C7.29072 26.8065 6.85928 26.7483 6.4419 26.6319C5.76073 26.4321 5.09033 26.1975 4.43326 25.9289C3.96928 25.7205 3.52596 25.4689 3.10929 25.1772C2.63136 24.8776 2.19032 24.5227 1.79525 24.1201C1.72229 24.0433 1.63412 23.9817 1.68884 23.8578Z" fill="#D7A066"/>
<path d="M1.21753 13.952C1.07793 14.1643 1.02015 14.4201 1.0549 14.6718C1.05895 17.3444 1.05895 20.0173 1.0549 22.6905C1.0549 22.7559 1.08375 22.828 1.02447 22.885C0.81851 22.8372 0.89301 22.6677 0.89301 22.5476C0.88845 20.1896 0.88845 17.8316 0.89301 15.4736C0.89301 15.0875 0.88617 14.7014 0.89301 14.3161C0.89681 14.1101 0.983451 13.9581 1.21753 13.952Z" fill="#D7A066"/>
<path d="M4.38897 13.3106C4.27846 13.3029 4.17087 13.2715 4.07354 13.2186C3.97454 13.1754 3.86622 13.158 3.75866 13.168C3.65111 13.178 3.54788 13.2151 3.45854 13.2758C3.36921 13.3365 3.29673 13.4189 3.24785 13.5152C3.19898 13.6116 3.17526 13.7187 3.17902 13.8266C3.13545 14.269 3.14569 14.7151 3.20945 15.1551C3.24935 15.4439 3.20881 15.7382 3.09237 16.0055C3.06312 16.0831 3.00465 16.146 2.92946 16.1808C2.85426 16.2157 2.76842 16.2196 2.69038 16.1917C2.52394 16.1492 2.38104 16.0549 2.40992 15.8414C2.46996 15.8368 2.49578 15.8893 2.53758 15.9174C2.62422 15.9706 2.67592 16.1606 2.78992 16.0694C2.90392 15.9782 3.07184 15.8999 3.065 15.678C3.046 15.0464 3.04912 14.4134 3.05748 13.778C3.07363 13.5695 3.16733 13.3746 3.32012 13.2318C3.47292 13.089 3.67367 13.0086 3.88279 13.0066C3.98521 13.0136 4.08453 13.0448 4.17253 13.0976C4.26052 13.1505 4.33469 13.2235 4.38897 13.3106Z" fill="#D7A066"/>
<path d="M2.40868 15.3769C2.35552 15.1433 2.37166 14.8993 2.45507 14.6747C2.60058 14.0925 2.56367 13.4797 2.3494 12.9191C2.32163 12.7815 2.25772 12.6538 2.16422 12.5491C2.07072 12.4443 1.95104 12.3664 1.81744 12.3233C1.61224 12.2739 1.47613 12.3841 1.30969 12.4305C1.30361 12.223 1.6183 12.0915 1.84174 12.1652C1.97176 12.2173 2.08904 12.2968 2.18556 12.3984C2.28209 12.4999 2.35556 12.621 2.40107 12.7534C2.54809 13.0253 2.63444 13.3258 2.65416 13.6343C2.67666 14.1974 2.61601 14.7608 2.47409 15.3063C2.46725 15.3359 2.4292 15.3549 2.40868 15.3769Z" fill="#D7A066"/>
<path d="M5.7631 15.8231C5.769 15.9111 5.75248 15.9991 5.71495 16.0789C5.67743 16.1588 5.62014 16.2278 5.54861 16.2794C5.47708 16.331 5.39359 16.3636 5.30601 16.374C5.21842 16.3844 5.12967 16.3724 5.048 16.3391C5.16747 16.3334 5.28271 16.2934 5.38013 16.224C5.47755 16.1546 5.55306 16.0587 5.5975 15.9477C5.63018 15.8831 5.66278 15.8041 5.7631 15.8231Z" fill="#D7A066"/>
<path d="M4.67493 16.0032C4.61905 15.9401 4.57615 15.8665 4.54876 15.7867C4.52137 15.707 4.50997 15.6226 4.51527 15.5384C4.52057 15.4543 4.54248 15.3719 4.57966 15.2962C4.61683 15.2205 4.66854 15.1529 4.7319 15.0973C4.67743 15.396 4.65834 15.7001 4.67493 16.0032Z" fill="#D7A066"/>
<path d="M4.87313 14.1503C4.70596 13.893 4.55372 13.6263 4.41714 13.3516C4.55841 13.4309 4.67545 13.5471 4.75577 13.6878C4.83609 13.8285 4.87665 13.9884 4.87313 14.1503Z" fill="#D7A066"/>
<path d="M1.04121 22.9747C1.13089 23.1161 1.33835 23.1852 1.30339 23.4026C1.07387 23.3806 0.993333 23.2499 1.04121 22.9747Z" fill="#D7A066"/>
<path d="M4.95004 16.3034C4.89349 16.2961 4.84051 16.2716 4.79826 16.2333C4.75602 16.195 4.7265 16.1447 4.71365 16.0891C4.86033 16.0861 4.95764 16.1377 4.95004 16.3034Z" fill="#D7A066"/>
<path d="M1.30259 13.157C1.39607 13.233 1.3786 13.3272 1.32996 13.4207C1.21596 13.3432 1.22127 13.2543 1.30259 13.157Z" fill="#D7A066"/>
<path d="M4.89224 14.6078C4.86438 14.5794 4.84872 14.5412 4.84872 14.5014C4.84872 14.4616 4.86438 14.4234 4.89224 14.395C4.99256 14.4665 4.98496 14.5379 4.89224 14.6078Z" fill="#D7A066"/>
<path d="M4.76216 15.0585C4.73632 14.9688 4.78122 14.9263 4.86254 14.9065C4.94234 15.0334 4.87236 15.057 4.76216 15.0585Z" fill="#D7A066"/>
<path d="M1.36359 23.5097C1.43959 23.4922 1.47144 23.5226 1.46916 23.5971C1.39392 23.6192 1.34763 23.6009 1.36359 23.5097Z" fill="#D7A066"/>
<path d="M1.47627 23.604C1.55227 23.604 1.58341 23.6405 1.55225 23.7165C1.47017 23.7211 1.45347 23.6762 1.47627 23.604Z" fill="#D7A066"/>
<path d="M15.4637 16.3125C15.54 16.3048 15.6169 16.318 15.6862 16.3508C15.7556 16.3837 15.8146 16.4348 15.857 16.4987C15.8994 16.5626 15.9236 16.6369 15.9269 16.7135C15.9301 16.7901 15.9124 16.8662 15.8756 16.9335C15.7615 17.1343 15.7022 17.3616 15.7034 17.5925C15.7046 17.8235 15.7663 18.0501 15.8824 18.2498C15.9026 18.2825 15.9156 18.3191 15.9209 18.3571C15.9262 18.3952 15.9237 18.434 15.9132 18.471C15.9028 18.5079 15.8848 18.5423 15.8604 18.572C15.836 18.6017 15.8057 18.6261 15.7715 18.6435C15.4439 18.8605 15.1033 19.0572 14.7515 19.2325C14.6223 19.3039 14.5767 19.2226 14.5456 19.1291C14.501 18.9287 14.5279 18.719 14.6216 18.5363C14.7257 18.2452 14.8557 17.9526 14.56 17.6669C14.5141 17.5984 14.4874 17.5188 14.4827 17.4364C14.478 17.3541 14.4955 17.272 14.5334 17.1987C14.6336 16.8801 14.8275 16.5991 15.0898 16.3924C15.2016 16.3238 15.3336 16.2956 15.4637 16.3125Z" fill="black"/>
</svg>
