<svg width="23" height="22" viewBox="0 0 23 22" fill="none" xmlns="http://www.w3.org/2000/svg">
<path d="M11.8601 1C12.5601 1 13.1601 1.10001 13.8601 1.20001C14.4601 1.30001 15.1601 1.49999 15.7601 1.79999C16.3601 2.09999 16.9601 2.40001 17.4601 2.70001C17.9601 3.10001 18.5601 3.50002 18.9601 3.90002C19.3601 4.30002 19.8601 4.90002 20.1601 5.40002C20.5601 5.90002 20.8601 6.49998 21.0601 7.09998C21.3601 7.69998 21.4601 8.3 21.6601 9C21.7601 9.6 21.8601 10.3 21.8601 11C21.8601 11.7 21.7601 12.3 21.6601 13C21.5601 13.6 21.3601 14.3 21.0601 14.9C20.7601 15.5 20.4601 16.1 20.1601 16.6C19.7601 17.1 19.3601 17.7 18.9601 18.1C18.5601 18.5 17.9601 19 17.4601 19.3C16.9601 19.7 16.3601 20 15.7601 20.2C15.1601 20.4 14.5601 20.6 13.8601 20.8C13.2601 20.9 12.5601 21 11.8601 21C11.1601 21 10.5601 20.9 9.86011 20.8C9.26011 20.7 8.56011 20.5 7.96011 20.2C7.36011 19.9 6.7601 19.6 6.2601 19.3C5.7601 18.9 5.1601 18.5 4.7601 18.1C4.3601 17.7 3.8601 17.1 3.5601 16.6C3.1601 16.1 2.86011 15.5 2.66011 14.9C2.36011 14.3 2.2601 13.7 2.0601 13C1.9601 12.4 1.86011 11.7 1.86011 11C1.86011 10.3 1.9601 9.7 2.0601 9C2.1601 8.4 2.36011 7.69998 2.66011 7.09998C2.96011 6.49998 3.2601 5.90002 3.5601 5.40002C3.9601 4.90002 4.3601 4.30002 4.7601 3.90002C5.1601 3.50002 5.7601 3.00001 6.2601 2.70001C6.7601 2.30001 7.36011 1.99999 7.96011 1.79999C8.56011 1.59999 9.16011 1.40001 9.86011 1.20001C10.5601 1.10001 11.1601 1 11.8601 1Z" stroke="#999999" stroke-width="2" stroke-linecap="round" stroke-linejoin="round"/>
<path d="M11.76 15.1L15.86 11.1L11.76 7" stroke="#999999" stroke-width="2" stroke-linecap="round" stroke-linejoin="round"/>
<path d="M7.86011 11H15.8601" stroke="#999999" stroke-width="2" stroke-linecap="round" stroke-linejoin="round"/>
</svg>
