<svg width="22" height="22" viewBox="0 0 22 22" fill="none" xmlns="http://www.w3.org/2000/svg">
<path d="M11 1C11.7 1 12.3 1.10001 13 1.20001C13.6 1.30001 14.3 1.49999 14.9 1.79999C15.5 2.09999 16.1 2.40001 16.6 2.70001C17.1 3.10001 17.7 3.50002 18.1 3.90002C18.5 4.30002 19 4.90002 19.3 5.40002C19.7 5.90002 20 6.49998 20.2 7.09998C20.5 7.69998 20.6 8.3 20.8 9C20.9 9.6 21 10.3 21 11C21 11.7 20.9 12.3 20.8 13C20.7 13.6 20.5 14.3 20.2 14.9C19.9 15.5 19.6 16.1 19.3 16.6C18.9 17.1 18.5 17.7 18.1 18.1C17.7 18.5 17.1 19 16.6 19.3C16.1 19.7 15.5 20 14.9 20.2C14.3 20.4 13.7 20.6 13 20.8C12.4 20.9 11.7 21 11 21C10.3 21 9.7 20.9 9 20.8C8.4 20.7 7.70001 20.5 7.10001 20.2C6.50001 19.9 5.89999 19.6 5.39999 19.3C4.89999 18.9 4.29999 18.5 3.89999 18.1C3.49999 17.7 3 17.1 2.7 16.6C2.3 16.1 2 15.5 1.8 14.9C1.5 14.3 1.4 13.7 1.2 13C1.1 12.4 1 11.7 1 11C1 10.3 1.1 9.7 1.2 9C1.3 8.4 1.5 7.69998 1.8 7.09998C2.1 6.49998 2.4 5.90002 2.7 5.40002C3.1 4.90002 3.49999 4.30002 3.89999 3.90002C4.29999 3.50002 4.89999 3.00001 5.39999 2.70001C5.89999 2.30001 6.50001 1.99999 7.10001 1.79999C7.70001 1.59999 8.3 1.40001 9 1.20001C9.7 1.10001 10.3 1 11 1Z" stroke="#232323" stroke-width="2" stroke-linecap="round" stroke-linejoin="round"/>
<path d="M10.8999 15.1L14.9999 11.1L10.8999 7" stroke="#232323" stroke-width="2" stroke-linecap="round" stroke-linejoin="round"/>
<path d="M7 11H15" stroke="#232323" stroke-width="2" stroke-linecap="round" stroke-linejoin="round"/>
</svg>
