<svg width="42" height="42" viewBox="0 0 42 42" fill="none" xmlns="http://www.w3.org/2000/svg">
  <g clip-path="url(#clip0)">
    <path d="M39.923 0L23.5156 13.125L26.5667 5.39L39.923 0Z" fill="#E17726" stroke="#E17726" stroke-width="0.25" stroke-linecap="round" stroke-linejoin="round"/>
    <path d="M2.07715 0L18.3384 13.2475L15.4335 5.38999L2.07715 0Z" fill="#E27625" stroke="#E27625" stroke-width="0.25" stroke-linecap="round" stroke-linejoin="round"/>
    <path d="M34.0152 30.4323L29.6497 37.6423L38.9974 40.4248L41.6752 30.5899L34.0152 30.4323Z" fill="#E27625" stroke="#E27625" stroke-width="0.25" stroke-linecap="round" stroke-linejoin="round"/>
    <path d="M0.340576 30.5899L3.00208 40.4248L12.3337 37.6423L7.98432 30.4323L0.340576 30.5899Z" fill="#E27625" stroke="#E27625" stroke-width="0.25" stroke-linecap="round" stroke-linejoin="round"/>
    <path d="M11.8307 18.2525L9.23413 22.4875L18.4845 22.9425L18.1762 12.18L11.8307 18.2525Z" fill="#E27625" stroke="#E27625" stroke-width="0.25" stroke-linecap="round" stroke-linejoin="round"/>
    <path d="M30.1688 18.2526L23.7261 12.0576L23.5151 22.9426L32.7655 22.4876L30.1688 18.2526Z" fill="#E27625" stroke="#E27625" stroke-width="0.25" stroke-linecap="round" stroke-linejoin="round"/>
    <path d="M12.334 37.6424L17.9328 34.7199L13.113 30.6599L12.334 37.6424Z" fill="#E27625" stroke="#E27625" stroke-width="0.25" stroke-linecap="round" stroke-linejoin="round"/>
    <path d="M24.0671 34.7199L29.6498 37.6424L28.887 30.6599L24.0671 34.7199Z" fill="#E27625" stroke="#E27625" stroke-width="0.25" stroke-linecap="round" stroke-linejoin="round"/>
    <path d="M29.6498 37.6426L24.0671 34.7202L24.5215 38.6401L24.4728 40.3026L29.6498 37.6426Z" fill="#D5BFB2" stroke="#D5BFB2" stroke-width="0.25" stroke-linecap="round" stroke-linejoin="round"/>
    <path d="M12.334 37.6426L17.5272 40.3026L17.4947 38.6401L17.9328 34.7202L12.334 37.6426Z" fill="#D5BFB2" stroke="#D5BFB2" stroke-width="0.25" stroke-linecap="round" stroke-linejoin="round"/>
    <path d="M17.6244 28.07L12.9829 26.6L16.2611 24.9725L17.6244 28.07Z" fill="#233447" stroke="#233447" stroke-width="0.25" stroke-linecap="round" stroke-linejoin="round"/>
    <path d="M24.3755 28.07L25.7388 24.9725L29.0332 26.6L24.3755 28.07Z" fill="#233447" stroke="#233447" stroke-width="0.25" stroke-linecap="round" stroke-linejoin="round"/>
    <path d="M12.3339 37.6423L13.1454 30.4323L7.98462 30.5899L12.3339 37.6423Z" fill="#CC6228" stroke="#CC6228" stroke-width="0.25" stroke-linecap="round" stroke-linejoin="round"/>
    <path d="M28.8545 30.4323L29.6497 37.6423L34.0153 30.5899L28.8545 30.4323Z" fill="#CC6228" stroke="#CC6228" stroke-width="0.25" stroke-linecap="round" stroke-linejoin="round"/>
    <path d="M32.7655 22.4874L23.5151 22.9424L24.3752 28.07L25.7385 24.9724L29.0329 26.5999L32.7655 22.4874Z" fill="#CC6228" stroke="#CC6228" stroke-width="0.25" stroke-linecap="round" stroke-linejoin="round"/>
    <path d="M12.983 26.5999L16.2612 24.9724L17.6244 28.07L18.4845 22.9424L9.23413 22.4874L12.983 26.5999Z" fill="#CC6228" stroke="#CC6228" stroke-width="0.25" stroke-linecap="round" stroke-linejoin="round"/>
    <path d="M9.23438 22.4874L13.1131 30.6599L12.9832 26.5999L9.23438 22.4874Z" fill="#E27525" stroke="#E27525" stroke-width="0.25" stroke-linecap="round" stroke-linejoin="round"/>
    <path d="M29.0332 26.5999L28.8872 30.6599L32.7659 22.4874L29.0332 26.5999Z" fill="#E27525" stroke="#E27525" stroke-width="0.25" stroke-linecap="round" stroke-linejoin="round"/>
    <path d="M18.485 22.9424L17.6248 28.07L18.7121 34.1249L18.9555 26.1449L18.485 22.9424Z" fill="#E27525" stroke="#E27525" stroke-width="0.25" stroke-linecap="round" stroke-linejoin="round"/>
    <path d="M23.5155 22.9424L23.061 26.1275L23.2883 34.1249L24.3756 28.07L23.5155 22.9424Z" fill="#E27525" stroke="#E27525" stroke-width="0.25" stroke-linecap="round" stroke-linejoin="round"/>
    <path d="M24.3756 28.0701L23.2883 34.125L24.0673 34.72L28.8873 30.66L29.0334 26.6L24.3756 28.0701Z" fill="#F5841F" stroke="#F5841F" stroke-width="0.25" stroke-linecap="round" stroke-linejoin="round"/>
    <path d="M12.9829 26.6L13.1128 30.66L17.9327 34.72L18.7117 34.125L17.6244 28.0701L12.9829 26.6Z" fill="#F5841F" stroke="#F5841F" stroke-width="0.25" stroke-linecap="round" stroke-linejoin="round"/>
    <path d="M24.4731 40.3025L24.5217 38.64L24.0999 38.255H17.9005L17.4947 38.64L17.5272 40.3025L12.334 37.6425L14.1516 39.2525L17.8355 42H24.1484L27.8486 39.2525L29.65 37.6425L24.4731 40.3025Z" fill="#C0AC9D" stroke="#C0AC9D" stroke-width="0.25" stroke-linecap="round" stroke-linejoin="round"/>
    <path d="M24.0673 34.7199L23.2882 34.125H18.7117L17.9329 34.7199L17.4946 38.64L17.9004 38.255H24.0997L24.5217 38.64L24.0673 34.7199Z" fill="#161616" stroke="#161616" stroke-width="0.25" stroke-linecap="round" stroke-linejoin="round"/>
    <path d="M40.6204 13.9824L41.9999 6.73749L39.9226 0L24.0671 12.6875L30.1691 18.2525L38.7865 20.965L40.6853 18.5675L39.8577 17.92L41.1722 16.625L40.166 15.785L41.4806 14.7L40.6204 13.9824Z" fill="#763E1A" stroke="#763E1A" stroke-width="0.25" stroke-linecap="round" stroke-linejoin="round"/>
    <path d="M0 6.73749L1.39567 13.9824L0.503097 14.7L1.83385 15.785L0.827668 16.625L2.14219 17.92L1.31453 18.5675L3.2133 20.965L11.8308 18.2525L17.9328 12.6875L2.07728 0L0 6.73749Z" fill="#763E1A" stroke="#763E1A" stroke-width="0.25" stroke-linecap="round" stroke-linejoin="round"/>
    <path d="M38.7867 20.9649L30.1693 18.2525L32.7659 22.4875L28.8872 30.6599L34.0155 30.59H41.6754L38.7867 20.9649Z" fill="#F5841F" stroke="#F5841F" stroke-width="0.25" stroke-linecap="round" stroke-linejoin="round"/>
    <path d="M11.8305 18.2525L3.21306 20.9649L0.340576 30.59H7.98432L13.1126 30.6599L9.23394 22.4875L11.8305 18.2525Z" fill="#F5841F" stroke="#F5841F" stroke-width="0.25" stroke-linecap="round" stroke-linejoin="round"/>
    <path d="M23.5153 22.9426L24.0671 12.6875L26.5662 5.38998H15.4333L17.9325 12.6875L18.4843 22.9426L18.6953 26.1626L18.7115 34.1252H23.288L23.3043 26.1626L23.5153 22.9426Z" fill="#F5841F" stroke="#F5841F" stroke-width="0.25" stroke-linecap="round" stroke-linejoin="round"/>
  </g>
  <defs>
    <clipPath id="clip0">
      <rect width="42" height="42" fill="white"/>
    </clipPath>
  </defs>
</svg>
