<svg width="24" height="24" viewBox="0 0 24 24" fill="none" xmlns="http://www.w3.org/2000/svg">
<path d="M20 3V2H21V3H20ZM10.7071 13.7071C10.3166 14.0976 9.68342 14.0976 9.29289 13.7071C8.90237 13.3166 8.90237 12.6834 9.29289 12.2929L10.7071 13.7071ZM19 11V3H21V11H19ZM20 4H12V2H20V4ZM20.7071 3.70711L10.7071 13.7071L9.29289 12.2929L19.2929 2.29289L20.7071 3.70711Z" fill="#EFBE41"/>
<path d="M19 15V15C19 16.8692 19 17.8038 18.5981 18.5C18.3348 18.9561 17.9561 19.3348 17.5 19.5981C16.8038 20 15.8692 20 14 20H9C6.17157 20 4.75736 20 3.87868 19.1213C3 18.2426 3 16.8284 3 14V9C3 7.13077 3 6.19615 3.40192 5.5C3.66523 5.04394 4.04394 4.66523 4.5 4.40192C5.19615 4 6.13077 4 8 4V4" stroke="#EFBE41" stroke-width="2" stroke-linecap="round"/>
</svg>
