<svg width="19" height="14" viewBox="0 0 19 14" fill="none" xmlns="http://www.w3.org/2000/svg">
<path d="M14.818 3.293L11.525 6.586H13.995C13.9939 7.89558 13.4732 9.15121 12.5472 10.0772C11.6212 11.0032 10.3656 11.5239 9.056 11.525C8.25171 11.5278 7.45944 11.3298 6.751 10.949L5.551 12.149C6.54603 12.7796 7.69221 13.1312 8.86967 13.1671C10.0471 13.203 11.2126 12.9219 12.2442 12.3531C13.2758 11.7843 14.1356 10.9487 14.7337 9.93384C15.3318 8.91896 15.6462 7.762 15.644 6.584H18.114L14.818 3.293ZM4.118 6.586C4.11906 5.27642 4.63976 4.02078 5.56577 3.09477C6.49178 2.16875 7.74742 1.64806 9.057 1.647C9.86129 1.64421 10.6536 1.84219 11.362 2.223L12.562 1.023C11.5671 0.39277 10.4212 0.041366 9.2441 0.00551875C8.06696 -0.0303285 6.9018 0.250698 5.87043 0.819219C4.83906 1.38774 3.97935 2.22288 3.38116 3.23734C2.78298 4.25179 2.46829 5.40831 2.47 6.586H0L3.293 9.879L6.586 6.586H4.118Z" fill="white"/>
</svg>
