<svg width="24" height="24" viewBox="0 0 24 24" fill="none" xmlns="http://www.w3.org/2000/svg">
<path fill-rule="evenodd" clip-rule="evenodd" d="M5.30664 16.3821C5.64501 16.899 6.04379 17.3775 6.49667 17.8067C7.61887 18.8703 9.02523 19.586 10.5456 19.8671C12.066 20.1482 13.6353 19.9826 15.0636 19.3905C16.4919 18.7984 17.718 17.8051 18.5936 16.5308C19.4692 15.2564 19.9567 13.7557 19.9972 12.21C20.0378 10.6644 19.6295 9.14014 18.8219 7.82167C18.0143 6.5032 16.8419 5.44701 15.4466 4.78089C14.5023 4.33008 13.4832 4.07101 12.4479 4.01294L13.0031 6.08484C13.5482 6.17728 14.0808 6.34509 14.5849 6.58577C15.6314 7.08536 16.5107 7.8775 17.1164 8.86635C17.7221 9.8552 18.0283 10.9984 17.9979 12.1576C17.9675 13.3168 17.6019 14.4424 16.9452 15.3982C16.2885 16.3539 15.3689 17.0989 14.2977 17.543C13.2265 17.9871 12.0495 18.1112 10.9092 17.9004C9.76892 17.6896 8.71415 17.1529 7.8725 16.3551C7.69677 16.1886 7.53189 16.0121 7.37854 15.8269L5.30664 16.3821Z" fill="#EFBE41"/>
<path d="M5.91239 4.06647C6.68924 3.47037 7.54796 2.99272 8.46042 2.64739C8.87978 2.48868 9.08946 2.40932 9.28694 2.51053C9.48442 2.61174 9.54649 2.84338 9.67063 3.30667L11.7412 11.0341C11.8632 11.4894 11.9242 11.7171 11.8206 11.8964C11.7171 12.0758 11.4894 12.1368 11.0341 12.2588L3.30667 14.3294C2.84338 14.4535 2.61174 14.5156 2.42535 14.3952C2.23896 14.2747 2.20284 14.0535 2.13061 13.6109C1.97344 12.6481 1.95774 11.6656 2.08555 10.6947C2.25696 9.39275 2.68314 8.13728 3.33975 7C3.99636 5.86272 4.87054 4.8659 5.91239 4.06647Z" stroke="#EFBE41" stroke-width="2"/>
</svg>
