<svg xmlns="http://www.w3.org/2000/svg" width="33.333" height="33.333" viewBox="0 0 33.333 33.333">
  <g id="Dark_Mode" transform="translate(-3763 -1248)">
    <g id="Group_3246" data-name="Group 3246" transform="translate(-2601 1369)">
      <g id="Group_3245" data-name="Group 3245" transform="translate(-0.333 -0.333)">
        <g id="More_Square" data-name="More Square" transform="translate(6364.333 -120.667)">
          <path id="More_Square-2" data-name="More Square" d="M23.9,33.333H9.45C3.8,33.333,0,29.375,0,23.484V9.867C0,3.965,3.8,0,9.45,0H23.9c5.642,0,9.434,3.965,9.434,9.867V23.484C33.333,29.375,29.542,33.333,23.9,33.333Zm.234-18.664a2,2,0,1,0,1.983,2A2,2,0,0,0,24.133,14.669Zm-7.467,0a2,2,0,1,0,2,2A2,2,0,0,0,16.667,14.669Zm-7.467,0a2,2,0,1,0,2,2A2,2,0,0,0,9.2,14.669Z" transform="translate(0 0)" fill="#f7bd01"/>
        </g>
        <rect id="Rectangle_149" data-name="Rectangle 149" width="23" height="15" transform="translate(6371 -111)" fill="#f7bd01"/>
      </g>
    </g>
    <path id="Path_8582" data-name="Path 8582" d="M0,0H16V16H0Z" transform="translate(3774 1256)" fill="none"/>
    <path id="Path_8583" data-name="Path 8583" d="M9.675,8.667a5.652,5.652,0,0,1,3.54-5.247.671.671,0,0,0-.127-1.267,6.666,6.666,0,1,0-1.413,13.18,6.6,6.6,0,0,0,1.413-.153.669.669,0,0,0,.133-1.267A5.64,5.64,0,0,1,9.675,8.667Z" transform="translate(3769.995 1255.999)" fill="#434343"/>
  </g>
</svg>
