<svg xmlns="http://www.w3.org/2000/svg" width="22.712" height="30.493" viewBox="0 0 22.712 30.493">
  <g id="Group_3200" data-name="Group 3200" transform="translate(0 0)">
    <g id="Group_3199" data-name="Group 3199" transform="translate(0 0)">
      <g id="Group_3197" data-name="Group 3197">
        <path id="Path_2" data-name="Path 2" d="M1347.288,463.586l-.174.034a4.726,4.726,0,0,0-1.234.49l-.113.021c-.1-.065-.183.013-.264.054-.185.093-.4.126-.572.208a8.06,8.06,0,0,0-.941.319,2.332,2.332,0,0,1-.93.329,3.138,3.138,0,0,0-.952.343c-.35.169-.729.229-1.079.391a4.5,4.5,0,0,1-.942.364,2.487,2.487,0,0,0-.515.19,2.417,2.417,0,0,0-.6.357,1.594,1.594,0,0,0-.5,1.247q.014,6.662,0,13.323c0,.472-.1.589-.556.662a2.765,2.765,0,0,1-.371.037,8.17,8.17,0,0,1-2.129-.226c-.428-.1-.839-.257-1.26-.374a2.876,2.876,0,0,1-.68-.265c-.529-.311-1.088-.562-1.611-.888a13.985,13.985,0,0,1-1.272-.9,7.163,7.163,0,0,1-1.25-1.33,2.429,2.429,0,0,1-.536-1.52q.012-6.921,0-13.842a1.083,1.083,0,0,1,1.13-1.194c1.553-.06,3.11-.033,4.663-.114.333-.017.378.046.379.387,0,.567-.011,1.135,0,1.7.016.624.1.817.8,1a2.579,2.579,0,0,0,1.375-.02.751.751,0,0,0,.669-.823c0-.644,0-1.288,0-1.932,0-.408.035-.435.448-.442q1.34-.022,2.679-.049,1.613-.03,3.226-.06c.4-.007.435.03.435.418,0,.154,0,.308,0,.461a.882.882,0,0,0,.511.671,2.721,2.721,0,0,0,1.908.018.665.665,0,0,0,.53-.679c0-.25.014-.5,0-.75s.088-.317.32-.312c.509.011,1.019.013,1.528,0a5.487,5.487,0,0,1,1.251.3c.114.022.2.136.3.2a.4.4,0,0,1-.116.65c-.254.1-.509.208-.752.32a7.1,7.1,0,0,0-1.108.466c-.365.248-.832.313-1.214.547l-.12.044A.843.843,0,0,0,1347.288,463.586Zm-17.123,14.146c-.025.081-.006.13.089.126l.15.158c-.061.139.037.208.121.289a8.023,8.023,0,0,0,1.471,1.183,9.019,9.019,0,0,0,1.483.842,23.116,23.116,0,0,0,2.249.787,5.273,5.273,0,0,0,1.435.194c.673-.016.708-.056.708-.72q0-3.819,0-7.638c0-.394-.1-.463-.471-.328a.583.583,0,0,1-.834-.358,4.33,4.33,0,0,1-.25-.778c-.073-.379.133-.727.006-1.085a.16.16,0,0,1,.032-.107,1.706,1.706,0,0,0,.191-.929.946.946,0,0,1,.084-.5.711.711,0,0,0,.059-.584,2.8,2.8,0,0,1-.107-.674.96.96,0,0,0-.444-.708.524.524,0,0,0-.644-.02,1.814,1.814,0,0,0-.547.993.085.085,0,0,0,.05.117q-.014.516-.03,1.031c-.112-.021-.146.067-.185.139a.7.7,0,0,1-.615.439l-.11-.039c.009-.186-.1-.244-.264-.24l-.043-.1a4.359,4.359,0,0,1,.063-1.014.341.341,0,0,1,.034-.043c.12,0,.2-.028.113-.169.011-.112.021-.225.033-.337.1-.079.113-.158,0-.238-.007-.091-.015-.182-.022-.273a1,1,0,0,0-.51-.895c-.011-.015-.022-.03-.032-.046a.726.726,0,0,0-.565-.345.936.936,0,0,0-.924.864c-.01.708-.013,1.417.009,2.124.008.248-.178.332-.309.438s-.186-.108-.282-.168c-.047-.029-.077-.087-.143-.082q0-.259,0-.518c.025-.025.066-.046.074-.076a6.425,6.425,0,0,0,.2-1.876,2.386,2.386,0,0,0-.284-.986,1.091,1.091,0,0,0-.626-.659c-.248-.083-.6.064-.594.3a5.244,5.244,0,0,0-.01.815c-.092.109-.1.209.03.3a.61.61,0,0,1-.127.594c-.265.008-.359.18-.363.408-.009.432,0,.864,0,1.3q0,3.96,0,7.921c0,.134-.083.324.147.378l.018.1c-.054.308.036.455.293.479l.067.12c-.018.1.032.123.119.1Z" transform="translate(-1328.651 -451.663)" fill="#f7bd01"/>
        <path id="Path_3" data-name="Path 3" d="M1346.4,312.137a7.093,7.093,0,0,1,1.108-.466c.243-.113.5-.22.752-.32a.4.4,0,0,0,.116-.651c-.1-.069-.187-.182-.3-.2a5.5,5.5,0,0,0-1.252-.3c-.509.016-1.019.013-1.528,0-.231,0-.337.065-.32.312s0,.5,0,.749a.664.664,0,0,1-.531.679,2.721,2.721,0,0,1-1.908-.018.88.88,0,0,1-.511-.671c0-.154,0-.308,0-.461,0-.388-.035-.425-.435-.418q-1.614.028-3.226.06-1.339.025-2.679.048c-.413.007-.446.034-.448.442,0,.644,0,1.288,0,1.932a.751.751,0,0,1-.668.823,2.581,2.581,0,0,1-1.375.02c-.7-.185-.787-.378-.8-1-.015-.567,0-1.134,0-1.7,0-.341-.046-.4-.379-.387-1.553.081-3.109.054-4.663.114a1.084,1.084,0,0,0-1.13,1.194q0,6.921,0,13.842a2.428,2.428,0,0,0,.536,1.52,7.18,7.18,0,0,0,1.25,1.33,14.009,14.009,0,0,0,1.273.9c.523.326,1.082.577,1.61.888a2.9,2.9,0,0,0,.681.265c.421.116.832.27,1.26.374a8.176,8.176,0,0,0,2.129.226,2.746,2.746,0,0,0,.372-.037c.455-.072.556-.19.556-.662q0-6.662,0-13.323a1.6,1.6,0,0,1,.5-1.247,2.421,2.421,0,0,1,.6-.357,2.49,2.49,0,0,1,.514-.19,4.487,4.487,0,0,0,.942-.364c.35-.162.729-.222,1.079-.391a3.144,3.144,0,0,1,.952-.343,2.328,2.328,0,0,0,.93-.329,8.028,8.028,0,0,1,.941-.319c.167-.082.386-.115.571-.208.081-.041.159-.119.264-.054a.2.2,0,0,1-.174.2c-.306.05-.559.235-.874.288a5.387,5.387,0,0,0-.96.4,1.784,1.784,0,0,1-.365.143,3.13,3.13,0,0,0-.9.339c-.325.164-.679.229-1.01.376-.382.17-.78.319-1.177.456-.28.1-.549.214-.824.316a1.287,1.287,0,0,0-.443.3,1.061,1.061,0,0,0-.29.86q0,5.293,0,10.585c0,.894,0,1.788,0,2.682a.917.917,0,0,1-.813.992,5.819,5.819,0,0,1-2.411-.159c-.773-.126-1.48-.49-2.248-.648a2.3,2.3,0,0,1-.676-.35c-.769-.471-1.453-1.068-2.2-1.568a5.367,5.367,0,0,1-1.711-2.115.7.7,0,0,1-.042-.34q0-7.283,0-14.565a.927.927,0,0,1,.545-.829,2.28,2.28,0,0,1,1.1-.253c1.456-.079,2.909-.216,4.369-.178.219.006.279-.092.275-.3-.011-.577,0-1.154-.006-1.731a6.661,6.661,0,0,1,.508-2.655,7.832,7.832,0,0,1,3.127-3.685,6.62,6.62,0,0,1,3.959-1.029,4.883,4.883,0,0,1,1.81.413,5.208,5.208,0,0,1,1.823,1.3,4.9,4.9,0,0,1,.807,1.137,5.262,5.262,0,0,1,.6,1.862c.08,1.345.021,2.69.044,4.034.006.33.086.38.425.344a6.491,6.491,0,0,1,2.232.1,1.512,1.512,0,0,1,.948.488.421.421,0,0,1,0,.625,2.163,2.163,0,0,1-1.075.618c-.4.148-.786.311-1.181.46-.33.124-6.147,2.3-6.469,2.451-.04.018,1.739-.86,3.693-1.67C1344.428,312.8,1346.288,312.213,1346.4,312.137Zm-4.415-4.21h0c0-.558-.016-1.116,0-1.672a2.085,2.085,0,0,0-.7-1.606,2.748,2.748,0,0,0-2.95-.471,4.55,4.55,0,0,0-2.025,1.457,3.924,3.924,0,0,0-.882,1.743,15.524,15.524,0,0,0-.088,2.586c0,.356.012.368.378.364,1.064-.013,2.128-.023,3.192-.1.9-.069,1.8-.062,2.705-.073.272,0,.376-.1.371-.378C1341.975,309.158,1341.984,308.542,1341.984,307.927Z" transform="translate(-1326.053 -300.972)" fill="#f7bd01"/>
        <path id="Path_4" data-name="Path 4" d="M1511.963,562.23c0-.711,0-1.423,0-2.134a2.535,2.535,0,0,1,.071-.482c.07-.391.45-.415.707-.555.44-.241.92-.41,1.384-.606a3.67,3.67,0,0,1,.348-.131,3.455,3.455,0,0,0,.671-.307c.573-.319,1.2-.546,1.8-.816s1.226-.564,1.839-.843c.444-.2.889-.4,1.333-.6.547-.247,1.092-.5,1.642-.741.479-.209.96-.413,1.447-.6.208-.082.347.051.419.231a.94.94,0,0,1,.047.339c0,1.125,0,2.25.005,3.374a.467.467,0,0,1-.24.444c-.67.441-1.4.771-2.094,1.171-.75.433-1.5.874-2.269,1.263-.842.424-1.658.895-2.486,1.344-.684.371-1.366.75-2.04,1.14a10.356,10.356,0,0,1-1.234.641c-.3.124-.533.393-.875.462-.325.065-.465-.03-.467-.371,0-.74,0-1.481,0-2.221Zm6.449-4.559a.644.644,0,0,0-.422.089,1.867,1.867,0,0,0-.624.9.517.517,0,0,0,.031.525c.331.319.186.647.069.973a.985.985,0,0,0-.083.664c.035.1.086.2.231.116a10.754,10.754,0,0,0,1.142-.659.312.312,0,0,0,.125-.44,1.48,1.48,0,0,1-.008-1.474A.471.471,0,0,0,1518.412,557.671Z" transform="translate(-1501.235 -539.767)" fill="#f7bd01"/>
        <path id="Path_5" data-name="Path 5" d="M1511.91,498.451c0-.356-.016-.712,0-1.066a.809.809,0,0,1,.519-.8c.728-.312,1.47-.591,2.2-.9.494-.211,1.013-.388,1.51-.6.7-.3,1.412-.572,2.118-.853a12.085,12.085,0,0,1,1.594-.623,3.7,3.7,0,0,0,.629-.274c.512-.231,1.047-.406,1.558-.642.392-.181.811-.325,1.221-.474.192-.07.34.1.344.291.013.711.017,1.422,0,2.133-.007.261-.258.346-.457.425-.739.3-1.45.652-2.177.971-.462.2-.927.407-1.393.606-.666.285-1.311.618-1.983.886-.478.19-.937.419-1.4.636-.663.312-1.348.571-2,.9-.412.21-.85.384-1.282.56-.169.069-.331.145-.495.225-.294.143-.493.019-.5-.308C1511.9,499.181,1511.91,498.816,1511.91,498.451Z" transform="translate(-1501.182 -481.169)" fill="#f7bd01"/>
        <path id="Path_6" data-name="Path 6" d="M1511.927,653.376a9.852,9.852,0,0,1,.045-1.372.432.432,0,0,1,.245-.318c.5-.277.958-.627,1.47-.87.423-.2.814-.452,1.233-.656.493-.241.96-.537,1.441-.8.533-.3,1.077-.573,1.6-.881.409-.238.831-.454,1.241-.689.352-.2.721-.381,1.078-.58.557-.311,1.117-.618,1.679-.916a6.629,6.629,0,0,1,1.425-.712c.145-.037.194.026.2.124.006.666.028,1.333-.018,2-.018.253-.333.349-.54.478-.484.3-.951.634-1.441.922a3.1,3.1,0,0,1-1.115.617c-.153.021-.183.207-.311.284-.481.29-.951.6-1.426.9-.74.467-1.482.929-2.22,1.4q-.9.576-1.8,1.169c-.6.4-1.233.753-1.824,1.172-.177.126-.367.238-.553.354-.222.139-.4.037-.407-.228C1511.92,654.333,1511.927,653.9,1511.927,653.376Z" transform="translate(-1501.198 -625.687)" fill="#f7bd01"/>
        <path id="Path_10" data-name="Path 10" d="M1356.134,574.162c.392.329.768.679,1.178.984a9.209,9.209,0,0,0,2.1,1.206,4.569,4.569,0,0,1,.49.233,7.024,7.024,0,0,0,1.163.385,5.482,5.482,0,0,0,2.083.327c.218-.013.288-.109.29-.3,0-.058,0-.115,0-.173q0-3.775,0-7.55c0-.067,0-.135,0-.2,0-.046,0-.1-.049-.126s-.079.027-.114.055a.657.657,0,0,1-.8-.026,1.146,1.146,0,0,1-.578-1c0-.094-.085-.147-.124-.221a.98.98,0,0,1,.015-.887,1.107,1.107,0,0,0,.12-.458,6.332,6.332,0,0,1,.184-1.15,1.9,1.9,0,0,0-.1-1.449.361.361,0,0,1-.042-.166c-.016-.26-.185-.36-.412-.389a.475.475,0,0,0-.479.294c-.114.192-.223.388-.334.581a.085.085,0,0,1-.05-.117,1.814,1.814,0,0,1,.547-.993.523.523,0,0,1,.644.02.96.96,0,0,1,.445.708,2.773,2.773,0,0,0,.106.674.711.711,0,0,1-.059.584.948.948,0,0,0-.084.505,1.7,1.7,0,0,1-.192.929.156.156,0,0,0-.031.107c.126.357-.08.706-.006,1.085a4.3,4.3,0,0,0,.25.778.584.584,0,0,0,.835.359c.369-.135.471-.066.471.328q0,3.819,0,7.638c0,.664-.034.7-.707.72a5.29,5.29,0,0,1-1.435-.194,23.2,23.2,0,0,1-2.249-.787,9.044,9.044,0,0,1-1.483-.842,8.063,8.063,0,0,1-1.471-1.184C1356.171,574.37,1356.073,574.3,1356.134,574.162Z" transform="translate(-1354.38 -547.81)" fill="#d7a066"/>
        <path id="Path_11" data-name="Path 11" d="M1341.142,565.492a1.173,1.173,0,0,0-.182.806q.007,4.489,0,8.979c0,.073.032.154-.034.218-.23-.054-.147-.243-.147-.378q-.007-3.961,0-7.921c0-.432-.007-.864,0-1.3C1340.783,565.672,1340.877,565.5,1341.142,565.492Z" transform="translate(-1339.917 -550.231)" fill="#d7a066"/>
        <path id="Path_12" data-name="Path 12" d="M1372.594,547.37a.863.863,0,0,1-.353-.1.715.715,0,0,0-1,.678,6.171,6.171,0,0,0,.034,1.487,1.772,1.772,0,0,1-.131.952.354.354,0,0,1-.45.209c-.187-.048-.346-.153-.314-.393.067-.005.1.054.143.083.1.06.155.272.283.168s.316-.19.308-.438c-.022-.708-.018-1.416-.008-2.124a.936.936,0,0,1,.924-.864A.725.725,0,0,1,1372.594,547.37Z" transform="translate(-1367.818 -532.828)" fill="#d7a066"/>
        <path id="Path_13" data-name="Path 13" d="M1350.358,534.026a1.381,1.381,0,0,1,.052-.786,3.277,3.277,0,0,0-.118-1.966.885.885,0,0,0-.594-.667c-.23-.055-.382.069-.568.12-.006-.232.346-.379.594-.3a1.093,1.093,0,0,1,.626.659,2.4,2.4,0,0,1,.283.986,6.416,6.416,0,0,1-.2,1.876C1350.423,533.98,1350.384,534,1350.358,534.026Z" transform="translate(-1347.799 -517.17)" fill="#d7a066"/>
        <path id="Path_14" data-name="Path 14" d="M1422.435,601.754a.582.582,0,0,1-.8.577.7.7,0,0,0,.615-.438C1422.288,601.82,1422.323,601.733,1422.435,601.754Z" transform="translate(-1416.12 -584.398)" fill="#d7a066"/>
        <path id="Path_15" data-name="Path 15" d="M1411.441,588.741a.717.717,0,0,1,.064-1.015A4.336,4.336,0,0,0,1411.441,588.741Z" transform="translate(-1406.344 -571.183)" fill="#d7a066"/>
        <path id="Path_16" data-name="Path 16" d="M1409.911,554.737a9.032,9.032,0,0,1-.51-.895A1,1,0,0,1,1409.911,554.737Z" transform="translate(-1404.592 -539.253)" fill="#d7a066"/>
        <path id="Path_17" data-name="Path 17" d="M1343.639,740.609c.1.158.333.236.294.479C1343.675,741.064,1343.585,740.917,1343.639,740.609Z" transform="translate(-1342.61 -715.245)" fill="#d7a066"/>
        <path id="Path_18" data-name="Path 18" d="M1415.416,607.214a.313.313,0,0,1-.264-.24C1415.315,606.97,1415.424,607.027,1415.416,607.214Z" transform="translate(-1410.011 -589.319)" fill="#d7a066"/>
        <path id="Path_19" data-name="Path 19" d="M1347.854,550.072c.1.089.084.19.031.3C1347.757,550.281,1347.763,550.181,1347.854,550.072Z" transform="translate(-1346.533 -535.701)" fill="#d7a066"/>
        <path id="Path_20" data-name="Path 20" d="M1417.812,574.324a.168.168,0,0,1,0-.238C1417.925,574.166,1417.917,574.246,1417.812,574.324Z" transform="translate(-1412.472 -558.329)" fill="#d7a066"/>
        <path id="Path_21" data-name="Path 21" d="M1415.953,584.223c-.029-.1.022-.148.112-.169C1416.155,584.195,1416.073,584.221,1415.953,584.223Z" transform="translate(-1410.759 -567.723)" fill="#d7a066"/>
        <path id="Path_22" data-name="Path 22" d="M1350.059,750.914c.082-.019.121.015.119.1C1350.091,751.037,1350.041,751.016,1350.059,750.914Z" transform="translate(-1348.671 -724.951)" fill="#d7a066"/>
        <path id="Path_23" data-name="Path 23" d="M1352.138,752.828c.087,0,.12.041.089.126C1352.131,752.959,1352.112,752.909,1352.138,752.828Z" transform="translate(-1350.623 -726.76)" fill="#d7a066"/>
        <path id="Path_25" data-name="Path 25" d="M1605.807,611.234a.471.471,0,0,1,.461.7,1.479,1.479,0,0,0,.008,1.474.312.312,0,0,1-.125.441,10.769,10.769,0,0,1-1.142.659c-.145.08-.2-.011-.231-.116a.984.984,0,0,1,.083-.664c.117-.326.262-.654-.069-.973a.516.516,0,0,1-.03-.525,1.862,1.862,0,0,1,.623-.9A.642.642,0,0,1,1605.807,611.234Z" transform="translate(-1588.63 -593.33)" fill="#fff"/>
      </g>
      <path id="Path_26" data-name="Path 26" d="M-.978-12.6,7.43-10.066,7.906,4.916,3.225,4.11-1.038.925Z" transform="translate(1.788 25.022)" fill="#f7bd01"/>
    </g>
  </g>
</svg>
