<svg id="Lock_white" xmlns="http://www.w3.org/2000/svg" width="30.021" height="30.021" viewBox="0 0 30.021 30.021">
  <g id="Lock" transform="translate(4.183 3.142)">
    <path id="Lock-2" data-name="Lock" d="M16.22,24.988H5.438A5.336,5.336,0,0,1,0,19.773V13.6A5.218,5.218,0,0,1,3.793,8.657V6.742A6.908,6.908,0,0,1,10.809,0,7.177,7.177,0,0,1,15.8,1.974a6.554,6.554,0,0,1,2.062,4.768V8.657A5.218,5.218,0,0,1,21.656,13.6v6.169A5.336,5.336,0,0,1,16.22,24.988Zm-5.4-10.765A1.105,1.105,0,0,0,9.7,15.3V18.06a1.133,1.133,0,0,0,2.264,0V15.3A1.112,1.112,0,0,0,10.822,14.224Zm.013-12.051A4.686,4.686,0,0,0,6.058,6.717V8.389H15.6V6.742A4.675,4.675,0,0,0,10.835,2.173Z" transform="translate(0)" fill="#fff"/>
  </g>
</svg>
