<svg xmlns="http://www.w3.org/2000/svg" width="46" height="46" viewBox="0 0 46 46">
  <g id="lock_yellow" transform="translate(-10951 -6691.779)">
    <circle id="Ellipse_83" data-name="Ellipse 83" cx="23" cy="23" r="23" transform="translate(10951 6691.779)" fill="#f7bd01" opacity="0.2"/>
    <g id="Group_4119" data-name="Group 4119" transform="translate(10965 6702.779)">
      <g id="Group_3197" data-name="Group 3197">
        <path id="Path_2" data-name="Path 2" d="M1343.312,463.005l-.137.027a3.706,3.706,0,0,0-.968.385l-.089.017c-.082-.051-.144.01-.207.042-.145.073-.317.1-.448.163a6.341,6.341,0,0,0-.738.25,1.83,1.83,0,0,1-.73.258,2.463,2.463,0,0,0-.747.269c-.275.132-.572.179-.846.306a3.533,3.533,0,0,1-.739.285,1.957,1.957,0,0,0-.4.149,1.9,1.9,0,0,0-.473.28,1.251,1.251,0,0,0-.39.979q.011,5.228,0,10.456c0,.37-.08.462-.437.519a2.169,2.169,0,0,1-.291.029,6.411,6.411,0,0,1-1.671-.177c-.336-.082-.658-.2-.989-.293a2.251,2.251,0,0,1-.534-.208c-.415-.244-.854-.441-1.265-.7a11.014,11.014,0,0,1-1-.707,5.622,5.622,0,0,1-.981-1.044,1.907,1.907,0,0,1-.421-1.193q.01-5.432,0-10.864a.85.85,0,0,1,.887-.937c1.219-.047,2.44-.026,3.66-.09.261-.014.3.036.3.3,0,.445-.009.89,0,1.335.012.489.078.641.63.786a2.024,2.024,0,0,0,1.079-.016.59.59,0,0,0,.525-.646c0-.505,0-1.011,0-1.516,0-.32.027-.341.351-.347q1.052-.017,2.1-.038l2.532-.047c.314-.005.342.024.342.328,0,.121,0,.242,0,.362a.692.692,0,0,0,.4.527,2.135,2.135,0,0,0,1.5.014.522.522,0,0,0,.416-.533c0-.2.011-.393,0-.588s.069-.249.251-.245c.4.008.8.01,1.2,0a4.3,4.3,0,0,1,.982.234c.089.018.158.106.236.16a.314.314,0,0,1-.091.51c-.2.078-.4.163-.59.251a5.573,5.573,0,0,0-.869.366c-.286.195-.653.246-.953.43l-.094.034A.661.661,0,0,0,1343.312,463.005Zm-13.438,11.1c-.02.064-.005.1.07.1l.117.124c-.048.109.029.163.1.227a6.3,6.3,0,0,0,1.155.929,7.075,7.075,0,0,0,1.164.661,18.127,18.127,0,0,0,1.765.618,4.136,4.136,0,0,0,1.126.152c.528-.012.555-.044.555-.565q0-3,0-5.995c0-.309-.08-.363-.37-.257a.457.457,0,0,1-.655-.281,3.4,3.4,0,0,1-.2-.61c-.058-.3.1-.571,0-.851a.124.124,0,0,1,.025-.084,1.338,1.338,0,0,0,.15-.729.743.743,0,0,1,.066-.4.558.558,0,0,0,.046-.459,2.215,2.215,0,0,1-.084-.529.753.753,0,0,0-.348-.556.411.411,0,0,0-.506-.015,1.423,1.423,0,0,0-.429.779.067.067,0,0,0,.039.092q-.011.4-.023.809c-.088-.017-.115.052-.145.109a.548.548,0,0,1-.483.344l-.086-.031c.007-.146-.079-.192-.207-.188l-.034-.076a3.418,3.418,0,0,1,.05-.8.263.263,0,0,1,.026-.034c.094,0,.158-.022.088-.132.009-.088.017-.176.026-.265.082-.062.089-.124,0-.187-.006-.072-.012-.143-.017-.214a.785.785,0,0,0-.4-.7c-.009-.012-.017-.024-.025-.036a.57.57,0,0,0-.444-.27.735.735,0,0,0-.725.678c-.008.556-.011,1.112.007,1.667.006.2-.14.261-.242.344s-.146-.084-.222-.132c-.037-.023-.06-.069-.112-.065q0-.2,0-.406c.02-.02.052-.036.058-.059a5.047,5.047,0,0,0,.159-1.472,1.871,1.871,0,0,0-.223-.774.856.856,0,0,0-.491-.517c-.195-.065-.471.05-.466.233a4.124,4.124,0,0,0-.008.639c-.072.086-.076.164.024.232a.479.479,0,0,1-.1.467c-.208.006-.281.141-.285.32-.007.339,0,.678,0,1.017q0,3.108,0,6.216c0,.105-.065.254.115.3l.014.079c-.042.242.028.357.23.376l.052.094c-.014.08.025.1.093.077Z" transform="translate(-1328.685 -453.648)" fill="#f7bd01"/>
        <path id="Path_3" data-name="Path 3" d="M1342.021,309.735a5.563,5.563,0,0,1,.869-.366c.191-.088.391-.173.59-.251a.314.314,0,0,0,.091-.511c-.078-.054-.146-.143-.235-.16a4.316,4.316,0,0,0-.983-.234c-.4.012-.8.01-1.2,0-.182,0-.264.051-.251.245s0,.392,0,.588a.521.521,0,0,1-.417.533,2.135,2.135,0,0,1-1.5-.014.691.691,0,0,1-.4-.527c0-.121,0-.241,0-.362,0-.3-.028-.333-.341-.328q-1.266.022-2.532.047-1.051.02-2.1.038c-.324.005-.35.027-.352.347,0,.505,0,1.011,0,1.516a.589.589,0,0,1-.525.646,2.026,2.026,0,0,1-1.079.016c-.551-.145-.617-.3-.63-.786-.012-.445,0-.89,0-1.335,0-.268-.036-.317-.3-.3-1.219.064-2.44.042-3.659.09a.851.851,0,0,0-.887.937q0,5.432,0,10.863a1.9,1.9,0,0,0,.421,1.193,5.634,5.634,0,0,0,.981,1.044,10.987,10.987,0,0,0,1,.707c.41.256.849.453,1.264.7a2.28,2.28,0,0,0,.534.208c.331.091.653.212.989.293a6.415,6.415,0,0,0,1.671.177,2.161,2.161,0,0,0,.292-.029c.357-.057.436-.149.436-.519q0-5.228,0-10.456a1.253,1.253,0,0,1,.39-.979,1.9,1.9,0,0,1,.473-.28,1.955,1.955,0,0,1,.4-.149,3.525,3.525,0,0,0,.739-.285c.274-.127.572-.174.847-.306a2.467,2.467,0,0,1,.747-.269,1.827,1.827,0,0,0,.73-.258,6.3,6.3,0,0,1,.739-.25c.131-.064.3-.09.448-.163.063-.032.125-.093.207-.042a.159.159,0,0,1-.137.158c-.24.039-.439.184-.686.226a4.229,4.229,0,0,0-.754.317,1.4,1.4,0,0,1-.286.112,2.455,2.455,0,0,0-.705.266c-.255.128-.533.18-.793.3-.3.133-.612.25-.924.358-.219.076-.431.168-.647.248a1.01,1.01,0,0,0-.347.236.833.833,0,0,0-.228.675q0,4.154,0,8.308c0,.7,0,1.4,0,2.105a.719.719,0,0,1-.638.779,4.568,4.568,0,0,1-1.892-.125c-.606-.1-1.161-.384-1.764-.508a1.8,1.8,0,0,1-.53-.275c-.6-.37-1.141-.838-1.725-1.231a4.209,4.209,0,0,1-1.343-1.66.547.547,0,0,1-.033-.267q0-5.716,0-11.431a.727.727,0,0,1,.428-.651,1.788,1.788,0,0,1,.866-.2c1.142-.062,2.283-.169,3.429-.14.172,0,.219-.072.216-.233-.008-.453,0-.905,0-1.358a5.225,5.225,0,0,1,.4-2.084,6.146,6.146,0,0,1,2.455-2.892,5.2,5.2,0,0,1,3.107-.808,3.833,3.833,0,0,1,1.42.324,4.087,4.087,0,0,1,1.431,1.023,3.848,3.848,0,0,1,.634.893,4.131,4.131,0,0,1,.471,1.461c.063,1.056.016,2.111.035,3.166,0,.259.068.3.333.27a5.1,5.1,0,0,1,1.752.078,1.186,1.186,0,0,1,.744.383.33.33,0,0,1,0,.49,1.7,1.7,0,0,1-.844.485c-.311.116-.617.244-.927.361-.259.1-4.824,1.806-5.077,1.924-.031.014,1.364-.675,2.9-1.311C1340.474,310.254,1341.934,309.794,1342.021,309.735Zm-3.465-3.3h0c0-.438-.012-.875,0-1.312a1.637,1.637,0,0,0-.549-1.26,2.156,2.156,0,0,0-2.315-.37,3.571,3.571,0,0,0-1.589,1.143,3.079,3.079,0,0,0-.692,1.368,12.191,12.191,0,0,0-.069,2.029c0,.279.01.289.3.286.835-.01,1.67-.018,2.505-.082.7-.054,1.415-.048,2.123-.057.213,0,.3-.081.291-.3C1338.549,307.4,1338.556,306.913,1338.556,306.431Z" transform="translate(-1326.053 -300.972)" fill="#f7bd01"/>
        <path id="Path_4" data-name="Path 4" d="M1511.962,560.543c0-.558,0-1.117,0-1.675a1.992,1.992,0,0,1,.056-.378c.055-.307.353-.326.554-.436.345-.189.722-.321,1.086-.476a2.866,2.866,0,0,1,.273-.1,2.7,2.7,0,0,0,.527-.241c.45-.251.939-.428,1.41-.641s.962-.442,1.444-.662c.348-.158.7-.313,1.046-.47.429-.194.857-.393,1.289-.582.376-.164.754-.324,1.135-.474.164-.064.272.04.329.181a.741.741,0,0,1,.037.266c0,.883,0,1.766,0,2.648a.366.366,0,0,1-.188.349c-.526.346-1.1.6-1.643.919-.588.34-1.175.686-1.781.991-.661.333-1.3.7-1.951,1.055-.537.291-1.072.588-1.6.895a8.142,8.142,0,0,1-.969.5c-.237.1-.418.309-.687.363s-.365-.023-.366-.291c0-.581,0-1.162,0-1.743Zm5.062-3.578a.506.506,0,0,0-.331.07,1.465,1.465,0,0,0-.489.709.406.406,0,0,0,.024.412c.26.251.146.508.054.764a.774.774,0,0,0-.066.521c.028.082.068.153.181.091a8.434,8.434,0,0,0,.9-.517.245.245,0,0,0,.1-.346,1.161,1.161,0,0,1-.006-1.157A.37.37,0,0,0,1517.024,556.965Z" transform="translate(-1503.543 -542.913)" fill="#f7bd01"/>
        <path id="Path_5" data-name="Path 5" d="M1511.908,497.106c0-.279-.013-.559,0-.837a.635.635,0,0,1,.407-.627c.571-.245,1.154-.464,1.725-.708.388-.165.8-.3,1.185-.47.55-.234,1.108-.449,1.662-.669a9.48,9.48,0,0,1,1.251-.489,2.905,2.905,0,0,0,.493-.215c.4-.181.822-.319,1.223-.5.308-.142.636-.255.958-.372.15-.055.266.077.27.228.01.558.014,1.116,0,1.674-.005.205-.2.271-.359.334-.58.232-1.138.512-1.709.762-.363.159-.728.32-1.093.476-.522.223-1.029.485-1.556.7-.375.149-.736.329-1.1.5-.52.245-1.058.448-1.572.709-.323.165-.667.3-1.006.44-.133.054-.26.114-.388.176-.231.112-.387.015-.393-.242C1511.9,497.679,1511.909,497.393,1511.908,497.106Z" transform="translate(-1503.489 -483.543)" fill="#f7bd01"/>
        <path id="Path_6" data-name="Path 6" d="M1511.926,651.7a7.666,7.666,0,0,1,.035-1.077.338.338,0,0,1,.193-.25c.391-.217.752-.492,1.154-.683.332-.157.639-.355.968-.515.387-.189.753-.421,1.131-.63.419-.232.846-.45,1.259-.691.321-.187.652-.357.974-.541.276-.158.566-.3.846-.456.437-.244.876-.485,1.318-.719a5.206,5.206,0,0,1,1.118-.559c.114-.029.152.021.153.1,0,.522.022,1.046-.014,1.566-.014.2-.262.274-.424.375-.38.237-.746.5-1.131.724a2.434,2.434,0,0,1-.875.484c-.12.016-.144.162-.244.223-.378.228-.746.471-1.119.706-.581.367-1.163.729-1.742,1.1q-.71.452-1.412.917c-.472.315-.968.591-1.431.92-.139.1-.288.187-.434.278-.174.109-.315.029-.32-.179C1511.92,652.447,1511.926,652.107,1511.926,651.7Z" transform="translate(-1503.506 -629.965)" fill="#f7bd01"/>
        <path id="Path_10" data-name="Path 10" d="M1356.13,571.744c.307.258.6.533.924.772a7.22,7.22,0,0,0,1.649.947,3.567,3.567,0,0,1,.384.182,5.509,5.509,0,0,0,.913.3,4.3,4.3,0,0,0,1.635.256c.171-.01.226-.085.228-.235,0-.045,0-.091,0-.136q0-2.963,0-5.925c0-.053,0-.106,0-.158,0-.036,0-.078-.038-.1s-.062.021-.09.044a.515.515,0,0,1-.63-.021.9.9,0,0,1-.453-.783c0-.074-.067-.115-.1-.173a.769.769,0,0,1,.012-.7.872.872,0,0,0,.094-.359,4.983,4.983,0,0,1,.145-.9,1.494,1.494,0,0,0-.076-1.137.281.281,0,0,1-.033-.13c-.013-.2-.146-.282-.324-.3a.372.372,0,0,0-.376.231c-.089.151-.175.3-.262.456a.067.067,0,0,1-.04-.092,1.424,1.424,0,0,1,.429-.78.411.411,0,0,1,.505.015.753.753,0,0,1,.349.556,2.177,2.177,0,0,0,.083.529.557.557,0,0,1-.046.459.744.744,0,0,0-.066.4,1.337,1.337,0,0,1-.15.729.122.122,0,0,0-.024.084c.1.281-.063.554-.005.851a3.36,3.36,0,0,0,.2.61.458.458,0,0,0,.656.281c.29-.106.369-.052.369.258q0,3,0,5.995c0,.521-.027.553-.555.565a4.154,4.154,0,0,1-1.126-.152,18.21,18.21,0,0,1-1.765-.618,7.1,7.1,0,0,1-1.164-.661,6.326,6.326,0,0,1-1.155-.929C1356.159,571.907,1356.082,571.853,1356.13,571.744Z" transform="translate(-1354.754 -551.062)" fill="#d7a066"/>
        <path id="Path_11" data-name="Path 11" d="M1341.061,565.492a.92.92,0,0,0-.143.632q.005,3.523,0,7.047c0,.057.025.121-.027.171-.181-.042-.115-.191-.116-.3q-.006-3.108,0-6.216c0-.339-.006-.678,0-1.017C1340.78,565.633,1340.853,565.5,1341.061,565.492Z" transform="translate(-1340.1 -553.515)" fill="#d7a066"/>
        <path id="Path_12" data-name="Path 12" d="M1372.117,547.3a.675.675,0,0,1-.277-.081.562.562,0,0,0-.786.532,4.858,4.858,0,0,0,.027,1.167,1.388,1.388,0,0,1-.1.747.278.278,0,0,1-.353.164c-.147-.038-.271-.12-.246-.308.053,0,.076.042.112.065.076.047.122.214.222.132s.248-.149.242-.344c-.017-.555-.015-1.111-.007-1.667a.734.734,0,0,1,.725-.678A.568.568,0,0,1,1372.117,547.3Z" transform="translate(-1368.369 -535.883)" fill="#d7a066"/>
        <path id="Path_13" data-name="Path 13" d="M1350.094,533.247a1.085,1.085,0,0,1,.041-.617,2.574,2.574,0,0,0-.093-1.543.694.694,0,0,0-.466-.524c-.18-.043-.3.054-.446.094-.005-.182.272-.3.466-.233a.857.857,0,0,1,.492.517,1.887,1.887,0,0,1,.222.774,5.047,5.047,0,0,1-.158,1.472C1350.145,533.211,1350.114,533.228,1350.094,533.247Z" transform="translate(-1348.085 -520.018)" fill="#d7a066"/>
        <path id="Path_14" data-name="Path 14" d="M1422.262,601.753a.457.457,0,0,1-.628.453.548.548,0,0,0,.483-.344C1422.147,601.805,1422.174,601.736,1422.262,601.753Z" transform="translate(-1417.307 -588.132)" fill="#d7a066"/>
        <path id="Path_15" data-name="Path 15" d="M1411.4,588.523a.563.563,0,0,1,.05-.8A3.408,3.408,0,0,0,1411.4,588.523Z" transform="translate(-1407.401 -574.743)" fill="#d7a066"/>
        <path id="Path_16" data-name="Path 16" d="M1409.8,554.544a7.085,7.085,0,0,1-.4-.7A.785.785,0,0,1,1409.8,554.544Z" transform="translate(-1405.627 -542.392)" fill="#d7a066"/>
        <path id="Path_17" data-name="Path 17" d="M1343.635,740.609c.079.124.261.185.23.376C1343.664,740.966,1343.594,740.851,1343.635,740.609Z" transform="translate(-1342.829 -720.703)" fill="#d7a066"/>
        <path id="Path_18" data-name="Path 18" d="M1415.359,607.162a.246.246,0,0,1-.207-.188C1415.28,606.97,1415.365,607.016,1415.359,607.162Z" transform="translate(-1411.117 -593.118)" fill="#d7a066"/>
        <path id="Path_19" data-name="Path 19" d="M1347.84,550.072c.082.07.066.149.024.232C1347.764,550.236,1347.768,550.158,1347.84,550.072Z" transform="translate(-1346.803 -538.793)" fill="#d7a066"/>
        <path id="Path_20" data-name="Path 20" d="M1417.8,574.273a.132.132,0,0,1,0-.187C1417.89,574.149,1417.884,574.211,1417.8,574.273Z" transform="translate(-1413.611 -561.72)" fill="#d7a066"/>
        <path id="Path_21" data-name="Path 21" d="M1415.952,584.187c-.023-.079.017-.116.088-.133C1416.11,584.164,1416.046,584.185,1415.952,584.187Z" transform="translate(-1411.875 -571.237)" fill="#d7a066"/>
        <path id="Path_22" data-name="Path 22" d="M1350.058,750.913c.064-.015.095.012.093.077C1350.083,751.009,1350.045,750.993,1350.058,750.913Z" transform="translate(-1348.969 -730.537)" fill="#d7a066"/>
        <path id="Path_23" data-name="Path 23" d="M1352.136,752.828c.068,0,.094.032.07.1C1352.13,752.931,1352.115,752.892,1352.136,752.828Z" transform="translate(-1350.947 -732.369)" fill="#d7a066"/>
        <path id="Path_25" data-name="Path 25" d="M1605.571,611.233a.37.37,0,0,1,.362.546,1.161,1.161,0,0,0,.006,1.157.245.245,0,0,1-.1.346,8.449,8.449,0,0,1-.9.517c-.114.063-.154-.008-.181-.091a.771.771,0,0,1,.065-.521c.092-.256.205-.513-.054-.764a.405.405,0,0,1-.024-.412,1.461,1.461,0,0,1,.489-.708A.5.5,0,0,1,1605.571,611.233Z" transform="translate(-1592.09 -597.182)" fill="#fff"/>
      </g>
      <path id="Path_26" data-name="Path 26" d="M-.991-12.6l6.6,1.988L5.982,1.147,2.308.515l-3.346-2.5Z" transform="translate(1.627 22.349)" fill="#f7bd01"/>
    </g>
  </g>
</svg>
