<svg xmlns="http://www.w3.org/2000/svg" width="39" height="39" viewBox="0 0 39 39">
  <g id="Lock_swap" transform="translate(-8894 -5805)">
    <circle id="Ellipse_92" data-name="Ellipse 92" cx="19.5" cy="19.5" r="19.5" transform="translate(8894 5805)" fill="#f7bd01"/>
    <g id="Iconly_Bold_Lock" data-name="Iconly/Bold/Lock" transform="translate(8904.489 5815.114)">
      <g id="Lock" transform="translate(2.628 1.502)">
        <path id="Lock-2" data-name="Lock" d="M9.736,15H3.264A3.2,3.2,0,0,1,0,11.869v-3.7A3.132,3.132,0,0,1,2.277,5.2V4.047A4.146,4.146,0,0,1,6.489,0a4.308,4.308,0,0,1,3,1.185,3.934,3.934,0,0,1,1.238,2.862V5.2A3.132,3.132,0,0,1,13,8.166v3.7A3.2,3.2,0,0,1,9.736,15ZM6.5,8.538a.663.663,0,0,0-.676.649v1.654a.68.68,0,0,0,1.359,0V9.187A.667.667,0,0,0,6.5,8.538ZM6.5,1.3A2.813,2.813,0,0,0,3.637,4.032v1H9.363V4.047A2.806,2.806,0,0,0,6.5,1.3Z" transform="translate(-0.117 0.384)" fill="#fff"/>
      </g>
    </g>
  </g>
</svg>
