<svg id="Project_Token" xmlns="http://www.w3.org/2000/svg" width="32" height="32" viewBox="0 0 32 32">
  <g id="Paper" transform="translate(4.667 2.667)">
    <path id="Paper-2" data-name="Paper" d="M6.232,26.666A6.264,6.264,0,0,1,0,20.387V6.013A5.991,5.991,0,0,1,5.953,0H13a.611.611,0,0,1,.607.613V4.907A4.454,4.454,0,0,0,18.02,9.36c.564,0,1.058,0,1.5.008.342,0,.641,0,.906,0,.188,0,.431,0,.695-.006.3,0,.648-.007.955-.007a.6.6,0,0,1,.594.6V20.68a5.964,5.964,0,0,1-5.928,5.987Zm.013-8.479a1.008,1.008,0,0,0,.99,1h7.181a1.008,1.008,0,0,0,.99-1,.99.99,0,0,0-.99-.988H7.235A.99.99,0,0,0,6.245,18.187Zm0-6.654a.989.989,0,0,0,.99.986H11.7a.989.989,0,0,0,.99-.986,1.008,1.008,0,0,0-.99-1H7.235A1.008,1.008,0,0,0,6.245,11.533ZM18.2,7.412a2.69,2.69,0,0,1-2.663-2.689V1.208A.631.631,0,0,1,16.62.763c1.427,1.5,3.92,4.118,5.315,5.582a.636.636,0,0,1-.454,1.075l-.922,0C19.724,7.423,18.866,7.419,18.2,7.412Z" transform="translate(0)" fill="#f7bd01"/>
  </g>
</svg>
