<svg xmlns="http://www.w3.org/2000/svg" width="30" height="30" viewBox="0 0 30 30">
  <g id="Telegram" transform="translate(0 0)">
    <path id="Path_8470" data-name="Path 8470" d="M9.788,31.077a15,15,0,1,0,0-21.213A15,15,0,0,0,9.788,31.077Z" transform="translate(-5.394 -5.47)" fill="#f7bd01"/>
    <path id="Path_8471" data-name="Path 8471" d="M26.808,12.664,24.129,26.172a.992.992,0,0,1-1.405.487l-6.182-4.74-2.248-1.087-3.784-1.274s-.581-.206-.637-.656.656-.693.656-.693l15.044-5.9s1.237-.543,1.237.356" transform="translate(-4.463 -4.081)" fill="#fff"/>
    <path id="Path_8472" data-name="Path 8472" d="M15.3,25.543s-.18-.017-.406-.729-1.368-4.459-1.368-4.459l9.086-5.77s.525-.319.506,0c0,0,.094.056-.187.318S15.8,21.329,15.8,21.329" transform="translate(-3.701 -3.603)" fill="#e4e4e4"/>
    <path id="Path_8473" data-name="Path 8473" d="M17.845,22.06,15.4,24.29a.428.428,0,0,1-.4.054l.468-4.141" transform="translate(-3.396 -2.405)" fill="#e4e4e4"/>
  </g>
</svg>
